<svg width="116" height="117" viewBox="0 0 116 117" fill="none" xmlns="http://www.w3.org/2000/svg">
<circle cx="58.6347" cy="58.6347" r="54.7797" fill="#82B3FF"/>
<path d="M113.267 60.3192L110.776 60.1008L113.267 60.3192ZM113.195 61.4418L115.694 61.5398L113.195 61.4418ZM113.151 62.5641L110.653 62.4662L113.151 62.5641ZM113.031 63.6787L110.57 63.2421L113.031 63.6787ZM112.933 64.2321L115.395 64.6686L112.933 64.2321ZM112.835 64.7855L110.373 64.349L112.835 64.7855ZM112.833 65.9216L110.366 66.3279L112.833 65.9216ZM113.025 67.087L115.491 66.6808L113.025 67.087ZM112.778 68.1773L114.85 69.5763L112.778 68.1773ZM112.092 69.1925L110.021 67.7935L112.092 69.1925ZM111.847 70.2988L109.38 70.7012L111.847 70.2988ZM111.945 70.8976L114.412 70.4951L111.945 70.8976ZM112.043 71.4963L114.51 71.0938L112.043 71.4963ZM111.8 72.5851L109.747 71.1579L111.8 72.5851ZM111.118 73.5652L113.171 74.9924L111.118 73.5652ZM110.742 74.6328L108.247 74.4797L110.742 74.6328ZM110.671 75.7879L113.166 75.941L110.671 75.7879ZM110.3 76.8401L112.342 78.2829L110.3 76.8401ZM109.629 77.7894L107.588 76.3466L109.629 77.7894ZM108.747 79.8502L106.384 79.0355L108.747 79.8502ZM108.294 80.8682L110.48 82.0807L108.294 80.8682ZM108.022 81.3576L110.209 82.5701L108.022 81.3576ZM107.751 81.847L105.564 80.6346L107.751 81.847ZM107.475 82.9671L109.975 82.9828L107.475 82.9671ZM107.472 83.5978L104.972 83.5822L107.472 83.5978ZM107.468 84.2285L104.968 84.2128L107.468 84.2285ZM107.026 85.2613L105.334 83.4206L107.026 85.2613ZM106.151 86.0656L107.843 87.9063L106.151 86.0656ZM105.459 86.9718L103.227 85.845L105.459 86.9718ZM105.204 87.4759L102.973 86.3491L105.204 87.4759ZM104.95 87.98L107.181 89.1068L104.95 87.98ZM104.322 88.9101L102.442 87.2627L104.322 88.9101ZM103.576 89.7621L105.456 91.4095L103.576 89.7621ZM102.02 92.8252L104.007 94.342L102.02 92.8252ZM101.676 93.2764L99.6883 91.7596L101.676 93.2764ZM101.331 93.7276L103.319 95.2444L101.331 93.7276ZM100.396 94.4083L101.302 96.7384L100.396 94.4083ZM99.2153 94.8674L98.3096 92.5373L99.2153 94.8674ZM98.4392 95.6951L96.0515 94.9542L98.4392 95.6951ZM97.4527 97.86L99.0855 99.7532L97.4527 97.86ZM96.5935 98.6011L98.2262 100.494L96.5935 98.6011ZM95.7196 99.3224L94.1701 97.3606L95.7196 99.3224ZM94.8312 100.024L93.2817 98.0622L94.8312 100.024ZM93.9333 100.711L95.4203 102.72L93.9333 100.711ZM93.4795 101.046L94.9666 103.056L93.4795 101.046ZM93.0258 101.382L91.5387 99.3725L93.0258 101.382ZM92.0159 101.91L91.2 99.5468L92.0159 101.91ZM90.9036 102.294L90.0878 99.9308L90.9036 102.294ZM89.8983 102.814L91.3718 104.833L89.8983 102.814ZM88.9997 103.469L87.5262 101.45L88.9997 103.469ZM88.2188 104.323L90.3335 105.657L88.2188 104.323ZM87.5556 105.375L89.6702 106.708L87.5556 105.375ZM86.7506 106.216L85.3633 104.137L86.7506 106.216ZM86.2773 106.532L87.6647 108.612L86.2773 106.532ZM85.804 106.848L84.4166 104.768L85.804 106.848ZM84.7678 107.309L84.144 104.888L84.7678 107.309ZM84.2049 107.454L84.8287 109.875L84.2049 107.454ZM83.642 107.599L84.2659 110.02L83.642 107.599ZM82.5811 108.009L83.7558 110.216L82.5811 108.009ZM82.083 108.274L83.2577 110.481L82.083 108.274ZM81.5849 108.539L82.7596 110.746L81.5849 108.539ZM80.5291 108.929L81.0732 111.369L80.5291 108.929ZM79.9713 109.053L79.4271 106.613L79.9713 109.053ZM79.4135 109.177L78.8693 106.737L79.4135 109.177ZM78.3866 109.655L76.8825 107.658L78.3866 109.655ZM77.4482 110.362L78.9523 112.359L77.4482 110.362ZM76.3792 110.693L76.473 108.195L76.3792 110.693ZM74.0955 110.98L75.5718 112.997L74.0955 110.98ZM73.6113 111.334L72.1349 109.316L73.6113 111.334ZM73.127 111.688L71.6507 109.671L73.127 111.688ZM72.0458 111.963L71.7169 114.442L72.0458 111.963ZM70.8518 111.805L70.5229 114.283L70.8518 111.805ZM69.736 111.996L70.8899 114.213L69.736 111.996ZM68.6983 112.536L67.5443 110.318L68.6983 112.536ZM67.6277 112.94L68.2188 115.369L67.6277 112.94ZM66.5244 113.208L65.9333 110.779L66.5244 113.208ZM65.4007 113.312L65.2674 115.808L65.4007 113.312ZM64.2568 113.251L64.3902 110.754L64.2568 113.251ZM63.1143 113.089L62.5527 115.525L63.1143 113.089ZM61.973 112.826L61.4114 115.262L61.973 112.826ZM60.8495 112.941L59.8314 110.657L60.8495 112.941ZM60.2967 113.187L61.3148 115.471L60.2967 113.187ZM59.7439 113.434L58.7258 111.15L59.7439 113.434ZM58.6215 113.767L58.9964 116.238L58.6215 113.767ZM57.4823 113.939L57.1074 111.468L57.4823 113.939ZM56.3663 113.692L57.6703 111.559L56.3663 113.692ZM54.1409 112.925L55.0736 115.245L54.1409 112.925ZM52.9687 113.397L52.036 111.077L52.9687 113.397ZM51.8668 113.252L50.3822 115.263L51.8668 113.252ZM51.3511 112.871L49.8664 114.882L51.3511 112.871ZM50.8353 112.49L52.32 110.479L50.8353 112.49ZM49.7388 112.182L49.4281 109.702L49.7388 112.182ZM48.5774 112.328L48.888 114.808L48.5774 112.328ZM47.4187 112.397L47.4039 114.897L47.4187 112.397ZM46.8408 112.394L46.8556 109.894L46.8408 112.394ZM46.2629 112.39L46.2776 109.89L46.2629 112.39ZM45.1325 112.255L44.5505 114.686L45.1325 112.255ZM44.5801 112.122L43.9981 114.554L44.5801 112.122ZM44.0276 111.99L44.6096 109.559L44.0276 111.99ZM42.9682 111.582L41.7724 113.777L42.9682 111.582ZM41.9543 111.029L43.1501 108.834L41.9543 111.029ZM40.9582 110.454L39.6535 112.587L40.9582 110.454ZM39.9801 109.856L41.2849 107.723L39.9801 109.856ZM38.9129 109.49L38.6285 111.974L38.9129 109.49ZM38.3347 109.424L38.619 106.94L38.3347 109.424ZM37.7565 109.358L38.0408 106.874L37.7565 109.358ZM35.7245 108.403L37.0285 106.27L35.7245 108.403ZM34.7346 107.86L35.8288 105.613L34.7346 107.86ZM34.2292 107.614L33.135 109.862L34.2292 107.614ZM33.7239 107.368L32.6297 109.616L33.7239 107.368ZM32.7399 106.828L34.0509 104.699L32.7399 106.828ZM32.2613 106.533L33.5722 104.404L32.2613 106.533ZM31.7826 106.238L30.4717 108.367L31.7826 106.238ZM30.7964 105.697L31.8895 103.448L30.7964 105.697ZM29.7812 105.203L28.6881 107.451L29.7812 105.203ZM28.8254 104.615L27.3106 106.604L28.8254 104.615ZM28.3771 104.273L29.8919 102.285L28.3771 104.273ZM27.9289 103.932L26.4141 105.921L27.9289 103.932ZM27.0351 103.249L28.5563 101.265L27.0351 103.249ZM26.144 102.566L24.6228 104.55L26.144 102.566ZM25.2277 101.914L26.6045 99.8269L25.2277 101.914ZM24.2862 101.292L22.9094 103.379L24.2862 101.292ZM23.1233 100.067L25.1169 98.5586L23.1233 100.067ZM22.7772 99.6097L20.7836 101.118L22.7772 99.6097ZM22.0141 98.7811L23.6764 96.9138L22.0141 98.7811ZM21.597 98.4098L19.9347 100.277L21.597 98.4098ZM21.18 98.0386L22.8423 96.1713L21.18 98.0386ZM20.3537 97.2859L22.0583 95.4571L20.3537 97.2859ZM19.5353 96.5231L17.8308 98.3519L19.5353 96.5231ZM18.6952 95.7755L17.0764 97.6806L18.6952 95.7755ZM18.2644 95.4094L16.6455 97.3144L18.2644 95.4094ZM17.8335 95.0433L19.4524 93.1382L17.8335 95.0433ZM17.027 94.2578L15.1649 95.926L17.027 94.2578ZM16.2756 93.4191L18.1377 91.7509L16.2756 93.4191ZM15.5834 92.5336L13.5151 93.938L15.5834 92.5336ZM14.9504 91.6013L12.8821 93.0057L14.9504 91.6013ZM14.4053 90.6117L12.1142 91.6122L14.4053 90.6117ZM13.948 89.5646L16.239 88.5641L13.948 89.5646ZM13.1526 88.7375L14.3331 86.5338L13.1526 88.7375ZM12.019 88.1302L10.8385 90.334L12.019 88.1302ZM11.2546 87.2842L13.6036 86.4285L11.2546 87.2842ZM11.057 86.7418L8.70802 87.5975L11.057 86.7418ZM10.8594 86.1994L8.51044 87.0551L10.8594 86.1994ZM10.4642 84.4887L12.9291 84.0716L10.4642 84.4887ZM10.3653 83.9045L7.90036 84.3216L10.3653 83.9045ZM9.87736 82.886L8.01515 84.5539L9.87736 82.886ZM9.09913 82.0171L10.9613 80.3491L9.09913 82.0171ZM8.61935 81.0101L6.15011 81.4011L8.61935 81.0101ZM8.52868 80.4375L10.9979 80.0465L8.52868 80.4375ZM8.43801 79.865L10.9072 79.474L8.43801 79.865ZM8.14834 78.7709L5.81262 79.6622L8.14834 78.7709ZM7.94934 78.2494L10.2851 77.3581L7.94934 78.2494ZM7.75034 77.7279L5.41461 78.6191L7.75034 77.7279ZM7.26447 76.7122L9.42649 75.457L7.26447 76.7122ZM6.08147 74.735L3.98672 76.0996L6.08147 74.735ZM5.43666 73.7452L7.53141 72.3806L5.43666 73.7452ZM5.20586 72.6454L2.73404 72.2711L5.20586 72.6454ZM5.38906 71.4355L7.86088 71.8098L5.38906 71.4355ZM5.34215 70.287L2.91956 70.9043L5.34215 70.287ZM5.06514 69.1999L7.48773 68.5826L5.06514 69.1999ZM4.86545 68.0984L2.38035 68.3709L4.86545 68.0984ZM4.43365 65.8868L6.70346 64.839L4.43365 65.8868ZM4.18541 65.3491L1.9156 66.3969L4.18541 65.3491ZM3.93717 64.8114L1.66736 65.8592L3.93717 64.8114ZM3.79674 61.4348L1.30433 61.2401L3.79674 61.4348ZM3.885 60.3047L6.37741 60.4993L3.885 60.3047ZM3.75253 59.1722L1.36546 59.9151L3.75253 59.1722ZM3.57593 58.6047L5.963 57.8618L3.57593 58.6047ZM3.39933 58.0373L1.01227 58.7802L3.39933 58.0373ZM3.2882 56.9043L0.804786 56.6168L3.2882 56.9043ZM3.41915 55.773L0.935727 55.4856L3.41915 55.773ZM3.81131 54.1015L6.20889 54.8098L3.81131 54.1015ZM3.97466 53.5486L1.57709 52.8403L3.97466 53.5486ZM4.08384 52.4192L1.5948 52.6531L4.08384 52.4192ZM3.9755 51.2663L6.46453 51.0324L3.9755 51.2663ZM4.07258 50.1406L1.66229 49.4769L4.07258 50.1406ZM4.59557 47.9287L2.1142 47.6241L4.59557 47.9287ZM4.73401 46.801L7.21538 47.1056L4.73401 46.801ZM5.19143 45.7556L3.2451 44.1865L5.19143 45.7556ZM5.57963 45.274L7.52597 46.843L5.57963 45.274ZM5.96784 44.7924L4.02151 43.2234L5.96784 44.7924ZM6.3053 43.7111L3.8142 43.9219L6.3053 43.7111ZM6.45446 41.4202L4.32303 40.1137L6.45446 41.4202ZM7.05727 40.4368L9.1887 41.7433L7.05727 40.4368ZM7.35301 38.1246L4.85302 38.1324L7.35301 38.1246ZM8.35374 36.7263L9.90271 38.6886L8.35374 36.7263ZM8.85505 36.3306L7.30608 34.3683L8.85505 36.3306ZM9.411 35.3372L6.92138 35.1096L9.411 35.3372ZM9.52027 34.1418L12.0099 34.3694L9.52027 34.1418ZM9.99231 32.4807L7.66517 31.5673L9.99231 32.4807ZM10.201 31.949L12.5282 32.8625L10.201 31.949ZM10.7511 30.9603L12.7541 32.4563L10.7511 30.9603ZM11.4337 30.0463L9.43073 28.5503L11.4337 30.0463ZM13.3173 28.5848L11.9529 26.49L13.3173 28.5848ZM14.1124 27.7666L16.2736 29.0233L14.1124 27.7666ZM14.6746 26.7998L12.5135 25.5431L14.6746 26.7998ZM15.0847 25.7038L17.5311 26.2187L15.0847 25.7038ZM15.2137 25.0911L17.66 25.6061L15.2137 25.0911ZM15.3426 24.4785L12.8963 23.9635L15.3426 24.4785ZM16.0122 23.5831L14.8537 21.3677L16.0122 23.5831ZM16.5529 23.3003L17.7114 25.5157L16.5529 23.3003ZM17.0935 23.0176L18.2521 25.2329L17.0935 23.0176ZM18.0102 22.3205L19.8614 24.0007L18.0102 22.3205ZM18.3863 21.9061L16.5352 20.2259L18.3863 21.9061ZM18.7625 21.4917L16.9113 19.8115L18.7625 21.4917ZM19.5108 20.6574L21.3816 22.3158L19.5108 20.6574ZM19.8831 20.2375L21.7538 21.8959L19.8831 20.2375ZM20.2553 19.8176L18.3845 18.1592L20.2553 19.8176ZM20.9754 18.9452L18.9933 17.4215L20.9754 18.9452ZM21.6711 18.0402L23.6531 19.5639L21.6711 18.0402ZM22.4044 17.1673L24.247 18.857L22.4044 17.1673ZM22.7898 16.747L24.6325 18.4366L22.7898 16.747ZM23.1753 16.3266L25.0179 18.0162L23.1753 16.3266ZM24.0484 15.6102L22.751 13.4732L24.0484 15.6102ZM25.0236 15.0182L26.3209 17.1553L25.0236 15.0182ZM25.9912 14.4237L27.3114 16.5467L25.9912 14.4237ZM26.9513 13.8266L25.6311 11.7037L26.9513 13.8266ZM27.9787 13.3401L27.1668 10.9756L27.9787 13.3401ZM28.5262 13.1522L27.7143 10.7877L28.5262 13.1522ZM29.0736 12.9642L29.8855 15.3287L29.0736 12.9642ZM30.0467 12.3996L28.3902 10.5272L30.0467 12.3996ZM30.8981 11.6465L32.5545 13.5189L30.8981 11.6465ZM32.1797 10.4851L33.8692 12.3279L32.1797 10.4851ZM32.6077 10.0928L30.9182 8.25003L32.6077 10.0928ZM33.6282 9.6274L33.9339 12.1086L33.6282 9.6274ZM34.8134 9.4814L34.5077 7.00016L34.8134 9.4814ZM35.8557 9.03717L34.2642 7.10919L35.8557 9.03717ZM36.3054 8.66594L37.8969 10.5939L36.3054 8.66594ZM36.7551 8.29471L35.1636 6.36673L36.7551 8.29471ZM37.7976 7.89531L37.9163 10.3925L37.7976 7.89531ZM38.3903 7.86714L38.2717 5.36996L38.3903 7.86714ZM38.9831 7.83897L39.1018 10.3361L38.9831 7.83897ZM40.9202 6.55034L42.6301 8.37407L40.9202 6.55034ZM45.2571 5.30042L43.9316 3.1807L45.2571 5.30042ZM46.3081 4.85387L46.8985 7.28315L46.3081 4.85387ZM46.8591 4.71995L46.2687 2.29067L46.8591 4.71995ZM47.4101 4.58604L46.8196 2.15676L47.4101 4.58604ZM48.5305 4.42369L48.4058 1.9268L48.5305 4.42369ZM50.8131 4.40185L51.0879 1.91699L50.8131 4.40185ZM53.0877 4.49157L52.6391 2.03216L53.0877 4.49157ZM54.1922 4.2901L54.6408 6.74952L54.1922 4.2901ZM55.3009 4.05204L55.8999 6.47923L55.3009 4.05204ZM55.8574 3.91473L55.2584 1.48754L55.8574 3.91473ZM62.0484 3.71006L63.3917 1.60158L62.0484 3.71006ZM63.1272 4.39727L61.7839 6.50575L63.1272 4.39727ZM64.2345 4.68778L64.4672 7.17693L64.2345 4.68778ZM65.3703 4.58159L65.1376 2.09244L65.3703 4.58159ZM66.4968 4.58781L66.2328 7.07383L66.4968 4.58781ZM67.614 4.70645L67.35 7.19247L67.614 4.70645ZM68.7005 4.97913L69.6372 2.66124L68.7005 4.97913ZM69.2285 5.19248L68.2918 7.51037L69.2285 5.19248ZM69.7564 5.40584L68.8197 7.72372L69.7564 5.40584ZM71.3509 5.94238L70.6259 8.33495L71.3509 5.94238ZM71.8842 6.10398L72.6092 3.71141L71.8842 6.10398ZM72.9694 6.36146L72.5414 8.82456L72.9694 6.36146ZM75.2031 6.68916L75.3758 4.19513L75.2031 6.68916ZM75.7811 6.72919L75.6084 9.22322L75.7811 6.72919ZM77.4757 6.9823L78.2406 4.6022L77.4757 6.9823ZM78.5525 7.3284L77.7876 9.70849L78.5525 7.3284ZM80.7668 7.90899L80.1761 10.3382L80.7668 7.90899ZM81.7754 8.4174L80.1809 10.3429L81.7754 8.4174ZM82.2253 8.78997L83.8198 6.86442L82.2253 8.78997ZM82.6753 9.16254L84.2697 7.23699L82.6753 9.16254ZM83.5878 9.86218L85.0311 7.82086L83.5878 9.86218ZM84.0504 10.1893L82.6071 12.2306L84.0504 10.1893ZM84.513 10.5163L83.0697 12.5576L84.513 10.5163ZM85.5578 10.9636L86.0635 8.51531L85.5578 10.9636ZM86.7222 11.2041L86.2165 13.6525L86.7222 11.2041ZM87.7982 11.6074L89.0412 9.43824L87.7982 11.6074ZM88.7859 12.1733L87.543 14.3425L88.7859 12.1733ZM89.5953 12.9901L87.4433 14.2624L89.5953 12.9901ZM91.059 14.8379L92.1344 12.581L91.059 14.8379ZM91.5759 15.0842L90.5005 17.3411L91.5759 15.0842ZM92.0928 15.3305L93.1683 13.0737L92.0928 15.3305ZM93.0363 15.9444L94.6682 14.0505L93.0363 15.9444ZM93.8894 16.6795L92.2574 18.5734L93.8894 16.6795ZM94.7506 17.4056L96.3416 15.4772L94.7506 17.4056ZM95.1853 17.7643L96.7763 15.8358L95.1853 17.7643ZM95.6201 18.1229L94.0291 20.0514L95.6201 18.1229ZM96.4274 18.9055L94.5497 20.5559L96.4274 18.9055ZM96.8 19.3294L94.9223 20.9799L96.8 19.3294ZM97.1727 19.7534L99.0504 18.1029L97.1727 19.7534ZM97.8846 20.628L99.8818 19.1242L97.8846 20.628ZM98.5633 21.5293L96.5662 23.0331L98.5633 21.5293ZM99.3814 22.308L97.9683 24.3703L99.3814 22.308ZM99.8602 22.6361L98.4471 24.6984L99.8602 22.6361ZM100.339 22.9641L101.752 20.9018L100.339 22.9641ZM101.174 23.7308L103.114 22.1544L101.174 23.7308ZM101.887 24.608L103.827 23.0316L101.887 24.608ZM102.639 25.4584L104.441 23.7253L102.639 25.4584ZM103.431 26.2821L101.63 28.0151L103.431 26.2821ZM104.151 27.1614L102.094 28.5828L104.151 27.1614ZM104.797 28.0965L106.854 26.6751L104.797 28.0965ZM105.216 29.1676L107.685 28.7751L105.216 29.1676ZM105.312 29.7711L102.843 30.1635L105.312 29.7711ZM105.408 30.3746L102.939 30.7671L105.408 30.3746ZM105.99 31.3511L104.469 33.3351L105.99 31.3511ZM106.963 32.0969L108.484 30.113L106.963 32.0969ZM107.469 33.0921L109.968 33.012L107.469 33.0921ZM107.509 34.3366L105.01 34.4167L107.509 34.3366ZM107.774 35.4603L110.02 34.3639L107.774 35.4603ZM108.018 35.9617L110.265 34.8653L108.018 35.9617ZM108.263 36.4632L106.016 37.5595L108.263 36.4632ZM108.959 37.3882L110.67 35.5647L108.959 37.3882ZM109.863 38.2353L108.152 40.0587L109.863 38.2353ZM110.306 39.2622L107.806 39.2285L110.306 39.2622ZM110.29 40.469L112.789 40.5027L110.29 40.469ZM110.427 41.6132L112.841 40.9644L110.427 41.6132ZM111.15 43.7403L113.323 42.5049L111.15 43.7403ZM111.436 44.2448L113.61 43.0094L111.436 44.2448ZM111.723 44.7493L109.55 45.9847L111.723 44.7493ZM112.239 45.7836L109.943 46.7744L112.239 45.7836ZM112.696 46.8431L114.991 45.8523L112.696 46.8431ZM112.718 47.983L115.085 48.7864L112.718 47.983ZM112.51 48.5933L110.143 47.79L112.51 48.5933ZM112.303 49.2035L109.936 48.4002L112.303 49.2035ZM112.174 50.3643L109.699 50.7155L112.174 50.3643ZM112.253 50.9148L114.728 50.5636L112.253 50.9148ZM112.463 52.5694L109.975 52.8131L112.463 52.5694ZM112.517 53.1229L110.029 53.3666L112.517 53.1229ZM112.571 53.6765L115.06 53.4327L112.571 53.6765ZM112.691 54.7842L110.208 55.0752L112.691 54.7842ZM112.821 55.8927L115.304 55.6017L112.821 55.8927ZM112.869 56.9938L115.368 57.0691L112.869 56.9938ZM112.853 57.5408L110.354 57.4655L112.853 57.5408ZM112.836 58.0877L110.337 58.0124L112.836 58.0877ZM113.316 59.7577L110.825 59.5393L110.776 60.1008L113.267 60.3192L115.757 60.5376L115.806 59.9761L113.316 59.7577ZM113.267 60.3192L110.776 60.1008C110.74 60.5151 110.714 60.9295 110.697 61.3439L113.195 61.4418L115.694 61.5398C115.707 61.2061 115.728 60.872 115.757 60.5376L113.267 60.3192ZM113.195 61.4418L110.697 61.3439L110.675 61.905L113.173 62.003L115.672 62.1009L115.694 61.5398L113.195 61.4418ZM113.173 62.003L110.675 61.905L110.653 62.4662L113.151 62.5641L115.65 62.6621L115.672 62.1009L113.173 62.003ZM113.151 62.5641L110.653 62.4662C110.643 62.7266 110.615 62.985 110.57 63.2421L113.031 63.6787L115.493 64.1152C115.578 63.6345 115.63 63.1498 115.65 62.6621L113.151 62.5641ZM113.031 63.6787L110.57 63.2421L110.472 63.7955L112.933 64.2321L115.395 64.6686L115.493 64.1152L113.031 63.6787ZM112.933 64.2321L110.472 63.7955L110.373 64.349L112.835 64.7855L115.297 65.2221L115.395 64.6686L112.933 64.2321ZM112.835 64.7855L110.373 64.349C110.256 65.0104 110.258 65.6745 110.366 66.3279L112.833 65.9216L115.3 65.5154C115.279 65.3919 115.283 65.2985 115.297 65.2221L112.835 64.7855ZM112.833 65.9216L110.366 66.3279L110.462 66.9106L112.929 66.5043L115.396 66.0981L115.3 65.5154L112.833 65.9216ZM112.929 66.5043L110.462 66.9106L110.558 67.4933L113.025 67.087L115.491 66.6808L115.396 66.0981L112.929 66.5043ZM113.025 67.087L110.558 67.4933C110.541 67.3875 110.539 67.2494 110.573 67.0991C110.606 66.9504 110.663 66.8416 110.706 66.7783L112.778 68.1773L114.85 69.5763C115.421 68.7304 115.663 67.7247 115.491 66.6808L113.025 67.087ZM112.778 68.1773L110.706 66.7783L110.363 67.2859L112.435 68.6849L114.507 70.0839L114.85 69.5763L112.778 68.1773ZM112.435 68.6849L110.363 67.2859L110.021 67.7935L112.092 69.1925L114.164 70.5915L114.507 70.0839L112.435 68.6849ZM112.092 69.1925L110.021 67.7935C109.439 68.6544 109.211 69.6665 109.38 70.7012L111.847 70.2988L114.315 69.8964C114.33 69.9876 114.333 70.1167 114.301 70.2635C114.268 70.4099 114.212 70.5215 114.164 70.5915L112.092 69.1925ZM111.847 70.2988L109.38 70.7012L109.478 71.3L111.945 70.8976L114.412 70.4951L114.315 69.8964L111.847 70.2988ZM111.945 70.8976L109.478 71.3L109.575 71.8987L112.043 71.4963L114.51 71.0938L114.412 70.4951L111.945 70.8976ZM112.043 71.4963L109.575 71.8987C109.561 71.8114 109.556 71.679 109.591 71.5231C109.626 71.3664 109.689 71.2419 109.747 71.1579L111.8 72.5851L113.852 74.0123C114.457 73.143 114.678 72.1219 114.51 71.0938L112.043 71.4963ZM111.8 72.5851L109.747 71.1579L109.406 71.6479L111.459 73.0751L113.511 74.5024L113.852 74.0123L111.8 72.5851ZM111.459 73.0751L109.406 71.6479L109.066 72.138L111.118 73.5652L113.171 74.9924L113.511 74.5024L111.459 73.0751ZM111.118 73.5652L109.066 72.138C108.586 72.8284 108.299 73.6225 108.247 74.4797L110.742 74.6328L113.237 74.7859C113.235 74.8194 113.228 74.8626 113.212 74.908C113.196 74.9529 113.178 74.9817 113.171 74.9924L111.118 73.5652ZM110.742 74.6328L108.247 74.4797L108.211 75.0573L110.707 75.2103L113.202 75.3634L113.237 74.7859L110.742 74.6328ZM110.707 75.2103L108.211 75.0573L108.176 75.6348L110.671 75.7879L113.166 75.941L113.202 75.3634L110.707 75.2103ZM110.671 75.7879L108.176 75.6348C108.178 75.6047 108.185 75.5598 108.203 75.5086C108.221 75.4575 108.243 75.4195 108.259 75.3973L110.3 76.8401L112.342 78.2829C112.832 77.5888 113.114 76.7919 113.166 75.941L110.671 75.7879ZM110.3 76.8401L108.259 75.3973L107.923 75.8719L109.965 77.3147L112.006 78.7575L112.342 78.2829L110.3 76.8401ZM109.965 77.3147L107.923 75.8719L107.588 76.3466L109.629 77.7894L111.671 79.2322L112.006 78.7575L109.965 77.3147ZM109.629 77.7894L107.588 76.3466C107.233 76.8485 106.95 77.3934 106.748 77.9781L109.112 78.7928L111.475 79.6074C111.517 79.4872 111.578 79.3632 111.671 79.2322L109.629 77.7894ZM109.112 78.7928L106.748 77.9781L106.566 78.5068L108.929 79.3215L111.293 80.1361L111.475 79.6074L109.112 78.7928ZM108.929 79.3215L106.566 78.5068L106.384 79.0355L108.747 79.8502L111.111 80.6648L111.293 80.1361L108.929 79.3215ZM108.747 79.8502L106.384 79.0355C106.31 79.2504 106.218 79.4567 106.107 79.6558L108.294 80.8682L110.48 82.0807C110.731 81.6273 110.942 81.1548 111.111 80.6648L108.747 79.8502ZM108.294 80.8682L106.107 79.6558L105.836 80.1452L108.022 81.3576L110.209 82.5701L110.48 82.0807L108.294 80.8682ZM108.022 81.3576L105.836 80.1452L105.564 80.6346L107.751 81.847L109.937 83.0594L110.209 82.5701L108.022 81.3576ZM107.751 81.847L105.564 80.6346C105.156 81.3717 104.98 82.1661 104.976 82.9515L107.475 82.9671L109.975 82.9828C109.976 82.9503 109.979 82.9482 109.974 82.9685C109.969 82.9902 109.957 83.0231 109.937 83.0594L107.751 81.847ZM107.475 82.9671L104.976 82.9515L104.972 83.5822L107.472 83.5978L109.971 83.6135L109.975 82.9828L107.475 82.9671ZM107.472 83.5978L104.972 83.5822L104.968 84.2128L107.468 84.2285L109.968 84.2442L109.971 83.6135L107.472 83.5978ZM107.468 84.2285L104.968 84.2128C104.968 84.1314 104.984 83.9884 105.056 83.8194C105.13 83.6469 105.235 83.5121 105.334 83.4206L107.026 85.2613L108.718 87.1021C109.555 86.3329 109.961 85.3111 109.968 84.2442L107.468 84.2285ZM107.026 85.2613L105.334 83.4206L104.897 83.8227L106.588 85.6634L108.28 87.5042L108.718 87.1021L107.026 85.2613ZM106.588 85.6634L104.897 83.8227L104.459 84.2248L106.151 86.0656L107.843 87.9063L108.28 87.5042L106.588 85.6634ZM106.151 86.0656L104.459 84.2248C103.958 84.6857 103.539 85.2265 103.227 85.845L105.459 86.9718L107.69 88.0986C107.718 88.0449 107.761 87.9816 107.843 87.9063L106.151 86.0656ZM105.459 86.9718L103.227 85.845L102.973 86.3491L105.204 87.4759L107.436 88.6027L107.69 88.0986L105.459 86.9718ZM105.204 87.4759L102.973 86.3491L102.718 86.8532L104.95 87.98L107.181 89.1068L107.436 88.6027L105.204 87.4759ZM104.95 87.98L102.718 86.8532C102.643 87.0011 102.552 87.1363 102.442 87.2627L104.322 88.9101L106.202 90.5575C106.589 90.1159 106.917 89.631 107.181 89.1068L104.95 87.98ZM104.322 88.9101L102.442 87.2627L102.068 87.6887L103.949 89.3361L105.829 90.9835L106.202 90.5575L104.322 88.9101ZM103.949 89.3361L102.068 87.6887L101.695 88.1147L103.576 89.7621L105.456 91.4095L105.829 90.9835L103.949 89.3361ZM103.576 89.7621L101.695 88.1147C101.245 88.6282 100.9 89.209 100.659 89.8397L102.993 90.7346L105.327 91.6295C105.365 91.5315 105.408 91.4641 105.456 91.4095L103.576 89.7621ZM102.993 90.7346L100.659 89.8397L100.449 90.3862L102.783 91.2811L105.118 92.176L105.327 91.6295L102.993 90.7346ZM102.783 91.2811L100.449 90.3862L100.239 90.9327L102.574 91.8276L104.908 92.7225L105.118 92.176L102.783 91.2811ZM102.574 91.8276L100.239 90.9327C100.183 91.0812 100.113 91.2032 100.033 91.3084L102.02 92.8252L104.007 94.342C104.386 93.8457 104.686 93.3026 104.908 92.7225L102.574 91.8276ZM102.02 92.8252L100.033 91.3084L99.6883 91.7596L101.676 93.2764L103.663 94.7932L104.007 94.342L102.02 92.8252ZM101.676 93.2764L99.6883 91.7596L99.3439 92.2108L101.331 93.7276L103.319 95.2444L103.663 94.7932L101.676 93.2764ZM101.331 93.7276L99.3439 92.2108C99.3786 92.1655 99.4179 92.1285 99.4538 92.1023C99.4882 92.0773 99.5053 92.0724 99.4906 92.0782L100.396 94.4083L101.302 96.7384C102.073 96.4388 102.779 95.9519 103.319 95.2444L101.331 93.7276ZM100.396 94.4083L99.4906 92.0782L98.9001 92.3077L99.8058 94.6379L100.712 96.968L101.302 96.7384L100.396 94.4083ZM99.8058 94.6379L98.9001 92.3077L98.3096 92.5373L99.2153 94.8674L100.121 97.1975L100.712 96.968L99.8058 94.6379ZM99.2153 94.8674L98.3096 92.5373C97.2151 92.9627 96.4042 93.8176 96.0515 94.9542L98.4392 95.6951L100.827 96.436C100.788 96.5602 100.705 96.7333 100.55 96.8991C100.395 97.0643 100.232 97.1545 100.121 97.1975L99.2153 94.8674ZM98.4392 95.6951L96.0515 94.9542L95.8659 95.5523L98.2536 96.2932L100.641 97.0341L100.827 96.436L98.4392 95.6951ZM98.2536 96.2932L95.8659 95.5523L95.6803 96.1504L98.068 96.8913L100.456 97.6323L100.641 97.0341L98.2536 96.2932ZM98.068 96.8913L95.6803 96.1504C95.678 96.1577 95.6848 96.1336 95.7111 96.0922C95.7383 96.0494 95.7757 96.005 95.82 95.9668L97.4527 97.86L99.0855 99.7532C99.7627 99.1692 100.208 98.4302 100.456 97.6323L98.068 96.8913ZM97.4527 97.86L95.82 95.9668L95.3904 96.3373L97.0231 98.2305L98.6558 100.124L99.0855 99.7532L97.4527 97.86ZM97.0231 98.2305L95.3904 96.3373L94.9607 96.7079L96.5935 98.6011L98.2262 100.494L98.6558 100.124L97.0231 98.2305ZM96.5935 98.6011L94.9607 96.7079C94.7015 96.9314 94.4379 97.149 94.1701 97.3606L95.7196 99.3224L97.2691 101.284C97.5935 101.028 97.9126 100.765 98.2262 100.494L96.5935 98.6011ZM95.7196 99.3224L94.1701 97.3606L93.7259 97.7114L95.2754 99.6733L96.8249 101.635L97.2691 101.284L95.7196 99.3224ZM95.2754 99.6733L93.7259 97.7114L93.2817 98.0622L94.8312 100.024L96.3807 101.986L96.8249 101.635L95.2754 99.6733ZM94.8312 100.024L93.2817 98.0622C93.0061 98.2799 92.7276 98.4929 92.4462 98.701L93.9333 100.711L95.4203 102.72C95.7439 102.481 96.0641 102.236 96.3807 101.986L94.8312 100.024ZM93.9333 100.711L92.4462 98.701L91.9925 99.0368L93.4795 101.046L94.9666 103.056L95.4203 102.72L93.9333 100.711ZM93.4795 101.046L91.9925 99.0368L91.5387 99.3725L93.0258 101.382L94.5128 103.392L94.9666 103.056L93.4795 101.046ZM93.0258 101.382L91.5387 99.3725C91.4492 99.4388 91.3406 99.4983 91.2 99.5468L92.0159 101.91L92.8318 104.273C93.4327 104.066 93.9974 103.773 94.5128 103.392L93.0258 101.382ZM92.0159 101.91L91.2 99.5468L90.6439 99.7388L91.4598 102.102L92.2757 104.465L92.8318 104.273L92.0159 101.91ZM91.4598 102.102L90.6439 99.7388L90.0878 99.9308L90.9036 102.294L91.7195 104.657L92.2757 104.465L91.4598 102.102ZM90.9036 102.294L90.0878 99.9308C89.4956 100.135 88.9365 100.421 88.4247 100.794L89.8983 102.814L91.3718 104.833C91.459 104.77 91.5702 104.709 91.7195 104.657L90.9036 102.294ZM89.8983 102.814L88.4247 100.794L87.9755 101.122L89.449 103.142L90.9225 105.161L91.3718 104.833L89.8983 102.814ZM89.449 103.142L87.9755 101.122L87.5262 101.45L88.9997 103.469L90.4733 105.489L90.9225 105.161L89.449 103.142ZM88.9997 103.469L87.5262 101.45C86.9432 101.875 86.474 102.403 86.1042 102.989L88.2188 104.323L90.3335 105.657C90.4059 105.542 90.4572 105.501 90.4733 105.489L88.9997 103.469ZM88.2188 104.323L86.1042 102.989L85.7726 103.515L87.8872 104.849L90.0019 106.182L90.3335 105.657L88.2188 104.323ZM87.8872 104.849L85.7726 103.515L85.441 104.041L87.5556 105.375L89.6702 106.708L90.0019 106.182L87.8872 104.849ZM87.5556 105.375L85.441 104.041C85.4137 104.084 85.393 104.108 85.3819 104.12C85.3712 104.131 85.3653 104.135 85.3633 104.137L86.7506 106.216L88.138 108.296C88.7718 107.873 89.2794 107.328 89.6702 106.708L87.5556 105.375ZM86.7506 106.216L85.3633 104.137L84.8899 104.452L86.2773 106.532L87.6647 108.612L88.138 108.296L86.7506 106.216ZM86.2773 106.532L84.8899 104.452L84.4166 104.768L85.804 106.848L87.1913 108.928L87.6647 108.612L86.2773 106.532ZM85.804 106.848L84.4166 104.768C84.3397 104.819 84.2533 104.86 84.144 104.888L84.7678 107.309L85.3916 109.73C86.0327 109.564 86.6372 109.297 87.1913 108.928L85.804 106.848ZM84.7678 107.309L84.144 104.888L83.5811 105.033L84.2049 107.454L84.8287 109.875L85.3916 109.73L84.7678 107.309ZM84.2049 107.454L83.5811 105.033L83.0182 105.178L83.642 107.599L84.2659 110.02L84.8287 109.875L84.2049 107.454ZM83.642 107.599L83.0182 105.178C82.4573 105.322 81.9182 105.53 81.4064 105.802L82.5811 108.009L83.7558 110.216C83.9081 110.135 84.0763 110.068 84.2659 110.02L83.642 107.599ZM82.5811 108.009L81.4064 105.802L80.9083 106.067L82.083 108.274L83.2577 110.481L83.7558 110.216L82.5811 108.009ZM82.083 108.274L80.9083 106.067L80.4102 106.332L81.5849 108.539L82.7596 110.746L83.2577 110.481L82.083 108.274ZM81.5849 108.539L80.4102 106.332C80.2794 106.402 80.1398 106.454 79.9849 106.489L80.5291 108.929L81.0732 111.369C81.662 111.237 82.2263 111.03 82.7596 110.746L81.5849 108.539ZM80.5291 108.929L79.9849 106.489L79.4271 106.613L79.9713 109.053L80.5155 111.493L81.0732 111.369L80.5291 108.929ZM79.9713 109.053L79.4271 106.613L78.8693 106.737L79.4135 109.177L79.9577 111.618L80.5155 111.493L79.9713 109.053ZM79.4135 109.177L78.8693 106.737C78.1398 106.9 77.4718 107.214 76.8825 107.658L78.3866 109.655L79.8907 111.652C79.9269 111.625 79.9436 111.621 79.9577 111.618L79.4135 109.177ZM78.3866 109.655L76.8825 107.658L76.4133 108.012L77.9174 110.009L79.4215 112.006L79.8907 111.652L78.3866 109.655ZM77.9174 110.009L76.4133 108.012L75.9441 108.365L77.4482 110.362L78.9523 112.359L79.4215 112.006L77.9174 110.009ZM77.4482 110.362L75.9441 108.365C76.0066 108.318 76.0962 108.268 76.2072 108.233C76.3175 108.199 76.4117 108.192 76.473 108.195L76.3792 110.693L76.2854 113.191C77.246 113.227 78.1696 112.949 78.9523 112.359L77.4482 110.362ZM76.3792 110.693L76.473 108.195L75.8732 108.172L75.7794 110.67L75.6856 113.169L76.2854 113.191L76.3792 110.693ZM75.7794 110.67L75.8732 108.172L75.2733 108.15L75.1795 110.648L75.0857 113.146L75.6856 113.169L75.7794 110.67ZM75.1795 110.648L75.2733 108.15C74.3111 108.114 73.3965 108.393 72.6192 108.962L74.0955 110.98L75.5718 112.997C75.5209 113.034 75.4422 113.079 75.3403 113.11C75.2383 113.141 75.1485 113.148 75.0857 113.146L75.1795 110.648ZM74.0955 110.98L72.6192 108.962L72.1349 109.316L73.6113 111.334L75.0876 113.352L75.5718 112.997L74.0955 110.98ZM73.6113 111.334L72.1349 109.316L71.6507 109.671L73.127 111.688L74.6033 113.706L75.0876 113.352L73.6113 111.334ZM73.127 111.688L71.6507 109.671C71.7277 109.614 71.8457 109.55 71.9982 109.511C72.1505 109.473 72.2833 109.473 72.3747 109.485L72.0458 111.963L71.7169 114.442C72.7509 114.579 73.7585 114.324 74.6033 113.706L73.127 111.688ZM72.0458 111.963L72.3747 109.485L71.7777 109.406L71.4488 111.884L71.1199 114.362L71.7169 114.442L72.0458 111.963ZM71.4488 111.884L71.7777 109.406L71.1807 109.327L70.8518 111.805L70.5229 114.283L71.1199 114.362L71.4488 111.884ZM70.8518 111.805L71.1807 109.327C70.2895 109.208 69.3979 109.353 68.582 109.778L69.736 111.996L70.8899 114.213C70.8406 114.239 70.7736 114.264 70.6956 114.277C70.6182 114.29 70.5572 114.288 70.5229 114.283L70.8518 111.805ZM69.736 111.996L68.582 109.778L68.0632 110.048L69.2171 112.266L70.3711 114.483L70.8899 114.213L69.736 111.996ZM69.2171 112.266L68.0632 110.048L67.5443 110.318L68.6983 112.536L69.8522 114.753L70.3711 114.483L69.2171 112.266ZM68.6983 112.536L67.5443 110.318C67.3715 110.408 67.2032 110.47 67.0367 110.511L67.6277 112.94L68.2188 115.369C68.7879 115.23 69.3333 115.023 69.8522 114.753L68.6983 112.536ZM67.6277 112.94L67.0367 110.511L66.485 110.645L67.0761 113.074L67.6671 115.503L68.2188 115.369L67.6277 112.94ZM67.0761 113.074L66.485 110.645L65.9333 110.779L66.5244 113.208L67.1155 115.637L67.6671 115.503L67.0761 113.074ZM66.5244 113.208L65.9333 110.779C65.8045 110.811 65.674 110.823 65.534 110.816L65.4007 113.312L65.2674 115.808C65.89 115.842 66.5087 115.785 67.1155 115.637L66.5244 113.208ZM65.4007 113.312L65.534 110.816L64.9621 110.785L64.8288 113.281L64.6955 115.778L65.2674 115.808L65.4007 113.312ZM64.8288 113.281L64.9621 110.785L64.3902 110.754L64.2568 113.251L64.1235 115.747L64.6955 115.778L64.8288 113.281ZM64.2568 113.251L64.3902 110.754C64.1563 110.742 63.9187 110.709 63.6758 110.653L63.1143 113.089L62.5527 115.525C63.0707 115.644 63.5948 115.719 64.1235 115.747L64.2568 113.251ZM63.1143 113.089L63.6758 110.653L63.1052 110.521L62.5436 112.957L61.9821 115.393L62.5527 115.525L63.1143 113.089ZM62.5436 112.957L63.1052 110.521L62.5346 110.39L61.973 112.826L61.4114 115.262L61.9821 115.393L62.5436 112.957ZM61.973 112.826L62.5346 110.39C61.6061 110.176 60.678 110.28 59.8314 110.657L60.8495 112.941L61.8677 115.224C61.8272 115.242 61.7561 115.266 61.6613 115.276C61.5655 115.286 61.4786 115.277 61.4114 115.262L61.973 112.826ZM60.8495 112.941L59.8314 110.657L59.2786 110.904L60.2967 113.187L61.3148 115.471L61.8677 115.224L60.8495 112.941ZM60.2967 113.187L59.2786 110.904L58.7258 111.15L59.7439 113.434L60.762 115.717L61.3148 115.471L60.2967 113.187ZM59.7439 113.434L58.7258 111.15C58.5518 111.228 58.3935 111.273 58.2466 111.295L58.6215 113.767L58.9964 116.238C59.609 116.145 60.1989 115.968 60.762 115.717L59.7439 113.434ZM58.6215 113.767L58.2466 111.295L57.677 111.381L58.0519 113.853L58.4268 116.325L58.9964 116.238L58.6215 113.767ZM58.0519 113.853L57.677 111.381L57.1074 111.468L57.4823 113.939L57.8572 116.411L58.4268 116.325L58.0519 113.853ZM57.4823 113.939L57.1074 111.468C57.2199 111.451 57.3427 111.454 57.4601 111.48C57.5738 111.505 57.6451 111.543 57.6703 111.559L56.3663 113.692L55.0623 115.825C55.8689 116.318 56.8296 116.567 57.8572 116.411L57.4823 113.939ZM56.3663 113.692L57.6703 111.559L57.1239 111.225L55.8199 113.358L54.5158 115.491L55.0623 115.825L56.3663 113.692ZM55.8199 113.358L57.1239 111.225L56.5774 110.891L55.2734 113.024L53.9694 115.157L54.5158 115.491L55.8199 113.358ZM55.2734 113.024L56.5774 110.891C55.55 110.262 54.344 110.149 53.2082 110.606L54.1409 112.925L55.0736 115.245C54.9459 115.296 54.745 115.344 54.5007 115.323C54.2577 115.302 54.0751 115.221 53.9694 115.157L55.2734 113.024ZM54.1409 112.925L53.2082 110.606L52.6221 110.841L53.5548 113.161L54.4875 115.48L55.0736 115.245L54.1409 112.925ZM53.5548 113.161L52.6221 110.841L52.036 111.077L52.9687 113.397L53.9014 115.716L54.4875 115.48L53.5548 113.161ZM52.9687 113.397L52.036 111.077C52.1842 111.018 52.4281 110.96 52.7264 111C53.0228 111.039 53.2358 111.155 53.3515 111.24L51.8668 113.252L50.3822 115.263C51.4112 116.023 52.6916 116.203 53.9014 115.716L52.9687 113.397ZM51.8668 113.252L53.3515 111.24L52.8357 110.859L51.3511 112.871L49.8664 114.882L50.3822 115.263L51.8668 113.252ZM51.3511 112.871L52.8357 110.859L52.32 110.479L50.8353 112.49L49.3506 114.502L49.8664 114.882L51.3511 112.871ZM50.8353 112.49L52.32 110.479C51.5137 109.884 50.515 109.565 49.4281 109.702L49.7388 112.182L50.0495 114.663C49.9219 114.679 49.7742 114.671 49.6273 114.63C49.4845 114.59 49.3917 114.532 49.3506 114.502L50.8353 112.49ZM49.7388 112.182L49.4281 109.702L48.8474 109.774L49.1581 112.255L49.4688 114.736L50.0495 114.663L49.7388 112.182ZM49.1581 112.255L48.8474 109.774L48.2667 109.847L48.5774 112.328L48.888 114.808L49.4688 114.736L49.1581 112.255ZM48.5774 112.328L48.2667 109.847C47.9861 109.882 47.7086 109.899 47.4335 109.897L47.4187 112.397L47.4039 114.897C47.8994 114.9 48.3943 114.87 48.888 114.808L48.5774 112.328ZM47.4187 112.397L47.4335 109.897L46.8556 109.894L46.8408 112.394L46.826 114.894L47.4039 114.897L47.4187 112.397ZM46.8408 112.394L46.8556 109.894L46.2776 109.89L46.2629 112.39L46.2481 114.89L46.826 114.894L46.8408 112.394ZM46.2629 112.39L46.2776 109.89C46.0801 109.889 45.8937 109.866 45.7145 109.823L45.1325 112.255L44.5505 114.686C45.1079 114.819 45.6751 114.887 46.2481 114.89L46.2629 112.39ZM45.1325 112.255L45.7145 109.823L45.162 109.691L44.5801 112.122L43.9981 114.554L44.5505 114.686L45.1325 112.255ZM44.5801 112.122L45.162 109.691L44.6096 109.559L44.0276 111.99L43.4456 114.421L43.9981 114.554L44.5801 112.122ZM44.0276 111.99L44.6096 109.559C44.4589 109.523 44.3119 109.467 44.1641 109.386L42.9682 111.582L41.7724 113.777C42.3005 114.065 42.8597 114.281 43.4456 114.421L44.0276 111.99ZM42.9682 111.582L44.1641 109.386L43.6571 109.11L42.4612 111.306L41.2654 113.501L41.7724 113.777L42.9682 111.582ZM42.4612 111.306L43.6571 109.11L43.1501 108.834L41.9543 111.029L40.7584 113.225L41.2654 113.501L42.4612 111.306ZM41.9543 111.029L43.1501 108.834C42.8487 108.67 42.553 108.499 42.263 108.321L40.9582 110.454L39.6535 112.587C40.0155 112.808 40.3839 113.021 40.7584 113.225L41.9543 111.029ZM40.9582 110.454L42.263 108.321L41.7739 108.022L40.4692 110.155L39.1644 112.287L39.6535 112.587L40.9582 110.454ZM40.4692 110.155L41.7739 108.022L41.2849 107.723L39.9801 109.856L38.6753 111.988L39.1644 112.287L40.4692 110.155ZM39.9801 109.856L41.2849 107.723C40.6435 107.331 39.9387 107.091 39.1972 107.006L38.9129 109.49L38.6285 111.974C38.648 111.976 38.6568 111.979 38.6589 111.98C38.661 111.98 38.6657 111.982 38.6753 111.988L39.9801 109.856ZM38.9129 109.49L39.1972 107.006L38.619 106.94L38.3347 109.424L38.0504 111.908L38.6285 111.974L38.9129 109.49ZM38.3347 109.424L38.619 106.94L38.0408 106.874L37.7565 109.358L37.4722 111.842L38.0504 111.908L38.3347 109.424ZM37.7565 109.358L38.0408 106.874C38.0195 106.872 38.0102 106.868 38.0087 106.868C38.0073 106.867 38.0045 106.866 37.9977 106.862L36.6937 108.995L35.3897 111.128C36.0309 111.52 36.7345 111.757 37.4722 111.842L37.7565 109.358ZM36.6937 108.995L37.9977 106.862L37.5131 106.566L36.2091 108.699L34.9051 110.832L35.3897 111.128L36.6937 108.995ZM36.2091 108.699L37.5131 106.566L37.0285 106.27L35.7245 108.403L34.4205 110.536L34.9051 110.832L36.2091 108.699ZM35.7245 108.403L37.0285 106.27C36.6381 106.031 36.2382 105.812 35.8288 105.613L34.7346 107.86L33.6403 110.108C33.9047 110.237 34.1648 110.379 34.4205 110.536L35.7245 108.403ZM34.7346 107.86L35.8288 105.613L35.3235 105.367L34.2292 107.614L33.135 109.862L33.6403 110.108L34.7346 107.86ZM34.2292 107.614L35.3235 105.367L34.8182 105.121L33.7239 107.368L32.6297 109.616L33.135 109.862L34.2292 107.614ZM33.7239 107.368L34.8182 105.121C34.5554 104.993 34.2998 104.852 34.0509 104.699L32.7399 106.828L31.429 108.956C31.8183 109.196 32.2186 109.416 32.6297 109.616L33.7239 107.368ZM32.7399 106.828L34.0509 104.699L33.5722 104.404L32.2613 106.533L30.9504 108.662L31.429 108.956L32.7399 106.828ZM32.2613 106.533L33.5722 104.404L33.0936 104.109L31.7826 106.238L30.4717 108.367L30.9504 108.662L32.2613 106.533ZM31.7826 106.238L33.0936 104.109C32.7036 103.869 32.3021 103.649 31.8895 103.448L30.7964 105.697L29.7033 107.945C29.9674 108.073 30.2235 108.214 30.4717 108.367L31.7826 106.238ZM30.7964 105.697L31.8895 103.448L31.3819 103.202L30.2888 105.45L29.1957 107.698L29.7033 107.945L30.7964 105.697ZM30.2888 105.45L31.3819 103.202L30.8743 102.955L29.7812 105.203L28.6881 107.451L29.1957 107.698L30.2888 105.45ZM29.7812 105.203L30.8743 102.955C30.6845 102.862 30.5071 102.753 30.3402 102.626L28.8254 104.615L27.3106 106.604C27.7413 106.932 28.2012 107.215 28.6881 107.451L29.7812 105.203ZM28.8254 104.615L30.3402 102.626L29.8919 102.285L28.3771 104.273L26.8623 106.262L27.3106 106.604L28.8254 104.615ZM28.3771 104.273L29.8919 102.285L29.4437 101.943L27.9289 103.932L26.4141 105.921L26.8623 106.262L28.3771 104.273ZM27.9289 103.932L29.4437 101.943C29.147 101.717 28.8512 101.491 28.5563 101.265L27.0351 103.249L25.5139 105.233C25.8131 105.462 26.1131 105.692 26.4141 105.921L27.9289 103.932ZM27.0351 103.249L28.5563 101.265L28.1107 100.924L26.5895 102.907L25.0684 104.891L25.5139 105.233L27.0351 103.249ZM26.5895 102.907L28.1107 100.924L27.6652 100.582L26.144 102.566L24.6228 104.55L25.0684 104.891L26.5895 102.907ZM26.144 102.566L27.6652 100.582C27.321 100.318 26.9674 100.066 26.6045 99.8269L25.2277 101.914L23.851 104C24.1157 104.175 24.3729 104.358 24.6228 104.55L26.144 102.566ZM25.2277 101.914L26.6045 99.8269L26.1337 99.5163L24.757 101.603L23.3802 103.69L23.851 104L25.2277 101.914ZM24.757 101.603L26.1337 99.5163L25.663 99.2057L24.2862 101.292L22.9094 103.379L23.3802 103.69L24.757 101.603ZM24.2862 101.292L25.663 99.2057C25.5901 99.1576 25.5254 99.0984 25.463 99.016L23.4694 100.524L21.4758 102.033C21.8748 102.56 22.3546 103.013 22.9094 103.379L24.2862 101.292ZM23.4694 100.524L25.463 99.016L25.1169 98.5586L23.1233 100.067L21.1297 101.576L21.4758 102.033L23.4694 100.524ZM23.1233 100.067L25.1169 98.5586L24.7708 98.1012L22.7772 99.6097L20.7836 101.118L21.1297 101.576L23.1233 100.067ZM22.7772 99.6097L24.7708 98.1012C24.4443 97.6697 24.0796 97.2727 23.6764 96.9138L22.0141 98.7811L20.3518 100.648C20.5047 100.784 20.6487 100.94 20.7836 101.118L22.7772 99.6097ZM22.0141 98.7811L23.6764 96.9138L23.2593 96.5425L21.597 98.4098L19.9347 100.277L20.3518 100.648L22.0141 98.7811ZM21.597 98.4098L23.2593 96.5425L22.8423 96.1713L21.18 98.0386L19.5177 99.9058L19.9347 100.277L21.597 98.4098ZM21.18 98.0386L22.8423 96.1713C22.5785 95.9364 22.3172 95.6984 22.0583 95.4571L20.3537 97.2859L18.6492 99.1147C18.9359 99.3819 19.2254 99.6456 19.5177 99.9058L21.18 98.0386ZM20.3537 97.2859L22.0583 95.4571L21.6491 95.0757L19.9445 96.9045L18.24 98.7333L18.6492 99.1147L20.3537 97.2859ZM19.9445 96.9045L21.6491 95.0757L21.2399 94.6943L19.5353 96.5231L17.8308 98.3519L18.24 98.7333L19.9445 96.9045ZM19.5353 96.5231L21.2399 94.6943C20.9388 94.4137 20.6302 94.1391 20.3141 93.8705L18.6952 95.7755L17.0764 97.6806C17.3348 97.9002 17.5862 98.124 17.8308 98.3519L19.5353 96.5231ZM18.6952 95.7755L20.3141 93.8705L19.8833 93.5043L18.2644 95.4094L16.6455 97.3144L17.0764 97.6806L18.6952 95.7755ZM18.2644 95.4094L19.8833 93.5043L19.4524 93.1382L17.8335 95.0433L16.2146 96.9483L16.6455 97.3144L18.2644 95.4094ZM17.8335 95.0433L19.4524 93.1382C19.2511 92.9671 19.0635 92.7844 18.889 92.5896L17.027 94.2578L15.1649 95.926C15.4913 96.2903 15.8414 96.6312 16.2146 96.9483L17.8335 95.0433ZM17.027 94.2578L18.889 92.5896L18.5133 92.1703L16.6513 93.8385L14.7893 95.5066L15.1649 95.926L17.027 94.2578ZM16.6513 93.8385L18.5133 92.1703L18.1377 91.7509L16.2756 93.4191L14.4136 95.0873L14.7893 95.5066L16.6513 93.8385ZM16.2756 93.4191L18.1377 91.7509C17.9618 91.5547 17.8 91.3477 17.6517 91.1293L15.5834 92.5336L13.5151 93.938C13.7889 94.3411 14.0885 94.7245 14.4136 95.0873L16.2756 93.4191ZM15.5834 92.5336L17.6517 91.1293L17.3352 90.6631L15.2669 92.0675L13.1986 93.4718L13.5151 93.938L15.5834 92.5336ZM15.2669 92.0675L17.3352 90.6631L17.0187 90.197L14.9504 91.6013L12.8821 93.0057L13.1986 93.4718L15.2669 92.0675ZM14.9504 91.6013L17.0187 90.197C16.8954 90.0154 16.7879 89.8209 16.6963 89.6111L14.4053 90.6117L12.1142 91.6122C12.3274 92.1004 12.5834 92.5657 12.8821 93.0057L14.9504 91.6013ZM14.4053 90.6117L16.6963 89.6111L16.4677 89.0876L14.1766 90.0881L11.8856 91.0887L12.1142 91.6122L14.4053 90.6117ZM14.1766 90.0881L16.4677 89.0876L16.239 88.5641L13.948 89.5646L11.657 90.5652L11.8856 91.0887L14.1766 90.0881ZM13.948 89.5646L16.239 88.5641C15.8339 87.6365 15.1401 86.9661 14.3331 86.5338L13.1526 88.7375L11.9721 90.9412C11.958 90.9337 11.9019 90.9008 11.8328 90.829C11.7613 90.7545 11.6997 90.663 11.657 90.5652L13.948 89.5646ZM13.1526 88.7375L14.3331 86.5338L13.7663 86.2301L12.5858 88.4339L11.4053 90.6376L11.9721 90.9412L13.1526 88.7375ZM12.5858 88.4339L13.7663 86.2301L13.1995 85.9265L12.019 88.1302L10.8385 90.334L11.4053 90.6376L12.5858 88.4339ZM12.019 88.1302L13.1995 85.9265C13.232 85.9439 13.3111 85.9931 13.3995 86.0909C13.4908 86.192 13.5606 86.3105 13.6036 86.4285L11.2546 87.2842L8.9056 88.1399C9.27223 89.1464 9.98503 89.8768 10.8385 90.334L12.019 88.1302ZM11.2546 87.2842L13.6036 86.4285L13.406 85.8862L11.057 86.7418L8.70802 87.5975L8.9056 88.1399L11.2546 87.2842ZM11.057 86.7418L13.406 85.8862L13.2084 85.3438L10.8594 86.1994L8.51044 87.0551L8.70802 87.5975L11.057 86.7418ZM10.8594 86.1994L13.2084 85.3438C13.1299 85.1283 13.0693 84.8998 13.028 84.6558L10.563 85.0729L8.09806 85.49C8.18857 86.0249 8.32551 86.5474 8.51044 87.0551L10.8594 86.1994ZM10.563 85.0729L13.028 84.6558L12.9291 84.0716L10.4642 84.4887L7.99921 84.9058L8.09806 85.49L10.563 85.0729ZM10.4642 84.4887L12.9291 84.0716L12.8303 83.4874L10.3653 83.9045L7.90036 84.3216L7.99921 84.9058L10.4642 84.4887ZM10.3653 83.9045L12.8303 83.4874C12.6869 82.6403 12.3192 81.8651 11.7396 81.218L9.87736 82.886L8.01515 84.5539C7.99207 84.5282 7.96357 84.4886 7.93927 84.4379C7.9151 84.3875 7.90437 84.3453 7.90036 84.3216L10.3653 83.9045ZM9.87736 82.886L11.7396 81.218L11.3504 80.7835L9.48824 82.4515L7.62604 84.1195L8.01515 84.5539L9.87736 82.886ZM9.48824 82.4515L11.3504 80.7835L10.9613 80.3491L9.09913 82.0171L7.23692 83.6851L7.62604 84.1195L9.48824 82.4515ZM9.09913 82.0171L10.9613 80.3491C10.9835 80.3739 11.0143 80.4156 11.0415 80.4728C11.0689 80.5302 11.0827 80.5823 11.0886 80.6191L8.61935 81.0101L6.15011 81.4011C6.28629 82.2611 6.65857 83.0394 7.23692 83.6851L9.09913 82.0171ZM8.61935 81.0101L11.0886 80.6191L10.9979 80.0465L8.52868 80.4375L6.05944 80.8285L6.15011 81.4011L8.61935 81.0101ZM8.52868 80.4375L10.9979 80.0465L10.9072 79.474L8.43801 79.865L5.96878 80.256L6.05944 80.8285L8.52868 80.4375ZM8.43801 79.865L10.9072 79.474C10.8208 78.9279 10.6808 78.3951 10.4841 77.8796L8.14834 78.7709L5.81262 79.6622C5.88126 79.842 5.93436 80.0386 5.96878 80.256L8.43801 79.865ZM8.14834 78.7709L10.4841 77.8796L10.2851 77.3581L7.94934 78.2494L5.61361 79.1406L5.81262 79.6622L8.14834 78.7709ZM7.94934 78.2494L10.2851 77.3581L10.0861 76.8366L7.75034 77.7279L5.41461 78.6191L5.61361 79.1406L7.94934 78.2494ZM7.75034 77.7279L10.0861 76.8366C9.90428 76.3602 9.68376 75.9001 9.42649 75.457L7.26447 76.7122L5.10245 77.9675C5.22768 78.1832 5.33107 78.4002 5.41461 78.6191L7.75034 77.7279ZM7.26447 76.7122L9.42649 75.457L9.13962 74.9629L6.9776 76.2181L4.81559 77.4734L5.10245 77.9675L7.26447 76.7122ZM6.9776 76.2181L9.13962 74.9629L8.85275 74.4688L6.69074 75.7241L4.52872 76.9793L4.81559 77.4734L6.9776 76.2181ZM6.69074 75.7241L8.85275 74.4688C8.63931 74.1012 8.41372 73.7351 8.17621 73.3705L6.08147 74.735L3.98672 76.0996C4.17908 76.3949 4.35967 76.6881 4.52872 76.9793L6.69074 75.7241ZM6.08147 74.735L8.17621 73.3705L7.85381 72.8756L5.75907 74.2401L3.66432 75.6047L3.98672 76.0996L6.08147 74.735ZM5.75907 74.2401L7.85381 72.8756L7.53141 72.3806L5.43666 73.7452L3.34192 75.1098L3.66432 75.6047L5.75907 74.2401ZM5.43666 73.7452L7.53141 72.3806C7.5842 72.4617 7.63612 72.5743 7.66447 72.7094C7.69251 72.843 7.68785 72.9525 7.67769 73.0196L5.20586 72.6454L2.73404 72.2711C2.58479 73.2568 2.77938 74.2462 3.34192 75.1098L5.43666 73.7452ZM5.20586 72.6454L7.67769 73.0196L7.76928 72.4147L5.29746 72.0404L2.82563 71.6662L2.73404 72.2711L5.20586 72.6454ZM5.29746 72.0404L7.76928 72.4147L7.86088 71.8098L5.38906 71.4355L2.91723 71.0612L2.82563 71.6662L5.29746 72.0404ZM5.38906 71.4355L7.86088 71.8098C7.96741 71.1062 7.94683 70.3843 7.76474 69.6697L5.34215 70.287L2.91956 70.9043C2.92214 70.9144 2.93283 70.9582 2.91723 71.0612L5.38906 71.4355ZM5.34215 70.287L7.76474 69.6697L7.62623 69.1261L5.20364 69.7434L2.78105 70.3607L2.91956 70.9043L5.34215 70.287ZM5.20364 69.7434L7.62623 69.1261L7.48773 68.5826L5.06514 69.1999L2.64255 69.8172L2.78105 70.3607L5.20364 69.7434ZM5.06514 69.1999L7.48773 68.5826C7.42428 68.3336 7.3786 68.0816 7.35055 67.8258L4.86545 68.0984L2.38035 68.3709C2.43387 68.859 2.52132 69.3414 2.64255 69.8172L5.06514 69.1999ZM4.86545 68.0984L7.35055 67.8258L7.28937 67.2679L4.80426 67.5404L2.31916 67.813L2.38035 68.3709L4.86545 68.0984ZM4.80426 67.5404L7.28937 67.2679L7.22818 66.71L4.74308 66.9825L2.25798 67.255L2.31916 67.813L4.80426 67.5404ZM4.74308 66.9825L7.22818 66.71C7.15637 66.0551 6.97583 65.429 6.70346 64.839L4.43365 65.8868L2.16384 66.9347C2.22247 67.0617 2.24821 67.166 2.25798 67.255L4.74308 66.9825ZM4.43365 65.8868L6.70346 64.839L6.45522 64.3013L4.18541 65.3491L1.9156 66.3969L2.16384 66.9347L4.43365 65.8868ZM4.18541 65.3491L6.45522 64.3013L6.20698 63.7635L3.93717 64.8114L1.66736 65.8592L1.9156 66.3969L4.18541 65.3491ZM3.93717 64.8114L6.20698 63.7635C6.20292 63.7547 6.20119 63.7498 6.20075 63.7484C6.20033 63.7472 6.20084 63.7485 6.20159 63.7521C6.20235 63.7557 6.20304 63.7601 6.20347 63.7649C6.2039 63.7697 6.20392 63.7733 6.20387 63.7752L3.70485 63.7052L1.20583 63.6352C1.18397 64.4156 1.34722 65.1657 1.66736 65.8592L3.93717 64.8114ZM3.70485 63.7052L6.20387 63.7752L6.21979 63.2067L3.72077 63.1367L1.22175 63.0667L1.20583 63.6352L3.70485 63.7052ZM3.72077 63.1367L6.21979 63.2067L6.23571 62.6383L3.73669 62.5683L1.23767 62.4983L1.22175 63.0667L3.72077 63.1367ZM3.73669 62.5683L6.23571 62.6383C6.24516 62.3008 6.26298 61.9645 6.28915 61.6294L3.79674 61.4348L1.30433 61.2401C1.27166 61.6585 1.24944 62.0779 1.23767 62.4983L3.73669 62.5683ZM3.79674 61.4348L6.28915 61.6294L6.33328 61.0644L3.84087 60.8697L1.34846 60.6751L1.30433 61.2401L3.79674 61.4348ZM3.84087 60.8697L6.33328 61.0644L6.37741 60.4993L3.885 60.3047L1.39259 60.11L1.34846 60.6751L3.84087 60.8697ZM3.885 60.3047L6.37741 60.4993C6.43273 59.791 6.34698 59.0956 6.1396 58.4293L3.75253 59.1722L1.36546 59.9151C1.39354 60.0053 1.39611 60.0649 1.39259 60.11L3.885 60.3047ZM3.75253 59.1722L6.1396 58.4293L5.963 57.8618L3.57593 58.6047L1.18886 59.3476L1.36546 59.9151L3.75253 59.1722ZM3.57593 58.6047L5.963 57.8618L5.7864 57.2944L3.39933 58.0373L1.01227 58.7802L1.18886 59.3476L3.57593 58.6047ZM3.39933 58.0373L5.7864 57.2944C5.76767 57.2342 5.76983 57.2072 5.77162 57.1917L3.2882 56.9043L0.804786 56.6168C0.719287 57.3554 0.795535 58.0838 1.01227 58.7802L3.39933 58.0373ZM3.2882 56.9043L5.77162 57.1917L5.83709 56.6261L3.35368 56.3386L0.870257 56.0512L0.804786 56.6168L3.2882 56.9043ZM3.35368 56.3386L5.83709 56.6261L5.90256 56.0605L3.41915 55.773L0.935727 55.4856L0.870257 56.0512L3.35368 56.3386ZM3.41915 55.773L5.90256 56.0605C5.92951 55.8277 5.97676 55.5956 6.04554 55.3627L3.64796 54.6545L1.25039 53.9462C1.10137 54.4506 0.996073 54.9642 0.935727 55.4856L3.41915 55.773ZM3.64796 54.6545L6.04554 55.3627L6.20889 54.8098L3.81131 54.1015L1.41374 53.3932L1.25039 53.9462L3.64796 54.6545ZM3.81131 54.1015L6.20889 54.8098L6.37223 54.2568L3.97466 53.5486L1.57709 52.8403L1.41374 53.3932L3.81131 54.1015ZM3.97466 53.5486L6.37223 54.2568C6.57172 53.5815 6.63865 52.8852 6.57287 52.1853L4.08384 52.4192L1.5948 52.6531C1.60125 52.7217 1.59539 52.7783 1.57709 52.8403L3.97466 53.5486ZM4.08384 52.4192L6.57287 52.1853L6.5187 51.6088L4.02967 51.8427L1.54063 52.0767L1.5948 52.6531L4.08384 52.4192ZM4.02967 51.8427L6.5187 51.6088L6.46453 51.0324L3.9755 51.2663L1.48646 51.5002L1.54063 52.0767L4.02967 51.8427ZM3.9755 51.2663L6.46453 51.0324C6.45628 50.9446 6.46375 50.8737 6.48288 50.8042L4.07258 50.1406L1.66229 49.4769C1.47974 50.1398 1.42248 50.8194 1.48646 51.5002L3.9755 51.2663ZM4.07258 50.1406L6.48288 50.8042L6.63414 50.2549L4.22384 49.5912L1.81354 48.9276L1.66229 49.4769L4.07258 50.1406ZM4.22384 49.5912L6.63414 50.2549L6.78539 49.7056L4.3751 49.0419L1.9648 48.3782L1.81354 48.9276L4.22384 49.5912ZM4.3751 49.0419L6.78539 49.7056C6.91857 49.2219 7.01587 48.7309 7.07695 48.2333L4.59557 47.9287L2.1142 47.6241C2.08298 47.8784 2.0333 48.1295 1.9648 48.3782L4.3751 49.0419ZM4.59557 47.9287L7.07695 48.2333L7.14616 47.6695L4.66479 47.3649L2.18341 47.0602L2.1142 47.6241L4.59557 47.9287ZM4.66479 47.3649L7.14616 47.6695L7.21538 47.1056L4.73401 46.801L2.25263 46.4964L2.18341 47.0602L4.66479 47.3649ZM4.73401 46.801L7.21538 47.1056C7.2088 47.1592 7.19381 47.213 7.17333 47.2598C7.15344 47.3053 7.13607 47.3267 7.13776 47.3246L5.19143 45.7556L3.2451 44.1865C2.72042 44.8374 2.36065 45.6164 2.25263 46.4964L4.73401 46.801ZM5.19143 45.7556L7.13776 47.3246L7.52597 46.843L5.57963 45.274L3.6333 43.705L3.2451 44.1865L5.19143 45.7556ZM5.57963 45.274L7.52597 46.843L7.91417 46.3614L5.96784 44.7924L4.02151 43.2234L3.6333 43.705L5.57963 45.274ZM5.96784 44.7924L7.91417 46.3614C8.56445 45.5548 8.88614 44.5609 8.79639 43.5003L6.3053 43.7111L3.8142 43.9219C3.80558 43.82 3.81377 43.6841 3.85982 43.5365C3.90547 43.3903 3.97193 43.2849 4.02151 43.2234L5.96784 44.7924ZM6.3053 43.7111L8.79639 43.5003L8.74565 42.9006L6.25455 43.1114L3.76345 43.3222L3.8142 43.9219L6.3053 43.7111ZM6.25455 43.1114L8.74565 42.9006L8.6949 42.3008L6.2038 42.5116L3.7127 42.7224L3.76345 43.3222L6.25455 43.1114ZM6.2038 42.5116L8.6949 42.3008C8.69818 42.3397 8.69804 42.4097 8.67766 42.4985C8.65703 42.5883 8.62261 42.6668 8.58589 42.7267L6.45446 41.4202L4.32303 40.1137C3.83079 40.9167 3.63602 41.8162 3.7127 42.7224L6.2038 42.5116ZM6.45446 41.4202L8.58589 42.7267L8.8873 42.235L6.75587 40.9285L4.62443 39.6219L4.32303 40.1137L6.45446 41.4202ZM6.75587 40.9285L8.8873 42.235L9.1887 41.7433L7.05727 40.4368L4.92584 39.1302L4.62443 39.6219L6.75587 40.9285ZM7.05727 40.4368L9.1887 41.7433C9.64493 40.999 9.8594 40.1735 9.85678 39.3304L7.35679 39.3382L4.8568 39.346C4.85678 39.3383 4.85794 39.3062 4.8709 39.2586C4.8841 39.2102 4.90417 39.1656 4.92584 39.1302L7.05727 40.4368ZM7.35679 39.3382L9.85678 39.3304L9.85489 38.7236L7.3549 38.7314L4.85491 38.7392L4.8568 39.346L7.35679 39.3382ZM7.3549 38.7314L9.85489 38.7236L9.853 38.1168L7.35301 38.1246L4.85302 38.1324L4.85491 38.7392L7.3549 38.7314ZM7.35301 38.1246L9.853 38.1168C9.85348 38.2708 9.8193 38.4752 9.71464 38.6852C9.61193 38.8914 9.48288 39.02 9.4014 39.0843L7.85243 37.122L6.30346 35.1597C5.40315 35.8704 4.84923 36.9144 4.85302 38.1324L7.35301 38.1246ZM7.85243 37.122L9.4014 39.0843L9.90271 38.6886L8.35374 36.7263L6.80477 34.764L6.30346 35.1597L7.85243 37.122ZM8.35374 36.7263L9.90271 38.6886L10.404 38.2929L8.85505 36.3306L7.30608 34.3683L6.80477 34.764L8.35374 36.7263ZM8.85505 36.3306L10.404 38.2929C11.2378 37.6348 11.7974 36.6935 11.9006 35.5648L9.411 35.3372L6.92138 35.1096C6.9333 34.9792 6.97533 34.8203 7.06309 34.6635C7.14905 34.5099 7.24708 34.4149 7.30608 34.3683L8.85505 36.3306ZM9.411 35.3372L11.9006 35.5648L11.9553 34.9671L9.46563 34.7395L6.97601 34.5119L6.92138 35.1096L9.411 35.3372ZM9.46563 34.7395L11.9553 34.9671L12.0099 34.3694L9.52027 34.1418L7.03065 33.9142L6.97601 34.5119L9.46563 34.7395ZM9.52027 34.1418L12.0099 34.3694C12.0259 34.1941 12.0622 34.0496 12.1107 33.9259L9.78361 33.0124L7.45647 32.099C7.22677 32.6841 7.08748 33.2926 7.03065 33.9142L9.52027 34.1418ZM9.78361 33.0124L12.1107 33.9259L12.3195 33.3942L9.99231 32.4807L7.66517 31.5673L7.45647 32.099L9.78361 33.0124ZM9.99231 32.4807L12.3195 33.3942L12.5282 32.8625L10.201 31.949L7.87388 31.0356L7.66517 31.5673L9.99231 32.4807ZM10.201 31.949L12.5282 32.8625C12.5858 32.7155 12.6603 32.5819 12.7541 32.4563L10.7511 30.9603L8.74806 29.4643C8.38675 29.9481 8.09446 30.4736 7.87388 31.0356L10.201 31.949ZM10.7511 30.9603L12.7541 32.4563L13.0954 31.9993L11.0924 30.5033L9.0894 29.0073L8.74806 29.4643L10.7511 30.9603ZM11.0924 30.5033L13.0954 31.9993L13.4367 31.5423L11.4337 30.0463L9.43073 28.5503L9.0894 29.0073L11.0924 30.5033ZM11.4337 30.0463L13.4367 31.5423C13.4754 31.4905 13.5386 31.4242 13.6535 31.3493L12.2891 29.2545L10.9248 27.1596C10.3543 27.5311 9.84715 27.9927 9.43073 28.5503L11.4337 30.0463ZM12.2891 29.2545L13.6535 31.3493L14.1676 31.0145L12.8032 28.9197L11.4388 26.8248L10.9248 27.1596L12.2891 29.2545ZM12.8032 28.9197L14.1676 31.0145L14.6816 30.6797L13.3173 28.5848L11.9529 26.49L11.4388 26.8248L12.8032 28.9197ZM13.3173 28.5848L14.6816 30.6797C15.3195 30.2643 15.8712 29.7153 16.2736 29.0233L14.1124 27.7666L11.9513 26.5099C11.9563 26.5013 11.9617 26.4931 11.9673 26.4858C11.9729 26.4785 11.9775 26.4734 11.9802 26.4706C11.983 26.4677 11.983 26.4681 11.9792 26.4712C11.9753 26.4744 11.9669 26.4808 11.9529 26.49L13.3173 28.5848ZM14.1124 27.7666L16.2736 29.0233L16.5547 28.5399L14.3935 27.2832L12.2324 26.0265L11.9513 26.5099L14.1124 27.7666ZM14.3935 27.2832L16.5547 28.5399L16.8358 28.0565L14.6746 26.7998L12.5135 25.5431L12.2324 26.0265L14.3935 27.2832ZM14.6746 26.7998L16.8358 28.0565C17.1722 27.478 17.3967 26.8572 17.5311 26.2187L15.0847 25.7038L12.6383 25.1888C12.6008 25.3672 12.5519 25.477 12.5135 25.5431L14.6746 26.7998ZM15.0847 25.7038L17.5311 26.2187L17.66 25.6061L15.2137 25.0911L12.7673 24.5761L12.6383 25.1888L15.0847 25.7038ZM15.2137 25.0911L17.66 25.6061L17.789 24.9934L15.3426 24.4785L12.8963 23.9635L12.7673 24.5761L15.2137 25.0911ZM15.3426 24.4785L17.789 24.9934C17.7661 25.1022 17.7076 25.2704 17.5766 25.4455C17.4444 25.6223 17.2912 25.7354 17.1708 25.7984L16.0122 23.5831L14.8537 21.3677C13.8118 21.9126 13.1314 22.8465 12.8963 23.9635L15.3426 24.4785ZM16.0122 23.5831L17.1708 25.7984L17.7114 25.5157L16.5529 23.3003L15.3943 21.085L14.8537 21.3677L16.0122 23.5831ZM16.5529 23.3003L17.7114 25.5157L18.2521 25.2329L17.0935 23.0176L15.9349 20.8023L15.3943 21.085L16.5529 23.3003ZM17.0935 23.0176L18.2521 25.2329C18.8495 24.9205 19.396 24.5135 19.8614 24.0007L18.0102 22.3205L16.1591 20.6403C16.123 20.68 16.0583 20.7377 15.9349 20.8023L17.0935 23.0176ZM18.0102 22.3205L19.8614 24.0007L20.2375 23.5863L18.3863 21.9061L16.5352 20.2259L16.1591 20.6403L18.0102 22.3205ZM18.3863 21.9061L20.2375 23.5863L20.6136 23.1719L18.7625 21.4917L16.9113 19.8115L16.5352 20.2259L18.3863 21.9061ZM18.7625 21.4917L20.6136 23.1719C20.871 22.8884 21.127 22.603 21.3816 22.3158L19.5108 20.6574L17.64 18.999C17.3984 19.2717 17.1554 19.5425 16.9113 19.8115L18.7625 21.4917ZM19.5108 20.6574L21.3816 22.3158L21.7538 21.8959L19.8831 20.2375L18.0123 18.5791L17.64 18.999L19.5108 20.6574ZM19.8831 20.2375L21.7538 21.8959L22.1261 21.476L20.2553 19.8176L18.3845 18.1592L18.0123 18.5791L19.8831 20.2375ZM20.2553 19.8176L22.1261 21.476C22.4135 21.1517 22.6906 20.8159 22.9574 20.4688L20.9754 18.9452L18.9933 17.4215C18.7963 17.6778 18.5934 17.9236 18.3845 18.1592L20.2553 19.8176ZM20.9754 18.9452L22.9574 20.4688L23.3053 20.0164L21.3232 18.4927L19.3412 16.969L18.9933 17.4215L20.9754 18.9452ZM21.3232 18.4927L23.3053 20.0164L23.6531 19.5639L21.6711 18.0402L19.689 16.5166L19.3412 16.969L21.3232 18.4927ZM21.6711 18.0402L23.6531 19.5639C23.841 19.3195 24.0389 19.0839 24.247 18.857L22.4044 17.1673L20.5618 15.4777C20.2559 15.8113 19.9649 16.1576 19.689 16.5166L21.6711 18.0402ZM22.4044 17.1673L24.247 18.857L24.6325 18.4366L22.7898 16.747L20.9472 15.0574L20.5618 15.4777L22.4044 17.1673ZM22.7898 16.747L24.6325 18.4366L25.0179 18.0162L23.1753 16.3266L21.3327 14.637L20.9472 15.0574L22.7898 16.747ZM23.1753 16.3266L25.0179 18.0162C25.1152 17.9101 25.2226 17.822 25.3457 17.7473L24.0484 15.6102L22.751 13.4732C22.224 13.7931 21.7494 14.1826 21.3327 14.637L23.1753 16.3266ZM24.0484 15.6102L25.3457 17.7473L25.8333 17.4513L24.536 15.3142L23.2386 13.1772L22.751 13.4732L24.0484 15.6102ZM24.536 15.3142L25.8333 17.4513L26.3209 17.1553L25.0236 15.0182L23.7262 12.8812L23.2386 13.1772L24.536 15.3142ZM25.0236 15.0182L26.3209 17.1553C26.6535 16.9533 26.9837 16.7504 27.3114 16.5467L25.9912 14.4237L24.671 12.3007C24.3586 12.495 24.0437 12.6884 23.7262 12.8812L25.0236 15.0182ZM25.9912 14.4237L27.3114 16.5467L27.7915 16.2481L26.4712 14.1252L25.151 12.0022L24.671 12.3007L25.9912 14.4237ZM26.4712 14.1252L27.7915 16.2481L28.2715 15.9496L26.9513 13.8266L25.6311 11.7037L25.151 12.0022L26.4712 14.1252ZM26.9513 13.8266L28.2715 15.9496C28.4279 15.8523 28.5994 15.7703 28.7907 15.7046L27.9787 13.3401L27.1668 10.9756C26.6282 11.1606 26.1147 11.4029 25.6311 11.7037L26.9513 13.8266ZM27.9787 13.3401L28.7907 15.7046L29.3381 15.5166L28.5262 13.1522L27.7143 10.7877L27.1668 10.9756L27.9787 13.3401ZM28.5262 13.1522L29.3381 15.5166L29.8855 15.3287L29.0736 12.9642L28.2617 10.5997L27.7143 10.7877L28.5262 13.1522ZM29.0736 12.9642L29.8855 15.3287C30.5557 15.0985 31.1684 14.7452 31.7031 14.2721L30.0467 12.3996L28.3902 10.5272C28.3574 10.5562 28.3213 10.5792 28.2617 10.5997L29.0736 12.9642ZM30.0467 12.3996L31.7031 14.2721L32.1288 13.8955L30.4724 12.0231L28.8159 10.1506L28.3902 10.5272L30.0467 12.3996ZM30.4724 12.0231L32.1288 13.8955L32.5545 13.5189L30.8981 11.6465L29.2416 9.77399L28.8159 10.1506L30.4724 12.0231ZM30.8981 11.6465L32.5545 13.5189C32.8497 13.2579 33.1452 12.9916 33.4412 12.7202L31.7518 10.8775L30.0623 9.03477C29.7877 9.28655 29.5141 9.53295 29.2416 9.77399L30.8981 11.6465ZM31.7518 10.8775L33.4412 12.7202L33.8692 12.3279L32.1797 10.4851L30.4902 8.6424L30.0623 9.03477L31.7518 10.8775ZM32.1797 10.4851L33.8692 12.3279L34.2972 11.9355L32.6077 10.0928L30.9182 8.25003L30.4902 8.6424L32.1797 10.4851ZM32.6077 10.0928L34.2972 11.9355C34.2533 11.9757 34.191 12.0198 34.114 12.0549C34.0377 12.0897 33.973 12.1038 33.9339 12.1086L33.6282 9.6274L33.3226 7.14616C32.4267 7.25652 31.5985 7.62628 30.9182 8.25003L32.6077 10.0928ZM33.6282 9.6274L33.9339 12.1086L34.5265 12.0356L34.2208 9.5544L33.9151 7.07316L33.3226 7.14616L33.6282 9.6274ZM34.2208 9.5544L34.5265 12.0356L35.1191 11.9626L34.8134 9.4814L34.5077 7.00016L33.9151 7.07316L34.2208 9.5544ZM34.8134 9.4814L35.1191 11.9626C35.9747 11.8572 36.771 11.5233 37.4472 10.9652L35.8557 9.03717L34.2642 7.10919C34.2937 7.08483 34.3368 7.05672 34.3901 7.03401C34.4429 7.01149 34.4856 7.00289 34.5077 7.00016L34.8134 9.4814ZM35.8557 9.03717L37.4472 10.9652L37.8969 10.5939L36.3054 8.66594L34.7139 6.73796L34.2642 7.10919L35.8557 9.03717ZM36.3054 8.66594L37.8969 10.5939L38.3466 10.2227L36.7551 8.29471L35.1636 6.36673L34.7139 6.73796L36.3054 8.66594ZM36.7551 8.29471L38.3466 10.2227C38.2971 10.2635 38.2253 10.3092 38.135 10.3438C38.0452 10.3782 37.9674 10.3901 37.9163 10.3925L37.7976 7.89531L37.6789 5.39813C36.7544 5.44206 35.8878 5.7689 35.1636 6.36673L36.7551 8.29471ZM37.7976 7.89531L37.9163 10.3925L38.509 10.3643L38.3903 7.86714L38.2717 5.36996L37.6789 5.39813L37.7976 7.89531ZM38.3903 7.86714L38.509 10.3643L39.1018 10.3361L38.9831 7.83897L38.8644 5.34179L38.2717 5.36996L38.3903 7.86714ZM38.9831 7.83897L39.1018 10.3361C40.1129 10.2881 41.0183 9.88538 41.7339 9.21438L40.0239 7.39064L38.314 5.56691C38.358 5.52562 38.4368 5.46578 38.5507 5.41673C38.6658 5.36716 38.7765 5.34596 38.8644 5.34179L38.9831 7.83897ZM40.0239 7.39064L41.7339 9.21438L42.182 8.79423L40.4721 6.97049L38.7621 5.14675L38.314 5.56691L40.0239 7.39064ZM40.4721 6.97049L42.182 8.79423L42.6301 8.37407L40.9202 6.55034L39.2102 4.7266L38.7621 5.14675L40.4721 6.97049ZM40.9202 6.55034L42.6301 8.37407C42.5636 8.43643 42.4488 8.5206 42.2856 8.58198C42.1209 8.6439 41.9674 8.65987 41.8524 8.65466L41.9655 6.15722L42.0786 3.65978C40.9862 3.61032 39.9857 3.99951 39.2102 4.7266L40.9202 6.55034ZM41.9655 6.15722L41.8524 8.65466L42.4496 8.68171L42.5627 6.18426L42.6758 3.68682L42.0786 3.65978L41.9655 6.15722ZM42.5627 6.18426L42.4496 8.68171L43.0468 8.70875L43.1599 6.21131L43.273 3.71387L42.6758 3.68682L42.5627 6.18426ZM43.1599 6.21131L43.0468 8.70875C43.9442 8.74938 44.8128 8.52671 45.5825 8.04543L44.2571 5.92571L42.9316 3.80598C42.9716 3.78102 43.0303 3.75296 43.103 3.73405C43.1754 3.71521 43.2356 3.71217 43.273 3.71387L43.1599 6.21131ZM44.2571 5.92571L45.5825 8.04543L46.0825 7.73279L44.7571 5.61306L43.4316 3.49334L42.9316 3.80598L44.2571 5.92571ZM44.7571 5.61306L46.0825 7.73279L46.5825 7.42014L45.2571 5.30042L43.9316 3.1807L43.4316 3.49334L44.7571 5.61306ZM45.2571 5.30042L46.5825 7.42014C46.6981 7.34785 46.8014 7.30674 46.8985 7.28315L46.3081 4.85387L45.7177 2.42458C45.08 2.57954 44.4827 2.83614 43.9316 3.1807L45.2571 5.30042ZM46.3081 4.85387L46.8985 7.28315L47.4495 7.14924L46.8591 4.71995L46.2687 2.29067L45.7177 2.42458L46.3081 4.85387ZM46.8591 4.71995L47.4495 7.14924L48.0005 7.01533L47.4101 4.58604L46.8196 2.15676L46.2687 2.29067L46.8591 4.71995ZM47.4101 4.58604L48.0005 7.01533C48.2142 6.96338 48.4317 6.93174 48.6552 6.92057L48.5305 4.42369L48.4058 1.9268C47.87 1.95356 47.3406 2.03015 46.8196 2.15676L47.4101 4.58604ZM48.5305 4.42369L48.6552 6.92057L49.2247 6.89213L49.1 4.39524L48.9753 1.89836L48.4058 1.9268L48.5305 4.42369ZM49.1 4.39524L49.2247 6.89213L49.7942 6.86369L49.6695 4.3668L49.5448 1.86991L48.9753 1.89836L49.1 4.39524ZM49.6695 4.3668L49.7942 6.86369C50.0389 6.85147 50.2865 6.85885 50.5383 6.8867L50.8131 4.40185L51.0879 1.91699C50.5743 1.86019 50.0595 1.84421 49.5448 1.86991L49.6695 4.3668ZM50.8131 4.40185L50.5383 6.8867L51.1124 6.95019L51.3872 4.46534L51.662 1.98048L51.0879 1.91699L50.8131 4.40185ZM51.3872 4.46534L51.1124 6.95019L51.6865 7.01368L51.9613 4.52882L52.2361 2.04397L51.662 1.98048L51.3872 4.46534ZM51.9613 4.52882L51.6865 7.01368C52.3033 7.08189 52.9226 7.06293 53.5363 6.95099L53.0877 4.49157L52.6391 2.03216C52.5164 2.05454 52.3848 2.06041 52.2361 2.04397L51.9613 4.52882ZM53.0877 4.49157L53.5363 6.95099L54.0886 6.85026L53.6399 4.39084L53.1913 1.93142L52.6391 2.03216L53.0877 4.49157ZM53.6399 4.39084L54.0886 6.85026L54.6408 6.74952L54.1922 4.2901L53.7436 1.83068L53.1913 1.93142L53.6399 4.39084ZM54.1922 4.2901L54.6408 6.74952C55.0605 6.67297 55.4802 6.5828 55.8999 6.47923L55.3009 4.05204L54.702 1.62485C54.3798 1.70437 54.0603 1.77291 53.7436 1.83068L54.1922 4.2901ZM55.3009 4.05204L55.8999 6.47923L56.4564 6.34192L55.8574 3.91473L55.2584 1.48754L54.702 1.62485L55.3009 4.05204ZM55.8574 3.91473L56.4564 6.34192L57.0128 6.2046L56.4138 3.77741L55.8149 1.35022L55.2584 1.48754L55.8574 3.91473ZM56.4138 3.77741L57.0128 6.2046C57.1741 6.16479 57.3304 6.14776 57.4869 6.15087L57.5367 3.65137L57.5864 1.15186C56.9878 1.13995 56.3955 1.20695 55.8149 1.35022L56.4138 3.77741ZM57.5367 3.65137L57.4869 6.15087L58.0533 6.16214L58.103 3.66263L58.1528 1.16313L57.5864 1.15186L57.5367 3.65137ZM58.103 3.66263L58.0533 6.16214L58.6197 6.17341L58.6694 3.6739L58.7191 1.1744L58.1528 1.16313L58.103 3.66263ZM58.6694 3.6739L58.6197 6.17341C59.1317 6.18359 59.6426 6.15258 60.1512 6.08128L59.8041 3.60549L59.457 1.1297C59.2078 1.16464 58.9623 1.17923 58.7191 1.1744L58.6694 3.6739ZM59.8041 3.60549L60.1512 6.08128L60.7195 6.0016L60.3724 3.52581L60.0253 1.05002L59.457 1.1297L59.8041 3.60549ZM60.3724 3.52581L60.7195 6.0016L61.2879 5.92192L60.9408 3.44613L60.5937 0.970345L60.0253 1.05002L60.3724 3.52581ZM60.9408 3.44613L61.2879 5.92192C61.1709 5.93831 61.0437 5.93309 60.9224 5.9042C60.805 5.87623 60.7316 5.83535 60.7052 5.81854L62.0484 3.71006L63.3917 1.60158C62.5917 1.09191 61.63 0.825052 60.5937 0.970345L60.9408 3.44613ZM62.0484 3.71006L60.7052 5.81854L61.2446 6.16215L62.5878 4.05366L63.931 1.94518L63.3917 1.60158L62.0484 3.71006ZM62.5878 4.05366L61.2446 6.16215L61.7839 6.50575L63.1272 4.39727L64.4704 2.28879L63.931 1.94518L62.5878 4.05366ZM63.1272 4.39727L61.7839 6.50575C62.5521 6.99514 63.4688 7.27026 64.4672 7.17693L64.2345 4.68778L64.0017 2.19863C64.1044 2.18903 64.211 2.19806 64.3081 2.22354C64.402 2.24817 64.4568 2.28011 64.4704 2.28879L63.1272 4.39727ZM64.2345 4.68778L64.4672 7.17693L65.0351 7.12383L64.8024 4.63468L64.5697 2.14554L64.0017 2.19863L64.2345 4.68778ZM64.8024 4.63468L65.0351 7.12383L65.603 7.07073L65.3703 4.58159L65.1376 2.09244L64.5697 2.14554L64.8024 4.63468ZM65.3703 4.58159L65.603 7.07073C65.819 7.05055 66.028 7.05208 66.2328 7.07383L66.4968 4.58781L66.7608 2.10179C66.2209 2.04444 65.6789 2.04183 65.1376 2.09244L65.3703 4.58159ZM66.4968 4.58781L66.2328 7.07383L66.7914 7.13315L67.0554 4.64713L67.3194 2.16111L66.7608 2.10179L66.4968 4.58781ZM67.0554 4.64713L66.7914 7.13315L67.35 7.19247L67.614 4.70645L67.878 2.22043L67.3194 2.16111L67.0554 4.64713ZM67.614 4.70645L67.35 7.19247C67.4882 7.20715 67.6242 7.24058 67.7638 7.29701L68.7005 4.97913L69.6372 2.66124C69.0729 2.43319 68.4845 2.28484 67.878 2.22043L67.614 4.70645ZM68.7005 4.97913L67.7638 7.29701L68.2918 7.51037L69.2285 5.19248L70.1652 2.8746L69.6372 2.66124L68.7005 4.97913ZM69.2285 5.19248L68.2918 7.51037L68.8197 7.72372L69.7564 5.40584L70.6931 3.08796L70.1652 2.8746L69.2285 5.19248ZM69.7564 5.40584L68.8197 7.72372C69.2396 7.8934 69.6639 8.04345 70.0927 8.17336L70.8176 5.78079L71.5426 3.38822C71.2603 3.30267 70.9772 3.20275 70.6931 3.08796L69.7564 5.40584ZM70.8176 5.78079L70.0927 8.17336L70.6259 8.33495L71.3509 5.94238L72.0759 3.54981L71.5426 3.38822L70.8176 5.78079ZM71.3509 5.94238L70.6259 8.33495L71.1592 8.49655L71.8842 6.10398L72.6092 3.71141L72.0759 3.54981L71.3509 5.94238ZM71.8842 6.10398L71.1592 8.49655C71.6127 8.63397 72.0737 8.74329 72.5414 8.82456L72.9694 6.36146L73.3973 3.89836C73.1292 3.85178 72.8667 3.78944 72.6092 3.71141L71.8842 6.10398ZM72.9694 6.36146L72.5414 8.82456L73.0933 8.92045L73.5213 6.45735L73.9492 3.99425L73.3973 3.89836L72.9694 6.36146ZM73.5213 6.45735L73.0933 8.92045L73.6452 9.01634L74.0732 6.55324L74.5011 4.09014L73.9492 3.99425L73.5213 6.45735ZM74.0732 6.55324L73.6452 9.01634C74.1005 9.09544 74.5624 9.15078 75.0304 9.18319L75.2031 6.68916L75.3758 4.19513C75.0731 4.17417 74.7817 4.1389 74.5011 4.09014L74.0732 6.55324ZM75.2031 6.68916L75.0304 9.18319L75.6084 9.22322L75.7811 6.72919L75.9538 4.23516L75.3758 4.19513L75.2031 6.68916ZM75.7811 6.72919L75.6084 9.22322L76.1865 9.26324L76.3592 6.76922L76.5319 4.27519L75.9538 4.23516L75.7811 6.72919ZM76.3592 6.76922L76.1865 9.26324C76.3755 9.27633 76.5485 9.31026 76.7107 9.36239L77.4757 6.9823L78.2406 4.6022C77.6849 4.42359 77.1136 4.31547 76.5319 4.27519L76.3592 6.76922ZM77.4757 6.9823L76.7107 9.36239L77.2491 9.53544L78.0141 7.15535L78.7791 4.77525L78.2406 4.6022L77.4757 6.9823ZM78.0141 7.15535L77.2491 9.53544L77.7876 9.70849L78.5525 7.3284L79.3175 4.94831L78.7791 4.77525L78.0141 7.15535ZM78.5525 7.3284L77.7876 9.70849C78.2049 9.84263 78.6288 9.96191 79.0589 10.0665L79.6496 7.63729L80.2403 5.20809C79.9256 5.13155 79.618 5.0449 79.3175 4.94831L78.5525 7.3284ZM79.6496 7.63729L79.0589 10.0665L79.6175 10.2023L80.2082 7.77314L80.7989 5.34393L80.2403 5.20809L79.6496 7.63729ZM80.2082 7.77314L79.6175 10.2023L80.1761 10.3382L80.7668 7.90899L81.3576 5.47978L80.7989 5.34393L80.2082 7.77314ZM80.7668 7.90899L80.1761 10.3382C80.179 10.3389 80.1794 10.3392 80.1781 10.3387C80.1767 10.3382 80.1748 10.3374 80.1729 10.3364C80.171 10.3354 80.1703 10.3349 80.1711 10.3355C80.1719 10.336 80.1752 10.3382 80.1809 10.3429L81.7754 8.4174L83.3698 6.49185C82.7827 6.00568 82.1045 5.66142 81.3576 5.47978L80.7668 7.90899ZM81.7754 8.4174L80.1809 10.3429L80.6309 10.7155L82.2253 8.78997L83.8198 6.86442L83.3698 6.49185L81.7754 8.4174ZM82.2253 8.78997L80.6309 10.7155L81.0808 11.0881L82.6753 9.16254L84.2697 7.23699L83.8198 6.86442L82.2253 8.78997ZM82.6753 9.16254L81.0808 11.0881C81.4282 11.3757 81.7827 11.6477 82.1445 11.9035L83.5878 9.86218L85.0311 7.82086C84.7761 7.64059 84.5223 7.44613 84.2697 7.23699L82.6753 9.16254ZM83.5878 9.86218L82.1445 11.9035L82.6071 12.2306L84.0504 10.1893L85.4937 8.14794L85.0311 7.82086L83.5878 9.86218ZM84.0504 10.1893L82.6071 12.2306L83.0697 12.5576L84.513 10.5163L85.9563 8.47501L85.4937 8.14794L84.0504 10.1893ZM84.513 10.5163L83.0697 12.5576C83.6731 12.9842 84.3437 13.2657 85.0521 13.412L85.5578 10.9636L86.0635 8.51531C85.9956 8.5013 85.9697 8.4845 85.9563 8.47501L84.513 10.5163ZM85.5578 10.9636L85.0521 13.412L85.6343 13.5322L86.14 11.0839L86.6457 8.63556L86.0635 8.51531L85.5578 10.9636ZM86.14 11.0839L85.6343 13.5322L86.2165 13.6525L86.7222 11.2041L87.2278 8.7558L86.6457 8.63556L86.14 11.0839ZM86.7222 11.2041L86.2165 13.6525C86.3572 13.6815 86.4655 13.7251 86.5553 13.7765L87.7982 11.6074L89.0412 9.43824C88.4724 9.11234 87.8633 8.88705 87.2278 8.7558L86.7222 11.2041ZM87.7982 11.6074L86.5553 13.7765L87.0491 14.0595L88.2921 11.8903L89.535 9.72123L89.0412 9.43824L87.7982 11.6074ZM88.2921 11.8903L87.0491 14.0595L87.543 14.3425L88.7859 12.1733L90.0289 10.0042L89.535 9.72123L88.2921 11.8903ZM88.7859 12.1733L87.543 14.3425C87.5104 14.3238 87.4813 14.3008 87.4594 14.2788C87.4384 14.2576 87.4348 14.248 87.4433 14.2624L89.5953 12.9901L91.7474 11.7179C91.337 11.0237 90.7668 10.4271 90.0289 10.0042L88.7859 12.1733ZM89.5953 12.9901L87.4433 14.2624L87.7588 14.7962L89.9109 13.5239L92.063 12.2517L91.7474 11.7179L89.5953 12.9901ZM89.9109 13.5239L87.7588 14.7962L88.0744 15.33L90.2265 14.0577L92.3785 12.7855L92.063 12.2517L89.9109 13.5239ZM90.2265 14.0577L88.0744 15.33C88.5158 16.0766 89.1527 16.6988 89.9835 17.0947L91.059 14.8379L92.1344 12.581C92.1936 12.6092 92.2521 12.6488 92.3018 12.6955C92.3504 12.741 92.3735 12.777 92.3785 12.7855L90.2265 14.0577ZM91.059 14.8379L89.9835 17.0947L90.5005 17.3411L91.5759 15.0842L92.6514 12.8273L92.1344 12.581L91.059 14.8379ZM91.5759 15.0842L90.5005 17.3411L91.0174 17.5874L92.0928 15.3305L93.1683 13.0737L92.6514 12.8273L91.5759 15.0842ZM92.0928 15.3305L91.0174 17.5874C91.1647 17.6576 91.2914 17.741 91.4044 17.8383L93.0363 15.9444L94.6682 14.0505C94.2125 13.6578 93.7103 13.3319 93.1683 13.0737L92.0928 15.3305ZM93.0363 15.9444L91.4044 17.8383L91.8309 18.2058L93.4628 16.3119L95.0948 14.418L94.6682 14.0505L93.0363 15.9444ZM93.4628 16.3119L91.8309 18.2058L92.2574 18.5734L93.8894 16.6795L95.5213 14.7856L95.0948 14.418L93.4628 16.3119ZM93.8894 16.6795L92.2574 18.5734C92.5554 18.8301 92.8561 19.0836 93.1597 19.3341L94.7506 17.4056L96.3416 15.4772C96.0655 15.2495 95.7921 15.0189 95.5213 14.7856L93.8894 16.6795ZM94.7506 17.4056L93.1597 19.3341L93.5944 19.6927L95.1853 17.7643L96.7763 15.8358L96.3416 15.4772L94.7506 17.4056ZM95.1853 17.7643L93.5944 19.6927L94.0291 20.0514L95.6201 18.1229L97.211 16.1944L96.7763 15.8358L95.1853 17.7643ZM95.6201 18.1229L94.0291 20.0514C94.2159 20.2054 94.3891 20.3733 94.5497 20.5559L96.4274 18.9055L98.3052 17.255C97.9688 16.8724 97.6038 16.5185 97.211 16.1944L95.6201 18.1229ZM96.4274 18.9055L94.5497 20.5559L94.9223 20.9799L96.8 19.3294L98.6778 17.679L98.3052 17.255L96.4274 18.9055ZM96.8 19.3294L94.9223 20.9799L95.2949 21.4038L97.1727 19.7534L99.0504 18.1029L98.6778 17.679L96.8 19.3294ZM97.1727 19.7534L95.2949 21.4038C95.5017 21.6391 95.6992 21.8817 95.8875 22.1318L97.8846 20.628L99.8818 19.1242C99.6176 18.7733 99.3404 18.4329 99.0504 18.1029L97.1727 19.7534ZM97.8846 20.628L95.8875 22.1318L96.2268 22.5824L98.224 21.0786L100.221 19.5748L99.8818 19.1242L97.8846 20.628ZM98.224 21.0786L96.2268 22.5824L96.5662 23.0331L98.5633 21.5293L100.56 20.0255L100.221 19.5748L98.224 21.0786ZM98.5633 21.5293L96.5662 23.0331C96.9602 23.5564 97.432 24.0028 97.9683 24.3703L99.3814 22.308L100.795 20.2457C100.692 20.1758 100.619 20.1031 100.56 20.0255L98.5633 21.5293ZM99.3814 22.308L97.9683 24.3703L98.4471 24.6984L99.8602 22.6361L101.273 20.5737L100.795 20.2457L99.3814 22.308ZM99.8602 22.6361L98.4471 24.6984L98.9259 25.0264L100.339 22.9641L101.752 20.9018L101.273 20.5737L99.8602 22.6361ZM100.339 22.9641L98.9259 25.0264C99.0523 25.113 99.1517 25.2062 99.2337 25.3071L101.174 23.7308L103.114 22.1544C102.721 21.6705 102.264 21.2526 101.752 20.9018L100.339 22.9641ZM101.174 23.7308L99.2337 25.3071L99.59 25.7457L101.53 24.1694L103.471 22.593L103.114 22.1544L101.174 23.7308ZM101.53 24.1694L99.59 25.7457L99.9464 26.1843L101.887 24.608L103.827 23.0316L103.471 22.593L101.53 24.1694ZM101.887 24.608L99.9464 26.1843C100.228 26.5315 100.525 26.8672 100.837 27.1915L102.639 25.4584L104.441 23.7253C104.225 23.5005 104.02 23.2692 103.827 23.0316L101.887 24.608ZM102.639 25.4584L100.837 27.1915L101.234 27.6033L103.035 25.8702L104.837 24.1372L104.441 23.7253L102.639 25.4584ZM103.035 25.8702L101.234 27.6033L101.63 28.0151L103.431 26.2821L105.233 24.549L104.837 24.1372L103.035 25.8702ZM103.431 26.2821L101.63 28.0151C101.801 28.1933 101.955 28.3823 102.094 28.5828L104.151 27.1614L106.207 25.7401C105.915 25.3172 105.59 24.9199 105.233 24.549L103.431 26.2821ZM104.151 27.1614L102.094 28.5828L102.417 29.0503L104.474 27.629L106.53 26.2076L106.207 25.7401L104.151 27.1614ZM104.474 27.629L102.417 29.0503L102.74 29.5178L104.797 28.0965L106.854 26.6751L106.53 26.2076L104.474 27.629ZM104.797 28.0965L102.74 29.5178C102.739 29.5159 102.737 29.5135 102.736 29.5112C102.735 29.5089 102.735 29.5079 102.735 29.5089C102.736 29.51 102.741 29.5251 102.747 29.56L105.216 29.1676L107.685 28.7751C107.567 28.0316 107.297 27.3174 106.854 26.6751L104.797 28.0965ZM105.216 29.1676L102.747 29.56L102.843 30.1635L105.312 29.7711L107.781 29.3787L107.685 28.7751L105.216 29.1676ZM105.312 29.7711L102.843 30.1635L102.939 30.7671L105.408 30.3746L107.877 29.9822L107.781 29.3787L105.312 29.7711ZM105.408 30.3746L102.939 30.7671C103.104 31.8038 103.638 32.6981 104.469 33.3351L105.99 31.3511L107.511 29.3671C107.581 29.4204 107.671 29.5101 107.749 29.64C107.826 29.7701 107.863 29.8934 107.877 29.9822L105.408 30.3746ZM105.99 31.3511L104.469 33.3351L104.955 33.708L106.476 31.724L107.998 29.74L107.511 29.3671L105.99 31.3511ZM106.476 31.724L104.955 33.708L105.442 34.0809L106.963 32.0969L108.484 30.113L107.998 29.74L106.476 31.724ZM106.963 32.0969L105.442 34.0809C105.337 34.0006 105.205 33.8641 105.104 33.6659C105.004 33.4687 104.974 33.289 104.97 33.1722L107.469 33.0921L109.968 33.012C109.931 31.8618 109.414 30.8259 108.484 30.113L106.963 32.0969ZM107.469 33.0921L104.97 33.1722L104.99 33.7944L107.489 33.7144L109.988 33.6343L109.968 33.012L107.469 33.0921ZM107.489 33.7144L104.99 33.7944L105.01 34.4167L107.509 34.3366L110.008 34.2565L109.988 33.6343L107.489 33.7144ZM107.509 34.3366L105.01 34.4167C105.034 35.1432 105.192 35.8703 105.527 36.5567L107.774 35.4603L110.02 34.3639C110.023 34.3694 110.022 34.3683 110.019 34.3556C110.015 34.3421 110.01 34.3107 110.008 34.2565L107.509 34.3366ZM107.774 35.4603L105.527 36.5567L105.772 37.0581L108.018 35.9617L110.265 34.8653L110.02 34.3639L107.774 35.4603ZM108.018 35.9617L105.772 37.0581L106.016 37.5595L108.263 36.4632L110.51 35.3668L110.265 34.8653L108.018 35.9617ZM108.263 36.4632L106.016 37.5595C106.326 38.1951 106.751 38.7442 107.249 39.2116L108.959 37.3882L110.67 35.5647C110.566 35.4674 110.526 35.3998 110.51 35.3668L108.263 36.4632ZM108.959 37.3882L107.249 39.2116L107.701 39.6351L109.411 37.8117L111.121 35.9883L110.67 35.5647L108.959 37.3882ZM109.411 37.8117L107.701 39.6351L108.152 40.0587L109.863 38.2353L111.573 36.4119L111.121 35.9883L109.411 37.8117ZM109.863 38.2353L108.152 40.0587C108.08 39.9907 107.98 39.8705 107.904 39.6949C107.828 39.5178 107.805 39.3514 107.806 39.2285L110.306 39.2622L112.806 39.296C112.821 38.1707 112.371 37.1607 111.573 36.4119L109.863 38.2353ZM110.306 39.2622L107.806 39.2285L107.798 39.8318L110.298 39.8656L112.798 39.8994L112.806 39.296L110.306 39.2622ZM110.298 39.8656L107.798 39.8318L107.79 40.4352L110.29 40.469L112.789 40.5027L112.798 39.8994L110.298 39.8656ZM110.29 40.469L107.79 40.4352C107.782 41.05 107.851 41.6623 108.012 42.2619L110.427 41.6132L112.841 40.9644C112.809 40.8429 112.787 40.6924 112.789 40.5027L110.29 40.469ZM110.427 41.6132L108.012 42.2619L108.158 42.8028L110.572 42.154L112.987 41.5053L112.841 40.9644L110.427 41.6132ZM110.572 42.154L108.158 42.8028L108.303 43.3436L110.718 42.6949L113.132 42.0462L112.987 41.5053L110.572 42.154ZM110.718 42.6949L108.303 43.3436C108.457 43.9165 108.684 44.4615 108.976 44.9757L111.15 43.7403L113.323 42.5049C113.233 42.3463 113.172 42.1944 113.132 42.0462L110.718 42.6949ZM111.15 43.7403L108.976 44.9757L109.263 45.4802L111.436 44.2448L113.61 43.0094L113.323 42.5049L111.15 43.7403ZM111.436 44.2448L109.263 45.4802L109.55 45.9847L111.723 44.7493L113.897 43.5139L113.61 43.0094L111.436 44.2448ZM111.723 44.7493L109.55 45.9847C109.696 46.2423 109.827 46.5054 109.943 46.7744L112.239 45.7836L114.534 44.7928C114.345 44.3554 114.133 43.9291 113.897 43.5139L111.723 44.7493ZM112.239 45.7836L109.943 46.7744L110.172 47.3041L112.467 46.3133L114.763 45.3225L114.534 44.7928L112.239 45.7836ZM112.467 46.3133L110.172 47.3041L110.401 47.8339L112.696 46.8431L114.991 45.8523L114.763 45.3225L112.467 46.3133ZM112.696 46.8431L110.401 47.8339C110.35 47.7159 110.319 47.579 110.316 47.4403C110.314 47.3061 110.338 47.2148 110.35 47.1797L112.718 47.983L115.085 48.7864C115.397 47.867 115.418 46.8416 114.991 45.8523L112.696 46.8431ZM112.718 47.983L110.35 47.1797L110.143 47.79L112.51 48.5933L114.878 49.3966L115.085 48.7864L112.718 47.983ZM112.51 48.5933L110.143 47.79L109.936 48.4002L112.303 49.2035L114.671 50.0069L114.878 49.3966L112.51 48.5933ZM112.303 49.2035L109.936 48.4002C109.692 49.119 109.584 49.9031 109.699 50.7155L112.174 50.3643L114.65 50.0131C114.652 50.0295 114.653 50.0438 114.653 50.0552C114.653 50.0665 114.653 50.0733 114.652 50.0749C114.652 50.0783 114.654 50.0567 114.671 50.0069L112.303 49.2035ZM112.174 50.3643L109.699 50.7155L109.777 51.266L112.253 50.9148L114.728 50.5636L114.65 50.0131L112.174 50.3643ZM112.253 50.9148L109.777 51.266L109.855 51.8165L112.331 51.4653L114.806 51.1141L114.728 50.5636L112.253 50.9148ZM112.331 51.4653L109.855 51.8165C109.902 52.1478 109.942 52.48 109.975 52.8131L112.463 52.5694L114.951 52.3256C114.911 51.9207 114.863 51.5169 114.806 51.1141L112.331 51.4653ZM112.463 52.5694L109.975 52.8131L110.029 53.3666L112.517 53.1229L115.005 52.8792L114.951 52.3256L112.463 52.5694ZM112.517 53.1229L110.029 53.3666L110.083 53.9202L112.571 53.6765L115.06 53.4327L115.005 52.8792L112.517 53.1229ZM112.571 53.6765L110.083 53.9202C110.121 54.305 110.162 54.6901 110.208 55.0752L112.691 54.7842L115.174 54.4932C115.132 54.1394 115.094 53.7859 115.06 53.4327L112.571 53.6765ZM112.691 54.7842L110.208 55.0752L110.273 55.6295L112.756 55.3384L115.239 55.0474L115.174 54.4932L112.691 54.7842ZM112.756 55.3384L110.273 55.6295L110.338 56.1837L112.821 55.8927L115.304 55.6017L115.239 55.0474L112.756 55.3384ZM112.821 55.8927L110.338 56.1837C110.367 56.434 110.377 56.6786 110.37 56.9185L112.869 56.9938L115.368 57.0691C115.383 56.5798 115.361 56.0903 115.304 55.6017L112.821 55.8927ZM112.869 56.9938L110.37 56.9185L110.354 57.4655L112.853 57.5408L115.351 57.6161L115.368 57.0691L112.869 56.9938ZM112.853 57.5408L110.354 57.4655L110.337 58.0124L112.836 58.0877L115.335 58.163L115.351 57.6161L112.853 57.5408ZM112.836 58.0877L110.337 58.0124C110.33 58.2496 110.328 58.6591 110.431 59.0854C110.48 59.2893 110.603 59.7186 110.938 60.1448C111.34 60.6562 112.041 61.1347 112.968 61.1347V58.6347V56.1347C113.846 56.1347 114.504 56.5904 114.87 57.0562C115.169 57.4368 115.264 57.7978 115.291 57.9105C115.35 58.1545 115.331 58.2905 115.335 58.163L112.836 58.0877ZM112.968 58.6347V61.1347H113.117V58.6347V56.1347H112.968V58.6347ZM113.117 58.6347V61.1347H113.266V58.6347V56.1347H113.117V58.6347ZM113.266 58.6347V61.1347C112.866 61.1347 112.45 61.0353 112.068 60.8189C111.698 60.6096 111.447 60.3407 111.286 60.1127C110.995 59.7004 110.922 59.3178 110.903 59.2111C110.86 58.9688 110.887 58.8402 110.875 58.9778L113.365 59.1962L115.856 59.4146C115.876 59.1779 115.903 58.7684 115.827 58.339C115.791 58.1388 115.694 57.686 115.369 57.2268C114.968 56.6594 114.238 56.1347 113.266 56.1347V58.6347ZM113.365 59.1962L110.875 58.9778L110.825 59.5393L113.316 59.7577L115.806 59.9761L115.856 59.4146L113.365 59.1962Z" fill="#82B3FF"/>
<circle cx="58.6341" cy="17.783" r="6.49929" fill="black"/>
</svg>
