<svg width="699" height="204" viewBox="0 0 699 204" fill="none" xmlns="http://www.w3.org/2000/svg">
<path d="M13 102.233C13 55.1603 51.1603 17 98.2334 17H597.078C644.152 17 682.312 55.1603 682.312 102.233V102.233C682.312 149.307 644.151 187.467 597.078 187.467H98.2333C51.1602 187.467 13 149.307 13 102.233V102.233Z" fill="#FFB79C"/>
<path d="M556.133 0.746094L558.656 1.04297C560.67 1.31949 562.671 1.75531 564.668 2.23047L569.863 3.41797C573.028 4.17721 575.88 5.64624 578.398 7.5L580.922 9.42969L583.445 11.2852L585.301 11.1367L587.824 11.0625C589.175 11.0202 590.565 10.9608 591.906 10.7656L596.953 10.0234C600.281 9.5391 603.616 9.8962 606.75 11.1367L609.125 12.1016L611.5 12.9922C611.888 13.1465 612.298 13.2266 612.688 13.2148L617.734 13.0664L622.855 13.6602C624.479 14.0785 626.046 14.7155 627.531 15.5898L629.758 16.8516L631.91 18.1875C632.406 18.4766 632.971 18.6465 633.617 18.7812L638.664 19.8203C640.656 20.2253 642.51 21.0075 644.156 22.0469L648.461 25.9805L650.02 28.0586L650.094 28.207L652.32 28.1328L655.809 27.9844L659.816 28.2812C661.233 28.5802 662.688 29.1604 664.121 30.0625C665.671 31.039 666.917 32.2165 667.832 33.5508L669.688 37.707L670.504 40.6016L671.246 43.4219C671.666 44.9822 672.103 46.3605 672.582 47.5039L673.621 49.8789L674.586 52.2539C675.721 54.9665 676.357 57.8046 676.441 60.7148L676.516 63.3867V65.8359L677.703 67.3945L679.113 69.3984C679.989 70.5954 680.962 71.8717 682.008 73.1836L685.422 77.3398C687.129 79.4808 688.439 81.9082 689.43 84.4648L691.359 89.3633C691.78 90.447 692.395 91.6761 693.215 93.0742L696.332 98.418C698.309 101.785 699.29 105.705 698.781 109.848L698.484 112.594L698.113 115.34C697.581 119.675 695.485 123.276 692.621 126.027L690.32 128.254L689.281 129.145L689.504 130.184L690.023 133.227C690.951 138.426 689.334 143.566 685.051 147.105L682.75 148.961L680.523 150.816C678.715 152.308 676.826 153.685 674.883 154.898L670.133 157.867C669.606 158.196 669.391 158.422 669.316 158.535L667.98 160.613L666.57 162.766C666.031 163.598 665.525 164.635 665.012 165.883L663.898 168.48L662.859 171.152C661.861 173.584 660.534 175.845 659 177.98L655.734 182.582C652.865 186.576 648.552 188.776 643.859 189.039L637.922 189.336C636.288 189.428 634.834 189.628 633.543 189.855L628.348 190.746C627.501 190.897 626.726 191.198 625.973 191.562L623.598 192.676L621.297 193.863C616.315 196.288 611.245 195.346 607.344 193.121L604.598 191.562L603.113 190.672L602.52 190.969L600.07 191.859C597.159 192.996 594.068 193.492 590.941 193.27L588.418 193.121L587.23 192.973L585.152 194.902L582.629 197.203C580.693 198.949 577.767 200.774 574.02 200.914C570.22 201.05 567.141 199.461 565.039 197.723L562.738 195.719L560.883 196.98C558.872 198.279 556.386 199.244 553.535 199.355C550.657 199.468 548.051 198.654 545.891 197.426L544.258 196.461V196.535L541.734 198.984C539.914 200.698 537.201 202.468 533.645 202.844C529.929 203.231 526.735 201.927 524.441 200.246L521.918 198.391L519.32 196.461C518.369 195.767 517.672 195.47 517.242 195.348L514.645 194.605L512.121 193.938C510.273 193.414 508.397 192.848 506.555 192.23L503.957 191.34L501.434 190.449C501.067 190.326 500.808 190.353 500.617 190.375L498.02 190.746L495.422 191.043C493.165 191.349 490.865 191.512 488.594 191.414L486.07 191.266L483.473 191.191C483.17 191.182 482.769 191.197 482.211 191.414L479.688 192.379L477.09 193.418C476.129 193.791 475.014 194.316 473.824 195.125L471.301 196.906L468.703 198.613C466.237 200.288 462.926 201.47 459.203 200.84C455.73 200.244 453.183 198.265 451.484 196.535L451.113 196.164L450.148 197.426C447.571 200.53 442.939 204.416 436.492 203.586L433.969 203.215L431.371 202.918C426.088 202.231 422.377 198.78 420.016 195.793L417.492 192.527L416.23 190.969L414.598 191.414C412.992 191.853 411.381 192.332 409.773 192.824L407.176 193.641L404.578 194.383C403.501 194.714 402.373 195.224 401.164 195.867L398.566 197.203L396.043 198.613C393.509 199.96 390.428 200.558 387.211 199.949C384.164 199.366 381.745 197.816 380.012 196.238L379.27 195.57L378.008 196.98C375.115 200.097 370.208 203.382 363.906 202.027L361.383 201.434L358.785 200.914C357.841 200.711 356.932 200.658 356.039 200.691L353.441 200.766L350.918 200.84C347.945 200.956 345.004 200.475 342.234 199.504L339.711 198.613L337.113 197.723C335.42 197.129 333.686 196.528 331.992 195.941L329.469 195.051L326.871 194.16C324.927 193.486 323.004 192.704 321.082 191.859L318.484 190.746L315.961 189.633C315.496 189.428 315.202 189.407 315.07 189.41L312.473 189.559L309.949 189.633C309.021 189.675 307.996 189.857 306.98 190.152L304.457 190.895L301.859 191.637C299.285 192.382 296.605 192.791 293.918 192.75L291.395 192.676L289.984 192.602L287.684 194.828L285.086 197.129C283.245 198.799 280.588 200.476 277.145 200.84C273.56 201.215 270.474 200.003 268.164 198.391L262.969 194.828C262.158 194.265 261.675 194.125 261.484 194.086L258.887 193.566L257.105 193.195L254.953 194.383L252.43 195.719C247.675 198.274 242.368 198.036 237.883 195.348L235.359 193.789L232.762 192.305L232.688 192.23L230.609 192.379L228.012 192.602C225.614 192.76 223.191 192.669 220.812 192.305L218.289 191.859L215.691 191.488C214.572 191.318 213.451 191.225 212.352 191.266L209.828 191.414L207.23 191.488H207.305C207.232 191.527 207.131 191.629 207.008 191.711L204.484 193.418L201.887 195.125C198.095 197.649 193.296 198.748 188.379 197.055L185.855 196.164L183.258 195.273C181.449 194.65 179.645 193.96 177.84 193.27L175.242 192.305L173.016 191.414L171.012 192.082L168.414 192.75C167.015 193.145 165.612 193.675 164.184 194.234L161.586 195.199L159.062 196.238C157.672 196.783 156.264 197.431 154.832 198.168L152.234 199.43L149.711 200.766C146.952 202.187 143.629 202.703 140.285 201.805C137.204 200.972 134.902 199.177 133.309 197.5L130.711 194.828L128.855 192.824L128.41 192.898L125.812 193.121C124.886 193.221 123.887 193.491 122.844 193.863L120.32 194.754L117.723 195.645C115.801 196.329 113.87 196.966 111.934 197.5L109.41 198.168L106.812 198.91C104.504 199.547 102.149 199.926 99.7617 200.098L97.0898 200.32L94.4922 200.469C90.0562 200.788 86.0794 199.323 82.9141 196.832L78.1641 193.121C76.3456 191.688 74.6282 190.15 73.043 188.594L72.2266 187.777L71.4102 188.297L67.9219 190.375C65.9626 191.514 62.5786 193.038 58.5703 192.379C53.8647 191.591 50.9772 188.352 49.5898 185.477L48.2539 182.582L46.8438 179.688C46.1921 178.337 45.5563 177.494 45.1367 177.016L43.5039 175.16L41.7969 173.23C41.2034 172.557 40.5528 171.991 39.8672 171.523L37.8633 170.113L35.7852 168.703C34.9867 168.161 33.9849 167.609 32.7422 167.07L27.5469 164.844C25.0898 163.78 22.762 162.398 20.6445 160.762L18.418 159.055L16.1914 157.273C11.5935 153.718 10.0701 148.495 10.7734 143.543L11.2188 140.426L10.7734 140.203L7.80469 138.496C5.17629 137.003 1.66347 133.827 1.42188 128.551C1.22661 124.086 3.60519 120.754 5.05859 119.051L7.80469 115.785L9.80859 113.41L9.14062 111.703C8.91264 111.111 8.44177 110.23 7.58203 109.031L3.87109 103.836C1.2024 100.12 -0.170744 95.2062 1.64453 90.0312L3.42578 84.9844C4.65809 81.4757 6.83055 78.5539 9.51172 76.3008L11.8867 74.3711L13 73.4062L12.9258 72.8125L12.7773 70.0664C12.6142 66.8302 13.1509 63.5866 14.5586 60.5664L15.6719 58.2656L16.7109 55.9648C18.5161 52.1052 21.6277 49.4539 25.1719 47.875L26.0625 47.4297L25.9141 46.4648L25.1719 42.3086C24.376 38.0479 24.5031 31.1226 30.7383 26.9453L35.3398 23.8281C40.3736 20.4624 45.9901 21.2256 49.9609 22.5664L52.2617 23.3086L52.5586 22.418C53.6111 18.6296 55.7188 14.8017 59.4609 12.1016L61.6875 10.3945L63.9883 8.76172L67.3281 6.98047C69.6596 6.07522 72.0856 5.79923 74.4531 6.08984L77.8672 6.90625L80.8359 7.94531L83.1367 8.83594L84.6953 8.09375L87.2188 6.98047L91.9688 5.57031C92.8722 5.44755 94.0039 5.34695 95.2344 5.49609L99.2422 6.75781L100.355 7.35156L101.543 8.01953C103.043 8.82147 104.817 10.0742 106.516 11.3594L109.113 13.2891L109.855 13.957L109.93 13.8828L112.527 12.7695L117.797 11.4336C119.597 11.2496 121.437 11.3372 123.289 11.7305L125.887 12.25L126.926 12.5469L128.781 11.2852L131.379 9.57812L135.016 7.72266C136.394 7.26823 137.91 7.00686 139.543 7.05469C141.156 7.1055 142.669 7.4292 143.996 7.94531L147.559 9.94922L150.082 11.8789L152.68 13.8086V13.8828H154.832L155.277 13.957L157.578 11.1367L160.102 8.01953C162.659 4.86401 167.471 0.714922 174.203 1.85938L176.801 2.30469L179.324 2.75C179.774 2.82739 180.248 2.85571 180.734 2.75L185.93 1.5625L190.086 1.26562C194.036 1.57374 197.31 3.5634 199.66 5.79297L201.812 7.87109L203.297 6.90625L208.492 4.45703C209.444 4.18741 210.442 4.03268 211.461 3.9375H214.652L217.176 4.23438L219.773 4.45703C224.117 4.90676 227.62 7.10763 230.312 9.57812L232.91 11.8789L235.508 14.2539C235.621 14.3569 235.66 14.4963 235.73 14.5508L237.66 14.6992L240.258 14.9219C241.349 15.0281 242.434 15.021 243.523 14.9219L248.719 14.4766C250.097 14.3476 251.484 14.1533 252.875 13.8828L255.473 13.3633L257.996 12.8438C258.525 12.7407 259.238 12.4843 260.148 11.9531L262.746 10.4688L265.27 8.98438C268.458 7.12186 272.227 6.09945 276.254 6.53516L278.777 6.75781L281.375 7.05469C285.07 7.45509 288.352 8.99329 291.098 10.9883L293.621 12.8438L295.328 14.1055L298.223 13.4375C298.356 13.3136 298.594 13.1032 298.816 12.8438L301.34 9.875L303.938 6.90625L307.871 3.56641C309.654 2.59119 311.898 1.98885 314.551 2.23047C317.006 2.45594 319.02 3.33716 320.562 4.45703L323.902 7.87109L325.387 9.875C328.77 6.87126 333.793 4.67881 339.562 6.46094L342.16 7.20312L344.758 8.01953C345.281 8.1781 345.718 8.20648 346.094 8.16797L348.617 7.94531L351.215 7.64844L357.078 8.09375L362.273 10.3203L364.871 11.9531L365.094 12.1016L365.316 11.9531L367.914 10.4688C370.461 8.98121 373.258 7.86484 376.227 7.35156L378.75 6.90625L381.348 6.46094L384.762 6.3125C385.892 6.37288 386.982 6.54424 388.027 6.83203L393.594 9.50391L396.191 11.3594L396.785 11.8789L396.934 11.8047L399.457 10.6172C401.266 9.78391 403.212 9.24048 405.172 9.05859L411.109 9.57812L413.633 10.2461L414.301 10.4688L415.785 9.42969L418.309 7.5C421.405 5.2065 425.372 3.571 429.887 3.9375L432.484 4.16016L435.008 4.38281C435.394 4.41433 435.856 4.41654 436.418 4.23438L439.016 3.34375L441.539 2.52734C445.17 1.33851 448.721 1.64422 451.855 2.89844L454.824 4.38281L457.348 6.08984L459.945 7.72266C461.186 8.52771 462.348 9.13442 463.434 9.57812L466.031 10.6172L467.961 11.4336L469.742 10.8398L472.34 9.94922C474.014 9.40105 475.734 9.12814 477.461 9.05859L482.73 9.57812L485.328 10.2461V10.3203L486.738 8.98438L489.336 6.60938L493.566 3.86328C495.306 3.1581 497.344 2.73356 499.652 3.04688C503.892 3.62428 506.7 6.27659 508.262 8.16797L509.375 9.57812L509.746 9.28125C512.129 6.97979 514.927 4.98078 518.207 3.78906L520.805 2.82422L523.328 1.93359C526.778 0.685983 530.373 0.994435 533.422 2.52734C536.068 3.85796 537.888 5.94099 539.211 7.72266L539.359 7.57422C541.586 4.42484 546.293 -0.619615 553.535 0.375L556.133 0.746094ZM207.453 191.488H207.305V191.414H207.453V191.488ZM552.273 22.1953L549.75 25.7578C548.4 27.6676 545.144 31.4825 539.656 31.6211C534.048 31.7549 530.621 28.004 529.191 26.0547L526.594 22.5664L525.629 21.2305L524.664 21.6016C524.511 21.6604 523.947 21.9831 522.957 22.9375L520.359 25.3867L517.762 27.9102C515.668 29.9197 512.094 32.1174 507.445 31.5469C503.17 31.0108 500.33 28.3923 498.762 26.5L497.426 24.9414L497.203 25.2383C494.009 28.2375 489.093 30.7798 483.25 29.3203L480.652 28.6523L478.277 27.9844V28.0586L475.68 28.875L473.156 29.6914C469.251 30.9764 465.168 30.8368 461.43 29.3203L458.906 28.2812L456.309 27.2422C453.997 26.3038 451.783 25.0754 449.629 23.6797L447.031 22.0469L445.695 21.1562L444.879 21.4531L442.355 22.2695C439.504 23.2031 436.48 23.5561 433.449 23.3086L430.926 23.0859L429.367 22.9375L427.066 24.6445L424.543 26.5742C421.024 29.1808 416.339 30.6928 411.258 29.3203L408.66 28.5781L406.879 28.0586L404.875 29.0234L402.277 30.2109C397.054 32.6049 391.74 31.5817 387.656 28.6523L385.133 26.7969L383.203 25.4609L382.016 25.6836L379.418 26.1289C378.978 26.2081 378.336 26.3756 377.488 26.8711L374.891 28.3555L372.367 29.9141C370.252 31.151 367.652 31.9664 364.797 31.918C361.974 31.8629 359.488 30.9497 357.449 29.6914L354.852 28.0586L352.477 26.5742L350.547 26.7969L348.023 27.0938C344.99 27.405 341.995 27.0203 339.117 26.1289L336.52 25.3867V25.3125L335.406 26.3516L332.883 28.6523C330.522 30.7746 326.589 32.8498 321.824 31.7695C317.729 30.8328 315.133 28.0193 313.734 26.1289L313.066 25.2383C310.661 28.0276 307.383 30.9465 302.898 31.918L297.703 32.957C292.819 33.9987 288.405 32.5283 285.012 30.0625L282.488 28.207L279.891 26.3516C279.551 26.1049 279.309 26.0163 279.223 25.9805C279.175 25.9618 279.21 25.9688 279.297 25.9805L276.773 25.6836L274.695 25.3867L272.32 26.8711L269.723 28.3555C267.218 29.8173 264.52 30.9104 261.633 31.4727L259.109 31.9922L256.512 32.5117C254.498 32.9038 252.453 33.214 250.426 33.4023L247.902 33.625L245.305 33.8477C243.005 34.0605 240.701 34.0723 238.402 33.8477L235.805 33.5508L233.281 33.3281C228.91 32.8977 225.294 30.7605 222.594 28.2812L220.07 25.9062L217.473 23.5312C217.355 23.4246 217.248 23.3638 217.176 23.3086L215.246 23.0859L213.539 22.9375L211.238 24.4961L208.641 26.2031C206.239 27.7921 203.076 28.8568 199.512 28.3555C196.105 27.8721 193.494 26.1064 191.719 24.4219L189.195 21.9727L187.711 20.5625L187.562 20.6367L184.965 21.2305C182.053 21.8908 179.084 21.961 176.133 21.4531L173.906 21.0078L172.273 23.0859L169.75 26.2773C167.288 29.3152 163.056 32.9757 157.059 32.8828H154.535L151.938 32.8086C147.785 32.7407 144.156 31.1954 141.25 29.0234L139.023 27.3164L136.945 28.7266C133.521 31.0697 129.196 32.4007 124.477 31.3984L121.879 30.8789L119.652 30.3594L117.277 31.3984L114.754 32.4375C109.39 34.682 104.107 33.3752 100.207 30.4336L97.6094 28.4297L95.0859 26.5C94.315 25.9164 93.6922 25.4823 93.2305 25.1641L93.082 25.0898L92.4883 25.3867L90.0391 26.5C85.835 28.389 81.4612 28.2992 77.5703 26.9453L74.6016 25.9062L73.2656 25.4609L72.8203 25.832L71.0391 27.0195C71.0038 27.1019 70.9523 27.2469 70.8906 27.4648L69.9258 31.0273L68.8867 34.5898C68.0818 37.4648 66.1545 41.1629 61.9102 43.0508C57.9949 44.7908 54.208 44.0039 51.8164 43.1992L47.8086 41.8633L44.3203 40.6758L44.1719 40.75L44.6172 42.9766L45.4336 47.1328C45.8528 49.3768 46.0175 52.349 44.9883 55.3711C43.8161 58.7912 41.3309 61.4958 38.0859 62.9414L35.4883 64.0547L33.4844 64.9453L32.8906 66.3555L31.7773 68.6562C31.755 68.7157 31.7649 68.8425 31.7773 69.1016L31.9258 71.7734L32 74.5195C32.261 79.7147 29.9195 83.9873 26.4336 86.9141L24.1328 88.918L21.7578 90.8477C21.5473 91.0244 21.4312 91.1606 21.3867 91.2188L20.4961 93.8164L20.3477 94.1875L21.1641 95.3008L23.0195 97.8984C24.6128 100.115 26.0047 102.519 26.9531 105.023L27.7695 107.324L28.6602 109.625C31.1796 116.279 27.5097 121.932 25.0977 124.766L23.9844 125.953C25.8905 127.181 27.8169 128.855 29.1055 131.297C30.6092 134.149 30.9006 137.195 30.5156 139.906L30.0703 143.023L29.9219 143.914L29.9961 143.988L32.2969 145.695C33.1535 146.357 34.0374 146.966 35.043 147.402L40.2383 149.629C42.4454 150.584 44.5469 151.732 46.4727 153.043L48.5508 154.379L50.6289 155.789C52.6665 157.179 54.4933 158.833 56.1211 160.688L57.7539 162.617L59.4609 164.473C61.1182 166.361 62.3952 168.581 63.543 170.855L65.4727 169.816L68.8867 168.258C70.1831 167.824 71.6332 167.548 73.1914 167.516C76.6764 167.445 79.9203 168.73 82.3945 171.152L84.3984 173.082L86.4023 175.086C87.4549 176.118 88.6527 177.169 89.9648 178.203L92.3398 180.059L94.0469 181.469L95.7539 181.395L98.4258 181.172C99.5527 181.089 100.665 180.882 101.766 180.578L104.363 179.91L106.887 179.168C108.363 178.761 109.848 178.289 111.34 177.758L113.938 176.867L116.461 175.902C118.835 175.057 121.317 174.537 123.809 174.27L126.332 173.973L128.93 173.676L133.012 173.824C136.825 174.541 139.818 176.815 141.918 179.02L144.516 181.691L144.738 181.914L146.074 181.246C148.059 180.223 150.134 179.294 152.16 178.5L154.684 177.535L157.281 176.496C159.261 175.722 161.284 175.059 163.293 174.492L165.816 173.75L168.414 173.082L174.055 172.414L179.473 173.602L182.07 174.566L184.594 175.531C186.206 176.148 187.884 176.759 189.492 177.312L192.016 178.203L192.684 178.426L193.945 177.609L196.469 175.902C199.345 173.985 202.773 172.628 206.562 172.488L209.086 172.414L211.684 172.34C213.993 172.256 216.296 172.361 218.586 172.711L221.184 173.082L223.707 173.453C224.731 173.61 225.745 173.667 226.75 173.602L229.348 173.453L231.871 173.305L237.512 173.824C239.308 174.299 241.003 175.044 242.559 175.977L245.082 177.535L245.527 177.758L245.973 177.609L248.57 176.199L254.062 174.344L260 174.418L262.598 174.938L265.121 175.383C268.35 176.02 271.3 177.441 273.879 179.242L275.363 180.281L277.441 178.426C280.296 175.833 284.239 173.608 289.094 173.676H291.691L294.215 173.75C294.942 173.761 295.749 173.623 296.59 173.379L299.113 172.637L301.711 171.895C304.113 171.197 306.569 170.819 309.059 170.707L311.656 170.559L314.18 170.41C317.478 170.262 320.683 170.982 323.605 172.266L326.129 173.379L328.727 174.492C330.196 175.137 331.658 175.697 333.105 176.199L335.703 177.09L338.227 177.98C339.948 178.577 341.7 179.232 343.422 179.836L345.945 180.727L348.543 181.617C349.191 181.844 349.73 181.931 350.176 181.914L352.699 181.766L355.297 181.691C357.816 181.594 360.326 181.829 362.793 182.359L365.168 182.805L366.652 181.32L369.176 178.5C370.902 176.639 373.834 174.396 377.934 174.047C380.088 173.866 382.011 174.256 383.648 174.938L387.73 177.535L390.254 179.836L390.402 179.984L392.258 179.094C394.45 177.929 396.687 176.913 399.012 176.199L401.609 175.457L404.207 174.641C405.988 174.096 407.768 173.57 409.551 173.082L412.148 172.414L414.746 171.672L419.793 171.301C422.88 171.7 425.431 173.238 427.363 174.938L429.812 177.535L432.336 180.727L434.934 183.992C434.993 184.067 435.031 184.155 435.082 184.215L436.27 184.289L438.125 182.211L440.648 179.094C442.235 177.179 445.244 174.467 449.703 174.047C452.075 173.829 454.151 174.284 455.863 175.086L459.871 178.055L462.023 180.207L463.211 179.465C465.434 177.954 467.737 176.632 470.188 175.68L472.785 174.715L475.309 173.676C478.146 172.574 481.184 172.062 484.289 172.191L486.887 172.266L489.41 172.414C490.551 172.463 491.744 172.423 492.898 172.266L495.422 171.895L498.02 171.523C501.239 171.086 504.418 171.473 507.445 172.488L510.043 173.305L512.566 174.195C514.123 174.717 515.692 175.166 517.242 175.605L522.438 177.09C525.403 177.934 528.09 179.389 530.527 181.172L531.863 182.137L533.793 180.281C535.519 178.656 537.979 177.015 541.141 176.422C542.812 176.11 544.452 176.133 545.965 176.422L550.195 177.98L552.719 179.465H552.793L553.164 179.316L555.688 177.684C557.98 176.201 560.954 175.23 564.297 175.531C567.526 175.828 570.119 177.234 572.016 178.797L573.352 179.91L574.984 178.5C577.926 175.847 582.088 173.62 587.156 173.973L589.754 174.121L592.277 174.344C592.57 174.365 592.86 174.315 593.168 174.195L595.543 173.23L597.992 172.266C601.623 170.851 605.183 171.11 608.309 172.191L611.277 173.527L614.023 175.086L615.062 175.68L615.285 175.605L617.66 174.492C620.013 173.349 622.506 172.499 625.082 172.043L627.605 171.598L630.203 171.152C632.339 170.774 634.577 170.54 636.883 170.41L639.852 170.262L641.262 170.113L641.93 169.223L643.562 166.922C644.233 165.989 644.835 165.007 645.27 163.953L646.309 161.281L647.422 158.684C648.336 156.458 649.414 154.331 650.688 152.375L652.023 150.297L653.434 148.219C655.175 145.543 657.435 143.393 660.039 141.762L664.789 138.793C665.993 138.042 667.225 137.185 668.426 136.195L670.652 134.34L670.875 134.117L670.801 133.523L670.281 130.555C669.332 125.238 671.11 120.299 674.809 116.75L677.184 114.523L679.262 112.445L679.633 110.293L679.855 107.918L678.371 105.395L676.812 102.723C675.555 100.58 674.468 98.3775 673.621 96.1914L672.656 93.7422L671.766 91.293C671.485 90.5695 671.037 89.8831 670.504 89.2148L668.871 87.1367L667.164 84.9844C665.976 83.4939 664.866 82.0296 663.824 80.6055L662.34 78.6758L660.93 76.6719C658.715 73.6429 657.692 70.159 657.59 66.6523L657.516 63.9805L657.441 61.2344C657.418 60.5672 657.257 60.051 657.07 59.6016L656.105 57.2266L655.066 54.8516C654.219 52.8275 653.521 50.647 652.914 48.3945L652.543 47.1328L649.648 47.2812C645.381 47.4775 640.161 46.2985 636.586 41.6406L634.953 39.5625L633.914 38.2266L632.355 37.9297L629.832 37.4102C627.16 36.8636 624.621 35.9059 622.262 34.5156L620.035 33.2539L618.105 32.0664L615.805 32.1406L613.207 32.2148C610.215 32.3019 607.299 31.7587 604.523 30.6562L602.148 29.7656L599.773 28.8008H599.699L594.652 29.543C592.602 29.8413 590.487 29.9977 588.418 30.0625L585.895 30.1367L583.297 30.2109C578.996 30.3409 575.235 28.78 572.238 26.5742L569.715 24.7188L567.117 22.7891C566.234 22.1417 565.652 21.956 565.41 21.8984L562.887 21.3047L560.289 20.7109C558.874 20.3737 557.457 20.0866 556.059 19.8945L554.055 19.5977L552.273 22.1953ZM513.383 14.4023C513.377 14.3955 513.346 14.285 513.234 14.1797H513.086L513.383 14.4023Z" fill="#FFB79C"/>
<path d="M128.555 73.0897C128.975 73.0297 129.545 73.0297 130.265 73.0897C131.045 73.1497 131.525 73.2397 131.705 73.3597C131.885 73.4797 132.965 73.5997 134.945 73.7197C138.365 73.8397 140.585 74.0197 141.605 74.2597C142.685 74.4397 143.675 74.8597 144.575 75.5197C145.175 75.9397 145.775 76.3297 146.375 76.6897C147.215 77.2897 147.875 78.6397 148.355 80.7397C148.415 81.0397 148.265 81.5497 147.905 82.2697C147.545 82.9897 147.185 83.4397 146.825 83.6197C146.225 83.9197 145.445 84.0397 144.485 83.9797C143.525 83.8597 142.715 83.5897 142.055 83.1697C140.675 82.2697 139.505 81.7297 138.545 81.5497C137.645 81.3697 135.485 81.2497 132.065 81.1897C129.185 81.1897 127.385 81.2197 126.665 81.2797C125.945 81.2797 125.435 81.3697 125.135 81.5497C124.595 81.9097 123.845 82.2397 122.885 82.5397C122.105 82.7797 121.505 83.0497 121.085 83.3497C120.725 83.6497 120.335 84.1597 119.915 84.8797C119.615 85.3597 119.255 85.8097 118.835 86.2297C118.415 86.5897 118.205 86.9797 118.205 87.3997C118.205 87.8197 118.115 88.3297 117.935 88.9297C117.575 90.4297 118.175 92.4697 119.735 95.0497C119.915 95.3497 121.055 95.6797 123.155 96.0397C125.315 96.3997 127.025 96.5497 128.285 96.4897C130.265 96.4297 131.615 96.5497 132.335 96.8497C133.055 97.1497 133.865 97.2997 134.765 97.2997C135.605 97.2997 136.235 97.3897 136.655 97.5697C137.075 97.6897 137.735 97.8397 138.635 98.0197C139.415 98.1397 140.465 98.6197 141.785 99.4597C143.045 100.3 143.915 100.84 144.395 101.08C145.115 101.44 145.985 102.28 147.005 103.6C148.025 104.86 148.625 105.85 148.805 106.57C148.925 107.05 149.105 107.44 149.345 107.74C150.425 109.42 150.995 111.85 151.055 115.03C151.175 118.15 150.725 120.43 149.705 121.87C148.985 123.01 148.415 123.91 147.995 124.57C147.575 125.17 147.095 125.62 146.555 125.92C144.755 126.76 143.315 127.24 142.235 127.36C141.335 127.48 140.465 127.78 139.625 128.26C138.845 128.68 138.005 128.95 137.105 129.07C136.325 129.13 135.605 129.28 134.945 129.52C134.345 129.76 133.475 129.85 132.335 129.79C131.255 129.73 130.235 129.49 129.275 129.07C128.195 128.71 126.785 128.44 125.045 128.26C121.205 127.9 117.635 126.25 114.335 123.31C113.675 122.71 112.715 121.99 111.455 121.15C109.835 120.07 108.815 119.17 108.395 118.45C108.035 117.73 108.035 116.68 108.395 115.3C108.935 113.02 110.615 112.54 113.435 113.86C114.395 114.34 115.355 114.76 116.315 115.12C117.335 115.54 118.265 116.08 119.105 116.74C120.065 117.46 120.815 118 121.355 118.36C122.015 118.72 122.645 119.2 123.245 119.8C125.345 121.78 128.315 122.53 132.155 122.05C133.115 121.93 134.075 121.99 135.035 122.23C135.935 122.47 136.595 122.5 137.015 122.32C137.435 122.14 138.245 121.57 139.445 120.61C140.525 119.71 141.245 119.2 141.605 119.08C142.685 118.66 143.165 117.22 143.045 114.76C142.925 112.54 142.145 110.5 140.705 108.64C139.265 106.72 137.645 105.55 135.845 105.13C135.245 105.01 134.765 104.8 134.405 104.5C134.045 104.2 133.205 104.08 131.885 104.14C130.505 104.14 129.515 104.02 128.915 103.78C128.375 103.48 127.805 103.33 127.205 103.33C126.605 103.33 125.825 103.21 124.865 102.97C123.845 102.73 122.405 102.55 120.545 102.43C118.565 102.31 117.395 102.13 117.035 101.89C116.675 101.65 116.375 101.53 116.135 101.53C115.835 101.53 115.475 101.26 115.055 100.72C114.575 100.18 114.095 99.7597 113.615 99.4597C113.195 99.1597 112.685 98.4697 112.085 97.3897C111.485 96.2497 111.185 95.4397 111.185 94.9597C111.185 94.5397 110.945 93.6997 110.465 92.4397C110.105 91.5397 109.895 90.9697 109.835 90.7297C109.835 90.4297 109.925 89.9197 110.105 89.1997C110.345 88.1797 110.465 87.4597 110.465 87.0397C110.465 86.6197 110.615 86.1997 110.915 85.7797C111.155 85.4197 111.335 84.8197 111.455 83.9797C111.575 83.0797 111.875 82.3897 112.355 81.9097C112.775 81.4297 113.135 80.9497 113.435 80.4697C113.675 79.9297 113.885 79.6597 114.065 79.6597C114.185 79.6597 114.575 79.3597 115.235 78.7597C116.735 77.3197 118.265 76.0297 119.825 74.8897C120.305 74.5297 121.325 74.2897 122.885 74.1697C124.445 74.1097 125.645 73.9597 126.485 73.7197C127.505 73.4197 128.195 73.2097 128.555 73.0897ZM202.746 74.3497C203.406 74.2297 204.096 74.1397 204.816 74.0797C205.776 74.0197 206.526 74.8597 207.066 76.5997C207.666 78.3397 207.636 79.7197 206.976 80.7397C206.376 81.5797 206.046 82.2697 205.986 82.8097C205.866 83.4097 205.626 83.9197 205.266 84.3397C204.666 85.1197 204.246 86.1097 204.006 87.3097C203.886 88.2097 203.496 88.9897 202.836 89.6497C202.236 90.3097 201.786 90.9097 201.486 91.4497C201.246 91.9297 200.976 92.3797 200.676 92.7997C200.376 93.1597 200.226 93.5197 200.226 93.8797C200.226 94.2397 200.046 94.8097 199.686 95.5897C199.266 96.4297 199.056 97.1497 199.056 97.7497C199.056 98.2897 198.816 98.9497 198.336 99.7297C197.916 100.45 197.706 100.84 197.706 100.9C197.706 100.96 197.496 101.29 197.076 101.89C196.716 102.43 196.566 103.09 196.626 103.87C196.746 104.59 196.686 105.16 196.446 105.58C196.206 105.94 196.026 106.42 195.906 107.02C195.786 107.62 195.546 108.16 195.186 108.64C194.826 109.18 194.436 110.02 194.016 111.16C193.656 112.3 193.326 113.05 193.026 113.41C192.726 113.83 192.516 114.28 192.396 114.76C192.156 115.3 191.646 116.11 190.866 117.19C190.086 118.33 189.576 119.26 189.336 119.98C189.156 120.7 188.766 121.33 188.166 121.87C187.626 122.41 187.356 122.89 187.356 123.31C187.356 123.67 187.206 124.12 186.906 124.66C186.606 125.2 186.276 125.83 185.916 126.55C185.256 128.05 183.936 129.07 181.956 129.61C180.036 130.09 178.446 129.85 177.186 128.89C176.466 128.29 175.866 127.81 175.386 127.45C175.146 127.33 174.456 126.07 173.316 123.67C172.236 121.27 171.696 119.89 171.696 119.53C171.696 119.41 171.516 119.14 171.156 118.72C170.856 118.36 170.196 117.13 169.176 115.03C168.216 112.93 167.676 111.61 167.556 111.07C167.496 110.65 167.256 110.17 166.836 109.63C166.476 109.09 166.266 108.46 166.206 107.74C165.906 105.52 165.186 103.84 164.046 102.7C163.386 101.98 162.996 101.32 162.876 100.72C162.756 100.06 162.486 99.2197 162.066 98.1997C160.986 95.8597 160.446 94.0897 160.446 92.8897C160.386 92.2297 160.206 91.6297 159.906 91.0897C159.666 90.5497 159.516 90.0997 159.456 89.7397C159.456 89.1397 159.246 88.2997 158.826 87.2197C158.466 86.0797 158.136 85.3297 157.836 84.9697C156.936 84.0097 156.276 82.5997 155.856 80.7397C155.436 78.8797 155.466 77.5297 155.946 76.6897C156.666 75.5497 157.746 75.1597 159.186 75.5197C160.686 75.8797 162.036 76.8697 163.236 78.4897C164.316 79.9297 165.036 81.2197 165.396 82.3597C165.816 83.4397 166.026 84.6997 166.026 86.1397C166.026 86.9197 166.326 88.0297 166.926 89.4697C167.586 90.8497 167.976 91.7197 168.096 92.0797C168.156 92.4397 168.576 93.4597 169.356 95.1397C170.136 96.8197 170.676 98.2297 170.976 99.3697C171.276 100.57 171.546 101.32 171.786 101.62C172.926 103.18 173.496 104.41 173.496 105.31C173.556 106.51 173.796 107.65 174.216 108.73C174.636 109.81 175.056 110.38 175.476 110.44C175.596 110.44 175.836 110.65 176.196 111.07C176.616 111.49 176.826 111.79 176.826 111.97C176.826 112.21 177.366 113.38 178.446 115.48C179.526 117.52 180.186 118.6 180.426 118.72C180.666 118.84 181.086 118.6 181.686 118C182.346 117.4 182.676 116.95 182.676 116.65C182.676 116.41 182.916 115.84 183.396 114.94C183.876 113.98 184.356 112.9 184.836 111.7C185.316 110.38 185.886 109.33 186.546 108.55C187.266 107.65 187.656 106.93 187.716 106.39C187.836 105.79 188.106 105.16 188.526 104.5C189.006 103.78 189.246 103.12 189.246 102.52C189.246 101.92 189.426 101.35 189.786 100.81C190.806 99.1297 191.316 97.7197 191.316 96.5797C191.316 96.0397 191.676 95.2597 192.396 94.2397C193.116 93.2197 193.836 91.9297 194.556 90.3697C195.336 88.7497 195.786 87.5797 195.906 86.8597C196.026 86.0797 196.446 84.8797 197.166 83.2597C197.946 81.5197 198.336 80.5897 198.336 80.4697C198.336 80.2297 198.576 79.7197 199.056 78.9397C199.536 78.0997 199.866 77.2897 200.046 76.5097C200.226 75.7297 200.466 75.2197 200.766 74.9797C201.126 74.6797 201.786 74.4697 202.746 74.3497ZM238.022 72.9997C238.442 72.8797 238.652 72.8197 238.652 72.8197C238.712 72.8197 239.792 73.0297 241.892 73.4497C242.972 73.6297 244.352 73.8997 246.032 74.2597C248.372 74.6197 250.052 75.0397 251.072 75.5197C251.372 75.7597 251.732 75.8797 252.152 75.8797C252.512 75.8797 253.232 76.1497 254.312 76.6897C255.272 77.2297 256.172 77.7097 257.012 78.1297C257.972 78.5497 258.632 79.2697 258.992 80.2897C259.352 81.2497 259.232 81.9997 258.632 82.5397C256.892 84.1597 254.912 84.4297 252.692 83.3497C251.792 82.8697 250.952 82.5997 250.172 82.5397C249.512 82.4197 248.462 82.1497 247.022 81.7297C245.642 81.3097 244.742 80.9797 244.322 80.7397C243.962 80.5597 242.642 80.4997 240.362 80.5597C238.142 80.5597 236.732 80.6497 236.132 80.8297C233.972 81.6097 232.082 82.6297 230.462 83.8897C227.582 86.1697 226.052 87.4897 225.872 87.8497C225.632 88.2697 225.092 88.9897 224.252 90.0097C222.812 91.8097 222.032 93.3997 221.912 94.7797C221.852 95.6797 221.612 96.5197 221.192 97.2997C220.892 97.8997 220.712 98.3497 220.652 98.6497C220.652 98.8897 220.742 99.3697 220.922 100.09C221.102 101.17 221.042 102.07 220.742 102.79C220.502 103.57 220.382 105.01 220.382 107.11C220.382 108.91 220.442 110.05 220.562 110.53C220.742 111.01 221.252 111.73 222.092 112.69C222.872 113.59 223.442 114.43 223.802 115.21C224.342 116.29 225.452 117.49 227.132 118.81C228.872 120.07 230.312 120.79 231.452 120.97C232.172 121.09 233.132 121.39 234.332 121.87C238.472 123.61 241.472 124.09 243.332 123.31C243.812 123.07 244.532 122.86 245.492 122.68C248.552 122.26 250.442 121.63 251.162 120.79C251.522 120.31 251.852 119.95 252.152 119.71C254.312 117.73 255.482 116.02 255.662 114.58C255.782 113.86 256.142 113.02 256.742 112.06C257.402 111.1 257.762 110.47 257.822 110.17C257.882 109.81 257.792 109 257.552 107.74C257.312 106.42 257.072 105.64 256.832 105.4C256.412 104.98 254.822 104.65 252.062 104.41C249.302 104.17 246.542 104.14 243.782 104.32C242.402 104.44 241.562 104.47 241.262 104.41C240.962 104.35 240.572 104.17 240.092 103.87C238.832 102.97 238.172 102.04 238.112 101.08C238.112 100.12 238.742 99.2197 240.002 98.3797C241.022 97.7197 241.712 97.3297 242.072 97.2097C242.432 97.0297 243.032 96.9697 243.872 97.0297C249.812 97.0297 253.712 97.0897 255.572 97.2097C257.432 97.3297 258.782 97.5997 259.622 98.0197C260.342 98.3797 261.032 98.5597 261.692 98.5597C262.292 98.5597 263.012 98.8597 263.852 99.4597C264.692 99.9997 265.292 100.54 265.652 101.08C266.072 101.92 266.162 104.08 265.922 107.56C265.682 110.98 265.292 113.2 264.752 114.22C264.392 114.94 264.182 115.69 264.122 116.47C264.002 117.31 263.792 118 263.492 118.54C262.472 120.22 261.512 121.54 260.612 122.5C259.952 123.22 259.472 123.79 259.172 124.21C258.932 124.57 258.182 125.14 256.922 125.92C253.742 127.84 251.372 128.98 249.812 129.34C248.312 129.7 245.342 129.85 240.902 129.79C236.402 129.73 233.612 129.43 232.532 128.89C231.872 128.53 231.182 128.29 230.462 128.17C229.802 128.11 229.052 127.87 228.212 127.45C227.432 126.97 226.742 126.67 226.142 126.55C225.602 126.49 224.852 126.19 223.892 125.65C222.992 125.11 222.362 124.66 222.002 124.3C221.822 124 221.312 123.58 220.472 123.04C219.632 122.5 219.212 122.17 219.212 122.05C219.212 121.87 218.732 121.27 217.772 120.25C215.432 117.85 214.172 116.26 213.992 115.48C213.872 114.88 213.692 114.37 213.452 113.95C213.212 113.53 213.062 112.6 213.002 111.16C212.882 109.72 212.672 108.7 212.372 108.1C211.772 106.9 211.892 104.44 212.732 100.72C213.032 99.1597 213.242 97.8097 213.362 96.6697C213.482 95.5297 213.752 94.5697 214.172 93.7897C214.592 93.0097 214.802 92.4097 214.802 91.9897C214.802 91.4497 214.952 91.0297 215.252 90.7297C215.852 90.0097 216.482 88.7497 217.142 86.9497C217.382 86.2297 217.742 85.5697 218.222 84.9697C218.762 84.3697 219.992 83.0797 221.912 81.0997C225.152 77.7997 227.582 75.7597 229.202 74.9797C229.862 74.6797 230.522 74.2897 231.182 73.8097C231.542 73.5697 231.902 73.4197 232.262 73.3597C232.622 73.2997 233.432 73.2697 234.692 73.2697C236.492 73.2097 237.602 73.1197 238.022 72.9997ZM289.447 77.0497C290.167 76.8097 292.177 76.7197 295.477 76.7797C298.897 76.8997 301.237 76.9297 302.497 76.8697C303.877 76.8697 304.807 77.0197 305.287 77.3197C305.767 77.5597 306.427 77.7397 307.267 77.8597C307.987 77.9797 308.587 78.3097 309.067 78.8497C309.427 79.3297 309.877 79.8397 310.417 80.3797C311.017 80.9797 311.377 81.4597 311.497 81.8197C311.677 82.1797 311.767 82.7197 311.767 83.4397C311.767 84.2197 311.977 85.0297 312.397 85.8697C312.937 86.8897 313.177 87.7597 313.117 88.4797C313.117 89.1997 312.817 90.0697 312.217 91.0897C311.497 92.2897 310.987 93.2497 310.687 93.9697C310.207 95.4697 309.697 96.4597 309.157 96.9397C308.617 97.3597 307.387 97.8997 305.467 98.5597C303.787 99.0997 302.497 99.3697 301.597 99.3697C300.637 99.3697 299.887 99.4597 299.347 99.6397C298.867 99.8197 296.887 99.9397 293.407 99.9997C291.247 99.9997 289.567 100.03 288.367 100.09C287.227 100.09 286.087 100.15 284.947 100.27C283.867 100.39 283.087 100.51 282.607 100.63C282.187 100.75 281.767 100.96 281.347 101.26C280.987 101.56 280.747 101.89 280.627 102.25C280.507 102.55 280.387 102.97 280.267 103.51C279.967 104.71 279.787 105.43 279.727 105.67C279.667 106.09 279.937 106.51 280.537 106.93C281.137 107.35 281.947 107.65 282.967 107.83C284.047 108.01 285.157 108.07 286.297 108.01C287.557 107.89 288.757 107.95 289.897 108.19C291.037 108.43 291.727 108.49 291.967 108.37C292.267 108.19 294.937 108.04 299.977 107.92C305.077 107.8 308.167 107.83 309.247 108.01C309.787 108.13 310.117 108.76 310.237 109.9C310.357 111.04 310.177 111.91 309.697 112.51C309.217 113.05 308.947 113.53 308.887 113.95C308.707 114.55 308.437 114.94 308.077 115.12C307.717 115.3 307.087 115.36 306.187 115.3C304.987 115.24 303.577 115.24 301.957 115.3C300.157 115.36 298.597 115.3 297.277 115.12C295.957 114.94 294.697 114.97 293.497 115.21C292.297 115.45 290.947 115.48 289.447 115.3C287.887 115.18 285.937 115.06 283.597 114.94C280.357 114.88 277.837 114.34 276.037 113.32C274.237 112.24 272.917 110.59 272.077 108.37C271.537 106.93 271.267 105.91 271.267 105.31C271.267 104.65 271.537 103.81 272.077 102.79C272.497 102.01 272.737 101.5 272.797 101.26C272.857 101.02 272.827 100.66 272.707 100.18C272.407 99.0397 272.977 97.6897 274.417 96.1297C275.857 94.5097 277.177 93.7597 278.377 93.8797C279.037 93.9997 279.877 93.9097 280.897 93.6097C282.997 92.8897 285.157 92.4997 287.377 92.4397C294.697 92.1997 299.017 91.9897 300.337 91.8097C301.657 91.5697 302.527 90.9997 302.947 90.0997C303.247 89.3197 303.577 88.7197 303.937 88.2997C304.417 87.7597 304.597 86.9797 304.477 85.9597C304.417 84.8797 304.087 84.1897 303.487 83.8897C302.527 83.3497 300.997 83.0797 298.897 83.0797C296.857 83.0197 294.937 83.2297 293.137 83.7097C292.537 83.8897 291.607 84.0097 290.347 84.0697C289.087 84.1297 288.097 84.2797 287.377 84.5197C286.717 84.7597 285.517 84.8497 283.777 84.7897C282.097 84.6697 280.897 84.7297 280.177 84.9697C277.957 85.7497 276.187 85.7497 274.867 84.9697C273.547 84.1897 273.127 82.8997 273.607 81.0997C273.907 80.1397 274.717 79.2997 276.037 78.5797C277.357 77.8597 278.587 77.5897 279.727 77.7697C280.747 77.9497 281.527 77.9797 282.067 77.8597C282.607 77.6797 283.777 77.5597 285.577 77.4997C287.317 77.4397 288.607 77.2897 289.447 77.0497ZM289.987 118C290.527 117.7 291.397 117.7 292.597 118C293.857 118.3 294.727 118.72 295.207 119.26C295.687 119.8 295.987 120.37 296.107 120.97C296.287 121.51 296.317 122.41 296.197 123.67C296.137 125.23 296.167 126.13 296.287 126.37C296.407 126.49 297.787 126.58 300.427 126.64C303.127 126.64 304.627 126.55 304.927 126.37C305.287 126.19 308.587 126.01 314.827 125.83C316.207 125.77 317.047 125.83 317.347 126.01C317.647 126.19 317.977 126.79 318.337 127.81C318.757 128.89 318.847 129.85 318.607 130.69C318.427 131.53 317.947 131.95 317.167 131.95C316.987 131.95 316.477 132.1 315.637 132.4C313.597 133.12 311.707 133.24 309.967 132.76C309.007 132.52 308.317 132.46 307.897 132.58C306.877 132.82 305.047 133 302.407 133.12C299.827 133.24 298.057 133.21 297.097 133.03C296.437 132.91 295.987 132.94 295.747 133.12C295.507 133.3 294.877 133.39 293.857 133.39C292.837 133.39 291.877 133.51 290.977 133.75C290.137 133.99 289.087 134.08 287.827 134.02C287.047 134.02 285.337 134.05 282.697 134.11C280.537 134.23 278.887 134.17 277.747 133.93C276.727 133.69 275.737 133.57 274.777 133.57C273.457 133.57 272.407 133.27 271.627 132.67C270.907 132.13 270.547 131.35 270.547 130.33C270.547 129.07 271.387 128.14 273.067 127.54C274.807 126.94 276.817 126.85 279.097 127.27C280.057 127.45 280.957 127.48 281.797 127.36C282.457 127.24 283.537 127.06 285.037 126.82C286.237 126.64 286.957 126.43 287.197 126.19C287.497 125.95 287.647 125.41 287.647 124.57C287.647 123.73 287.797 122.92 288.097 122.14C288.457 121.36 288.637 120.73 288.637 120.25C288.637 119.29 289.087 118.54 289.987 118ZM401.294 84.7897C401.654 84.4897 402.194 84.3697 402.914 84.4297C403.634 84.4297 404.144 84.6097 404.444 84.9697C404.804 85.3897 405.074 85.5997 405.254 85.5997C406.214 85.5997 406.814 86.7697 407.054 89.1097C407.114 90.0097 407.234 91.1797 407.414 92.6197C407.474 93.3397 407.414 93.9997 407.234 94.5997C407.114 95.0197 406.964 96.0097 406.784 97.5697C406.604 99.1297 406.544 100.15 406.604 100.63V102.88V106.39C406.604 107.47 406.454 108.31 406.154 108.91C405.854 109.75 405.644 111.25 405.524 113.41C405.464 115.51 405.584 116.86 405.884 117.46C406.364 118.42 406.454 119.92 406.154 121.96C405.914 123.94 405.464 124.93 404.804 124.93C404.624 124.93 404.264 125.17 403.724 125.65C402.704 126.49 401.774 126.73 400.934 126.37C400.094 126.01 399.674 125.17 399.674 123.85C399.614 123.19 399.374 122.56 398.954 121.96C398.294 120.94 398.294 117.97 398.954 113.05C399.074 112.33 398.984 111.67 398.684 111.07C398.444 110.41 398.414 109.72 398.594 109C398.774 108.28 398.774 107.77 398.594 107.47C398.414 107.11 397.964 106.84 397.244 106.66C395.924 106.24 394.784 106.15 393.824 106.39C392.924 106.57 392.474 107.02 392.474 107.74C392.474 107.98 392.234 108.61 391.754 109.63C391.334 110.59 391.064 111.34 390.944 111.88C390.884 112.42 390.944 113.2 391.124 114.22C391.364 116.2 391.304 118.21 390.944 120.25C390.584 122.23 390.044 123.49 389.324 124.03C388.724 124.39 388.364 124.66 388.244 124.84C387.884 125.32 387.254 125.35 386.354 124.93C385.514 124.45 385.064 123.85 385.004 123.13C384.884 122.53 384.524 121.66 383.924 120.52C383.324 119.44 383.114 118.69 383.294 118.27C383.474 117.85 383.504 116.83 383.384 115.21C383.324 113.59 383.474 112.42 383.834 111.7C384.194 110.98 384.314 110.41 384.194 109.99C383.834 108.61 383.834 107.59 384.194 106.93C384.434 106.45 384.434 105.73 384.194 104.77C383.954 103.75 383.834 102.97 383.834 102.43C383.834 101.83 383.924 100.66 384.104 98.9197C384.404 96.9997 384.464 95.6497 384.284 94.8697C384.104 94.0297 384.134 93.2497 384.374 92.5297C384.674 91.8097 384.734 91.1497 384.554 90.5497C384.254 89.4697 384.374 88.3297 384.914 87.1297C385.514 85.9297 386.084 85.2397 386.624 85.0597C387.164 84.8797 388.154 85.0597 389.594 85.5997C389.654 85.5997 389.714 85.5997 389.774 85.5997C390.794 85.9597 391.394 86.4097 391.574 86.9497C391.754 87.4297 391.874 89.0497 391.934 91.8097C391.934 91.9297 391.934 92.0497 391.934 92.1697C391.934 95.9497 392.204 98.3197 392.744 99.2797C393.284 100.18 394.394 100.24 396.074 99.4597C396.734 99.1597 397.394 98.9197 398.054 98.7397C398.834 98.4997 399.314 97.8997 399.494 96.9397C399.734 95.9197 399.824 93.7297 399.764 90.3697C399.704 87.3097 400.214 85.4497 401.294 84.7897ZM353.684 87.6697C354.344 87.3697 354.824 87.2497 355.124 87.3097C355.424 87.3097 356.024 87.5197 356.924 87.9397C357.884 88.3597 358.514 88.8697 358.814 89.4697C359.174 90.0697 359.354 91.0297 359.354 92.3497C359.354 93.6097 359.144 95.8297 358.724 99.0097C358.304 102.79 358.244 105.01 358.544 105.67C358.784 106.09 359.054 106.99 359.354 108.37C359.594 110.05 359.924 111.16 360.344 111.7C360.824 112.24 361.604 112.51 362.684 112.51C363.524 112.51 364.364 112.63 365.204 112.87C365.924 113.11 366.524 113.11 367.004 112.87C367.484 112.69 368.414 112.54 369.794 112.42C371.054 112.36 372.044 112.3 372.764 112.24C373.544 112.12 374.114 112.15 374.474 112.33C374.834 112.51 375.524 112.66 376.544 112.78C378.404 113.02 379.574 114.04 380.054 115.84C380.414 116.86 380.024 117.91 378.884 118.99C377.804 120.07 376.664 120.52 375.464 120.34C373.964 120.16 371.774 120.19 368.894 120.43C367.514 120.55 366.644 120.61 366.284 120.61C365.924 120.55 365.504 120.43 365.024 120.25C364.604 120.01 364.244 119.89 363.944 119.89C363.644 119.83 362.984 119.92 361.964 120.16C361.604 120.28 361.034 120.16 360.254 119.8C359.534 119.5 358.844 119.35 358.184 119.35C357.644 119.35 356.624 118.63 355.124 117.19C353.624 115.75 352.664 114.55 352.244 113.59C351.344 111.67 350.714 109.09 350.354 105.85C350.054 102.55 350.174 100.21 350.714 98.8297C350.894 98.4097 350.984 97.1797 350.984 95.1397C350.984 90.9997 351.884 88.5097 353.684 87.6697ZM454.256 79.0297C454.676 78.6697 455.426 78.5197 456.506 78.5797C457.766 78.6997 458.576 78.9697 458.936 79.3897C459.296 79.7497 459.746 80.7997 460.286 82.5397C461.126 85.3597 461.456 89.1697 461.276 93.9697C461.096 98.7697 460.496 101.92 459.476 103.42C459.236 103.72 458.936 104.44 458.576 105.58C457.256 110.08 455.306 112 452.726 111.34C452.006 111.16 451.196 111.19 450.296 111.43C449.396 111.67 448.196 111.85 446.696 111.97C445.256 112.09 444.266 112.06 443.726 111.88C443.246 111.7 440.816 111.58 436.436 111.52C432.116 111.4 429.656 111.25 429.056 111.07C428.276 110.89 427.676 110.86 427.256 110.98C426.056 111.22 424.826 110.83 423.566 109.81C422.786 109.27 422.156 108.88 421.676 108.64C420.296 107.92 419.216 106.63 418.436 104.77C418.196 104.23 417.806 103.3 417.266 101.98C416.906 101.32 416.666 100.03 416.546 98.1097C416.486 96.3697 416.366 95.1097 416.186 94.3297C416.006 93.6697 415.976 92.9497 416.096 92.1697C416.276 91.5097 416.396 89.9497 416.456 87.4897C416.516 84.0697 416.996 81.7897 417.896 80.6497C418.796 79.4497 420.176 79.2697 422.036 80.1097C422.936 80.5297 423.476 80.9797 423.656 81.4597C423.896 81.8797 424.046 82.8397 424.106 84.3397C424.106 86.0197 424.166 87.0097 424.286 87.3097C424.466 87.5497 425.096 87.6997 426.176 87.7597C428.036 87.9997 429.476 87.9397 430.496 87.5797C431.276 87.2797 432.446 87.1897 434.006 87.3097C435.626 87.4297 436.826 87.3697 437.606 87.1297C438.926 86.7097 440.666 86.6497 442.826 86.9497C443.846 87.1297 444.746 87.0997 445.526 86.8597C446.366 86.6797 447.656 86.5897 449.396 86.5897C451.016 86.5897 452.006 86.4097 452.366 86.0497C452.786 85.6297 452.996 84.5197 452.996 82.7197C453.056 81.6397 453.146 80.8597 453.266 80.3797C453.446 79.8997 453.776 79.4497 454.256 79.0297ZM448.766 93.8797C447.506 93.5197 446.426 93.3697 445.526 93.4297C444.626 93.4897 443.456 93.7897 442.016 94.3297C440.996 94.7497 440.066 94.9297 439.226 94.8697C438.326 94.8097 436.826 94.8697 434.726 95.0497C432.566 95.1697 430.856 95.1097 429.596 94.8697C428.036 94.5697 426.956 94.4497 426.356 94.5097C425.816 94.5097 425.486 94.7497 425.366 95.2297C425.246 95.8897 425.246 97.2697 425.366 99.3697C425.546 101.47 425.726 102.67 425.906 102.97C426.266 103.33 427.196 103.63 428.696 103.87C430.196 104.05 431.396 104.05 432.296 103.87C433.616 103.63 434.936 103.69 436.256 104.05C437.276 104.41 438.206 104.5 439.046 104.32C439.886 104.14 441.056 104.17 442.556 104.41C444.056 104.65 445.676 104.68 447.416 104.5C449.216 104.26 450.356 103.96 450.836 103.6C451.316 103.18 451.706 102.31 452.006 100.99C452.186 100.21 452.486 99.5197 452.906 98.9197C453.566 97.8397 453.686 96.7897 453.266 95.7697C452.906 94.7497 452.156 94.2397 451.016 94.2397C450.356 94.2397 449.606 94.1197 448.766 93.8797ZM436.976 115.93C438.716 115.27 440.186 115.54 441.386 116.74C442.586 117.94 442.976 119.59 442.556 121.69C442.316 123.01 442.376 123.97 442.736 124.57C443.096 125.11 443.696 125.26 444.536 125.02C445.016 124.9 446.096 124.84 447.776 124.84C449.696 124.78 451.796 124.66 454.076 124.48C458.156 124.18 460.796 124.09 461.996 124.21C463.256 124.27 464.066 124.66 464.426 125.38C465.266 127.12 465.416 128.38 464.876 129.16C464.396 129.88 462.956 130.51 460.556 131.05C459.476 131.35 458.756 131.5 458.396 131.5C458.036 131.5 457.496 131.41 456.776 131.23C454.916 130.69 451.976 130.84 447.956 131.68C446.756 131.86 445.826 131.83 445.166 131.59C443.906 131.11 442.556 131.08 441.116 131.5C439.496 131.92 436.706 132.19 432.746 132.31C428.786 132.43 426.056 132.34 424.556 132.04C423.536 131.8 422.306 131.62 420.866 131.5C418.646 131.32 417.326 130.75 416.906 129.79C416.186 127.93 416.636 126.52 418.256 125.56C419.936 124.6 422.246 124.42 425.186 125.02C425.966 125.14 427.526 125.14 429.866 125.02C432.266 124.84 433.586 124.66 433.826 124.48C434.006 124.3 434.126 123.67 434.186 122.59C434.306 121.57 434.486 120.79 434.726 120.25C434.966 119.77 435.086 119.23 435.086 118.63C435.086 118.03 435.266 117.49 435.626 117.01C435.986 116.47 436.436 116.11 436.976 115.93ZM520.737 84.7897C521.097 84.4897 521.637 84.3697 522.357 84.4297C523.077 84.4297 523.587 84.6097 523.887 84.9697C524.247 85.3897 524.517 85.5997 524.697 85.5997C525.657 85.5997 526.257 86.7697 526.497 89.1097C526.557 90.0097 526.677 91.1797 526.857 92.6197C526.917 93.3397 526.857 93.9997 526.677 94.5997C526.557 95.0197 526.407 96.0097 526.227 97.5697C526.047 99.1297 525.987 100.15 526.047 100.63V102.88V106.39C526.047 107.47 525.897 108.31 525.597 108.91C525.297 109.75 525.087 111.25 524.967 113.41C524.907 115.51 525.027 116.86 525.327 117.46C525.807 118.42 525.897 119.92 525.597 121.96C525.357 123.94 524.907 124.93 524.247 124.93C524.067 124.93 523.707 125.17 523.167 125.65C522.147 126.49 521.217 126.73 520.377 126.37C519.537 126.01 519.117 125.17 519.117 123.85C519.057 123.19 518.817 122.56 518.397 121.96C517.737 120.94 517.737 117.97 518.397 113.05C518.517 112.33 518.427 111.67 518.127 111.07C517.887 110.41 517.857 109.72 518.037 109C518.217 108.28 518.217 107.77 518.037 107.47C517.857 107.11 517.407 106.84 516.687 106.66C515.367 106.24 514.227 106.15 513.267 106.39C512.367 106.57 511.917 107.02 511.917 107.74C511.917 107.98 511.677 108.61 511.197 109.63C510.777 110.59 510.507 111.34 510.387 111.88C510.327 112.42 510.387 113.2 510.567 114.22C510.807 116.2 510.747 118.21 510.387 120.25C510.027 122.23 509.487 123.49 508.767 124.03C508.167 124.39 507.807 124.66 507.687 124.84C507.327 125.32 506.697 125.35 505.797 124.93C504.957 124.45 504.507 123.85 504.447 123.13C504.327 122.53 503.967 121.66 503.367 120.52C502.767 119.44 502.557 118.69 502.737 118.27C502.917 117.85 502.947 116.83 502.827 115.21C502.767 113.59 502.917 112.42 503.277 111.7C503.637 110.98 503.757 110.41 503.637 109.99C503.277 108.61 503.277 107.59 503.637 106.93C503.877 106.45 503.877 105.73 503.637 104.77C503.397 103.75 503.277 102.97 503.277 102.43C503.277 101.83 503.367 100.66 503.547 98.9197C503.847 96.9997 503.907 95.6497 503.727 94.8697C503.547 94.0297 503.577 93.2497 503.817 92.5297C504.117 91.8097 504.177 91.1497 503.997 90.5497C503.697 89.4697 503.817 88.3297 504.357 87.1297C504.957 85.9297 505.527 85.2397 506.067 85.0597C506.607 84.8797 507.597 85.0597 509.037 85.5997C509.097 85.5997 509.157 85.5997 509.217 85.5997C510.237 85.9597 510.837 86.4097 511.017 86.9497C511.197 87.4297 511.317 89.0497 511.377 91.8097C511.377 91.9297 511.377 92.0497 511.377 92.1697C511.377 95.9497 511.647 98.3197 512.187 99.2797C512.727 100.18 513.837 100.24 515.517 99.4597C516.177 99.1597 516.837 98.9197 517.497 98.7397C518.277 98.4997 518.757 97.8997 518.937 96.9397C519.177 95.9197 519.267 93.7297 519.207 90.3697C519.147 87.3097 519.657 85.4497 520.737 84.7897ZM473.127 87.6697C473.787 87.3697 474.267 87.2497 474.567 87.3097C474.867 87.3097 475.467 87.5197 476.367 87.9397C477.327 88.3597 477.957 88.8697 478.257 89.4697C478.617 90.0697 478.797 91.0297 478.797 92.3497C478.797 93.6097 478.587 95.8297 478.167 99.0097C477.747 102.79 477.687 105.01 477.987 105.67C478.227 106.09 478.497 106.99 478.797 108.37C479.037 110.05 479.367 111.16 479.787 111.7C480.267 112.24 481.047 112.51 482.127 112.51C482.967 112.51 483.807 112.63 484.647 112.87C485.367 113.11 485.967 113.11 486.447 112.87C486.927 112.69 487.857 112.54 489.237 112.42C490.497 112.36 491.487 112.3 492.207 112.24C492.987 112.12 493.557 112.15 493.917 112.33C494.277 112.51 494.967 112.66 495.987 112.78C497.847 113.02 499.017 114.04 499.497 115.84C499.857 116.86 499.467 117.91 498.327 118.99C497.247 120.07 496.107 120.52 494.907 120.34C493.407 120.16 491.217 120.19 488.337 120.43C486.957 120.55 486.087 120.61 485.727 120.61C485.367 120.55 484.947 120.43 484.467 120.25C484.047 120.01 483.687 119.89 483.387 119.89C483.087 119.83 482.427 119.92 481.407 120.16C481.047 120.28 480.477 120.16 479.697 119.8C478.977 119.5 478.287 119.35 477.627 119.35C477.087 119.35 476.067 118.63 474.567 117.19C473.067 115.75 472.107 114.55 471.687 113.59C470.787 111.67 470.157 109.09 469.797 105.85C469.497 102.55 469.617 100.21 470.157 98.8297C470.337 98.4097 470.427 97.1797 470.427 95.1397C470.427 90.9997 471.327 88.5097 473.127 87.6697ZM578.109 84.1597C578.829 83.8597 579.669 83.8897 580.629 84.2497C581.289 84.4897 581.829 84.6097 582.249 84.6097C583.989 84.6097 584.589 88.2397 584.049 95.4997C583.809 99.5197 583.689 102.79 583.689 105.31C583.689 106.51 583.539 107.44 583.239 108.1C582.879 108.76 582.759 109.51 582.879 110.35C583.119 111.85 583.239 114.46 583.239 118.18C583.299 121.9 583.239 123.94 583.059 124.3C582.939 124.54 582.429 124.99 581.529 125.65C580.689 126.31 580.119 126.67 579.819 126.73C579.519 126.79 579.039 126.67 578.379 126.37C577.719 126.01 577.209 125.65 576.849 125.29C576.609 124.93 576.429 124.33 576.309 123.49C576.249 122.59 576.039 121.81 575.679 121.15C575.379 120.61 575.169 119.08 575.049 116.56C574.989 113.98 575.079 112.15 575.319 111.07C575.439 110.41 575.409 109.72 575.229 109C575.049 108.22 575.049 107.47 575.229 106.75C575.409 106.03 575.379 105.22 575.139 104.32C574.899 103.42 574.899 102.46 575.139 101.44C575.679 99.5197 575.979 96.2497 576.039 91.6297C576.099 88.7497 576.189 87.1297 576.309 86.7697C576.489 86.2297 576.759 85.6897 577.119 85.1497C577.539 84.6097 577.869 84.2797 578.109 84.1597ZM546.519 85.2397C547.059 84.9997 548.109 84.9097 549.669 84.9697C551.289 85.0297 552.459 85.1797 553.179 85.4197C553.719 85.5397 554.349 85.5697 555.069 85.5097C556.329 85.3297 557.409 85.6897 558.309 86.5897C558.969 87.1297 559.539 87.4897 560.019 87.6697C560.559 87.8497 561.039 88.1797 561.459 88.6597C561.879 89.0797 562.149 89.5297 562.269 90.0097C562.269 90.0097 562.299 90.1897 562.359 90.5497C562.419 90.8497 562.479 91.0597 562.539 91.1797C562.599 91.5397 562.809 91.9597 563.169 92.4397C563.409 92.7997 563.559 93.2497 563.619 93.7897C563.679 94.3297 563.739 96.1297 563.799 99.1897C563.859 99.9097 563.829 100.45 563.709 100.81C563.589 101.17 563.169 101.95 562.449 103.15C561.429 104.89 560.709 106.21 560.289 107.11C559.749 108.13 558.999 109.12 558.039 110.08C557.139 111.04 556.479 111.91 556.059 112.69C555.759 113.23 555.279 113.77 554.619 114.31C554.019 114.79 552.459 115.96 549.939 117.82C548.859 118.6 548.019 119.26 547.419 119.8C546.819 120.34 546.129 120.79 545.349 121.15C544.569 121.51 543.999 121.87 543.639 122.23C542.559 123.19 541.269 123.46 539.769 123.04C538.329 122.62 537.429 121.72 537.069 120.34C536.829 119.38 537.129 118.27 537.969 117.01C538.809 115.69 539.739 114.94 540.759 114.76C541.779 114.52 543.129 113.68 544.809 112.24C545.649 111.4 546.549 110.71 547.509 110.17C549.249 109.09 550.869 107.5 552.369 105.4C553.929 103.24 554.859 101.29 555.159 99.5497C555.279 98.5897 555.429 98.0197 555.609 97.8397C555.789 97.5997 555.879 97.0897 555.879 96.3097C555.939 95.1697 555.519 94.3297 554.619 93.7897C553.719 93.2497 552.309 92.9797 550.389 92.9797C544.749 93.0397 541.119 93.2497 539.499 93.6097C538.299 93.8497 537.399 93.8497 536.799 93.6097C536.259 93.3097 535.929 92.6497 535.809 91.6297C535.569 89.9497 535.449 88.9597 535.449 88.6597C535.449 88.2997 535.629 87.9397 535.989 87.5797C536.589 86.7997 537.339 86.2897 538.239 86.0497C539.199 85.7497 540.579 85.5997 542.379 85.5997C544.479 85.5997 545.859 85.4797 546.519 85.2397Z" fill="black"/>
</svg>
