<svg width="699" height="204" viewBox="0 0 699 204" fill="none" xmlns="http://www.w3.org/2000/svg">
<path d="M13 102.233C13 55.1603 51.1603 17 98.2334 17H597.078C644.152 17 682.312 55.1603 682.312 102.233V102.233C682.312 149.307 644.151 187.467 597.078 187.467H98.2333C51.1602 187.467 13 149.307 13 102.233V102.233Z" fill="#FFDA7D"/>
<path d="M556.133 0.746094L558.656 1.04297C560.67 1.31949 562.671 1.75531 564.668 2.23047L569.863 3.41797C573.028 4.17721 575.88 5.64624 578.398 7.5L580.922 9.42969L583.445 11.2852L585.301 11.1367L587.824 11.0625C589.175 11.0202 590.565 10.9608 591.906 10.7656L596.953 10.0234C600.281 9.5391 603.616 9.8962 606.75 11.1367L609.125 12.1016L611.5 12.9922C611.888 13.1465 612.298 13.2266 612.688 13.2148L617.734 13.0664L622.855 13.6602C624.479 14.0785 626.046 14.7155 627.531 15.5898L629.758 16.8516L631.91 18.1875C632.406 18.4766 632.971 18.6465 633.617 18.7812L638.664 19.8203C640.656 20.2253 642.51 21.0075 644.156 22.0469L648.461 25.9805L650.02 28.0586L650.094 28.207L652.32 28.1328L655.809 27.9844L659.816 28.2812C661.233 28.5802 662.688 29.1604 664.121 30.0625C665.671 31.039 666.917 32.2165 667.832 33.5508L669.688 37.707L670.504 40.6016L671.246 43.4219C671.666 44.9822 672.103 46.3605 672.582 47.5039L673.621 49.8789L674.586 52.2539C675.721 54.9665 676.357 57.8046 676.441 60.7148L676.516 63.3867V65.8359L677.703 67.3945L679.113 69.3984C679.989 70.5954 680.962 71.8717 682.008 73.1836L685.422 77.3398C687.129 79.4808 688.439 81.9082 689.43 84.4648L691.359 89.3633C691.78 90.447 692.395 91.6761 693.215 93.0742L696.332 98.418C698.309 101.785 699.29 105.705 698.781 109.848L698.484 112.594L698.113 115.34C697.581 119.675 695.485 123.276 692.621 126.027L690.32 128.254L689.281 129.145L689.504 130.184L690.023 133.227C690.951 138.426 689.334 143.566 685.051 147.105L682.75 148.961L680.523 150.816C678.715 152.308 676.826 153.685 674.883 154.898L670.133 157.867C669.606 158.196 669.391 158.422 669.316 158.535L667.98 160.613L666.57 162.766C666.031 163.598 665.525 164.635 665.012 165.883L663.898 168.48L662.859 171.152C661.861 173.584 660.534 175.845 659 177.98L655.734 182.582C652.865 186.576 648.552 188.776 643.859 189.039L637.922 189.336C636.288 189.428 634.834 189.628 633.543 189.855L628.348 190.746C627.501 190.897 626.726 191.198 625.973 191.562L623.598 192.676L621.297 193.863C616.315 196.288 611.245 195.346 607.344 193.121L604.598 191.562L603.113 190.672L602.52 190.969L600.07 191.859C597.159 192.996 594.068 193.492 590.941 193.27L588.418 193.121L587.23 192.973L585.152 194.902L582.629 197.203C580.693 198.949 577.767 200.774 574.02 200.914C570.22 201.05 567.141 199.461 565.039 197.723L562.738 195.719L560.883 196.98C558.872 198.279 556.386 199.244 553.535 199.355C550.657 199.468 548.051 198.654 545.891 197.426L544.258 196.461V196.535L541.734 198.984C539.914 200.698 537.201 202.468 533.645 202.844C529.929 203.231 526.735 201.927 524.441 200.246L521.918 198.391L519.32 196.461C518.369 195.767 517.672 195.47 517.242 195.348L514.645 194.605L512.121 193.938C510.273 193.414 508.397 192.848 506.555 192.23L503.957 191.34L501.434 190.449C501.067 190.326 500.808 190.353 500.617 190.375L498.02 190.746L495.422 191.043C493.165 191.349 490.865 191.512 488.594 191.414L486.07 191.266L483.473 191.191C483.17 191.182 482.769 191.197 482.211 191.414L479.688 192.379L477.09 193.418C476.129 193.791 475.014 194.316 473.824 195.125L471.301 196.906L468.703 198.613C466.237 200.288 462.926 201.47 459.203 200.84C455.73 200.244 453.183 198.265 451.484 196.535L451.113 196.164L450.148 197.426C447.571 200.53 442.939 204.416 436.492 203.586L433.969 203.215L431.371 202.918C426.088 202.231 422.377 198.78 420.016 195.793L417.492 192.527L416.23 190.969L414.598 191.414C412.992 191.853 411.381 192.332 409.773 192.824L407.176 193.641L404.578 194.383C403.501 194.714 402.373 195.224 401.164 195.867L398.566 197.203L396.043 198.613C393.509 199.96 390.428 200.558 387.211 199.949C384.164 199.366 381.745 197.816 380.012 196.238L379.27 195.57L378.008 196.98C375.115 200.097 370.208 203.382 363.906 202.027L361.383 201.434L358.785 200.914C357.841 200.711 356.932 200.658 356.039 200.691L353.441 200.766L350.918 200.84C347.945 200.956 345.004 200.475 342.234 199.504L339.711 198.613L337.113 197.723C335.42 197.129 333.686 196.528 331.992 195.941L329.469 195.051L326.871 194.16C324.927 193.486 323.004 192.704 321.082 191.859L318.484 190.746L315.961 189.633C315.496 189.428 315.202 189.407 315.07 189.41L312.473 189.559L309.949 189.633C309.021 189.675 307.996 189.857 306.98 190.152L304.457 190.895L301.859 191.637C299.285 192.382 296.605 192.791 293.918 192.75L291.395 192.676L289.984 192.602L287.684 194.828L285.086 197.129C283.245 198.799 280.588 200.476 277.145 200.84C273.56 201.215 270.474 200.003 268.164 198.391L262.969 194.828C262.158 194.265 261.675 194.125 261.484 194.086L258.887 193.566L257.105 193.195L254.953 194.383L252.43 195.719C247.675 198.274 242.368 198.036 237.883 195.348L235.359 193.789L232.762 192.305L232.688 192.23L230.609 192.379L228.012 192.602C225.614 192.76 223.191 192.669 220.812 192.305L218.289 191.859L215.691 191.488C214.572 191.318 213.451 191.225 212.352 191.266L209.828 191.414L207.23 191.488H207.305C207.232 191.527 207.131 191.629 207.008 191.711L204.484 193.418L201.887 195.125C198.095 197.649 193.296 198.748 188.379 197.055L185.855 196.164L183.258 195.273C181.449 194.65 179.645 193.96 177.84 193.27L175.242 192.305L173.016 191.414L171.012 192.082L168.414 192.75C167.015 193.145 165.612 193.675 164.184 194.234L161.586 195.199L159.062 196.238C157.672 196.783 156.264 197.431 154.832 198.168L152.234 199.43L149.711 200.766C146.952 202.187 143.629 202.703 140.285 201.805C137.204 200.972 134.902 199.177 133.309 197.5L130.711 194.828L128.855 192.824L128.41 192.898L125.812 193.121C124.886 193.221 123.887 193.491 122.844 193.863L120.32 194.754L117.723 195.645C115.801 196.329 113.87 196.966 111.934 197.5L109.41 198.168L106.812 198.91C104.504 199.547 102.149 199.926 99.7617 200.098L97.0898 200.32L94.4922 200.469C90.0562 200.788 86.0794 199.323 82.9141 196.832L78.1641 193.121C76.3456 191.688 74.6282 190.15 73.043 188.594L72.2266 187.777L71.4102 188.297L67.9219 190.375C65.9626 191.514 62.5786 193.038 58.5703 192.379C53.8647 191.591 50.9772 188.352 49.5898 185.477L48.2539 182.582L46.8438 179.688C46.1921 178.337 45.5563 177.494 45.1367 177.016L43.5039 175.16L41.7969 173.23C41.2034 172.557 40.5528 171.991 39.8672 171.523L37.8633 170.113L35.7852 168.703C34.9867 168.161 33.9849 167.609 32.7422 167.07L27.5469 164.844C25.0898 163.78 22.762 162.398 20.6445 160.762L18.418 159.055L16.1914 157.273C11.5935 153.718 10.0701 148.495 10.7734 143.543L11.2188 140.426L10.7734 140.203L7.80469 138.496C5.17629 137.003 1.66347 133.827 1.42188 128.551C1.22661 124.086 3.60519 120.754 5.05859 119.051L7.80469 115.785L9.80859 113.41L9.14062 111.703C8.91264 111.111 8.44177 110.23 7.58203 109.031L3.87109 103.836C1.2024 100.12 -0.170744 95.2062 1.64453 90.0312L3.42578 84.9844C4.65809 81.4757 6.83055 78.5539 9.51172 76.3008L11.8867 74.3711L13 73.4062L12.9258 72.8125L12.7773 70.0664C12.6142 66.8302 13.1509 63.5866 14.5586 60.5664L15.6719 58.2656L16.7109 55.9648C18.5161 52.1052 21.6277 49.4539 25.1719 47.875L26.0625 47.4297L25.9141 46.4648L25.1719 42.3086C24.376 38.0479 24.5031 31.1226 30.7383 26.9453L35.3398 23.8281C40.3736 20.4624 45.9901 21.2256 49.9609 22.5664L52.2617 23.3086L52.5586 22.418C53.6111 18.6296 55.7188 14.8017 59.4609 12.1016L61.6875 10.3945L63.9883 8.76172L67.3281 6.98047C69.6596 6.07522 72.0856 5.79923 74.4531 6.08984L77.8672 6.90625L80.8359 7.94531L83.1367 8.83594L84.6953 8.09375L87.2188 6.98047L91.9688 5.57031C92.8722 5.44755 94.0039 5.34695 95.2344 5.49609L99.2422 6.75781L100.355 7.35156L101.543 8.01953C103.043 8.82147 104.817 10.0742 106.516 11.3594L109.113 13.2891L109.855 13.957L109.93 13.8828L112.527 12.7695L117.797 11.4336C119.597 11.2496 121.437 11.3372 123.289 11.7305L125.887 12.25L126.926 12.5469L128.781 11.2852L131.379 9.57812L135.016 7.72266C136.394 7.26823 137.91 7.00686 139.543 7.05469C141.156 7.1055 142.669 7.4292 143.996 7.94531L147.559 9.94922L150.082 11.8789L152.68 13.8086V13.8828H154.832L155.277 13.957L157.578 11.1367L160.102 8.01953C162.659 4.86401 167.471 0.714922 174.203 1.85938L176.801 2.30469L179.324 2.75C179.774 2.82739 180.248 2.85571 180.734 2.75L185.93 1.5625L190.086 1.26562C194.036 1.57374 197.31 3.5634 199.66 5.79297L201.812 7.87109L203.297 6.90625L208.492 4.45703C209.444 4.18741 210.442 4.03268 211.461 3.9375H214.652L217.176 4.23438L219.773 4.45703C224.117 4.90676 227.62 7.10763 230.312 9.57812L232.91 11.8789L235.508 14.2539C235.621 14.3569 235.66 14.4963 235.73 14.5508L237.66 14.6992L240.258 14.9219C241.349 15.0281 242.434 15.021 243.523 14.9219L248.719 14.4766C250.097 14.3476 251.484 14.1533 252.875 13.8828L255.473 13.3633L257.996 12.8438C258.525 12.7407 259.238 12.4843 260.148 11.9531L262.746 10.4688L265.27 8.98438C268.458 7.12186 272.227 6.09945 276.254 6.53516L278.777 6.75781L281.375 7.05469C285.07 7.45509 288.352 8.99329 291.098 10.9883L293.621 12.8438L295.328 14.1055L298.223 13.4375C298.356 13.3136 298.594 13.1032 298.816 12.8438L301.34 9.875L303.938 6.90625L307.871 3.56641C309.654 2.59119 311.898 1.98885 314.551 2.23047C317.006 2.45594 319.02 3.33716 320.562 4.45703L323.902 7.87109L325.387 9.875C328.77 6.87126 333.793 4.67881 339.562 6.46094L342.16 7.20312L344.758 8.01953C345.281 8.1781 345.718 8.20648 346.094 8.16797L348.617 7.94531L351.215 7.64844L357.078 8.09375L362.273 10.3203L364.871 11.9531L365.094 12.1016L365.316 11.9531L367.914 10.4688C370.461 8.98121 373.258 7.86484 376.227 7.35156L378.75 6.90625L381.348 6.46094L384.762 6.3125C385.892 6.37288 386.982 6.54424 388.027 6.83203L393.594 9.50391L396.191 11.3594L396.785 11.8789L396.934 11.8047L399.457 10.6172C401.266 9.78391 403.212 9.24048 405.172 9.05859L411.109 9.57812L413.633 10.2461L414.301 10.4688L415.785 9.42969L418.309 7.5C421.405 5.2065 425.372 3.571 429.887 3.9375L432.484 4.16016L435.008 4.38281C435.394 4.41433 435.856 4.41654 436.418 4.23438L439.016 3.34375L441.539 2.52734C445.17 1.33851 448.721 1.64422 451.855 2.89844L454.824 4.38281L457.348 6.08984L459.945 7.72266C461.186 8.52771 462.348 9.13442 463.434 9.57812L466.031 10.6172L467.961 11.4336L469.742 10.8398L472.34 9.94922C474.014 9.40105 475.734 9.12814 477.461 9.05859L482.73 9.57812L485.328 10.2461V10.3203L486.738 8.98438L489.336 6.60938L493.566 3.86328C495.306 3.1581 497.344 2.73356 499.652 3.04688C503.892 3.62428 506.7 6.27659 508.262 8.16797L509.375 9.57812L509.746 9.28125C512.129 6.97979 514.927 4.98078 518.207 3.78906L520.805 2.82422L523.328 1.93359C526.778 0.685983 530.373 0.994435 533.422 2.52734C536.068 3.85796 537.888 5.94099 539.211 7.72266L539.359 7.57422C541.586 4.42484 546.293 -0.619615 553.535 0.375L556.133 0.746094ZM207.453 191.488H207.305V191.414H207.453V191.488ZM552.273 22.1953L549.75 25.7578C548.4 27.6676 545.144 31.4825 539.656 31.6211C534.048 31.7549 530.621 28.004 529.191 26.0547L526.594 22.5664L525.629 21.2305L524.664 21.6016C524.511 21.6604 523.947 21.9831 522.957 22.9375L520.359 25.3867L517.762 27.9102C515.668 29.9197 512.094 32.1174 507.445 31.5469C503.17 31.0108 500.33 28.3923 498.762 26.5L497.426 24.9414L497.203 25.2383C494.009 28.2375 489.093 30.7798 483.25 29.3203L480.652 28.6523L478.277 27.9844V28.0586L475.68 28.875L473.156 29.6914C469.251 30.9764 465.168 30.8368 461.43 29.3203L458.906 28.2812L456.309 27.2422C453.997 26.3038 451.783 25.0754 449.629 23.6797L447.031 22.0469L445.695 21.1562L444.879 21.4531L442.355 22.2695C439.504 23.2031 436.48 23.5561 433.449 23.3086L430.926 23.0859L429.367 22.9375L427.066 24.6445L424.543 26.5742C421.024 29.1808 416.339 30.6928 411.258 29.3203L408.66 28.5781L406.879 28.0586L404.875 29.0234L402.277 30.2109C397.054 32.6049 391.74 31.5817 387.656 28.6523L385.133 26.7969L383.203 25.4609L382.016 25.6836L379.418 26.1289C378.978 26.2081 378.336 26.3756 377.488 26.8711L374.891 28.3555L372.367 29.9141C370.252 31.151 367.652 31.9664 364.797 31.918C361.974 31.8629 359.488 30.9497 357.449 29.6914L354.852 28.0586L352.477 26.5742L350.547 26.7969L348.023 27.0938C344.99 27.405 341.995 27.0203 339.117 26.1289L336.52 25.3867V25.3125L335.406 26.3516L332.883 28.6523C330.522 30.7746 326.589 32.8498 321.824 31.7695C317.729 30.8328 315.133 28.0193 313.734 26.1289L313.066 25.2383C310.661 28.0276 307.383 30.9465 302.898 31.918L297.703 32.957C292.819 33.9987 288.405 32.5283 285.012 30.0625L282.488 28.207L279.891 26.3516C279.551 26.1049 279.309 26.0163 279.223 25.9805C279.175 25.9618 279.21 25.9688 279.297 25.9805L276.773 25.6836L274.695 25.3867L272.32 26.8711L269.723 28.3555C267.218 29.8173 264.52 30.9104 261.633 31.4727L259.109 31.9922L256.512 32.5117C254.498 32.9038 252.453 33.214 250.426 33.4023L247.902 33.625L245.305 33.8477C243.005 34.0605 240.701 34.0723 238.402 33.8477L235.805 33.5508L233.281 33.3281C228.91 32.8977 225.294 30.7605 222.594 28.2812L220.07 25.9062L217.473 23.5312C217.355 23.4246 217.248 23.3638 217.176 23.3086L215.246 23.0859L213.539 22.9375L211.238 24.4961L208.641 26.2031C206.239 27.7921 203.076 28.8568 199.512 28.3555C196.105 27.8721 193.494 26.1064 191.719 24.4219L189.195 21.9727L187.711 20.5625L187.562 20.6367L184.965 21.2305C182.053 21.8908 179.084 21.961 176.133 21.4531L173.906 21.0078L172.273 23.0859L169.75 26.2773C167.288 29.3152 163.056 32.9757 157.059 32.8828H154.535L151.938 32.8086C147.785 32.7407 144.156 31.1954 141.25 29.0234L139.023 27.3164L136.945 28.7266C133.521 31.0697 129.196 32.4007 124.477 31.3984L121.879 30.8789L119.652 30.3594L117.277 31.3984L114.754 32.4375C109.39 34.682 104.107 33.3752 100.207 30.4336L97.6094 28.4297L95.0859 26.5C94.315 25.9164 93.6922 25.4823 93.2305 25.1641L93.082 25.0898L92.4883 25.3867L90.0391 26.5C85.835 28.389 81.4612 28.2992 77.5703 26.9453L74.6016 25.9062L73.2656 25.4609L72.8203 25.832L71.0391 27.0195C71.0038 27.1019 70.9523 27.2469 70.8906 27.4648L69.9258 31.0273L68.8867 34.5898C68.0818 37.4648 66.1545 41.1629 61.9102 43.0508C57.9949 44.7908 54.208 44.0039 51.8164 43.1992L47.8086 41.8633L44.3203 40.6758L44.1719 40.75L44.6172 42.9766L45.4336 47.1328C45.8528 49.3768 46.0175 52.349 44.9883 55.3711C43.8161 58.7912 41.3309 61.4958 38.0859 62.9414L35.4883 64.0547L33.4844 64.9453L32.8906 66.3555L31.7773 68.6562C31.755 68.7157 31.7649 68.8425 31.7773 69.1016L31.9258 71.7734L32 74.5195C32.261 79.7147 29.9195 83.9873 26.4336 86.9141L24.1328 88.918L21.7578 90.8477C21.5473 91.0244 21.4312 91.1606 21.3867 91.2188L20.4961 93.8164L20.3477 94.1875L21.1641 95.3008L23.0195 97.8984C24.6128 100.115 26.0047 102.519 26.9531 105.023L27.7695 107.324L28.6602 109.625C31.1796 116.279 27.5097 121.932 25.0977 124.766L23.9844 125.953C25.8905 127.181 27.8169 128.855 29.1055 131.297C30.6092 134.149 30.9006 137.195 30.5156 139.906L30.0703 143.023L29.9219 143.914L29.9961 143.988L32.2969 145.695C33.1535 146.357 34.0374 146.966 35.043 147.402L40.2383 149.629C42.4454 150.584 44.5469 151.732 46.4727 153.043L48.5508 154.379L50.6289 155.789C52.6665 157.179 54.4933 158.833 56.1211 160.688L57.7539 162.617L59.4609 164.473C61.1182 166.361 62.3952 168.581 63.543 170.855L65.4727 169.816L68.8867 168.258C70.1831 167.824 71.6332 167.548 73.1914 167.516C76.6764 167.445 79.9203 168.73 82.3945 171.152L84.3984 173.082L86.4023 175.086C87.4549 176.118 88.6527 177.169 89.9648 178.203L92.3398 180.059L94.0469 181.469L95.7539 181.395L98.4258 181.172C99.5527 181.089 100.665 180.882 101.766 180.578L104.363 179.91L106.887 179.168C108.363 178.761 109.848 178.289 111.34 177.758L113.938 176.867L116.461 175.902C118.835 175.057 121.317 174.537 123.809 174.27L126.332 173.973L128.93 173.676L133.012 173.824C136.825 174.541 139.818 176.815 141.918 179.02L144.516 181.691L144.738 181.914L146.074 181.246C148.059 180.223 150.134 179.294 152.16 178.5L154.684 177.535L157.281 176.496C159.261 175.722 161.284 175.059 163.293 174.492L165.816 173.75L168.414 173.082L174.055 172.414L179.473 173.602L182.07 174.566L184.594 175.531C186.206 176.148 187.884 176.759 189.492 177.312L192.016 178.203L192.684 178.426L193.945 177.609L196.469 175.902C199.345 173.985 202.773 172.628 206.562 172.488L209.086 172.414L211.684 172.34C213.993 172.256 216.296 172.361 218.586 172.711L221.184 173.082L223.707 173.453C224.731 173.61 225.745 173.667 226.75 173.602L229.348 173.453L231.871 173.305L237.512 173.824C239.308 174.299 241.003 175.044 242.559 175.977L245.082 177.535L245.527 177.758L245.973 177.609L248.57 176.199L254.062 174.344L260 174.418L262.598 174.938L265.121 175.383C268.35 176.02 271.3 177.441 273.879 179.242L275.363 180.281L277.441 178.426C280.296 175.833 284.239 173.608 289.094 173.676H291.691L294.215 173.75C294.942 173.761 295.749 173.623 296.59 173.379L299.113 172.637L301.711 171.895C304.113 171.197 306.569 170.819 309.059 170.707L311.656 170.559L314.18 170.41C317.478 170.262 320.683 170.982 323.605 172.266L326.129 173.379L328.727 174.492C330.196 175.137 331.658 175.697 333.105 176.199L335.703 177.09L338.227 177.98C339.948 178.577 341.7 179.232 343.422 179.836L345.945 180.727L348.543 181.617C349.191 181.844 349.73 181.931 350.176 181.914L352.699 181.766L355.297 181.691C357.816 181.594 360.326 181.829 362.793 182.359L365.168 182.805L366.652 181.32L369.176 178.5C370.902 176.639 373.834 174.396 377.934 174.047C380.088 173.866 382.011 174.256 383.648 174.938L387.73 177.535L390.254 179.836L390.402 179.984L392.258 179.094C394.45 177.929 396.687 176.913 399.012 176.199L401.609 175.457L404.207 174.641C405.988 174.096 407.768 173.57 409.551 173.082L412.148 172.414L414.746 171.672L419.793 171.301C422.88 171.7 425.431 173.238 427.363 174.938L429.812 177.535L432.336 180.727L434.934 183.992C434.993 184.067 435.031 184.155 435.082 184.215L436.27 184.289L438.125 182.211L440.648 179.094C442.235 177.179 445.244 174.467 449.703 174.047C452.075 173.829 454.151 174.284 455.863 175.086L459.871 178.055L462.023 180.207L463.211 179.465C465.434 177.954 467.737 176.632 470.188 175.68L472.785 174.715L475.309 173.676C478.146 172.574 481.184 172.062 484.289 172.191L486.887 172.266L489.41 172.414C490.551 172.463 491.744 172.423 492.898 172.266L495.422 171.895L498.02 171.523C501.239 171.086 504.418 171.473 507.445 172.488L510.043 173.305L512.566 174.195C514.123 174.717 515.692 175.166 517.242 175.605L522.438 177.09C525.403 177.934 528.09 179.389 530.527 181.172L531.863 182.137L533.793 180.281C535.519 178.656 537.979 177.015 541.141 176.422C542.812 176.11 544.452 176.133 545.965 176.422L550.195 177.98L552.719 179.465H552.793L553.164 179.316L555.688 177.684C557.98 176.201 560.954 175.23 564.297 175.531C567.526 175.828 570.119 177.234 572.016 178.797L573.352 179.91L574.984 178.5C577.926 175.847 582.088 173.62 587.156 173.973L589.754 174.121L592.277 174.344C592.57 174.365 592.86 174.315 593.168 174.195L595.543 173.23L597.992 172.266C601.623 170.851 605.183 171.11 608.309 172.191L611.277 173.527L614.023 175.086L615.062 175.68L615.285 175.605L617.66 174.492C620.013 173.349 622.506 172.499 625.082 172.043L627.605 171.598L630.203 171.152C632.339 170.774 634.577 170.54 636.883 170.41L639.852 170.262L641.262 170.113L641.93 169.223L643.562 166.922C644.233 165.989 644.835 165.007 645.27 163.953L646.309 161.281L647.422 158.684C648.336 156.458 649.414 154.331 650.688 152.375L652.023 150.297L653.434 148.219C655.175 145.543 657.435 143.393 660.039 141.762L664.789 138.793C665.993 138.042 667.225 137.185 668.426 136.195L670.652 134.34L670.875 134.117L670.801 133.523L670.281 130.555C669.332 125.238 671.11 120.299 674.809 116.75L677.184 114.523L679.262 112.445L679.633 110.293L679.855 107.918L678.371 105.395L676.812 102.723C675.555 100.58 674.468 98.3775 673.621 96.1914L672.656 93.7422L671.766 91.293C671.485 90.5695 671.037 89.8831 670.504 89.2148L668.871 87.1367L667.164 84.9844C665.976 83.4939 664.866 82.0296 663.824 80.6055L662.34 78.6758L660.93 76.6719C658.715 73.6429 657.692 70.159 657.59 66.6523L657.516 63.9805L657.441 61.2344C657.418 60.5672 657.257 60.051 657.07 59.6016L656.105 57.2266L655.066 54.8516C654.219 52.8275 653.521 50.647 652.914 48.3945L652.543 47.1328L649.648 47.2812C645.381 47.4775 640.161 46.2985 636.586 41.6406L634.953 39.5625L633.914 38.2266L632.355 37.9297L629.832 37.4102C627.16 36.8636 624.621 35.9059 622.262 34.5156L620.035 33.2539L618.105 32.0664L615.805 32.1406L613.207 32.2148C610.215 32.3019 607.299 31.7587 604.523 30.6562L602.148 29.7656L599.773 28.8008H599.699L594.652 29.543C592.602 29.8413 590.487 29.9977 588.418 30.0625L585.895 30.1367L583.297 30.2109C578.996 30.3409 575.235 28.78 572.238 26.5742L569.715 24.7188L567.117 22.7891C566.234 22.1417 565.652 21.956 565.41 21.8984L562.887 21.3047L560.289 20.7109C558.874 20.3737 557.457 20.0866 556.059 19.8945L554.055 19.5977L552.273 22.1953ZM513.383 14.4023C513.377 14.3955 513.346 14.285 513.234 14.1797H513.086L513.383 14.4023Z" fill="#FFDA7D"/>
<path d="M144.858 72.9997C145.278 72.8797 145.488 72.8197 145.488 72.8197C145.548 72.8197 146.628 73.0297 148.728 73.4497C149.808 73.6297 151.188 73.8997 152.868 74.2597C155.208 74.6197 156.888 75.0397 157.908 75.5197C158.208 75.7597 158.568 75.8797 158.988 75.8797C159.348 75.8797 160.068 76.1497 161.148 76.6897C162.108 77.2297 163.008 77.7097 163.848 78.1297C164.808 78.5497 165.468 79.2697 165.828 80.2897C166.188 81.2497 166.068 81.9997 165.468 82.5397C163.728 84.1597 161.748 84.4297 159.528 83.3497C158.628 82.8697 157.788 82.5997 157.008 82.5397C156.348 82.4197 155.298 82.1497 153.858 81.7297C152.478 81.3097 151.578 80.9797 151.158 80.7397C150.798 80.5597 149.478 80.4997 147.198 80.5597C144.978 80.5597 143.568 80.6497 142.968 80.8297C140.808 81.6097 138.918 82.6297 137.298 83.8897C134.418 86.1697 132.888 87.4897 132.708 87.8497C132.468 88.2697 131.928 88.9897 131.088 90.0097C129.648 91.8097 128.868 93.3997 128.748 94.7797C128.688 95.6797 128.448 96.5197 128.028 97.2997C127.728 97.8997 127.548 98.3497 127.488 98.6497C127.488 98.8897 127.578 99.3697 127.758 100.09C127.938 101.17 127.878 102.07 127.578 102.79C127.338 103.57 127.218 105.01 127.218 107.11C127.218 108.91 127.278 110.05 127.398 110.53C127.578 111.01 128.088 111.73 128.928 112.69C129.708 113.59 130.278 114.43 130.638 115.21C131.178 116.29 132.288 117.49 133.968 118.81C135.708 120.07 137.148 120.79 138.288 120.97C139.008 121.09 139.968 121.39 141.168 121.87C145.308 123.61 148.308 124.09 150.168 123.31C150.648 123.07 151.368 122.86 152.328 122.68C155.388 122.26 157.278 121.63 157.998 120.79C158.358 120.31 158.688 119.95 158.988 119.71C161.148 117.73 162.318 116.02 162.498 114.58C162.618 113.86 162.978 113.02 163.578 112.06C164.238 111.1 164.598 110.47 164.658 110.17C164.718 109.81 164.628 109 164.388 107.74C164.148 106.42 163.908 105.64 163.668 105.4C163.248 104.98 161.658 104.65 158.898 104.41C156.138 104.17 153.378 104.14 150.618 104.32C149.238 104.44 148.398 104.47 148.098 104.41C147.798 104.35 147.408 104.17 146.928 103.87C145.668 102.97 145.008 102.04 144.948 101.08C144.948 100.12 145.578 99.2197 146.838 98.3797C147.858 97.7197 148.548 97.3297 148.908 97.2097C149.268 97.0297 149.868 96.9697 150.708 97.0297C156.648 97.0297 160.548 97.0897 162.408 97.2097C164.268 97.3297 165.618 97.5997 166.458 98.0197C167.178 98.3797 167.868 98.5597 168.528 98.5597C169.128 98.5597 169.848 98.8597 170.688 99.4597C171.528 99.9997 172.128 100.54 172.488 101.08C172.908 101.92 172.998 104.08 172.758 107.56C172.518 110.98 172.128 113.2 171.588 114.22C171.228 114.94 171.018 115.69 170.958 116.47C170.838 117.31 170.628 118 170.328 118.54C169.308 120.22 168.348 121.54 167.448 122.5C166.788 123.22 166.308 123.79 166.008 124.21C165.768 124.57 165.018 125.14 163.758 125.92C160.578 127.84 158.208 128.98 156.648 129.34C155.148 129.7 152.178 129.85 147.738 129.79C143.238 129.73 140.448 129.43 139.368 128.89C138.708 128.53 138.018 128.29 137.298 128.17C136.638 128.11 135.888 127.87 135.048 127.45C134.268 126.97 133.578 126.67 132.978 126.55C132.438 126.49 131.688 126.19 130.728 125.65C129.828 125.11 129.198 124.66 128.838 124.3C128.658 124 128.148 123.58 127.308 123.04C126.468 122.5 126.048 122.17 126.048 122.05C126.048 121.87 125.568 121.27 124.608 120.25C122.268 117.85 121.008 116.26 120.828 115.48C120.708 114.88 120.528 114.37 120.288 113.95C120.048 113.53 119.898 112.6 119.838 111.16C119.718 109.72 119.508 108.7 119.208 108.1C118.608 106.9 118.728 104.44 119.568 100.72C119.868 99.1597 120.078 97.8097 120.198 96.6697C120.318 95.5297 120.588 94.5697 121.008 93.7897C121.428 93.0097 121.638 92.4097 121.638 91.9897C121.638 91.4497 121.788 91.0297 122.088 90.7297C122.688 90.0097 123.318 88.7497 123.978 86.9497C124.218 86.2297 124.578 85.5697 125.058 84.9697C125.598 84.3697 126.828 83.0797 128.748 81.0997C131.988 77.7997 134.418 75.7597 136.038 74.9797C136.698 74.6797 137.358 74.2897 138.018 73.8097C138.378 73.5697 138.738 73.4197 139.098 73.3597C139.458 73.2997 140.268 73.2697 141.528 73.2697C143.328 73.2097 144.438 73.1197 144.858 72.9997ZM191.513 72.9097C192.593 72.6097 193.733 72.6697 194.933 73.0897C195.833 73.3897 196.493 73.5397 196.913 73.5397C197.513 73.5397 198.203 73.8997 198.983 74.6197C199.823 75.2797 200.243 75.8797 200.243 76.4197C200.243 77.7397 199.823 78.7897 198.983 79.5697C198.203 80.2897 197.093 80.6497 195.653 80.6497C194.333 80.6497 193.523 80.8597 193.223 81.2797C192.923 81.6397 192.803 82.5697 192.863 84.0697C192.923 89.3497 192.833 92.3497 192.593 93.0697C192.353 93.6097 192.263 94.6597 192.323 96.2197C192.383 97.7197 192.533 98.8597 192.773 99.6397C193.253 101.08 193.343 103.27 193.043 106.21C192.923 107.23 192.953 108.16 193.133 109C193.253 109.9 193.193 110.8 192.953 111.7C192.533 113.32 192.263 115.27 192.143 117.55C192.023 119.83 192.113 121.12 192.413 121.42C192.713 121.72 193.763 121.9 195.563 121.96C201.383 122.08 204.293 123.52 204.293 126.28C204.293 127.78 202.853 128.8 199.973 129.34C197.093 129.82 191.963 129.94 184.583 129.7C181.583 129.64 179.693 129.43 178.913 129.07C178.133 128.65 177.713 127.78 177.653 126.46C177.653 124.96 177.893 124 178.373 123.58C178.913 123.16 180.053 122.92 181.793 122.86C181.853 122.86 181.943 122.86 182.063 122.86C183.563 122.8 184.433 122.5 184.673 121.96C184.913 121.36 185.063 119.38 185.123 116.02C185.123 115.66 185.123 115.39 185.123 115.21C185.123 111.07 185.123 108.73 185.123 108.19C185.003 106.21 185.003 103.99 185.123 101.53C185.363 95.7697 185.363 92.5897 185.123 91.9897C184.883 91.5097 184.853 90.1597 185.033 87.9397C185.213 85.5997 185.243 83.9497 185.123 82.9897C185.063 82.1497 184.913 81.6697 184.673 81.5497C184.493 81.4297 183.503 81.2197 181.703 80.9197C180.443 80.7397 179.573 80.4997 179.093 80.1997C178.613 79.8997 178.193 79.3597 177.833 78.5797C177.173 77.1397 177.203 76.0297 177.923 75.2497C178.643 74.4097 179.993 73.9897 181.973 73.9897C183.533 73.9897 184.493 73.8697 184.853 73.6297C185.213 73.3897 186.263 73.2697 188.003 73.2697C189.743 73.2697 190.913 73.1497 191.513 72.9097ZM240.98 72.8197C241.82 72.3997 244.58 72.3097 249.26 72.5497C249.56 72.5497 250.04 72.4897 250.7 72.3697C252.08 72.1897 253.28 72.8197 254.3 74.2597C255.38 75.6397 255.62 76.9297 255.02 78.1297C254.78 78.4897 254.33 78.9097 253.67 79.3897C253.07 79.8097 252.5 80.0497 251.96 80.1097C251.54 80.1697 250.88 80.3497 249.98 80.6497C249.26 80.8897 247.43 80.9497 244.49 80.8297C241.67 80.7097 239.72 80.7397 238.64 80.9197C237.62 81.0997 236.45 81.0697 235.13 80.8297C231.89 80.2297 229.88 80.0497 229.1 80.2897C228.5 80.4097 227.84 80.4697 227.12 80.4697C226.4 80.4697 225.26 80.6797 223.7 81.0997C222.14 81.5197 220.79 81.7597 219.65 81.8197L217.85 81.9097L217.49 83.9797C217.13 85.8997 217.13 87.2797 217.49 88.1197C217.73 88.7197 217.73 89.5297 217.49 90.5497C217.31 91.4497 217.22 92.7097 217.22 94.3297C217.28 95.8897 217.4 96.7897 217.58 97.0297C217.76 97.2697 218.24 97.3597 219.02 97.2997C219.26 97.2997 219.68 97.2997 220.28 97.2997C220.94 97.2997 221.42 97.2997 221.72 97.2997H223.79C224.27 97.2997 225.02 97.3597 226.04 97.4797C227.12 97.5997 228.02 97.5097 228.74 97.2097C229.46 96.8497 230.72 96.7297 232.52 96.8497C234.56 96.9097 235.79 96.9097 236.21 96.8497C240.83 96.7297 243.95 97.0297 245.57 97.7497C247.19 98.4097 247.76 99.7297 247.28 101.71C246.98 102.91 246.38 103.81 245.48 104.41C244.64 104.95 243.62 105.04 242.42 104.68C241.46 104.44 240.05 104.38 238.19 104.5C236.39 104.62 233.75 104.68 230.27 104.68C222.47 104.74 218.3 105.04 217.76 105.58C216.62 106.84 216.35 108.22 216.95 109.72C217.19 110.26 217.25 110.8 217.13 111.34C216.95 111.88 216.8 112.69 216.68 113.77C216.56 114.79 216.53 115.36 216.59 115.48C216.65 115.78 216.68 117.28 216.68 119.98C216.74 122.74 216.86 124.48 217.04 125.2C217.22 125.86 217.16 126.7 216.86 127.72C216.56 128.68 216.23 129.25 215.87 129.43C215.27 129.61 214.46 129.73 213.44 129.79C212.48 129.85 211.88 129.79 211.64 129.61C209.96 128.53 209.18 125.08 209.3 119.26C209.36 118.3 209.36 115.72 209.3 111.52C209.24 108.58 209.15 106.99 209.03 106.75C208.85 106.51 208.76 105.34 208.76 103.24C208.76 101.14 208.85 99.0997 209.03 97.1197C209.09 96.5197 209.15 95.7997 209.21 94.9597C209.27 94.1197 209.33 93.4297 209.39 92.8897C209.45 92.3497 209.48 91.9597 209.48 91.7197C209.6 90.9397 209.57 90.1897 209.39 89.4697C209.21 88.7497 209.24 87.7297 209.48 86.4097C209.72 85.1497 209.75 84.0997 209.57 83.2597C209.27 81.9397 209.21 80.9497 209.39 80.2897C209.57 79.5697 210.14 78.5797 211.1 77.3197C211.52 76.7797 211.85 76.4497 212.09 76.3297C212.39 76.1497 212.84 75.9697 213.44 75.7897C214.22 75.6697 214.91 75.4597 215.51 75.1597C216.11 74.7997 217.04 74.4697 218.3 74.1697C219.56 73.8097 220.49 73.6297 221.09 73.6297C221.45 73.6297 223.4 73.6297 226.94 73.6297C234.98 73.6897 239.66 73.4197 240.98 72.8197ZM278.724 77.0497C279.444 76.8097 281.454 76.7197 284.754 76.7797C288.174 76.8997 290.514 76.9297 291.774 76.8697C293.154 76.8697 294.084 77.0197 294.564 77.3197C295.044 77.5597 295.704 77.7397 296.544 77.8597C297.264 77.9797 297.864 78.3097 298.344 78.8497C298.704 79.3297 299.154 79.8397 299.694 80.3797C300.294 80.9797 300.654 81.4597 300.774 81.8197C300.954 82.1797 301.044 82.7197 301.044 83.4397C301.044 84.2197 301.254 85.0297 301.674 85.8697C302.214 86.8897 302.454 87.7597 302.394 88.4797C302.394 89.1997 302.094 90.0697 301.494 91.0897C300.774 92.2897 300.264 93.2497 299.964 93.9697C299.484 95.4697 298.974 96.4597 298.434 96.9397C297.894 97.3597 296.664 97.8997 294.744 98.5597C293.064 99.0997 291.774 99.3697 290.874 99.3697C289.914 99.3697 289.164 99.4597 288.624 99.6397C288.144 99.8197 286.164 99.9397 282.684 99.9997C280.524 99.9997 278.844 100.03 277.644 100.09C276.504 100.09 275.364 100.15 274.224 100.27C273.144 100.39 272.364 100.51 271.884 100.63C271.464 100.75 271.044 100.96 270.624 101.26C270.264 101.56 270.024 101.89 269.904 102.25C269.784 102.55 269.664 102.97 269.544 103.51C269.244 104.71 269.064 105.43 269.004 105.67C268.944 106.09 269.214 106.51 269.814 106.93C270.414 107.35 271.224 107.65 272.244 107.83C273.324 108.01 274.434 108.07 275.574 108.01C276.834 107.89 278.034 107.95 279.174 108.19C280.314 108.43 281.004 108.49 281.244 108.37C281.544 108.19 284.214 108.04 289.254 107.92C294.354 107.8 297.444 107.83 298.524 108.01C299.064 108.13 299.394 108.76 299.514 109.9C299.634 111.04 299.454 111.91 298.974 112.51C298.494 113.05 298.224 113.53 298.164 113.95C297.984 114.55 297.714 114.94 297.354 115.12C296.994 115.3 296.364 115.36 295.464 115.3C294.264 115.24 292.854 115.24 291.234 115.3C289.434 115.36 287.874 115.3 286.554 115.12C285.234 114.94 283.974 114.97 282.774 115.21C281.574 115.45 280.224 115.48 278.724 115.3C277.164 115.18 275.214 115.06 272.874 114.94C269.634 114.88 267.114 114.34 265.314 113.32C263.514 112.24 262.194 110.59 261.354 108.37C260.814 106.93 260.544 105.91 260.544 105.31C260.544 104.65 260.814 103.81 261.354 102.79C261.774 102.01 262.014 101.5 262.074 101.26C262.134 101.02 262.104 100.66 261.984 100.18C261.684 99.0397 262.254 97.6897 263.694 96.1297C265.134 94.5097 266.454 93.7597 267.654 93.8797C268.314 93.9997 269.154 93.9097 270.174 93.6097C272.274 92.8897 274.434 92.4997 276.654 92.4397C283.974 92.1997 288.294 91.9897 289.614 91.8097C290.934 91.5697 291.804 90.9997 292.224 90.0997C292.524 89.3197 292.854 88.7197 293.214 88.2997C293.694 87.7597 293.874 86.9797 293.754 85.9597C293.694 84.8797 293.364 84.1897 292.764 83.8897C291.804 83.3497 290.274 83.0797 288.174 83.0797C286.134 83.0197 284.214 83.2297 282.414 83.7097C281.814 83.8897 280.884 84.0097 279.624 84.0697C278.364 84.1297 277.374 84.2797 276.654 84.5197C275.994 84.7597 274.794 84.8497 273.054 84.7897C271.374 84.6697 270.174 84.7297 269.454 84.9697C267.234 85.7497 265.464 85.7497 264.144 84.9697C262.824 84.1897 262.404 82.8997 262.884 81.0997C263.184 80.1397 263.994 79.2997 265.314 78.5797C266.634 77.8597 267.864 77.5897 269.004 77.7697C270.024 77.9497 270.804 77.9797 271.344 77.8597C271.884 77.6797 273.054 77.5597 274.854 77.4997C276.594 77.4397 277.884 77.2897 278.724 77.0497ZM279.264 118C279.804 117.7 280.674 117.7 281.874 118C283.134 118.3 284.004 118.72 284.484 119.26C284.964 119.8 285.264 120.37 285.384 120.97C285.564 121.51 285.594 122.41 285.474 123.67C285.414 125.23 285.444 126.13 285.564 126.37C285.684 126.49 287.064 126.58 289.704 126.64C292.404 126.64 293.904 126.55 294.204 126.37C294.564 126.19 297.864 126.01 304.104 125.83C305.484 125.77 306.324 125.83 306.624 126.01C306.924 126.19 307.254 126.79 307.614 127.81C308.034 128.89 308.124 129.85 307.884 130.69C307.704 131.53 307.224 131.95 306.444 131.95C306.264 131.95 305.754 132.1 304.914 132.4C302.874 133.12 300.984 133.24 299.244 132.76C298.284 132.52 297.594 132.46 297.174 132.58C296.154 132.82 294.324 133 291.684 133.12C289.104 133.24 287.334 133.21 286.374 133.03C285.714 132.91 285.264 132.94 285.024 133.12C284.784 133.3 284.154 133.39 283.134 133.39C282.114 133.39 281.154 133.51 280.254 133.75C279.414 133.99 278.364 134.08 277.104 134.02C276.324 134.02 274.614 134.05 271.974 134.11C269.814 134.23 268.164 134.17 267.024 133.93C266.004 133.69 265.014 133.57 264.054 133.57C262.734 133.57 261.684 133.27 260.904 132.67C260.184 132.13 259.824 131.35 259.824 130.33C259.824 129.07 260.664 128.14 262.344 127.54C264.084 126.94 266.094 126.85 268.374 127.27C269.334 127.45 270.234 127.48 271.074 127.36C271.734 127.24 272.814 127.06 274.314 126.82C275.514 126.64 276.234 126.43 276.474 126.19C276.774 125.95 276.924 125.41 276.924 124.57C276.924 123.73 277.074 122.92 277.374 122.14C277.734 121.36 277.914 120.73 277.914 120.25C277.914 119.29 278.364 118.54 279.264 118ZM390.571 84.7897C390.931 84.4897 391.471 84.3697 392.191 84.4297C392.911 84.4297 393.421 84.6097 393.721 84.9697C394.081 85.3897 394.351 85.5997 394.531 85.5997C395.491 85.5997 396.091 86.7697 396.331 89.1097C396.391 90.0097 396.511 91.1797 396.691 92.6197C396.751 93.3397 396.691 93.9997 396.511 94.5997C396.391 95.0197 396.241 96.0097 396.061 97.5697C395.881 99.1297 395.821 100.15 395.881 100.63V102.88V106.39C395.881 107.47 395.731 108.31 395.431 108.91C395.131 109.75 394.921 111.25 394.801 113.41C394.741 115.51 394.861 116.86 395.161 117.46C395.641 118.42 395.731 119.92 395.431 121.96C395.191 123.94 394.741 124.93 394.081 124.93C393.901 124.93 393.541 125.17 393.001 125.65C391.981 126.49 391.051 126.73 390.211 126.37C389.371 126.01 388.951 125.17 388.951 123.85C388.891 123.19 388.651 122.56 388.231 121.96C387.571 120.94 387.571 117.97 388.231 113.05C388.351 112.33 388.261 111.67 387.961 111.07C387.721 110.41 387.691 109.72 387.871 109C388.051 108.28 388.051 107.77 387.871 107.47C387.691 107.11 387.241 106.84 386.521 106.66C385.201 106.24 384.061 106.15 383.101 106.39C382.201 106.57 381.751 107.02 381.751 107.74C381.751 107.98 381.511 108.61 381.031 109.63C380.611 110.59 380.341 111.34 380.221 111.88C380.161 112.42 380.221 113.2 380.401 114.22C380.641 116.2 380.581 118.21 380.221 120.25C379.861 122.23 379.321 123.49 378.601 124.03C378.001 124.39 377.641 124.66 377.521 124.84C377.161 125.32 376.531 125.35 375.631 124.93C374.791 124.45 374.341 123.85 374.281 123.13C374.161 122.53 373.801 121.66 373.201 120.52C372.601 119.44 372.391 118.69 372.571 118.27C372.751 117.85 372.781 116.83 372.661 115.21C372.601 113.59 372.751 112.42 373.111 111.7C373.471 110.98 373.591 110.41 373.471 109.99C373.111 108.61 373.111 107.59 373.471 106.93C373.711 106.45 373.711 105.73 373.471 104.77C373.231 103.75 373.111 102.97 373.111 102.43C373.111 101.83 373.201 100.66 373.381 98.9197C373.681 96.9997 373.741 95.6497 373.561 94.8697C373.381 94.0297 373.411 93.2497 373.651 92.5297C373.951 91.8097 374.011 91.1497 373.831 90.5497C373.531 89.4697 373.651 88.3297 374.191 87.1297C374.791 85.9297 375.361 85.2397 375.901 85.0597C376.441 84.8797 377.431 85.0597 378.871 85.5997C378.931 85.5997 378.991 85.5997 379.051 85.5997C380.071 85.9597 380.671 86.4097 380.851 86.9497C381.031 87.4297 381.151 89.0497 381.211 91.8097C381.211 91.9297 381.211 92.0497 381.211 92.1697C381.211 95.9497 381.481 98.3197 382.021 99.2797C382.561 100.18 383.671 100.24 385.351 99.4597C386.011 99.1597 386.671 98.9197 387.331 98.7397C388.111 98.4997 388.591 97.8997 388.771 96.9397C389.011 95.9197 389.101 93.7297 389.041 90.3697C388.981 87.3097 389.491 85.4497 390.571 84.7897ZM342.961 87.6697C343.621 87.3697 344.101 87.2497 344.401 87.3097C344.701 87.3097 345.301 87.5197 346.201 87.9397C347.161 88.3597 347.791 88.8697 348.091 89.4697C348.451 90.0697 348.631 91.0297 348.631 92.3497C348.631 93.6097 348.421 95.8297 348.001 99.0097C347.581 102.79 347.521 105.01 347.821 105.67C348.061 106.09 348.331 106.99 348.631 108.37C348.871 110.05 349.201 111.16 349.621 111.7C350.101 112.24 350.881 112.51 351.961 112.51C352.801 112.51 353.641 112.63 354.481 112.87C355.201 113.11 355.801 113.11 356.281 112.87C356.761 112.69 357.691 112.54 359.071 112.42C360.331 112.36 361.321 112.3 362.041 112.24C362.821 112.12 363.391 112.15 363.751 112.33C364.111 112.51 364.801 112.66 365.821 112.78C367.681 113.02 368.851 114.04 369.331 115.84C369.691 116.86 369.301 117.91 368.161 118.99C367.081 120.07 365.941 120.52 364.741 120.34C363.241 120.16 361.051 120.19 358.171 120.43C356.791 120.55 355.921 120.61 355.561 120.61C355.201 120.55 354.781 120.43 354.301 120.25C353.881 120.01 353.521 119.89 353.221 119.89C352.921 119.83 352.261 119.92 351.241 120.16C350.881 120.28 350.311 120.16 349.531 119.8C348.811 119.5 348.121 119.35 347.461 119.35C346.921 119.35 345.901 118.63 344.401 117.19C342.901 115.75 341.941 114.55 341.521 113.59C340.621 111.67 339.991 109.09 339.631 105.85C339.331 102.55 339.451 100.21 339.991 98.8297C340.171 98.4097 340.261 97.1797 340.261 95.1397C340.261 90.9997 341.161 88.5097 342.961 87.6697ZM443.533 79.0297C443.953 78.6697 444.703 78.5197 445.783 78.5797C447.043 78.6997 447.853 78.9697 448.213 79.3897C448.573 79.7497 449.023 80.7997 449.563 82.5397C450.403 85.3597 450.733 89.1697 450.553 93.9697C450.373 98.7697 449.773 101.92 448.753 103.42C448.513 103.72 448.213 104.44 447.853 105.58C446.533 110.08 444.583 112 442.003 111.34C441.283 111.16 440.473 111.19 439.573 111.43C438.673 111.67 437.473 111.85 435.973 111.97C434.533 112.09 433.543 112.06 433.003 111.88C432.523 111.7 430.093 111.58 425.713 111.52C421.393 111.4 418.933 111.25 418.333 111.07C417.553 110.89 416.953 110.86 416.533 110.98C415.333 111.22 414.103 110.83 412.843 109.81C412.063 109.27 411.433 108.88 410.953 108.64C409.573 107.92 408.493 106.63 407.713 104.77C407.473 104.23 407.083 103.3 406.543 101.98C406.183 101.32 405.943 100.03 405.823 98.1097C405.763 96.3697 405.643 95.1097 405.463 94.3297C405.283 93.6697 405.253 92.9497 405.373 92.1697C405.553 91.5097 405.673 89.9497 405.733 87.4897C405.793 84.0697 406.273 81.7897 407.173 80.6497C408.073 79.4497 409.453 79.2697 411.313 80.1097C412.213 80.5297 412.753 80.9797 412.933 81.4597C413.173 81.8797 413.323 82.8397 413.383 84.3397C413.383 86.0197 413.443 87.0097 413.563 87.3097C413.743 87.5497 414.373 87.6997 415.453 87.7597C417.313 87.9997 418.753 87.9397 419.773 87.5797C420.553 87.2797 421.723 87.1897 423.283 87.3097C424.903 87.4297 426.103 87.3697 426.883 87.1297C428.203 86.7097 429.943 86.6497 432.103 86.9497C433.123 87.1297 434.023 87.0997 434.803 86.8597C435.643 86.6797 436.933 86.5897 438.673 86.5897C440.293 86.5897 441.283 86.4097 441.643 86.0497C442.063 85.6297 442.273 84.5197 442.273 82.7197C442.333 81.6397 442.423 80.8597 442.543 80.3797C442.723 79.8997 443.053 79.4497 443.533 79.0297ZM438.043 93.8797C436.783 93.5197 435.703 93.3697 434.803 93.4297C433.903 93.4897 432.733 93.7897 431.293 94.3297C430.273 94.7497 429.343 94.9297 428.503 94.8697C427.603 94.8097 426.103 94.8697 424.003 95.0497C421.843 95.1697 420.133 95.1097 418.873 94.8697C417.313 94.5697 416.233 94.4497 415.633 94.5097C415.093 94.5097 414.763 94.7497 414.643 95.2297C414.523 95.8897 414.523 97.2697 414.643 99.3697C414.823 101.47 415.003 102.67 415.183 102.97C415.543 103.33 416.473 103.63 417.973 103.87C419.473 104.05 420.673 104.05 421.573 103.87C422.893 103.63 424.213 103.69 425.533 104.05C426.553 104.41 427.483 104.5 428.323 104.32C429.163 104.14 430.333 104.17 431.833 104.41C433.333 104.65 434.953 104.68 436.693 104.5C438.493 104.26 439.633 103.96 440.113 103.6C440.593 103.18 440.983 102.31 441.283 100.99C441.463 100.21 441.763 99.5197 442.183 98.9197C442.843 97.8397 442.963 96.7897 442.543 95.7697C442.183 94.7497 441.433 94.2397 440.293 94.2397C439.633 94.2397 438.883 94.1197 438.043 93.8797ZM426.253 115.93C427.993 115.27 429.463 115.54 430.663 116.74C431.863 117.94 432.253 119.59 431.833 121.69C431.593 123.01 431.653 123.97 432.013 124.57C432.373 125.11 432.973 125.26 433.813 125.02C434.293 124.9 435.373 124.84 437.053 124.84C438.973 124.78 441.073 124.66 443.353 124.48C447.433 124.18 450.073 124.09 451.273 124.21C452.533 124.27 453.343 124.66 453.703 125.38C454.543 127.12 454.693 128.38 454.153 129.16C453.673 129.88 452.233 130.51 449.833 131.05C448.753 131.35 448.033 131.5 447.673 131.5C447.313 131.5 446.773 131.41 446.053 131.23C444.193 130.69 441.253 130.84 437.233 131.68C436.033 131.86 435.103 131.83 434.443 131.59C433.183 131.11 431.833 131.08 430.393 131.5C428.773 131.92 425.983 132.19 422.023 132.31C418.063 132.43 415.333 132.34 413.833 132.04C412.813 131.8 411.583 131.62 410.143 131.5C407.923 131.32 406.603 130.75 406.183 129.79C405.463 127.93 405.913 126.52 407.533 125.56C409.213 124.6 411.523 124.42 414.463 125.02C415.243 125.14 416.803 125.14 419.143 125.02C421.543 124.84 422.863 124.66 423.103 124.48C423.283 124.3 423.403 123.67 423.463 122.59C423.583 121.57 423.763 120.79 424.003 120.25C424.243 119.77 424.363 119.23 424.363 118.63C424.363 118.03 424.543 117.49 424.903 117.01C425.263 116.47 425.713 116.11 426.253 115.93ZM510.015 84.7897C510.375 84.4897 510.915 84.3697 511.635 84.4297C512.355 84.4297 512.865 84.6097 513.165 84.9697C513.525 85.3897 513.795 85.5997 513.975 85.5997C514.935 85.5997 515.535 86.7697 515.775 89.1097C515.835 90.0097 515.955 91.1797 516.135 92.6197C516.195 93.3397 516.135 93.9997 515.955 94.5997C515.835 95.0197 515.685 96.0097 515.505 97.5697C515.325 99.1297 515.265 100.15 515.325 100.63V102.88V106.39C515.325 107.47 515.175 108.31 514.875 108.91C514.575 109.75 514.365 111.25 514.245 113.41C514.185 115.51 514.305 116.86 514.605 117.46C515.085 118.42 515.175 119.92 514.875 121.96C514.635 123.94 514.185 124.93 513.525 124.93C513.345 124.93 512.985 125.17 512.445 125.65C511.425 126.49 510.495 126.73 509.655 126.37C508.815 126.01 508.395 125.17 508.395 123.85C508.335 123.19 508.095 122.56 507.675 121.96C507.015 120.94 507.015 117.97 507.675 113.05C507.795 112.33 507.705 111.67 507.405 111.07C507.165 110.41 507.135 109.72 507.315 109C507.495 108.28 507.495 107.77 507.315 107.47C507.135 107.11 506.685 106.84 505.965 106.66C504.645 106.24 503.505 106.15 502.545 106.39C501.645 106.57 501.195 107.02 501.195 107.74C501.195 107.98 500.955 108.61 500.475 109.63C500.055 110.59 499.785 111.34 499.665 111.88C499.605 112.42 499.665 113.2 499.845 114.22C500.085 116.2 500.025 118.21 499.665 120.25C499.305 122.23 498.765 123.49 498.045 124.03C497.445 124.39 497.085 124.66 496.965 124.84C496.605 125.32 495.975 125.35 495.075 124.93C494.235 124.45 493.785 123.85 493.725 123.13C493.605 122.53 493.245 121.66 492.645 120.52C492.045 119.44 491.835 118.69 492.015 118.27C492.195 117.85 492.225 116.83 492.105 115.21C492.045 113.59 492.195 112.42 492.555 111.7C492.915 110.98 493.035 110.41 492.915 109.99C492.555 108.61 492.555 107.59 492.915 106.93C493.155 106.45 493.155 105.73 492.915 104.77C492.675 103.75 492.555 102.97 492.555 102.43C492.555 101.83 492.645 100.66 492.825 98.9197C493.125 96.9997 493.185 95.6497 493.005 94.8697C492.825 94.0297 492.855 93.2497 493.095 92.5297C493.395 91.8097 493.455 91.1497 493.275 90.5497C492.975 89.4697 493.095 88.3297 493.635 87.1297C494.235 85.9297 494.805 85.2397 495.345 85.0597C495.885 84.8797 496.875 85.0597 498.315 85.5997C498.375 85.5997 498.435 85.5997 498.495 85.5997C499.515 85.9597 500.115 86.4097 500.295 86.9497C500.475 87.4297 500.595 89.0497 500.655 91.8097C500.655 91.9297 500.655 92.0497 500.655 92.1697C500.655 95.9497 500.925 98.3197 501.465 99.2797C502.005 100.18 503.115 100.24 504.795 99.4597C505.455 99.1597 506.115 98.9197 506.775 98.7397C507.555 98.4997 508.035 97.8997 508.215 96.9397C508.455 95.9197 508.545 93.7297 508.485 90.3697C508.425 87.3097 508.935 85.4497 510.015 84.7897ZM462.405 87.6697C463.065 87.3697 463.545 87.2497 463.845 87.3097C464.145 87.3097 464.745 87.5197 465.645 87.9397C466.605 88.3597 467.235 88.8697 467.535 89.4697C467.895 90.0697 468.075 91.0297 468.075 92.3497C468.075 93.6097 467.865 95.8297 467.445 99.0097C467.025 102.79 466.965 105.01 467.265 105.67C467.505 106.09 467.775 106.99 468.075 108.37C468.315 110.05 468.645 111.16 469.065 111.7C469.545 112.24 470.325 112.51 471.405 112.51C472.245 112.51 473.085 112.63 473.925 112.87C474.645 113.11 475.245 113.11 475.725 112.87C476.205 112.69 477.135 112.54 478.515 112.42C479.775 112.36 480.765 112.3 481.485 112.24C482.265 112.12 482.835 112.15 483.195 112.33C483.555 112.51 484.245 112.66 485.265 112.78C487.125 113.02 488.295 114.04 488.775 115.84C489.135 116.86 488.745 117.91 487.605 118.99C486.525 120.07 485.385 120.52 484.185 120.34C482.685 120.16 480.495 120.19 477.615 120.43C476.235 120.55 475.365 120.61 475.005 120.61C474.645 120.55 474.225 120.43 473.745 120.25C473.325 120.01 472.965 119.89 472.665 119.89C472.365 119.83 471.705 119.92 470.685 120.16C470.325 120.28 469.755 120.16 468.975 119.8C468.255 119.5 467.565 119.35 466.905 119.35C466.365 119.35 465.345 118.63 463.845 117.19C462.345 115.75 461.385 114.55 460.965 113.59C460.065 111.67 459.435 109.09 459.075 105.85C458.775 102.55 458.895 100.21 459.435 98.8297C459.615 98.4097 459.705 97.1797 459.705 95.1397C459.705 90.9997 460.605 88.5097 462.405 87.6697ZM567.387 84.1597C568.107 83.8597 568.947 83.8897 569.907 84.2497C570.567 84.4897 571.107 84.6097 571.527 84.6097C573.267 84.6097 573.867 88.2397 573.327 95.4997C573.087 99.5197 572.967 102.79 572.967 105.31C572.967 106.51 572.817 107.44 572.517 108.1C572.157 108.76 572.037 109.51 572.157 110.35C572.397 111.85 572.517 114.46 572.517 118.18C572.577 121.9 572.517 123.94 572.337 124.3C572.217 124.54 571.707 124.99 570.807 125.65C569.967 126.31 569.397 126.67 569.097 126.73C568.797 126.79 568.317 126.67 567.657 126.37C566.997 126.01 566.487 125.65 566.127 125.29C565.887 124.93 565.707 124.33 565.587 123.49C565.527 122.59 565.317 121.81 564.957 121.15C564.657 120.61 564.447 119.08 564.327 116.56C564.267 113.98 564.357 112.15 564.597 111.07C564.717 110.41 564.687 109.72 564.507 109C564.327 108.22 564.327 107.47 564.507 106.75C564.687 106.03 564.657 105.22 564.417 104.32C564.177 103.42 564.177 102.46 564.417 101.44C564.957 99.5197 565.257 96.2497 565.317 91.6297C565.377 88.7497 565.467 87.1297 565.587 86.7697C565.767 86.2297 566.037 85.6897 566.397 85.1497C566.817 84.6097 567.147 84.2797 567.387 84.1597ZM535.797 85.2397C536.337 84.9997 537.387 84.9097 538.947 84.9697C540.567 85.0297 541.737 85.1797 542.457 85.4197C542.997 85.5397 543.627 85.5697 544.347 85.5097C545.607 85.3297 546.687 85.6897 547.587 86.5897C548.247 87.1297 548.817 87.4897 549.297 87.6697C549.837 87.8497 550.317 88.1797 550.737 88.6597C551.157 89.0797 551.427 89.5297 551.547 90.0097C551.547 90.0097 551.577 90.1897 551.637 90.5497C551.697 90.8497 551.757 91.0597 551.817 91.1797C551.877 91.5397 552.087 91.9597 552.447 92.4397C552.687 92.7997 552.837 93.2497 552.897 93.7897C552.957 94.3297 553.017 96.1297 553.077 99.1897C553.137 99.9097 553.107 100.45 552.987 100.81C552.867 101.17 552.447 101.95 551.727 103.15C550.707 104.89 549.987 106.21 549.567 107.11C549.027 108.13 548.277 109.12 547.317 110.08C546.417 111.04 545.757 111.91 545.337 112.69C545.037 113.23 544.557 113.77 543.897 114.31C543.297 114.79 541.737 115.96 539.217 117.82C538.137 118.6 537.297 119.26 536.697 119.8C536.097 120.34 535.407 120.79 534.627 121.15C533.847 121.51 533.277 121.87 532.917 122.23C531.837 123.19 530.547 123.46 529.047 123.04C527.607 122.62 526.707 121.72 526.347 120.34C526.107 119.38 526.407 118.27 527.247 117.01C528.087 115.69 529.017 114.94 530.037 114.76C531.057 114.52 532.407 113.68 534.087 112.24C534.927 111.4 535.827 110.71 536.787 110.17C538.527 109.09 540.147 107.5 541.647 105.4C543.207 103.24 544.137 101.29 544.437 99.5497C544.557 98.5897 544.707 98.0197 544.887 97.8397C545.067 97.5997 545.157 97.0897 545.157 96.3097C545.217 95.1697 544.797 94.3297 543.897 93.7897C542.997 93.2497 541.587 92.9797 539.667 92.9797C534.027 93.0397 530.397 93.2497 528.777 93.6097C527.577 93.8497 526.677 93.8497 526.077 93.6097C525.537 93.3097 525.207 92.6497 525.087 91.6297C524.847 89.9497 524.727 88.9597 524.727 88.6597C524.727 88.2997 524.907 87.9397 525.267 87.5797C525.867 86.7997 526.617 86.2897 527.517 86.0497C528.477 85.7497 529.857 85.5997 531.657 85.5997C533.757 85.5997 535.137 85.4797 535.797 85.2397Z" fill="black"/>
</svg>
