<svg width="357" height="519" viewBox="0 0 357 519" fill="none" xmlns="http://www.w3.org/2000/svg">
<path d="M4 26C4 13.8497 13.8497 4 26 4H331C343.15 4 353 13.8497 353 26V493C353 505.15 343.15 515 331 515H26C13.8497 515 4 505.15 4 493V26Z" fill="white"/>
<path d="M5.25 83.082C5.25011 83.0825 5.25991 83.0986 5.26953 83.1211C5.28178 83.1486 5.31093 83.2012 5.34766 83.2578L6.55859 85.1328C7.3842 86.4061 7.59151 87.9334 6.91016 89.4102L6.48047 90.3477L6.12891 91.0898L6.53906 91.8906L7.02734 92.8281C7.37813 93.5007 7.57897 94.2805 7.51562 95.1133C7.45118 95.936 7.13799 96.6647 6.73438 97.2617L5.66016 98.8242L5.95312 99.3906L6.44141 100.328C6.94813 101.297 7.22132 102.367 7.16406 103.492L7.10547 104.43L7.06641 105.367C7.02825 106.116 6.94136 106.871 6.79297 107.613L6.40234 109.488C6.34938 109.76 6.35782 110.03 6.42188 110.309L6.85156 112.184C7.09652 113.252 7.0429 114.328 6.71484 115.367L6.12891 117.242C6.10019 117.333 6.1064 117.4 6.14844 117.516L6.48047 118.453L6.83203 119.391C7.22403 120.473 7.28017 121.623 6.98828 122.75L6.75391 123.688L6.5 124.625C6.37116 125.125 6.29441 125.62 6.24609 126.109L6.05078 127.984C6.02308 128.265 6.04955 128.562 6.14844 128.883L6.73438 130.758C7.00923 131.652 7.11963 132.579 7.06641 133.512L7.02734 134.449L6.96875 135.387C6.92445 136.158 6.81534 136.931 6.63672 137.691L6.40234 138.629L6.1875 139.566C6.09112 139.979 6.0563 140.382 6.07031 140.777L6.08984 141.715L6.12891 142.652C6.14641 143.144 6.20771 143.638 6.30469 144.137L6.48047 145.074L6.67578 146.012C6.89695 147.15 6.76001 148.283 6.32422 149.332L5.93359 150.27L5.62109 150.973L6.10938 151.773L6.65625 152.711C7.44083 154.032 7.54302 155.566 6.83203 156.988L5.89453 158.863C5.78363 159.087 5.78734 159.213 5.79688 159.293L6.03125 161.168C6.15086 162.108 6.08583 163.061 5.85547 163.98L5.62109 164.918L5.38672 165.797C5.39296 165.812 5.40542 165.839 5.42578 165.875L5.97266 166.812L6.5 167.75C7.16261 168.908 7.38744 170.242 6.96875 171.598L6.38281 173.473C6.19147 174.09 6.00184 174.711 5.81641 175.328L5.26953 177.203C5.23368 177.322 5.22461 177.419 5.26953 177.555L5.58203 178.492L5.91406 179.43C6.21994 180.332 6.3473 181.272 6.30469 182.223L6.22656 184.098C6.21425 184.369 6.26121 184.664 6.38281 184.996L6.71484 185.934L7.06641 186.871C7.49476 188.036 7.51619 189.27 7.10547 190.445L6.44141 192.32C6.40915 192.415 6.41104 192.464 6.44141 192.555L6.75391 193.492L7.08594 194.43C7.38439 195.307 7.52535 196.221 7.51562 197.145V198.082L7.49609 199.02C7.48422 200.081 7.19524 201.082 6.71484 202.008L6.22656 202.945L5.89453 203.551L6.30469 204.254L6.87109 205.191C7.46156 206.171 7.81197 207.291 7.75 208.492L7.71094 209.43L7.65234 210.367C7.62079 210.976 7.594 211.594 7.57422 212.203L7.55469 213.141L7.51562 214.078C7.48429 215.013 7.27996 215.921 6.92969 216.793L6.55859 217.73L6.16797 218.668C6.03534 218.998 6.00396 219.293 6.01172 219.547L6.03125 220.484L6.07031 221.422C6.09563 222.278 5.98547 223.125 5.77734 223.961L5.54297 224.898L5.30859 225.777C5.31389 225.792 5.34197 225.831 5.36719 225.875L6.42188 227.75C6.91527 228.616 7.26753 229.556 7.39844 230.543L7.51562 231.48L7.65234 232.418C7.75995 233.234 7.75669 234.061 7.67188 234.879L7.47656 236.754C7.37013 237.769 7.04254 238.725 6.53906 239.605L5.99219 240.543L5.64062 241.129L6.03125 241.754L6.59766 242.691C7.31246 243.877 7.53218 245.273 7.04688 246.676L6.73438 247.613L6.40234 248.551C6.23644 249.029 6.1149 249.501 6.05078 249.957L5.93359 250.895L5.79688 251.832C5.77233 252.007 5.7796 252.208 5.875 252.457L6.61719 254.332C7.06154 255.48 7.09654 256.704 6.71484 257.887L6.42188 258.824L6.10938 259.762C5.97811 260.17 5.90563 260.559 5.89453 260.934L5.85547 262.809C5.83967 263.354 5.83973 263.903 5.875 264.449L5.99219 266.324C6.02109 266.77 6.09995 267.228 6.22656 267.691L6.5 268.629L6.75391 269.566C7.11462 270.878 6.90025 272.184 6.28516 273.316L5.77734 274.254L5.36719 274.977L5.71875 275.699L6.16797 276.637C6.66285 277.655 6.88695 278.779 6.73438 279.938L6.5 281.812C6.41259 282.472 6.30319 283.145 6.1875 283.805L6.01172 284.742L5.85547 285.68C5.79417 286.034 5.78278 286.383 5.83594 286.734L5.99219 287.672L6.12891 288.609C6.22267 289.224 6.32037 289.85 6.42188 290.465L6.73438 292.34C6.89805 293.339 6.83776 294.339 6.55859 295.309L6.01172 297.184C5.85709 297.721 5.73184 298.254 5.64062 298.785L5.48438 299.723L5.32812 300.621C5.32851 300.623 5.33781 300.687 5.40625 300.797L6.57812 302.672C7.20459 303.679 7.56275 304.848 7.4375 306.109L7.24219 307.984C7.19408 308.464 7.18652 308.951 7.22266 309.43L7.30078 310.367L7.35938 311.305C7.41618 312.06 7.42229 312.815 7.35938 313.57L7.20312 315.445C7.12215 316.415 6.83337 317.344 6.40234 318.219L5.95312 319.156L5.44531 320.172V320.191L5.71875 321.129L5.97266 322.066C6.19548 322.868 6.3298 323.685 6.36328 324.508L6.44141 326.383C6.46067 326.863 6.51262 327.359 6.61719 327.848L6.8125 328.785L7.02734 329.723C7.19268 330.498 7.28652 331.281 7.30078 332.066V333.004L7.32031 333.941C7.33331 334.667 7.31673 335.405 7.24219 336.129L7.04688 338.004C7.00398 338.427 7.00828 338.848 7.06641 339.273L7.18359 340.211L7.32031 341.148C7.46267 342.189 7.33588 343.215 6.98828 344.195L6.32422 346.07C6.13596 346.601 5.98915 347.133 5.875 347.652L5.66016 348.59L5.48438 349.41L6.14844 350.406L6.79297 351.344C7.52202 352.429 7.89182 353.76 7.57422 355.172L7.14453 357.047C6.95915 357.868 6.67947 358.671 6.30469 359.449L5.85547 360.387L5.38672 361.324L5.36719 361.344L5.69922 362.262L6.01172 363.199C6.38489 364.311 6.41402 365.471 6.07031 366.598L5.48438 368.473C5.43623 368.633 5.43936 368.767 5.48438 368.922L6.03125 370.797C6.24985 371.551 6.3942 372.314 6.48047 373.082L6.59766 374.02L6.69531 374.957C6.80483 375.936 6.71055 376.909 6.42188 377.848L6.12891 378.785L5.875 379.586L6.44141 380.523L6.98828 381.461C7.38113 382.117 7.64459 382.896 7.61328 383.766C7.5815 384.631 7.26819 385.392 6.85156 386.012L5.60156 387.887C5.55339 387.958 5.51378 387.999 5.50391 388.023L5.66016 388.902L5.81641 389.84C5.89104 390.302 6.01151 390.781 6.1875 391.266L6.51953 392.203L6.87109 393.141C7.31467 394.367 7.27225 395.642 6.77344 396.832L5.99219 398.707C5.93481 398.844 5.93686 398.899 5.95312 398.961L6.46094 400.836C6.65524 401.559 6.78942 402.293 6.89062 403.023L7.16406 404.898C7.26951 405.661 7.30564 406.437 7.28125 407.203L7.24219 408.141L7.22266 409.078C7.20647 409.598 7.21525 410.119 7.26172 410.641L7.33984 411.578L7.4375 412.516C7.51945 413.434 7.4346 414.356 7.20312 415.25L6.96875 416.188L6.71484 417.125C6.65304 417.369 6.64444 417.594 6.69531 417.828L6.91016 418.766L7.10547 419.703C7.38504 420.979 7.14786 422.208 6.55859 423.297L6.05078 424.234L5.67969 424.879L6.08984 425.562L6.61719 426.5C7.23115 427.584 7.49449 428.837 7.22266 430.133L6.83203 432.008C6.67799 432.741 6.45964 433.473 6.20703 434.195L5.89453 435.133L5.5625 436.07C5.43717 436.43 5.38131 436.757 5.38672 437.066L5.42578 438.941C5.42761 439.042 5.44833 439.237 5.64062 439.547L6.8125 441.422C7.6219 442.727 7.75539 444.269 7.04688 445.719L6.59766 446.656L6.22656 447.398L6.61719 448.16L7.10547 449.098C7.66618 450.191 7.87833 451.418 7.59375 452.672L7.16406 454.547C7.08365 454.902 7.0685 455.242 7.10547 455.582L7.30078 457.457C7.38242 458.194 7.41779 458.944 7.39844 459.684L7.37891 460.621L7.33984 461.559C7.32111 462.269 7.2761 462.979 7.18359 463.688L7.06641 464.625L6.92969 465.562C6.89133 465.856 6.9233 466.162 7.00781 466.48L7.24219 467.418L7.49609 468.355L7.65234 469.332C7.70492 470.312 7.44883 471.26 6.96875 472.105L5.91406 473.98L6.16797 474.801L6.48047 475.738C6.72701 476.521 6.89227 477.317 6.96875 478.121L7.04688 479.059L7.14453 479.996C7.26097 481.229 6.9224 482.389 6.32422 483.395L5.77734 484.332L5.21094 485.27C5.04312 485.553 5.01546 485.724 5.01562 485.816L5.05469 487.691C5.05985 488.015 5.11235 488.37 5.25 488.746L5.95312 490.621C6.25556 491.443 6.44703 492.3 6.51953 493.16L6.59766 494.078L6.67578 495.016C6.71096 495.433 6.79634 495.836 6.92969 496.227L7.22266 497.105L7.53516 498.004C7.82139 498.842 7.97243 499.723 8.00391 500.621L8.04297 501.637L8.0625 502.418L8.72656 502.867L9.56641 503.434C10.6339 504.17 11.3542 505.216 11.6953 506.441L11.9688 507.477L12.1445 508.121L12.7891 508.297L13.8047 508.551C14.4325 508.708 15.0244 508.84 15.582 508.941L16.5195 509.117L17.4375 509.273C18.6506 509.494 19.6656 510.126 20.4648 510.992L21.1875 511.754L21.5195 512.125L21.9688 511.988L22.9453 511.656L24.0195 511.441C24.7381 511.386 25.4386 511.504 26.0898 511.773L27.0273 512.301L27.9453 512.926L28.8633 513.57C29.1385 513.76 29.2964 513.763 29.3516 513.766L31.2266 513.805C31.5314 513.811 31.8651 513.775 32.2227 513.648L34.0977 512.984C34.9131 512.695 35.7473 512.509 36.5977 512.438L38.4727 512.281C39.5383 512.192 40.5722 512.373 41.5391 512.789L42.4766 513.199L43.0234 513.434L43.7461 512.906L44.6836 512.203C45.4773 511.614 46.4321 511.21 47.4766 511.168L48.5508 511.266L49.4883 511.441L50.4258 511.637C50.9358 511.738 51.4453 511.804 51.9492 511.832L52.8867 511.891L53.8242 511.93C54.5467 511.971 55.2736 512.058 55.9922 512.184L56.9297 512.34L57.8672 512.516C58.509 512.628 59.1592 512.74 59.8008 512.867L60.7383 513.062L61.6758 513.238C61.8831 513.278 62.0831 513.271 62.3203 513.199L63.2578 512.926L64.1953 512.633C64.8314 512.439 65.4732 512.25 66.1094 512.066L67.0469 511.793L67.9844 511.539C68.876 511.282 69.7946 511.166 70.7188 511.227L72.5938 511.344C73.48 511.402 74.3513 511.614 75.1914 511.93L77.0664 512.633C77.6271 512.844 78.1906 513.021 78.7461 513.18L80.6211 513.727C80.7673 513.767 80.8916 513.757 81.0508 513.707L82.9258 513.121C83.6734 512.884 84.4288 512.704 85.1914 512.594L87.0664 512.32C87.6942 512.23 88.3331 512.154 88.9609 512.066L90.8359 511.793C91.7951 511.659 92.7524 511.722 93.6875 511.969L95.5625 512.477C95.7826 512.535 95.9923 512.53 96.207 512.477L98.082 512.008C98.9226 511.8 99.7801 511.706 100.641 511.734L101.578 511.773L102.516 511.793C103.569 511.828 104.568 512.126 105.484 512.613L106.422 513.121L107.359 513.609C107.397 513.629 107.421 513.643 107.438 513.648L108.355 513.414L109.293 513.18C110.099 512.97 110.929 512.847 111.754 512.828L113.629 512.789C114.337 512.773 115.05 512.792 115.758 512.848L117.633 513.004C118.18 513.047 118.727 513.049 119.273 513.043H120.211L121.148 513.023C121.726 513.017 122.309 513.003 122.887 512.965L124.762 512.848C125.271 512.814 125.789 512.739 126.305 512.633L128.18 512.242C128.929 512.088 129.688 512.004 130.445 511.969L131.383 511.91L132.32 511.871C133.219 511.83 134.107 511.941 134.977 512.184L135.914 512.438L136.852 512.711C137.187 512.805 137.503 512.837 137.809 512.809L139.684 512.613C140.715 512.515 141.732 512.677 142.691 513.043L143.629 513.395L144.566 513.766C144.844 513.872 145.085 513.886 145.289 513.863L146.227 513.766L147.164 513.648C147.517 513.608 147.906 513.515 148.316 513.336L150.191 512.516L151.188 512.203C151.868 512.072 152.555 512.104 153.219 512.281L154.195 512.652L155.133 513.141L155.621 513.375L156.266 512.926L157.203 512.242C158.154 511.548 159.289 511.085 160.562 511.09H162.438C163.214 511.094 163.993 511.181 164.762 511.324L166.637 511.676C167.439 511.826 168.228 512.061 169 512.379L170.875 513.16C171.274 513.325 171.648 513.408 171.988 513.434L172.926 513.492L173.863 513.57C174.173 513.593 174.494 513.556 174.84 513.453L175.777 513.18L176.715 512.887C177.574 512.63 178.46 512.501 179.352 512.516L181.227 512.555C182.131 512.57 183.023 512.744 183.883 513.043L184.82 513.355L185.719 513.668H185.738L186.676 513.219L187.613 512.789C188.563 512.339 189.592 512.084 190.66 512.125L192.535 512.203C193.009 512.221 193.483 512.189 193.961 512.125L194.898 512.008L195.836 511.871C196.651 511.761 197.479 511.752 198.297 511.832L200.172 512.027C200.795 512.089 201.424 512.143 202.047 512.203L202.984 512.301L203.922 512.379C204.593 512.444 205.264 512.529 205.934 512.633L206.871 512.789L207.809 512.926C208.483 513.031 209.167 513.151 209.84 513.297L210.777 513.512L211.656 513.688C211.677 513.679 211.713 513.674 211.754 513.648L213.629 512.516C214.495 511.987 215.436 511.609 216.441 511.461L218.316 511.188C219.181 511.061 220.05 511.061 220.914 511.188L222.789 511.461C223.476 511.562 224.175 511.698 224.859 511.852L225.797 512.047L226.734 512.262C227.048 512.331 227.349 512.35 227.652 512.301L229.527 511.988C230.577 511.817 231.616 511.92 232.613 512.262L233.551 512.574L234.488 512.906C234.624 512.953 234.723 512.942 234.84 512.906L235.777 512.633L236.715 512.34C237.635 512.063 238.589 511.956 239.547 512.047L241.422 512.242C241.774 512.275 242.129 512.246 242.496 512.164L244.371 511.734C245.496 511.481 246.63 511.584 247.691 511.988L248.629 512.34L249.566 512.711C249.922 512.847 250.247 512.905 250.543 512.906H251.48L252.418 512.887C252.667 512.886 252.96 512.838 253.297 512.691L255.172 511.871C256.296 511.379 257.517 511.278 258.727 511.617L259.664 511.871L260.602 512.145C260.978 512.25 261.348 512.278 261.695 512.262L263.57 512.184C264.238 512.152 264.914 512.12 265.582 512.125L266.52 512.145H267.457C268.194 512.15 268.93 512.212 269.664 512.32L271.539 512.594C272.089 512.676 272.651 512.739 273.199 512.77L274.137 512.828L275.074 512.867C275.514 512.891 275.956 512.88 276.402 512.809L278.277 512.496C278.958 512.386 279.646 512.304 280.328 512.242L281.266 512.164L282.203 512.066C282.893 512.004 283.583 511.975 284.273 511.969H285.211L286.148 511.949C286.682 511.944 287.234 511.915 287.77 511.852L288.707 511.734L289.645 511.637C290.483 511.538 291.328 511.537 292.164 511.656L294.039 511.93C294.458 511.989 294.873 511.992 295.289 511.949L297.164 511.754C298.283 511.637 299.373 511.838 300.367 512.301L301.305 512.75L302.242 513.18C302.478 513.289 302.632 513.309 302.75 513.297L304.625 513.062C305.166 512.998 305.72 512.91 306.266 512.789L307.203 512.574L308.141 512.379C309.186 512.147 310.243 512.194 311.266 512.496L313.141 513.043C313.621 513.185 314.102 513.269 314.566 513.316L316.441 513.512L316.676 513.395L318.551 512.145C319.329 511.631 320.225 511.299 321.188 511.246L322.184 511.285L323.121 511.441L324.059 511.578C324.822 511.694 325.576 511.882 326.324 512.125L327.262 512.418L328.199 512.73C328.338 512.775 328.434 512.767 328.551 512.73L329.469 512.438L330.406 512.145C331.365 511.845 332.358 511.761 333.355 511.891L334.312 512.008L335.27 512.145C335.437 512.165 335.568 512.147 335.699 512.086L336.539 511.676L337.398 511.285C338.171 510.924 338.991 510.662 339.84 510.504L340.816 510.328L341.793 510.133C342.106 510.075 342.386 509.97 342.633 509.801L343.434 509.234L344.234 508.688C344.597 508.438 344.923 508.142 345.211 507.809L346.5 506.324C346.851 505.917 347.167 505.483 347.457 505.035L347.984 504.215L348.531 503.395C348.777 503.013 348.967 502.607 349.117 502.184L349.781 500.348C349.934 499.913 350.022 499.466 350.074 499.02L350.191 498.062L350.309 497.125C350.403 496.322 350.585 495.52 350.836 494.742L351.129 493.805L351.441 492.867C351.546 492.543 351.563 492.243 351.539 491.969L351.383 490.094C351.326 489.449 351.265 488.805 351.227 488.16L351.188 487.223L351.129 486.285C351.101 485.82 351.015 485.338 350.895 484.859L350.426 482.984C350.256 482.309 350.118 481.631 349.996 480.953L349.645 479.078C349.446 477.977 349.579 476.882 349.977 475.855L350.719 473.98C350.89 473.541 350.985 473.111 351.031 472.711L351.148 471.773L351.246 470.836C351.249 470.813 351.253 470.718 351.129 470.504L350.582 469.566L350.055 468.629C349.674 467.973 349.417 467.197 349.449 466.344C349.482 465.497 349.787 464.754 350.191 464.137L350.797 463.199L351.422 462.262C351.44 462.234 351.432 462.201 351.441 462.184L351.266 461.363L351.051 460.426C350.874 459.625 350.793 458.799 350.797 457.984V457.047L350.816 456.109C350.819 455.563 350.785 455.016 350.738 454.469L350.582 452.594C350.497 451.608 350.618 450.636 350.934 449.703L351.266 448.766L351.48 448.082L350.914 447.242L350.25 446.305C349.475 445.188 349.103 443.806 349.508 442.34L349.762 441.402L350.035 440.465C350.083 440.292 350.068 440.136 350.016 439.957L349.469 438.082C349.118 436.888 349.196 435.676 349.664 434.547L350.445 432.672C350.609 432.276 350.695 431.913 350.719 431.578L350.777 430.641L350.855 429.703C350.871 429.478 350.838 429.225 350.719 428.922L349.977 427.047C349.634 426.18 349.426 425.278 349.391 424.352L349.371 423.414L349.332 422.477C349.297 421.546 349.436 420.63 349.723 419.742L350.016 418.805L350.328 417.867C350.417 417.591 350.42 417.337 350.387 417.105L350.113 415.23C350.017 414.567 349.939 413.903 349.879 413.238L349.723 411.363C349.669 410.768 349.601 410.162 349.527 409.566L349.293 407.691C349.118 406.285 349.596 405.031 350.348 404.02L351.051 403.082L351.324 402.691L351.051 402.301L350.348 401.363C349.903 400.762 349.551 400.005 349.488 399.117C349.425 398.212 349.686 397.393 350.094 396.715L350.641 395.777L351.109 394.977L350.816 394.293L350.426 393.355C349.939 392.204 349.866 390.955 350.25 389.742L350.836 387.867C351.015 387.3 351.17 386.731 351.305 386.168L351.539 385.23L351.754 384.293C351.846 383.905 351.875 383.529 351.852 383.16L351.734 381.285C351.709 380.897 351.625 380.497 351.48 380.074L351.168 379.137L350.836 378.199C350.579 377.449 350.396 376.681 350.27 375.914L349.957 374.039C349.835 373.297 349.776 372.54 349.762 371.793L349.723 369.918C349.712 369.368 349.683 368.809 349.625 368.258L349.527 367.32L349.41 366.383C349.33 365.622 349.322 364.86 349.371 364.098L349.488 362.223C349.55 361.256 349.818 360.328 350.23 359.449L350.66 358.512L351.109 357.574C351.26 357.254 351.307 356.984 351.305 356.773L351.285 355.836V354.898C351.28 354.506 351.207 354.105 351.09 353.688L350.836 352.75L350.562 351.812C350.306 350.903 350.223 349.96 350.309 349.02L350.387 348.082L350.484 347.145C350.561 346.316 350.739 345.502 351.012 344.703L351.324 343.766L351.656 342.828C351.78 342.468 351.82 342.124 351.812 341.812L351.773 339.938C351.768 339.748 351.71 339.5 351.539 339.176L351.031 338.238L350.543 337.301C349.85 335.989 349.811 334.516 350.465 333.16L350.914 332.223L351.227 331.559L350.797 330.855L350.23 329.918C349.588 328.848 349.294 327.601 349.547 326.285L349.898 324.41C350.011 323.826 350.109 323.236 350.191 322.652L350.465 320.777C350.546 320.204 350.613 319.631 350.66 319.059L350.816 317.184C350.847 316.81 350.823 316.42 350.738 316.031L350.523 315.094L350.328 314.156C350.095 313.082 350.161 312.008 350.504 310.973L351.129 309.098C351.209 308.857 351.222 308.648 351.188 308.453L350.836 306.578C350.728 305.984 350.615 305.376 350.484 304.781L350.27 303.844L350.074 302.906C349.882 302.029 349.825 301.142 349.918 300.25L350.113 298.375C350.157 297.958 350.155 297.526 350.094 297.105L349.82 295.23C349.727 294.592 349.627 293.955 349.547 293.316L349.312 291.441C349.189 290.46 349.284 289.477 349.566 288.531L349.84 287.594L350.133 286.656C350.267 286.204 350.335 285.76 350.367 285.328L350.523 283.453C350.587 282.59 350.774 281.738 351.07 280.914L351.402 279.977L351.637 279.273L350.465 277.516C349.696 276.363 349.374 274.952 349.84 273.492L350.133 272.555L350.445 271.617C350.596 271.145 350.687 270.682 350.738 270.23L350.836 269.293L350.953 268.355C351.012 267.83 351.036 267.297 351.031 266.773V265.836L351.012 264.898C351.008 264.611 350.957 264.295 350.816 263.941L350.426 263.004L350.055 262.066C349.713 261.213 349.505 260.319 349.449 259.41L349.332 257.535C349.257 256.313 349.624 255.181 350.23 254.195L350.797 253.258L351.383 252.32C351.401 252.291 351.394 252.259 351.402 252.242L351.207 251.383L350.992 250.445C350.883 249.983 350.72 249.509 350.504 249.02L350.094 248.082L349.664 247.145C349.082 245.828 349.135 244.415 349.762 243.141L350.211 242.203L350.68 241.266C350.796 241.026 350.808 240.876 350.797 240.777L350.699 239.84L350.582 238.902C350.499 238.163 350.463 237.417 350.484 236.676L350.523 235.738L350.543 234.801C350.564 234.098 350.612 233.393 350.699 232.691L350.934 230.816C350.999 230.294 351.049 229.774 351.051 229.254V227.379C351.052 227.044 351.002 226.683 350.875 226.305L350.543 225.367L350.23 224.43C349.839 223.271 349.862 222.064 350.27 220.914L350.934 219.039C350.969 218.936 350.964 218.877 350.934 218.785L350.309 216.91C350.075 216.2 349.892 215.48 349.742 214.762L349.352 212.887C349.092 211.645 349.305 210.431 349.859 209.352L350.348 208.414L350.816 207.477C351.037 207.045 351.175 206.651 351.246 206.285L351.441 205.348L351.617 204.41V204.371C351.612 204.35 351.586 204.301 351.539 204.215L351.031 203.277L350.504 202.34C349.976 201.379 349.685 200.308 349.723 199.176L349.762 198.238L349.781 197.301C349.811 196.443 349.972 195.59 350.23 194.762L350.816 192.887C350.903 192.609 350.91 192.362 350.875 192.125L350.602 190.25C350.529 189.764 350.41 189.267 350.25 188.766L349.957 187.828L349.645 186.891C349.257 185.677 349.333 184.432 349.82 183.277L350.211 182.34L350.621 181.402C350.674 181.275 350.656 181.224 350.641 181.168L350.133 179.293C349.892 178.408 349.797 177.491 349.859 176.578L349.918 175.641L349.996 174.703C350.018 174.37 349.976 174.028 349.879 173.668L349.371 171.793C349.015 170.483 349.226 169.191 349.84 168.062L350.348 167.125L350.816 166.266L350.504 165.484L350.152 164.547C349.774 163.579 349.599 162.545 349.703 161.5L349.898 159.625C349.975 158.857 350.118 158.094 350.328 157.34L350.602 156.402L350.855 155.465C350.968 155.063 351.017 154.669 351.012 154.293L350.992 153.355V152.418C350.981 151.665 351.025 150.901 351.129 150.152L351.266 149.215L351.383 148.277V148.238C351.376 148.209 351.351 148.138 351.285 148.023L350.191 146.148C349.52 144.998 349.275 143.646 349.684 142.281L349.977 141.344L350.25 140.406C350.437 139.781 350.626 139.156 350.816 138.531L351.109 137.594L351.383 136.656C351.474 136.356 351.511 136.079 351.48 135.816L351.246 133.941C351.175 133.362 351.076 132.764 350.973 132.184L350.816 131.246L350.641 130.309C350.463 129.303 350.535 128.299 350.816 127.32L351.07 126.383L351.344 125.445V125.426C351.344 125.426 351.353 125.391 351.324 125.328L350.426 123.453C350.005 122.562 349.749 121.608 349.703 120.621L349.625 118.746C349.593 118.04 349.588 117.323 349.625 116.617L349.684 115.68L349.723 114.742C349.748 114.241 349.749 113.74 349.703 113.238L349.605 112.301L349.527 111.363C349.428 110.286 349.613 109.234 350.035 108.258L350.855 106.383C351.052 105.928 351.174 105.489 351.246 105.074L351.402 104.137L351.578 103.199C351.668 102.676 351.729 102.155 351.754 101.637L351.832 99.7617C351.833 99.732 351.844 99.602 351.676 99.332L350.504 97.457C349.735 96.2271 349.51 94.7605 350.094 93.3164L350.484 92.3789L350.855 91.4414C351.066 90.9224 351.24 90.4015 351.363 89.8984L351.578 88.9609L351.812 88.0234C351.913 87.6096 351.959 87.2075 351.949 86.8125L351.91 84.9375C351.91 84.9313 351.908 84.9062 351.891 84.8594C351.865 84.7939 351.797 84.667 351.676 84.5078L350.973 83.5703L350.25 82.6328C349.777 82.0071 349.405 81.194 349.391 80.2305C349.379 79.2555 349.739 78.4123 350.211 77.7695L350.895 76.832L351.168 76.4414L350.895 76.0508L350.211 75.1133C349.787 74.5366 349.436 73.8257 349.332 73.0039C349.226 72.1659 349.385 71.361 349.723 70.6602L350.191 69.7227L350.641 68.7852C350.718 68.6201 350.707 68.5516 350.699 68.5117L350.309 66.6367C350.076 65.5105 350.187 64.3876 350.602 63.3359L351.344 61.4609C351.415 61.2792 351.426 61.162 351.402 61.0508L350.973 59.1758C350.754 58.1931 350.754 57.1897 350.973 56.207L351.402 54.332C351.453 54.0999 351.446 53.8715 351.383 53.6289L351.129 52.6914L350.895 51.7539C350.722 51.0918 350.565 50.4251 350.426 49.7617L350.035 47.8867C349.789 46.7118 349.931 45.5552 350.406 44.4883L350.836 43.5508L351.246 42.6133C351.363 42.3509 351.379 42.1601 351.363 42.0078L351.168 40.1328C351.128 39.7419 351.038 39.3329 350.875 38.9023L350.523 37.9648L350.152 37.0273C349.734 35.9294 349.668 34.7589 349.977 33.6094L350.484 31.7344C350.628 31.1994 350.736 30.6613 350.816 30.1328L350.953 29.1953L351.109 28.2578C351.151 27.9837 351.128 27.7091 351.051 27.418L350.543 25.543C350.407 25.0376 350.253 24.5513 350.055 24.0977L349.684 23.2383L349.293 22.3984C348.874 21.4386 348.724 20.4035 348.785 19.3711L348.844 18.375L348.883 17.3984L348.316 16.7734L347.652 16.0508C347.131 15.4804 346.66 14.8758 346.246 14.2344L345.738 13.4336L345.211 12.6523V12.6328C345.2 12.6273 345.164 12.604 345.133 12.5938L344.176 12.3008L343.238 12.0078C342.045 11.6363 341.068 10.8914 340.387 9.85938L339.82 9L339.41 8.375L338.727 8.33594L337.77 8.29688C336.706 8.2443 335.692 7.92549 334.781 7.37891L333.941 6.89062L333.102 6.38281C332.736 6.1633 332.341 5.98729 331.93 5.875L330.992 5.62109L330.172 5.38672V5.40625L328.297 6.61719C327.054 7.41998 325.549 7.65221 324.078 7.02734L323.141 6.61719L322.203 6.22656C322.05 6.16232 321.979 6.17051 321.91 6.1875L320.973 6.42188L320.035 6.63672C318.956 6.90345 317.866 6.87205 316.812 6.53906L315.875 6.24609L314.938 5.93359H314.918C314.908 5.93627 314.875 5.95687 314.84 5.97266L313.902 6.38281L312.965 6.8125C311.854 7.31687 310.645 7.46286 309.43 7.14453L308.492 6.89062L307.555 6.65625C306.975 6.50408 306.394 6.36307 305.816 6.24609L303.941 5.85547C303.5 5.76616 303.063 5.72733 302.633 5.73828L301.695 5.77734L300.758 5.79688C300.371 5.80706 299.964 5.86416 299.547 5.99219L297.672 6.57812C296.771 6.85481 295.838 6.96931 294.898 6.91016L293.023 6.79297C292.626 6.76854 292.222 6.78693 291.812 6.87109L289.938 7.26172C288.568 7.54249 287.283 7.19295 286.207 6.5L285.27 5.91406L284.332 5.30859C284.054 5.12947 283.927 5.13193 283.902 5.13281L282.965 5.15234L282.027 5.19141C281.442 5.21269 280.855 5.2594 280.27 5.30859L278.395 5.46484C277.687 5.52421 276.974 5.5355 276.266 5.52344H275.328L274.391 5.50391C273.996 5.49757 273.594 5.53568 273.18 5.64062L272.242 5.875L271.305 6.12891C270.741 6.27203 270.173 6.42881 269.605 6.61719L267.73 7.24219C266.218 7.74474 264.762 7.37811 263.609 6.55859L262.672 5.875L261.773 5.25L261.07 5.44531L260.133 5.71875C259.632 5.86272 259.11 6.04898 258.59 6.28516L256.715 7.14453C255.498 7.69523 254.172 7.74904 252.906 7.26172L251.969 6.91016L251.031 6.53906C250.539 6.35011 250.057 6.22 249.586 6.12891L248.648 5.93359L247.711 5.75781C247.225 5.6639 246.744 5.61188 246.266 5.60156L244.391 5.5625C244.314 5.56089 244.15 5.58516 243.863 5.75781L241.988 6.89062C241.332 7.28671 240.537 7.54578 239.664 7.51562C238.798 7.48531 238.038 7.17051 237.418 6.75391L236.48 6.10938L235.992 5.77734L235.523 6.10938L234.586 6.73438C233.395 7.53174 231.927 7.84609 230.445 7.30078L228.57 6.59766H228.492L227.555 6.98828L226.617 7.35938C225.116 7.95621 223.61 7.65629 222.398 6.83203L221.461 6.1875L220.465 5.52344L219.664 5.71875L218.727 5.91406C217.733 6.13566 216.728 6.12794 215.738 5.89453L213.863 5.46484C213.643 5.41296 213.429 5.4035 213.199 5.46484L211.324 5.97266C210.434 6.2097 209.526 6.30304 208.609 6.22656L206.734 6.07031C206.242 6.02872 205.742 6.01584 205.25 6.05078L204.312 6.12891L203.375 6.1875C202.487 6.25134 201.587 6.18183 200.719 5.97266L199.781 5.73828L198.961 5.54297L198.941 5.5625L197.066 6.8125C196.119 7.43988 195.025 7.84362 193.824 7.84766H191.949C191.333 7.84902 190.71 7.86148 190.094 7.86719H189.156L188.219 7.88672C187.437 7.89398 186.649 7.82955 185.875 7.69141L184 7.33984C183.459 7.24312 182.917 7.18642 182.379 7.14453L180.504 6.98828C179.947 6.94522 179.381 6.92883 178.824 6.92969H176.949C176.02 6.93143 175.094 6.77374 174.215 6.46094L172.34 5.79688C171.91 5.6445 171.504 5.53761 171.109 5.50391L169.234 5.34766C169.177 5.3428 169.037 5.3431 168.785 5.48438L166.91 6.53906C165.739 7.1967 164.396 7.40625 163.043 6.96875L162.105 6.65625L161.168 6.36328C160.999 6.3085 160.868 6.30308 160.719 6.34375L158.844 6.85156C157.589 7.19386 156.338 7.049 155.211 6.5L154.273 6.03125L153.395 5.60156L152.574 5.95312L151.637 6.34375C150.717 6.72332 149.747 6.91633 148.746 6.89062L146.871 6.85156C146.22 6.83481 145.569 6.8133 144.918 6.77344L143.043 6.65625C142.239 6.60686 141.427 6.46317 140.641 6.24609L138.766 5.73828C138.332 5.61899 137.907 5.55272 137.496 5.54297L135.621 5.50391C135.38 5.49917 135.105 5.54309 134.781 5.67969L132.906 6.46094C131.912 6.87951 130.852 7.04396 129.762 6.91016L128.824 6.79297L127.887 6.69531C127.037 6.59037 126.196 6.37126 125.387 6.05078L124.449 5.67969L123.805 5.42578L123.062 5.95312L122.125 6.61719C121.485 7.06362 120.672 7.40181 119.742 7.39844C118.814 7.39421 118.014 7.04497 117.379 6.59766L116.441 5.93359L115.914 5.54297L115.445 5.85547L114.508 6.44141C113.495 7.07198 112.32 7.41503 111.051 7.28125L109.176 7.08594C108.511 7.01593 107.847 6.93429 107.184 6.83203L106.246 6.69531L105.309 6.53906C104.611 6.43152 103.913 6.30062 103.219 6.12891L101.344 5.66016C101.29 5.64684 101.222 5.63254 101.07 5.69922L99.1953 6.51953C98.4238 6.85973 97.6366 7.13091 96.832 7.30078L94.957 7.69141C93.5945 7.97867 92.307 7.65251 91.2266 6.96875L90.2891 6.36328L89.3516 5.77734L88.5703 6.01172L87.6328 6.28516C86.9438 6.48656 86.2558 6.67193 85.5625 6.8125L84.625 6.98828L83.6875 7.18359C82.4792 7.42851 81.2999 7.23228 80.2305 6.71484L78.3555 5.81641C78.1299 5.70693 77.9907 5.70692 77.9062 5.71875L76.9688 5.83594L76.0312 5.97266C75.5225 6.04405 75.0065 6.15852 74.4883 6.30469L73.5508 6.55859L72.6133 6.83203C71.3331 7.19205 70.0572 7.01995 68.9219 6.44141L67.9844 5.95312L67.0469 5.48438L66.9102 5.42578H66.8906L65.9531 5.64062L65.0156 5.875C64.4823 6.00067 63.9364 6.15158 63.3945 6.34375L61.5195 7.00781C60.4008 7.40417 59.2254 7.45148 58.082 7.10547L57.1445 6.8125L56.207 6.53906C56.0846 6.50251 55.9928 6.49311 55.8555 6.53906L53.9805 7.16406C52.8757 7.53388 51.7238 7.5538 50.6016 7.22266L48.7266 6.67578C48.2016 6.52104 47.68 6.40723 47.1641 6.32422L45.2891 6.01172C45.178 5.9942 45.039 6.01305 44.8203 6.10938L42.9453 6.92969C41.4891 7.57056 39.9858 7.37244 38.7266 6.57812L37.7891 5.97266L36.8516 5.38672C36.7423 5.31813 36.6777 5.30903 36.6758 5.30859L35.7969 5.46484L34.8594 5.62109C33.9953 5.76569 33.1105 5.78996 32.2422 5.67969L31.3047 5.5625L30.3672 5.42578C30.1127 5.39434 29.8415 5.43194 29.5469 5.52344L28.6094 5.79688L27.6719 6.08984C27.3339 6.19467 26.8939 6.32425 26.4609 6.36328C26.2945 6.37788 25.8228 6.4012 25.2891 6.22656C24.8329 6.43228 24.3003 6.64654 23.707 6.85156L22.8281 7.16406L21.9492 7.45703C21.3984 7.64739 20.8529 7.853 20.3281 8.0625L19.4883 8.39453L18.6484 8.74609C18.3332 8.8725 18.048 9.03742 17.7891 9.25391L17.0859 9.83984L16.4023 10.4062C15.4806 11.177 14.373 11.5714 13.2578 11.6953L12.1445 11.8125L11.8906 11.832L11.8711 12.0859L11.7539 13.1992C11.6294 14.3022 11.2516 15.4048 10.5039 16.3242L9.9375 17.0078L9.37109 17.7109C9.17968 17.9463 9.04007 18.2071 8.94141 18.4922L8.35547 20.2109C8.10016 20.9557 7.75574 21.681 7.33984 22.3789L6.32422 24.0586C6.25643 24.1723 6.25882 24.2399 6.26562 24.3125L6.46094 26.2266C6.53391 26.9252 6.56719 27.622 6.57812 28.3164L6.61719 30.1914C6.62424 30.651 6.67351 31.1275 6.77344 31.5977L7.16406 33.4727C7.36787 34.4325 7.37969 35.4017 7.18359 36.3633L6.79297 38.2383C6.70476 38.6713 6.67935 39.1061 6.69531 39.5273L6.77344 41.4023C6.8085 42.3552 6.65863 43.295 6.34375 44.1953L5.67969 46.0703C5.57443 46.3734 5.53961 46.6438 5.5625 46.8906L5.66016 47.8281L5.73828 48.7656C5.80555 49.494 5.82259 50.2236 5.79688 50.9531L5.77734 51.8906L5.73828 52.8281C5.7181 53.4011 5.72303 53.9739 5.73828 54.5469L5.77734 56.4219C5.78379 56.664 5.84862 56.9565 6.01172 57.3008L6.46094 58.2383L6.89062 59.1758C7.35377 60.1544 7.58517 61.2154 7.49609 62.3203L7.33984 64.1953C7.30487 64.6345 7.33639 65.0807 7.39844 65.5234L7.51562 66.4609L7.65234 67.3984C7.75925 68.1638 7.79632 68.9338 7.76953 69.7031L7.75 70.6406L7.71094 71.5781C7.68188 72.4084 7.54658 73.2306 7.32031 74.0391L7.06641 74.9766L6.79297 75.9141C6.62784 76.5042 6.48156 77.1024 6.34375 77.6914L6.12891 78.6289L5.89453 79.5664C5.76206 80.1335 5.65444 80.7008 5.5625 81.2656L5.25 83.082ZM356.051 229.254C356.049 229.981 355.985 230.717 355.895 231.441L355.66 233.316C355.592 233.862 355.559 234.413 355.543 234.957L355.523 235.895L355.484 236.832C355.47 237.336 355.486 237.849 355.543 238.355L355.66 239.293L355.758 240.23C355.886 241.375 355.663 242.471 355.172 243.473L354.703 244.41L354.293 245.25L354.664 246.051L355.074 246.988C355.409 247.746 355.671 248.528 355.855 249.312L356.285 251.188C356.604 252.546 356.315 253.839 355.641 254.938L355.055 255.875L354.488 256.812C354.331 257.068 354.33 257.19 354.332 257.223L354.449 259.098C354.47 259.435 354.546 259.798 354.703 260.191L355.445 262.066C355.802 262.957 356.003 263.901 356.012 264.859L356.031 265.797V266.734C356.038 267.458 355.995 268.18 355.914 268.902L355.816 269.84L355.699 270.777C355.61 271.572 355.458 272.366 355.211 273.141L354.898 274.078L354.664 274.801L355.875 276.617C356.666 277.801 356.971 279.244 356.441 280.719L356.109 281.656L355.758 282.594C355.606 283.015 355.533 283.422 355.504 283.805L355.426 284.742L355.367 285.68C355.307 286.492 355.154 287.311 354.918 288.102L354.625 289.039L354.352 289.977C354.263 290.277 354.24 290.551 354.273 290.816L354.508 292.691C354.584 293.297 354.673 293.903 354.762 294.508L355.035 296.383C355.156 297.21 355.18 298.052 355.094 298.883L354.996 299.82L354.879 300.758C354.842 301.109 354.878 301.467 354.957 301.832L355.152 302.77L355.367 303.707C355.511 304.361 355.639 305.025 355.758 305.68L355.934 306.617L356.09 307.555C356.28 308.605 356.208 309.655 355.875 310.66L355.25 312.535C355.179 312.748 355.173 312.929 355.211 313.102L355.406 314.039L355.621 314.977C355.807 315.833 355.867 316.703 355.797 317.574L355.641 319.449C355.586 320.124 355.502 320.807 355.406 321.48L355.289 322.418L355.152 323.355C355.058 324.02 354.948 324.684 354.82 325.348L354.625 326.285L354.449 327.184L354.527 327.34L355.094 328.277L355.641 329.215C356.423 330.518 356.564 332.045 355.875 333.473L355.406 334.41L355.055 335.133L355.465 335.895L355.953 336.832C356.44 337.753 356.727 338.762 356.754 339.82L356.793 340.758L356.812 341.695C356.835 342.629 356.685 343.544 356.383 344.43L356.051 345.367L355.738 346.305C355.585 346.751 355.483 347.197 355.445 347.613L355.289 349.488C355.262 349.795 355.292 350.108 355.387 350.445L355.641 351.383L355.914 352.32C356.148 353.149 356.276 354.005 356.285 354.859V355.797L356.305 356.734C356.315 357.77 356.056 358.757 355.621 359.684L355.191 360.621L354.742 361.559C354.569 361.927 354.507 362.255 354.488 362.535L354.43 363.473L354.352 364.41C354.321 364.89 354.34 365.374 354.391 365.855L354.586 367.73C354.66 368.427 354.71 369.142 354.723 369.84L354.762 371.715C354.771 372.214 354.816 372.715 354.898 373.219L355.055 374.156L355.191 375.094C355.27 375.573 355.412 376.062 355.582 376.559L355.895 377.496L356.227 378.434C356.509 379.258 356.679 380.114 356.734 380.973L356.852 382.848C356.907 383.726 356.822 384.605 356.617 385.465L356.402 386.402L356.168 387.34C356.005 388.022 355.816 388.712 355.602 389.391L355.016 391.266L354.996 391.305L355.016 391.324C355.019 391.338 355.021 391.368 355.035 391.402L355.816 393.277C356.418 394.7 356.255 396.168 355.504 397.418L354.938 398.355L354.664 398.785L355.055 399.332L355.758 400.27C356.229 400.905 356.598 401.724 356.598 402.691C356.596 403.657 356.228 404.479 355.758 405.113L354.352 406.988C354.299 407.058 354.269 407.114 354.254 407.145L354.371 408.004L354.488 408.941C354.569 409.591 354.644 410.244 354.703 410.895L354.859 412.77C354.912 413.349 354.99 413.947 355.074 414.527L355.348 416.402C355.494 417.416 355.387 418.421 355.074 419.391L354.781 420.328L354.469 421.266C354.353 421.625 354.32 421.964 354.332 422.281L354.352 423.219L354.391 424.156C354.403 424.478 354.474 424.829 354.625 425.211L355.367 427.086C355.741 428.033 355.908 429.03 355.836 430.055L355.777 430.992L355.699 431.93C355.635 432.843 355.428 433.733 355.074 434.586L354.293 436.461C354.261 436.537 354.255 436.585 354.254 436.598C354.254 436.611 354.262 436.636 354.273 436.676L354.82 438.551C355.134 439.62 355.137 440.718 354.84 441.793L354.586 442.73L354.371 443.492L355.016 444.391L355.66 445.328C356.468 446.491 356.813 447.932 356.305 449.43L355.68 451.305C355.573 451.62 355.54 451.901 355.562 452.164L355.719 454.039C355.779 454.739 355.82 455.448 355.816 456.148L355.797 457.086V458.023C355.795 458.453 355.837 458.889 355.934 459.332L356.363 461.207L356.461 462.242C356.458 463.245 356.133 464.183 355.602 464.996L354.977 465.934L354.586 466.5L354.918 467.066L355.465 468.004C356.054 469.022 356.35 470.187 356.207 471.422L356.109 472.359L355.992 473.297C355.893 474.143 355.681 474.97 355.367 475.777L354.996 476.715L354.645 477.652C354.56 477.87 354.542 478.036 354.566 478.18L354.918 480.055C355.02 480.623 355.146 481.203 355.289 481.773L355.758 483.648C355.95 484.416 356.062 485.192 356.109 485.973L356.227 487.848C356.263 488.449 356.31 489.063 356.363 489.664L356.52 491.539C356.605 492.513 356.487 493.482 356.188 494.41L355.895 495.348L355.582 496.285C355.429 496.761 355.325 497.242 355.27 497.711L355.152 498.648L355.055 499.605C354.958 500.429 354.766 501.243 354.488 502.027L354.156 502.945L353.844 503.863C353.563 504.655 353.186 505.403 352.73 506.109L352.184 506.93L351.656 507.75C351.24 508.394 350.792 509.023 350.289 509.605L349 511.09C348.433 511.745 347.78 512.318 347.066 512.809L346.266 513.355L345.465 513.922C344.633 514.493 343.702 514.87 342.711 515.055L341.734 515.23L340.758 515.426C340.304 515.51 339.897 515.644 339.527 515.816L338.668 516.207L337.809 516.617C336.803 517.087 335.72 517.247 334.625 517.105L333.668 516.969L332.711 516.852C332.442 516.817 332.185 516.845 331.91 516.93L330.973 517.223L330.035 517.496C328.916 517.846 327.766 517.837 326.656 517.477L325.719 517.184L324.781 516.871C324.281 516.709 323.781 516.593 323.297 516.52L321.422 516.246L319.43 517.574C318.423 518.237 317.231 518.622 315.934 518.492L314.059 518.297C313.274 518.217 312.483 518.055 311.715 517.828L309.84 517.281C309.616 517.216 309.417 517.217 309.215 517.262L308.277 517.457L307.34 517.672C306.638 517.827 305.936 517.959 305.23 518.043L304.293 518.141L303.355 518.258C302.227 518.392 301.136 518.177 300.133 517.711L298.258 516.852C298.003 516.733 297.823 516.701 297.691 516.715L296.754 516.832L295.816 516.93C294.989 517.016 294.16 516.988 293.336 516.871L291.461 516.598C291.051 516.539 290.638 516.55 290.23 516.598L289.293 516.695L288.355 516.812C287.642 516.897 286.922 516.943 286.207 516.949L285.27 516.969H284.332C283.776 516.974 283.21 516.996 282.652 517.047L281.715 517.145L280.777 517.223C280.212 517.274 279.645 517.346 279.078 517.438L278.141 517.594L277.203 517.73C276.406 517.859 275.604 517.911 274.801 517.867L273.863 517.809L272.926 517.77C272.225 517.73 271.515 517.658 270.816 517.555L269.879 517.398L268.941 517.262C268.433 517.186 267.923 517.149 267.418 517.145H266.48L265.543 517.125C264.966 517.121 264.382 517.137 263.805 517.164L262.867 517.223L261.93 517.262C261.027 517.305 260.127 517.194 259.254 516.949L258.316 516.695L257.379 516.422C257.348 516.413 257.331 516.422 257.32 516.422C257.31 516.423 257.263 516.426 257.184 516.461L255.309 517.281C254.399 517.679 253.435 517.885 252.438 517.887L251.5 517.906H250.562C249.611 517.907 248.679 517.718 247.789 517.379L246.852 517.027L245.914 516.656C245.73 516.586 245.606 516.59 245.484 516.617L243.609 517.047C242.732 517.245 241.827 517.288 240.934 517.203L239.996 517.125L239.059 517.027C238.775 517.002 238.48 517.03 238.16 517.125L237.223 517.418L236.285 517.691C235.152 518.033 233.981 518.015 232.867 517.633L231.93 517.301L230.992 516.988C230.741 516.902 230.528 516.897 230.328 516.93L229.391 517.066L228.453 517.223C227.513 517.376 226.57 517.352 225.641 517.145L223.766 516.715C223.2 516.588 222.629 516.485 222.066 516.402L220.191 516.129C219.808 516.072 219.423 516.073 219.039 516.129L217.164 516.402C216.921 516.439 216.608 516.541 216.227 516.773L215.289 517.34L214.352 517.926C213.267 518.585 211.999 518.878 210.66 518.59L208.785 518.199C208.208 518.074 207.623 517.957 207.047 517.867L206.109 517.73L205.172 517.574C204.594 517.484 204.01 517.415 203.434 517.359L202.496 517.262L201.559 517.184C200.934 517.123 200.308 517.05 199.684 516.988L198.746 516.91L197.809 516.812C197.379 516.77 196.951 516.774 196.52 516.832L195.582 516.969L194.645 517.086C193.88 517.19 193.108 517.232 192.34 517.203L190.465 517.125C190.285 517.118 190.059 517.161 189.762 517.301L188.824 517.75L187.887 518.18C186.701 518.742 185.39 518.854 184.117 518.414L182.242 517.75C181.853 517.615 181.473 517.56 181.129 517.555L179.254 517.516C178.899 517.511 178.527 517.576 178.141 517.691L176.266 518.238C175.362 518.507 174.432 518.62 173.492 518.551L172.555 518.473L171.617 518.414C170.709 518.347 169.83 518.12 168.98 517.77L168.043 517.379L167.105 517.008C166.63 516.811 166.164 516.661 165.719 516.578L163.844 516.227C163.365 516.137 162.889 516.092 162.418 516.09H160.523C160.513 516.092 160.491 516.1 160.465 516.109C160.406 516.131 160.299 516.178 160.152 516.285L158.277 517.652C157.695 518.078 156.981 518.419 156.148 518.512C155.296 518.605 154.48 518.417 153.785 518.062L152.848 517.594L152.027 517.164L151.246 517.516L150.309 517.926C149.474 518.289 148.603 518.529 147.711 518.629L145.836 518.824C144.791 518.94 143.761 518.805 142.789 518.434L141.852 518.062L140.914 517.711C140.627 517.601 140.387 517.574 140.172 517.594L139.234 517.691L138.297 517.77C137.355 517.86 136.415 517.771 135.504 517.516L133.629 517.008C133.254 516.903 132.901 516.856 132.555 516.871L130.68 516.949C130.188 516.972 129.676 517.042 129.176 517.145L127.301 517.535C126.569 517.685 125.831 517.779 125.094 517.828L123.219 517.945C122.548 517.99 121.878 518.016 121.207 518.023L120.27 518.043H119.332C118.635 518.05 117.938 518.039 117.242 517.984L115.367 517.828C114.829 517.786 114.283 517.777 113.746 517.789L111.871 517.828C111.447 517.838 111.005 517.889 110.562 518.004L109.625 518.258L108.688 518.492C107.397 518.828 106.135 518.618 105.016 518.023L104.078 517.535L103.141 517.027C102.808 516.85 102.536 516.799 102.34 516.793L101.402 516.773L100.465 516.734C100.079 516.722 99.6788 516.771 99.2734 516.871L98.3359 517.105L97.3984 517.32C96.366 517.575 95.32 517.573 94.293 517.301L93.3555 517.047L92.418 516.812C92.107 516.73 91.8062 516.714 91.5195 516.754L90.582 516.871L89.6445 517.008C89.0256 517.095 88.408 517.192 87.7891 517.281L86.8516 517.418L85.9141 517.535C85.4295 517.605 84.9293 517.729 84.4297 517.887L82.5547 518.473C81.467 518.816 80.3345 518.845 79.2344 518.531L77.3594 517.984C76.6726 517.788 75.9902 517.557 75.3086 517.301L73.4336 516.598C73.0237 516.443 72.6254 516.367 72.2617 516.344L70.3867 516.227C70.0626 516.206 69.7275 516.241 69.3711 516.344L68.4336 516.598L67.4961 516.871C66.884 517.047 66.2724 517.232 65.6602 517.418L64.7227 517.711L63.7852 517.984C62.7792 518.29 61.7359 518.365 60.6992 518.16L58.8242 517.77C58.2205 517.65 57.6113 517.543 57.0078 517.438L56.0703 517.281L55.1328 517.105C54.6021 517.013 54.0581 516.96 53.5312 516.93L51.6562 516.812C50.9178 516.77 50.1815 516.685 49.4492 516.539L48.5117 516.344L47.7109 516.188C47.6979 516.196 47.6884 516.214 47.6719 516.227L46.7344 516.93L45.7969 517.613C44.579 518.517 43.0157 518.878 41.4414 518.199L40.5039 517.789L39.5664 517.398C39.286 517.277 39.0637 517.247 38.8828 517.262L37.0078 517.418C36.6104 517.452 36.1898 517.538 35.7578 517.691L33.8828 518.355C32.9928 518.67 32.0714 518.824 31.1289 518.805L29.2539 518.766C28.0528 518.74 26.9685 518.319 26.0312 517.672L25.1133 517.047L24.293 516.461L23.5117 516.734L22.5352 517.047C21.8314 517.276 21.0182 517.366 20.1914 517.145C19.3685 516.924 18.7124 516.449 18.2188 515.914L17.5156 515.152L16.793 514.371C16.6452 514.212 16.5644 514.2 16.5391 514.195L15.6211 514.02L14.6836 513.863C14.0064 513.74 13.2979 513.576 12.5742 513.395L10.543 512.887C8.97382 512.491 7.8629 511.369 7.4375 509.84L7.16406 508.824L6.87109 507.789C6.83 507.641 6.79229 507.595 6.73438 507.555L5.875 506.969L5.03516 506.402C3.82877 505.571 3.13509 504.303 3.08203 502.828L3.00391 500.797C2.98816 500.348 2.92115 499.957 2.80859 499.625L2.49609 498.727L2.20312 497.848C1.93644 497.068 1.7652 496.267 1.69531 495.445L1.53906 493.57C1.50669 493.186 1.40322 492.787 1.24609 492.359L0.914062 491.422L0.5625 490.484C0.241625 489.613 0.0694249 488.694 0.0546875 487.77L0.015625 485.895C-0.000819672 484.739 0.346516 483.665 0.914062 482.711L1.48047 481.773L2.02734 480.836C2.17261 480.592 2.16566 480.482 2.16406 480.465L2.06641 479.527L1.98828 478.59C1.94619 478.151 1.8408 477.703 1.69531 477.242L1.10938 475.367C0.681557 474.011 0.897371 472.664 1.55859 471.5L2.61328 469.625L2.65234 469.547L2.41797 468.688L2.16406 467.75C1.9185 466.821 1.86388 465.872 1.98828 464.918L2.22266 463.043C2.29319 462.503 2.3453 461.96 2.35938 461.422L2.39844 459.547C2.41161 459.04 2.39574 458.532 2.33984 458.023L2.22266 457.086L2.125 456.148C2.02455 455.241 2.07887 454.325 2.28125 453.434L2.71094 451.559V451.539C2.70967 451.53 2.69964 451.475 2.65234 451.383L2.16406 450.445L1.69531 449.508C1.01913 448.19 1.00068 446.728 1.65625 445.387L2.10547 444.449L2.41797 443.824L1.98828 443.121L1.40234 442.184C0.819615 441.245 0.447633 440.187 0.425781 439.039L0.386719 437.164C0.36955 436.225 0.525239 435.298 0.835938 434.41L1.5 432.535C1.68349 432.01 1.82188 431.487 1.92969 430.973L2.32031 429.098V429.078C2.31204 429.056 2.28749 429.027 2.26172 428.98L1.20703 427.105C0.433587 425.74 0.39402 424.182 1.14844 422.789L2.16406 420.914L2.22266 420.777L2.02734 419.84L1.8125 418.902C1.59072 417.89 1.6117 416.857 1.87109 415.855L2.125 414.918L2.35938 413.98C2.45013 413.628 2.48597 413.294 2.45703 412.965L2.35938 412.027L2.28125 411.09C2.21654 410.365 2.19955 409.628 2.22266 408.902L2.26172 407.965L2.28125 407.027C2.29612 406.547 2.27014 406.066 2.20312 405.582L2.06641 404.645L1.94922 403.707C1.87749 403.189 1.75828 402.67 1.61719 402.145L1.38281 401.207L1.12891 400.27C0.810211 399.084 0.898947 397.883 1.36328 396.773L1.77344 395.836L2.16406 394.898C2.17199 394.879 2.18147 394.867 2.18359 394.859L2.16406 394.84L1.83203 393.902L1.48047 392.965C1.20374 392.202 1.00191 391.426 0.875 390.641L0.71875 389.703L0.582031 388.766C0.361605 387.4 0.739307 386.139 1.44141 385.094L2.08594 384.156L2.47656 383.59L2.14453 383.082L1.57812 382.145C0.888387 380.99 0.645774 379.639 1.07031 378.258L1.34375 377.32L1.63672 376.383C1.73156 376.075 1.76356 375.792 1.73438 375.523L1.61719 374.586L1.51953 373.648C1.466 373.17 1.36961 372.676 1.22656 372.184L0.679688 370.309C0.363275 369.216 0.367846 368.094 0.699219 367.008L1.28516 365.133C1.32089 365.014 1.31082 364.915 1.26562 364.781L0.640625 362.906C0.211288 361.629 0.326794 360.335 0.894531 359.156L1.79297 357.281C2.0184 356.813 2.16614 356.359 2.26172 355.934L2.47656 354.996L2.67188 354.176C2.66417 354.163 2.64435 354.154 2.63281 354.137L1.38281 352.262C0.653999 351.179 0.272218 349.864 0.582031 348.453L0.777344 347.516L0.992188 346.578C1.15211 345.85 1.36282 345.128 1.61719 344.41L2.28125 342.535C2.37608 342.268 2.38739 342.04 2.35938 341.832L2.24219 340.895L2.10547 339.957C1.99306 339.136 1.98163 338.3 2.06641 337.477L2.26172 335.602C2.31513 335.08 2.32943 334.559 2.32031 334.039L2.30078 333.102V332.164C2.29253 331.703 2.2258 331.229 2.125 330.758L1.73438 328.883C1.5726 328.126 1.47264 327.364 1.44141 326.598L1.36328 324.723C1.34625 324.298 1.27183 323.859 1.14844 323.414L0.640625 321.539C0.290259 320.278 0.436795 319.017 0.992188 317.887L1.92969 316.012C2.11388 315.638 2.19887 315.315 2.22266 315.035L2.37891 313.16C2.4201 312.667 2.4161 312.169 2.37891 311.676L2.30078 310.738L2.24219 309.801C2.18429 309.032 2.18518 308.264 2.26172 307.496L2.45703 305.621C2.45781 305.613 2.46437 305.592 2.45703 305.562C2.44723 305.525 2.40027 305.437 2.32031 305.309L1.75391 304.371L1.16797 303.434C0.510198 302.379 0.160837 301.144 0.386719 299.82L0.5625 298.883L0.71875 297.945C0.842049 297.227 1.0023 296.508 1.20703 295.797L1.75391 293.922C1.83337 293.645 1.83389 293.389 1.79297 293.141L1.48047 291.266C1.37633 290.635 1.28376 290.002 1.1875 289.371L1.05078 288.434L0.894531 287.496C0.758153 286.602 0.777174 285.692 0.933594 284.801L1.08984 283.863L1.26562 282.926C1.36842 282.339 1.4614 281.754 1.53906 281.168L1.77344 279.293C1.78531 279.203 1.78806 279.055 1.67578 278.824L0.777344 276.949C0.11252 275.579 0.161679 274.102 0.875 272.789L1.89062 270.914C1.90612 270.885 1.92473 270.868 1.92969 270.855L1.67578 269.957L1.42188 269.02C1.20775 268.24 1.06373 267.453 1.01172 266.656L0.894531 264.781C0.849102 264.08 0.835311 263.373 0.855469 262.672L0.875 261.734L0.914062 260.797C0.939335 259.924 1.09265 259.057 1.36328 258.219L1.65625 257.281L1.96875 256.344C1.98089 256.305 1.96836 256.279 1.96875 256.266C1.96839 256.255 1.97353 256.213 1.94922 256.148L1.57812 255.211L1.22656 254.273C0.841217 253.278 0.706066 252.22 0.855469 251.148L0.972656 250.211L1.10938 249.273C1.22068 248.48 1.40806 247.681 1.67578 246.91L2.00781 245.973L2.28125 245.211L1.75391 244.352L1.1875 243.414C0.80948 242.787 0.536238 242.031 0.523438 241.207C0.512382 240.385 0.763059 239.64 1.12891 239L1.65625 238.062L2.20312 237.125C2.41214 236.759 2.49164 236.458 2.51562 236.227L2.71094 234.352C2.75484 233.924 2.74838 233.492 2.69141 233.062L2.55469 232.125L2.4375 231.188C2.40198 230.926 2.30204 230.61 2.08594 230.23L1.55859 229.293L1.01172 228.355C0.377612 227.242 0.134234 225.949 0.464844 224.625L0.933594 222.75C1.03425 222.344 1.08211 221.944 1.07031 221.559L1.03125 220.621L1.01172 219.684C0.982377 218.691 1.17081 217.729 1.53906 216.812L2.28125 214.938C2.43204 214.563 2.50553 214.213 2.51562 213.902L2.55469 212.965L2.57422 212.027C2.59498 211.389 2.61931 210.751 2.65234 210.113L2.71094 209.176L2.75 208.238C2.75247 208.191 2.75393 208.056 2.59375 207.789L1.46094 205.914C0.654441 204.577 0.561389 203.009 1.30469 201.578L2.28125 199.703C2.44591 199.384 2.49415 199.145 2.49609 198.961L2.51562 198.023V197.086C2.51883 196.761 2.46518 196.421 2.33984 196.051L1.71484 194.176C1.32186 193.02 1.31279 191.811 1.71484 190.66L2.37891 188.785C2.39304 188.744 2.39776 188.719 2.39844 188.707C2.39837 188.7 2.39836 188.665 2.37891 188.609L1.67578 186.734C1.33967 185.82 1.18324 184.858 1.22656 183.883L1.26562 182.945L1.32422 182.008C1.33764 181.712 1.28378 181.395 1.16797 181.051L0.542969 179.176C0.167024 178.067 0.128425 176.903 0.464844 175.777L0.757812 174.84L1.03125 173.902C1.22043 173.273 1.42203 172.637 1.61719 172.008L1.91016 171.07L2.16406 170.23L1.63672 169.293L1.08984 168.355C0.453744 167.242 0.210839 165.951 0.542969 164.625L1.01172 162.75C1.09228 162.425 1.10812 162.117 1.07031 161.812L0.835938 159.938C0.687219 158.768 0.91308 157.635 1.42188 156.617L2.22266 155.016L1.8125 154.332L1.24609 153.395C0.506546 152.15 0.326354 150.688 0.914062 149.273L1.69531 147.398C1.77676 147.201 1.77521 147.079 1.75391 146.969L1.40234 145.094C1.25628 144.343 1.15577 143.586 1.12891 142.828L1.10938 141.891L1.07031 140.953C1.04009 140.1 1.12808 139.249 1.32422 138.414L1.75391 136.539C1.86813 136.052 1.94158 135.57 1.96875 135.094L2.08594 133.219C2.10345 132.905 2.05779 132.575 1.94922 132.223L1.65625 131.285L1.38281 130.348C1.09695 129.42 0.975231 128.464 1.07031 127.496L1.26562 125.621C1.34033 124.864 1.48243 124.102 1.67578 123.355L2.14453 121.48C2.17439 121.362 2.18419 121.253 2.125 121.09L1.79297 120.152L1.44141 119.215C1.0304 118.082 0.998514 116.895 1.36328 115.738L1.94922 113.863C2.01542 113.654 2.02982 113.478 1.98828 113.297L1.55859 111.422C1.33625 110.454 1.30525 109.466 1.5 108.492L1.89062 106.617C1.99104 106.113 2.04101 105.611 2.06641 105.113L2.125 104.176L2.16406 103.238C2.17037 103.114 2.15264 102.931 2.00781 102.652L1.03125 100.777C0.679755 100.105 0.480039 99.3256 0.542969 98.4922C0.607091 97.6673 0.919316 96.9417 1.32422 96.3438L1.94922 95.4062L2.39844 94.7617L2.10547 94.2148L1.61719 93.2773C0.943732 91.9862 0.879817 90.5415 1.5 89.1953L1.92969 88.2578L2.24219 87.6328L1.75391 86.9102L1.14844 85.9727C0.469533 84.9253 0.110111 83.6821 0.328125 82.3398L0.484375 81.4023L0.621094 80.4648C0.732122 79.7827 0.872188 79.0939 1.03125 78.4141L1.24609 77.4766L1.48047 76.5391C1.63454 75.881 1.80443 75.2233 1.98828 74.5664L2.24219 73.6289L2.51562 72.6914C2.63878 72.251 2.69635 71.821 2.71094 71.4023L2.75 70.4648L2.76953 69.5273C2.7862 69.0487 2.75904 68.5646 2.69141 68.082L2.57422 67.1445L2.4375 66.207C2.32513 65.4031 2.29428 64.5926 2.35938 63.7852L2.51562 61.9102C2.52674 61.7663 2.5063 61.5736 2.37891 61.3047L1.92969 60.3672L1.5 59.4297C1.07165 58.5251 0.80455 57.5651 0.777344 56.5586L0.738281 54.6836C0.720274 54.0075 0.71448 53.3284 0.738281 52.6523L0.816406 50.7773C0.834671 50.2591 0.805992 49.7342 0.757812 49.2148L0.679688 48.2773L0.582031 47.3398C0.490176 46.3401 0.623342 45.353 0.953125 44.4102L1.61719 42.5352C1.73768 42.1894 1.78455 41.8715 1.77344 41.5781L1.69531 39.7031C1.6645 38.8772 1.74418 38.0564 1.91016 37.2422L2.08594 36.3047L2.28125 35.3672C2.33998 35.0792 2.34282 34.7975 2.28125 34.5078L1.89062 32.6328C1.72491 31.853 1.62931 31.0599 1.61719 30.2695L1.57812 28.3945C1.56949 27.8477 1.53883 27.2912 1.48047 26.7344L1.38281 25.7969L1.28516 24.8398C1.16137 23.6529 1.42528 22.5103 2.02734 21.5L3.04297 19.8203C3.29857 19.3914 3.4956 18.9789 3.62891 18.5898L3.90234 17.7305L4.19531 16.8711C4.48454 16.0283 4.92281 15.2582 5.48438 14.5664L6.05078 13.8633L6.63672 13.1602C6.6584 13.1312 6.73305 12.9989 6.77344 12.6523L6.91016 11.5195L7.02734 10.4062C7.11517 9.63369 7.4164 8.76863 8.12109 8.0625C8.82984 7.35429 9.70848 7.05497 10.4844 6.96875L11.5977 6.83203L12.7109 6.71484C13.0809 6.67342 13.1941 6.58237 13.1992 6.57812L13.8828 5.99219L14.5859 5.42578C15.2514 4.86933 15.9875 4.41976 16.793 4.09766L17.6328 3.76562L18.4922 3.41406C19.0868 3.17685 19.6908 2.94407 20.3086 2.73047L21.207 2.4375L22.0859 2.125C22.6236 1.939 23.0111 1.77875 23.2773 1.65625L23.8438 1.40234L24.3906 1.14844L25.6406 0.796875C25.8614 0.778024 26.3771 0.816514 26.9688 1.08984L27.125 1.03125L28.0625 0.738281C29.0154 0.442415 30.0182 0.338683 31.0117 0.464844L31.9492 0.601562L32.8867 0.71875C33.2638 0.765692 33.6382 0.743144 34.0195 0.679688L35.8945 0.367188L36.8711 0.308594C37.8329 0.341302 38.7357 0.668411 39.5273 1.16797L40.4648 1.75391L41.207 2.24219L41.8711 1.92969L42.8086 1.51953C43.837 1.06756 44.9531 0.90697 46.0898 1.08984L47.0273 1.22656L47.9648 1.38281C48.696 1.50067 49.4301 1.67752 50.1523 1.89062L52.0273 2.4375C52.1515 2.47299 52.2561 2.4656 52.3984 2.41797L54.2734 1.79297C55.3814 1.42323 56.53 1.41556 57.6523 1.75391L58.5898 2.02734L59.5273 2.32031C59.6333 2.35239 59.7287 2.34714 59.8594 2.30078L61.7344 1.63672C62.4397 1.38679 63.1495 1.17999 63.8633 1.01172L64.8008 0.777344L65.7383 0.5625C66.9939 0.266658 68.2322 0.470819 69.332 1.03125L70.2695 1.5L71.207 1.98828L71.2656 2.00781L72.2031 1.75391L73.1406 1.48047C73.8688 1.27542 74.61 1.11503 75.3477 1.01172L76.2852 0.894531L77.2227 0.757812C78.3834 0.596689 79.5026 0.81053 80.5234 1.30469L81.4609 1.77344L82.3984 2.22266C82.5771 2.30939 82.6524 2.28916 82.6914 2.28125L83.6289 2.08594L84.5664 1.91016C85.1189 1.79818 85.6698 1.64315 86.2266 1.48047L88.1016 0.933594L89.1562 0.757812C90.1901 0.700884 91.1717 1.01573 92.0273 1.55859L93.9023 2.73047C93.9409 2.75493 93.9603 2.79907 93.9805 2.80859L94.8594 2.61328L95.7969 2.39844C96.2407 2.30473 96.7067 2.15953 97.1836 1.94922L99.0586 1.12891C100.156 0.645822 101.341 0.520593 102.535 0.816406L103.473 1.03125L104.41 1.26562C104.964 1.40282 105.521 1.51296 106.07 1.59766L107.008 1.75391L107.945 1.89062C108.531 1.9808 109.119 2.06341 109.703 2.125L111.578 2.32031C111.585 2.3208 111.597 2.325 111.617 2.32031C111.652 2.31119 111.744 2.28208 111.871 2.20312L113.746 1.03125L114.84 0.542969C115.235 0.428617 115.661 0.367907 116.109 0.386719C116.552 0.405806 116.962 0.499311 117.34 0.640625L118.375 1.1875L119.312 1.85156L119.742 2.16406L120.191 1.85156L121.129 1.20703C122.035 0.57511 123.112 0.239416 124.234 0.367188L125.367 0.660156L127.242 1.40234C127.678 1.57411 128.096 1.66557 128.492 1.71484L130.367 1.94922C130.525 1.96872 130.719 1.95862 130.973 1.85156L132.848 1.07031C133.767 0.683342 134.735 0.481345 135.738 0.503906L137.613 0.542969C138.448 0.562769 139.281 0.690307 140.094 0.914062L141.969 1.42188C142.431 1.5494 142.892 1.62861 143.336 1.65625L145.211 1.77344C145.806 1.81001 146.413 1.83627 147.008 1.85156L148.883 1.89062C149.13 1.89614 149.416 1.86921 149.742 1.73438L151.617 0.953125C152.92 0.417163 154.28 0.485509 155.523 1.08984L157.398 1.98828C157.439 2.00827 157.48 2.02246 157.496 2.02734H157.516H157.535L159.41 1.51953C160.509 1.22086 161.632 1.24857 162.711 1.59766L163.648 1.91016L164.488 2.18359L165.406 1.65625L166.344 1.12891C167.338 0.571528 168.456 0.267861 169.645 0.367188L171.52 0.523438C172.368 0.594808 173.206 0.7815 174.02 1.07031L174.957 1.42188L175.895 1.75391C176.264 1.88558 176.61 1.92992 176.93 1.92969H178.805C179.494 1.92839 180.186 1.95472 180.875 2.00781L181.812 2.08594L182.75 2.14453C183.459 2.19932 184.173 2.29178 184.879 2.41797L186.754 2.76953C187.226 2.85374 187.695 2.89078 188.16 2.88672L189.098 2.86719H190.035C190.665 2.86133 191.3 2.84906 191.93 2.84766H193.805C193.85 2.84756 194.013 2.83143 194.312 2.63281L195.25 2.02734L196.188 1.40234C197.284 0.676014 198.605 0.322177 200.016 0.660156L200.953 0.875L201.891 1.10938C202.27 1.20085 202.644 1.23244 203.004 1.20703L203.941 1.12891L204.879 1.07031C205.633 1.01612 206.391 1.02636 207.145 1.08984L209.02 1.24609C209.346 1.27362 209.683 1.24187 210.035 1.14844L211.91 0.640625C212.931 0.367695 213.986 0.3588 215.016 0.601562L216.891 1.03125C217.144 1.09056 217.382 1.10549 217.633 1.05078L219.508 0.621094L220.562 0.503906C221.582 0.511596 222.524 0.870876 223.336 1.42188L224.273 2.06641L225.055 2.59375L225.699 2.33984L226.637 1.96875C227.828 1.49517 229.099 1.46496 230.309 1.91016L231.246 2.26172L231.91 2.51562L232.73 1.96875L233.668 1.32422L234.742 0.796875C235.132 0.667128 235.562 0.60067 236.012 0.601562C236.459 0.603219 236.875 0.685943 237.262 0.816406L238.336 1.34375L239.273 1.96875L239.82 2.33984L240.328 2.02734L241.266 1.46094C242.226 0.881356 243.316 0.538298 244.488 0.5625L246.363 0.601562C247.133 0.617667 247.906 0.708067 248.668 0.855469L250.543 1.20703C251.315 1.35676 252.077 1.58244 252.828 1.87109L253.766 2.24219L254.664 2.59375L255.582 2.16406L256.52 1.73438C257.25 1.40266 257.997 1.12919 258.746 0.914062L260.621 0.367188L261.715 0.210938C262.794 0.176795 263.802 0.548654 264.645 1.14844L265.582 1.8125L266.402 2.41797L267.086 2.18359L268.023 1.87109C268.704 1.64493 269.39 1.43937 270.074 1.26562L271.949 0.796875C272.782 0.585762 273.635 0.489384 274.488 0.503906L275.426 0.523438H276.363C276.901 0.532326 277.446 0.529651 277.984 0.484375L279.859 0.328125C280.522 0.27254 281.189 0.215507 281.852 0.191406L282.789 0.171875L283.727 0.132812C284.95 0.0894292 286.076 0.465119 287.047 1.08984L288.922 2.30078C288.958 2.32386 288.98 2.34962 289 2.35938L289.879 2.18359L290.816 1.98828C291.65 1.81758 292.49 1.75995 293.336 1.8125L295.211 1.92969C295.522 1.94926 295.858 1.90038 296.207 1.79297L297.145 1.5L298.082 1.22656C298.913 0.971331 299.76 0.819574 300.621 0.796875L302.496 0.757812C303.313 0.736326 304.131 0.809419 304.938 0.972656L305.875 1.14844L306.812 1.34375C307.483 1.47968 308.155 1.6368 308.824 1.8125L309.762 2.06641L310.699 2.30078C310.731 2.30904 310.747 2.32111 310.758 2.32031C310.77 2.31912 310.813 2.29817 310.895 2.26172L311.832 1.83203L312.77 1.42188C313.927 0.895105 315.198 0.774823 316.441 1.16797L317.379 1.48047L318.316 1.77344C318.511 1.83504 318.675 1.8348 318.844 1.79297L320.719 1.32422C321.894 1.03526 323.067 1.15625 324.156 1.61719L325.094 2.02734L325.758 2.30078L326.52 1.8125L327.457 1.20703C328.306 0.657903 329.278 0.327147 330.309 0.367188L331.363 0.542969L332.301 0.796875L333.258 1.05078C334.109 1.28352 334.923 1.63169 335.68 2.08594L337.359 3.10156C337.57 3.22748 337.774 3.28469 338.004 3.29688L338.98 3.35547L339.957 3.39453C341.066 3.45021 342.024 3.88915 342.77 4.60547L343.453 5.40625L344 6.26562L344.566 7.10547C344.606 7.16472 344.636 7.19686 344.645 7.20312C344.656 7.21051 344.684 7.21052 344.723 7.22266L345.66 7.53516L346.617 7.82812C347.77 8.18924 348.756 8.89303 349.43 9.9375L349.938 10.7188L350.445 11.5195C350.706 11.9229 351.003 12.3193 351.344 12.6914L351.988 13.3945L352.652 14.0977L353.238 14.8984C353.734 15.7285 353.939 16.6711 353.883 17.6523L353.824 18.668L353.766 19.6641C353.748 19.9717 353.804 20.2045 353.883 20.3867L354.625 22.1055C354.924 22.7918 355.189 23.4994 355.387 24.2344L355.621 25.1719L355.875 26.1094C356.13 27.0574 356.198 28.0279 356.051 29L355.914 29.9375L355.758 30.875C355.649 31.5936 355.5 32.3113 355.309 33.0234L354.801 34.8984C354.775 34.9958 354.785 35.0834 354.84 35.2305L355.543 37.1055C355.854 37.9218 356.061 38.7687 356.148 39.625L356.344 41.5C356.455 42.5965 356.256 43.6584 355.816 44.6445L355.387 45.582L354.977 46.5195C354.896 46.7002 354.903 46.799 354.918 46.8711L355.309 48.7461C355.431 49.3298 355.566 49.9189 355.719 50.5039L355.973 51.4414L356.207 52.3789C356.468 53.3833 356.491 54.4111 356.266 55.4258L356.07 56.3633L355.855 57.3008C355.797 57.5653 355.797 57.8174 355.855 58.082L356.07 59.0195L356.266 59.957C356.519 61.0941 356.412 62.2316 355.992 63.2969L355.25 65.1719C355.174 65.3669 355.186 65.499 355.211 65.6211L355.602 67.4961C355.851 68.7058 355.65 69.8991 355.133 70.9727L354.684 71.9102L354.43 72.418L354.918 73.082L355.621 74.0195C356.089 74.6558 356.441 75.4796 356.441 76.4414C356.441 77.4031 356.089 78.2267 355.621 78.8633L354.938 79.8008L354.645 80.1719L354.957 80.5625L355.66 81.5C356.369 82.4348 356.879 83.5514 356.91 84.8203L356.949 86.6953C356.97 87.5436 356.878 88.3854 356.676 89.2148L356.207 91.0898C356.024 91.8368 355.78 92.5854 355.484 93.3164L355.113 94.2539L354.82 94.9375L355.328 95.7383L355.914 96.6758C356.525 97.6533 356.89 98.7773 356.832 99.9961L356.793 100.934L356.734 101.871C356.699 102.6 356.625 103.334 356.5 104.059L356.344 104.996L356.168 105.934C356.024 106.765 355.787 107.584 355.445 108.375L354.625 110.25C354.51 110.519 354.493 110.723 354.508 110.895L354.586 111.832L354.684 112.77C354.752 113.514 354.761 114.27 354.723 115.016L354.684 115.953L354.625 116.891C354.597 117.431 354.6 117.971 354.625 118.512L354.703 120.387C354.715 120.647 354.79 120.949 354.957 121.305L355.406 122.242L355.836 123.18C356.371 124.315 356.506 125.567 356.148 126.812L355.875 127.75L355.621 128.688C355.544 128.954 355.52 129.21 355.562 129.449L355.738 130.387L355.895 131.324C356.013 131.988 356.125 132.651 356.207 133.316L356.441 135.191C356.562 136.175 356.455 137.156 356.168 138.102L355.895 139.039L355.602 139.977C355.412 140.598 355.221 141.23 355.035 141.852L354.762 142.789L354.508 143.609L355.602 145.484C356.205 146.518 356.518 147.721 356.344 148.98L356.207 149.918L356.09 150.855C356.021 151.353 355.985 151.846 355.992 152.34V153.277L356.012 154.215C356.024 155.085 355.914 155.949 355.68 156.793L355.406 157.73L355.152 158.668C355.015 159.159 354.927 159.656 354.879 160.133L354.684 162.008C354.664 162.21 354.693 162.434 354.801 162.711L355.543 164.586C356.074 165.945 355.919 167.342 355.25 168.57L354.234 170.445L354.195 170.484L354.449 171.402L354.703 172.34C354.944 173.224 355.038 174.143 354.977 175.055L354.859 176.93C354.837 177.263 354.859 177.604 354.957 177.965L355.465 179.84C355.79 181.032 355.701 182.241 355.23 183.355L354.82 184.293L354.43 185.23C354.419 185.256 354.414 185.276 354.41 185.289V185.367L354.723 186.305L355.016 187.242C355.255 187.99 355.429 188.746 355.543 189.508L355.816 191.383C355.967 192.394 355.885 193.4 355.582 194.371L354.996 196.246C354.865 196.664 354.796 197.069 354.781 197.457L354.742 198.395L354.723 199.332C354.719 199.446 354.742 199.633 354.898 199.918L355.914 201.793C356.502 202.863 356.763 204.082 356.52 205.348L356.168 207.223C355.999 208.101 355.686 208.95 355.27 209.762L354.781 210.699L354.312 211.637C354.265 211.729 354.238 211.792 354.234 211.812C354.232 211.827 354.23 211.848 354.234 211.871L354.625 213.746C354.736 214.277 354.897 214.809 355.074 215.348L355.367 216.285L355.68 217.223C356.059 218.378 356.045 219.577 355.641 220.719L354.977 222.594C354.943 222.691 354.946 222.738 354.977 222.828L355.602 224.703C355.895 225.571 356.053 226.467 356.051 227.379V229.254Z" fill="black"/>
</svg>
