<svg width="378" height="519" viewBox="0 0 378 519" fill="none" xmlns="http://www.w3.org/2000/svg">
<path d="M4 26C4 13.8497 13.8497 4 26 4H352C364.15 4 374 13.8497 374 26V493C374 505.15 364.15 515 352 515H26C13.8497 515 4 505.15 4 493V26Z" fill="white"/>
<path d="M2.84766 467.438C2.84023 467.413 2.81808 467.362 2.76953 467.281L1.63672 465.406C1.08289 464.486 0.732381 463.461 0.679688 462.359L0.640625 461.422L0.582031 460.484C0.550927 459.83 0.531664 459.166 0.523438 458.512V457.574L0.503906 456.637C0.491024 455.461 0.850394 454.369 1.44141 453.414L2.02734 452.477L2.33984 451.988L1.96875 451.48L1.30469 450.543C0.858547 449.898 0.531775 449.075 0.542969 448.141C0.555532 447.212 0.912184 446.408 1.36328 445.777L2.02734 444.84L2.32031 444.43L2.00781 444.039L1.30469 443.102C0.562086 442.107 0.0621434 440.888 0.191406 439.508L0.386719 437.633C0.471009 436.743 0.686451 435.872 1.03125 435.035L1.8125 433.16C1.89677 432.954 1.89192 432.813 1.87109 432.691L1.69531 431.754L1.53906 430.816C1.42826 430.204 1.30778 429.574 1.1875 428.961L0.992188 428.023L0.816406 427.086C0.627276 426.115 0.651471 425.139 0.875 424.176L1.30469 422.301C1.4588 421.637 1.6238 420.971 1.8125 420.309L2.35938 418.434C2.5018 417.934 2.59388 417.436 2.65234 416.949L2.88672 415.074C2.89609 414.996 2.88881 414.86 2.76953 414.625L2.30078 413.688L1.8125 412.75C1.26767 411.679 1.06094 410.484 1.30469 409.254L1.48047 408.316L1.67578 407.379C1.71407 407.185 1.71202 406.986 1.63672 406.754L1.01172 404.879C0.551059 403.448 0.855243 402.055 1.59766 400.895L2.18359 399.957L2.73047 399.098L2.47656 398.395L2.14453 397.457C1.79215 396.469 1.66061 395.42 1.8125 394.371L2.08594 392.496C2.17942 391.851 2.28538 391.207 2.39844 390.562L2.57422 389.625L2.73047 388.688C2.76162 388.51 2.75623 388.318 2.67188 388.082L2.00781 386.207C1.70683 385.367 1.52636 384.492 1.48047 383.609L1.42188 382.672L1.38281 381.734C1.35551 381.216 1.27991 380.694 1.1875 380.172L1.03125 379.234L0.855469 378.297C0.64562 377.106 0.854315 375.949 1.36328 374.898L2.26172 373.023C2.41184 372.714 2.45832 372.474 2.45703 372.281V371.344L2.4375 370.406C2.43145 369.955 2.38349 369.482 2.28125 369.02L2.06641 368.082L1.87109 367.145C1.73421 366.525 1.57977 365.909 1.44141 365.289L1.24609 364.352L1.03125 363.414C0.736584 362.094 1.00064 360.816 1.63672 359.723L2.73047 357.848C2.89779 357.558 2.92761 357.381 2.92578 357.281L2.88672 355.406C2.88354 355.271 2.85356 355.054 2.67188 354.742L1.57812 352.867C1.08909 352.028 0.735539 351.136 0.5625 350.191L0.210938 348.316C0.0244763 347.295 0.0927618 346.261 0.386719 345.27L0.933594 343.395C1.15094 342.663 1.43404 341.943 1.75391 341.227L2.16406 340.289L2.59375 339.352C2.72314 339.062 2.7423 338.832 2.73047 338.648L2.61328 336.773C2.57956 336.251 2.51678 335.718 2.41797 335.191L2.06641 333.316C1.89997 332.425 1.87682 331.519 2.00781 330.621L2.28125 328.746C2.35703 328.225 2.40723 327.702 2.41797 327.184L2.45703 325.309C2.46387 324.959 2.41364 324.596 2.30078 324.215L2.00781 323.277L1.73438 322.34C1.39062 321.19 1.42596 320.002 1.83203 318.883L2.18359 317.945L2.51562 317.008C2.52285 316.988 2.5337 316.976 2.53516 316.969C2.53352 316.961 2.52691 316.92 2.51562 316.891L2.14453 315.953L1.79297 315.016C1.42095 314.057 1.25161 313.042 1.34375 312.008L1.42188 311.07L1.51953 310.133C1.56858 309.579 1.59414 309.025 1.59766 308.473V306.598C1.60058 306.132 1.56574 305.664 1.48047 305.191L1.30469 304.254L1.14844 303.316C0.942024 302.177 1.09536 301.056 1.53906 300.016L1.92969 299.078L2.33984 298.141C2.50599 297.752 2.58865 297.391 2.61328 297.066L2.67188 296.129L2.75 295.191C2.76048 295.048 2.72584 294.841 2.59375 294.566L1.69531 292.691C1.0603 291.367 1.08271 289.936 1.73438 288.629L2.67188 286.754C2.84071 286.416 2.90005 286.134 2.90625 285.914L2.94531 284.039C2.95208 283.777 2.91719 283.49 2.78906 283.16L2.04688 281.285C1.57809 280.089 1.57436 278.819 2.02734 277.613L2.73047 275.738C2.78223 275.601 2.77616 275.52 2.75 275.426L2.47656 274.488L2.22266 273.551C1.94139 272.56 1.89274 271.539 2.08594 270.523L2.4375 268.648C2.49309 268.356 2.48294 268.067 2.41797 267.77L2.22266 266.832L2.00781 265.895C1.86033 265.219 1.73892 264.541 1.63672 263.863L1.36328 261.988C1.25467 261.268 1.18985 260.544 1.16797 259.82L1.12891 258.883L1.10938 257.945C1.08608 257.165 1.12597 256.376 1.24609 255.602L1.40234 254.664L1.53906 253.727C1.63396 253.115 1.72574 252.503 1.8125 251.891L2.08594 250.016C2.11565 249.806 2.10105 249.579 2.00781 249.312L1.34375 247.438C1.01375 246.494 0.880105 245.509 0.972656 244.508L1.05078 243.57L1.14844 242.633C1.1941 242.138 1.19992 241.642 1.16797 241.148L1.05078 239.273C0.990039 238.331 1.10114 237.402 1.38281 236.5L1.96875 234.625C2.0144 234.48 2.0315 234.357 1.98828 234.215L1.40234 232.34C1.19829 231.671 1.01606 231 0.855469 230.328L0.640625 229.391L0.40625 228.453C0.10085 227.174 0.327897 225.924 0.914062 224.82L1.40234 223.883L1.91016 222.945C2.1418 222.509 2.28104 222.104 2.35938 221.734L2.75 219.859C2.78057 219.714 2.7848 219.555 2.71094 219.352L2.00781 217.477C1.5821 216.315 1.58278 215.095 1.98828 213.922L2.30078 212.984L2.63281 212.047C2.72457 211.781 2.74088 211.556 2.71094 211.344L2.4375 209.469C2.37646 209.041 2.26041 208.599 2.08594 208.141L1.73438 207.203L1.36328 206.266C0.984211 205.273 0.845857 204.207 0.992188 203.141L1.26562 201.266C1.35201 200.636 1.42745 200 1.51953 199.371L1.79297 197.496C1.87752 196.918 1.95551 196.335 2.00781 195.758L2.08594 194.82L2.18359 193.883C2.22125 193.461 2.20783 193.039 2.14453 192.613L2.00781 191.676L1.85156 190.738C1.75921 190.121 1.67412 189.5 1.57812 188.883L1.42188 187.945L1.28516 187.008C1.12479 185.977 1.21574 184.945 1.53906 183.961L2.125 182.203L1.61719 181.266L1.08984 180.328C0.721749 179.665 0.497698 178.888 0.542969 178.043C0.587971 177.205 0.900273 176.466 1.30469 175.855L1.91016 174.918L2.53516 173.98L2.32031 173.199L2.08594 172.262L1.07031 168.512C0.846085 167.679 0.730925 166.829 0.738281 165.973L0.757812 165.035V164.098C0.765123 163.314 0.856547 162.528 1.01172 161.754L1.20703 160.816L1.38281 159.879C1.42464 159.671 1.41676 159.454 1.34375 159.215L1.07031 158.277L0.777344 157.34C0.354299 155.951 0.60623 154.586 1.30469 153.434L1.87109 152.496L2.45703 151.559C2.52471 151.445 2.54823 151.371 2.55469 151.344C2.55924 151.323 2.55542 151.31 2.55469 151.305L2.32031 149.43C2.27419 149.076 2.15905 148.693 1.96875 148.277L1.10938 146.402C0.659799 145.419 0.440171 144.358 0.542969 143.258L0.738281 141.383C0.786025 140.875 0.78188 140.366 0.757812 139.859L0.679688 137.984C0.65278 137.419 0.608379 136.851 0.542969 136.285L0.308594 134.41C0.209999 133.559 0.23387 132.699 0.367188 131.852L0.523438 130.914L0.660156 129.977C0.785159 129.184 1.00388 128.402 1.28516 127.633L1.61719 126.695L1.96875 125.758C2.03144 125.586 2.01909 125.471 1.98828 125.348L1.51953 123.473C1.21988 122.276 1.34786 121.077 1.83203 119.977L2.26172 119.039L2.59375 118.277L2.16406 117.477L1.65625 116.539C1.05461 115.407 0.867403 114.127 1.22656 112.828L1.48047 111.891L1.75391 110.953C1.82818 110.686 1.81837 110.435 1.77344 110.191L1.61719 109.254L1.44141 108.316C1.26625 107.367 1.27889 106.409 1.48047 105.465L1.87109 103.59C1.97236 103.115 2.03431 102.648 2.04688 102.184L2.06641 101.246L2.10547 100.309C2.11918 99.778 2.09115 99.2385 2.04688 98.707L1.89062 96.832C1.85664 96.4269 1.76817 95.9998 1.61719 95.5625L1.28516 94.625L0.972656 93.6875C0.676965 92.8333 0.504138 91.9481 0.484375 91.0508L0.445312 89.1758C0.423451 88.1302 0.673106 87.1228 1.10938 86.1875L1.96875 84.3125C2.08519 84.063 2.09992 83.8896 2.08594 83.7656L1.98828 82.8281L1.87109 81.8906C1.78858 81.1571 1.75777 80.4191 1.77344 79.6836L1.8125 77.8086C1.83103 76.9488 1.97055 76.0997 2.22266 75.2695L2.80859 73.3945C2.90586 73.0756 2.91564 72.7761 2.88672 72.4961L2.80859 71.5586L2.71094 70.6211C2.66642 70.1902 2.55284 69.7504 2.39844 69.293L1.77344 67.418C1.45205 66.4663 1.33141 65.4724 1.44141 64.4688L1.53906 63.5312L1.65625 62.5938C1.70417 62.1585 1.70587 61.7207 1.65625 61.2852L1.42188 59.4102C1.32825 58.6003 1.33386 57.7791 1.42188 56.9688L1.61719 55.0938C1.68636 54.4569 1.77318 53.8165 1.85156 53.1797L2.08594 51.3047C2.14102 50.8544 2.14358 50.4053 2.10547 49.957L1.94922 48.082C1.87888 47.2613 1.90435 46.4373 2.02734 45.6211L2.30078 43.7461C2.38418 43.1942 2.44332 42.6357 2.47656 42.0859L2.59375 40.2109C2.6131 39.8866 2.57884 39.5518 2.47656 39.1953L1.92969 37.3203C1.76536 36.7538 1.57392 36.1721 1.36328 35.6016L1.01172 34.6641L0.679688 33.7266C0.308342 32.7201 0.174511 31.654 0.347656 30.582L0.660156 28.707C0.739041 28.2158 0.776674 27.7216 0.777344 27.2227V25.3281C0.778562 24.3924 0.960077 23.472 1.28516 22.5938L1.61719 21.6758L1.94922 20.7773C2.27732 19.8909 2.75955 19.073 3.375 18.3555L4 17.6133L4.64453 16.8711C4.70349 16.8012 4.73282 16.738 4.74219 16.5977L4.82031 15.6016L4.87891 14.6055L5.09375 13.5117C5.42502 12.4856 6.11694 11.6346 7.125 11.0898L8.00391 10.6211L8.80469 10.1719L8.84375 10.1328L9.13672 9.07812L9.44922 8.02344C9.79217 6.83731 10.4713 5.79056 11.5391 5.05469L12.3398 4.48828L13.1602 3.94141C13.9517 3.39639 14.8235 3.01454 15.7578 2.78906L17.6719 2.32031C18.6232 2.09131 19.5945 2.04036 20.5625 2.18359L21.5391 2.33984L22.5352 2.47656C22.7116 2.50203 22.8078 2.5021 22.8477 2.49609L23.5703 2.18359L24.2734 1.87109C24.5167 1.76396 24.7421 1.66555 24.918 1.59766C24.9907 1.56965 25.1354 1.52302 25.2891 1.48047C25.334 1.46812 25.5656 1.39834 25.8555 1.38281L25.875 1.40234C25.9455 1.37811 26.0214 1.33555 26.1094 1.30469L27.0469 0.992188L27.9844 0.660156C29.0052 0.302002 30.0748 0.202899 31.1484 0.40625L33.0234 0.757812C33.8596 0.917186 34.6919 1.1973 35.4844 1.55859L36.4219 1.98828L37.3594 2.39844C37.664 2.53655 37.9002 2.57985 38.1016 2.57422L39.0391 2.55469L39.9766 2.51562C40.1183 2.51107 40.3406 2.46906 40.6602 2.28125L41.5977 1.73438L42.5352 1.16797C43.3555 0.683733 44.2814 0.408677 45.25 0.425781L46.2461 0.542969L48.1211 0.972656C48.8362 1.13544 49.543 1.35354 50.25 1.59766L51.1875 1.91016L52.0664 2.24219L52.0859 2.22266L53.9609 1.28516L54.918 0.933594C55.8989 0.679296 56.9197 0.75074 57.9062 1.16797L59.7812 1.94922C59.9784 2.03273 60.1073 2.04677 60.2109 2.02734L61.1484 1.83203L62.0859 1.65625C63.0816 1.464 64.0944 1.49965 65.0742 1.75391L66.0117 1.98828L66.9492 2.24219C67.4374 2.36837 67.9184 2.45599 68.3945 2.49609L70.2695 2.65234C70.5664 2.67728 70.8734 2.63478 71.207 2.53516L72.1445 2.26172L73.082 1.96875C73.7095 1.77981 74.3491 1.60872 74.9766 1.42188L75.9141 1.12891L76.8516 0.855469C77.9419 0.531297 79.0628 0.529619 80.1523 0.855469L81.0898 1.14844L82.0273 1.42188C82.4956 1.56225 82.9655 1.65624 83.4141 1.69531L85.2891 1.85156C85.9001 1.90475 86.514 1.96255 87.125 2.00781L88.0625 2.06641L89 2.14453C89.6046 2.1893 90.2119 2.23105 90.8164 2.26172L92.6914 2.33984C92.8576 2.34798 93.0669 2.32109 93.3555 2.18359L95.2305 1.28516C96.1272 0.85686 97.0957 0.698327 98.0625 0.835938L99.0195 1.07031L100.895 1.73438C101.45 1.93096 102.005 2.10137 102.555 2.24219L103.492 2.49609L104.43 2.73047C104.85 2.83799 105.261 2.89131 105.66 2.88672L107.535 2.84766C107.809 2.8443 108.121 2.80059 108.473 2.65234L109.41 2.24219L110.348 1.85156C111.26 1.4675 112.224 1.25317 113.219 1.26562L115.094 1.30469C115.68 1.31204 116.266 1.30363 116.852 1.28516L117.789 1.24609L118.727 1.22656C119.773 1.19339 120.794 1.42262 121.734 1.85156L122.672 2.28125L123.609 2.69141C123.919 2.83197 124.166 2.87322 124.371 2.86719L126.246 2.82812C126.897 2.80904 127.549 2.78648 128.199 2.78906L129.137 2.80859H130.074C130.188 2.80874 130.38 2.76842 130.68 2.59375L132.555 1.5L133.629 1.05078C134.364 0.845324 135.12 0.84888 135.855 1.05078L136.93 1.5L137.867 2.04688L138.316 2.32031L138.883 1.89062L139.82 1.20703C140.707 0.549754 141.783 0.16621 142.926 0.269531L144.078 0.523438L145.016 0.894531L145.953 1.24609C146.129 1.31216 146.246 1.31284 146.363 1.28516L147.301 1.05078L148.238 0.835938C148.952 0.667033 149.668 0.531935 150.387 0.445312L151.324 0.347656L152.262 0.230469C153.367 0.0973771 154.447 0.281036 155.445 0.71875L157.32 1.53906C157.472 1.60514 157.536 1.59225 157.594 1.57812L158.531 1.34375L159.469 1.12891C160.425 0.895138 161.408 0.860183 162.379 1.03125L163.316 1.1875L164.254 1.36328C164.574 1.41867 164.888 1.40546 165.211 1.34375L167.086 0.992188C167.918 0.832007 168.763 0.777673 169.605 0.835938L170.543 0.894531L171.48 0.972656C171.86 0.999147 172.257 0.962779 172.652 0.875L173.59 0.660156L174.527 0.464844L175.504 0.347656C176.473 0.333346 177.399 0.605252 178.219 1.08984L179.156 1.65625L180.094 2.20312C180.472 2.42603 180.78 2.53785 181.031 2.57422L181.969 2.69141L182.906 2.82812C183.156 2.86353 183.42 2.85554 183.707 2.76953L184.645 2.47656L185.582 2.20312C186.593 1.89657 187.647 1.83653 188.688 2.04688L189.625 2.22266L190.562 2.41797C190.613 2.42785 190.699 2.44299 190.875 2.35938L192.75 1.46094C193.999 0.87147 195.365 0.821045 196.656 1.36328L197.594 1.77344L198.434 2.125L199.293 1.69531L200.23 1.24609C201.326 0.718946 202.538 0.546127 203.766 0.835938L204.703 1.05078L205.641 1.28516C206.047 1.38078 206.443 1.41639 206.832 1.40234L208.707 1.32422C209.507 1.29355 210.316 1.34451 211.109 1.48047L212.047 1.65625L212.984 1.8125C213.69 1.93358 214.394 2.08897 215.094 2.28125L216.031 2.53516L216.969 2.80859C217.383 2.92255 217.789 2.96469 218.18 2.96484H220.055C220.04 2.9656 220.054 2.9609 220.094 2.94531C220.145 2.92412 220.245 2.87953 220.387 2.76953L222.262 1.28516L223.297 0.679688C223.685 0.513597 224.117 0.398424 224.586 0.367188C225.059 0.335952 225.502 0.40312 225.914 0.523438L227.047 1.03125L227.984 1.65625L228.551 2.04688L229.117 1.71484L230.055 1.16797L231.109 0.738281C231.479 0.634583 231.87 0.576615 232.281 0.582031C232.692 0.587849 233.088 0.645248 233.453 0.757812L234.488 1.22656L236.363 2.35938C236.632 2.5213 236.772 2.5369 236.832 2.53516L238.707 2.45703C238.923 2.44831 239.206 2.39905 239.547 2.22266L241.422 1.24609C242.427 0.72726 243.536 0.474651 244.703 0.601562L246.578 0.796875C247.26 0.871983 247.948 0.985724 248.629 1.10938L249.566 1.26562L250.504 1.44141C250.742 1.48465 250.983 1.4762 251.246 1.40234L252.184 1.12891L253.121 0.875C254.057 0.608836 255.025 0.521107 255.992 0.640625L257.867 0.875C258.702 0.978558 259.528 1.19666 260.328 1.5L262.203 2.20312C262.673 2.3808 263.129 2.50607 263.57 2.57422L264.508 2.71094L265.445 2.86719C265.774 2.91759 266.105 2.89677 266.441 2.82812L267.379 2.63281L268.316 2.45703C269.222 2.27246 270.137 2.24315 271.051 2.37891L272.926 2.65234C273.019 2.66627 273.153 2.65887 273.375 2.55469L274.312 2.125L275.25 1.67578C276.435 1.1211 277.733 1.04152 279 1.48047L279.938 1.79297L280.875 2.125C280.936 2.14609 280.979 2.14459 280.992 2.14453C281.007 2.14411 281.037 2.14328 281.09 2.125L282.965 1.46094C284.087 1.06051 285.275 1.01391 286.422 1.36328L287.359 1.65625L288.297 1.92969C288.715 2.05689 289.119 2.13442 289.508 2.14453L291.383 2.18359C291.7 2.19122 292.037 2.14835 292.398 2.02734L294.273 1.40234C295.259 1.0734 296.286 0.969501 297.32 1.12891L298.258 1.28516L299.195 1.42188C300.002 1.54631 300.8 1.75187 301.578 2.04688L302.516 2.41797L303.16 2.67188L303.98 2.125L304.918 1.48047L305.914 0.972656C306.28 0.836804 306.683 0.744853 307.105 0.71875C307.528 0.693623 307.934 0.722249 308.316 0.816406L309.391 1.24609L310.328 1.77344L311.148 2.24219L311.93 1.91016L312.867 1.53906L313.824 1.24609C314.778 1.06228 315.752 1.16149 316.676 1.55859L318.551 2.37891C318.606 2.40276 318.637 2.41654 318.648 2.41797C318.653 2.41735 318.686 2.40497 318.707 2.39844L319.645 2.10547L320.582 1.83203C321.744 1.47514 322.93 1.50944 324.059 1.92969L325.934 2.63281C326.085 2.68918 326.18 2.68086 326.285 2.65234L328.16 2.14453C328.902 1.94344 329.654 1.80155 330.406 1.71484L331.344 1.59766L332.281 1.5C333.126 1.40307 333.979 1.41165 334.82 1.53906L335.758 1.67578L336.695 1.83203C337.081 1.88963 337.463 1.88398 337.848 1.83203L338.785 1.71484L339.723 1.57812C340.744 1.43935 341.759 1.54638 342.73 1.87109L344.605 2.49609C344.895 2.59281 345.147 2.62074 345.387 2.59375L346.324 2.47656L347.262 2.37891C347.525 2.34796 347.855 2.23878 348.238 2.02734L349.176 1.51953L350.113 0.992188L351.148 0.582031C351.859 0.386755 352.595 0.361195 353.316 0.542969L354.371 0.953125L355.289 1.46094L356.207 1.94922C356.459 2.08476 356.668 2.12727 356.871 2.125H357.867L358.844 2.10547C359.988 2.08844 361 2.47359 361.793 3.16016L362.516 3.94141L363.141 4.78125L363.766 5.64062C363.995 5.947 364.205 6.09191 364.352 6.16797L365.152 6.57812L365.953 7.00781C366.344 7.21033 366.822 7.4131 367.379 7.59375L368.375 7.90625L369.391 8.23828C370.335 8.54619 371.146 9.10082 371.754 9.87891L372.301 10.7188L372.73 11.6172L373.16 12.4961C373.414 13.0137 373.702 13.5195 374 14L375.016 15.6406C375.419 16.2925 375.778 16.98 376.09 17.6914L376.5 18.6094L376.891 19.5273C377.48 20.8756 377.374 22.2744 376.793 23.5117L376.324 24.5078L375.855 25.5234C375.796 25.6502 375.763 25.7231 375.758 25.7578C375.754 25.7864 375.755 25.806 375.758 25.8164L375.992 26.7539L376.207 27.6719C376.457 28.7183 376.442 29.7861 376.148 30.8164L375.602 32.6914C375.562 32.8315 375.571 32.9461 375.621 33.1016L375.914 34.0391L376.227 34.9766C376.536 35.9303 376.64 36.9258 376.52 37.9258L376.285 39.8008C376.266 39.9633 376.297 40.1511 376.402 40.4062L377.184 42.2812C377.641 43.3767 377.753 44.5631 377.457 45.7383L377.203 46.6758L376.969 47.6133C376.904 47.8682 376.896 48.1103 376.949 48.3555L377.164 49.293L377.359 50.2305C377.542 51.082 377.599 51.9429 377.535 52.8086L377.477 53.7461L377.398 54.6836C377.325 55.673 377.044 56.6315 376.598 57.5156L376.129 58.4531L375.699 59.293L376.051 60.0742L376.461 61.0117C376.81 61.8202 377.057 62.6567 377.184 63.5117L377.457 65.3867C377.583 66.236 377.584 67.0939 377.477 67.9453L377.242 69.8203C377.186 70.2711 377.185 70.7195 377.223 71.168L377.379 73.043C377.438 73.7391 377.46 74.4359 377.457 75.1328V77.0078C377.453 77.776 377.376 78.5508 377.242 79.3125L377.066 80.25L376.91 81.1875C376.83 81.6409 376.798 82.0893 376.812 82.5352L376.852 83.4727L376.871 84.4102C376.908 85.4775 376.678 86.5096 376.227 87.457L375.777 88.3945L375.426 89.0977L375.855 89.8398L376.383 90.7773C376.935 91.7658 377.231 92.8806 377.145 94.0586L377.066 94.9961L377.008 95.9336C376.945 96.7866 376.764 97.6345 376.48 98.4531L376.148 99.3906L375.836 100.328C375.696 100.732 375.615 101.117 375.602 101.48L375.523 103.355C375.506 103.84 375.539 104.333 375.602 104.82L375.836 106.695C375.903 107.216 375.996 107.75 376.129 108.277L376.383 109.215L376.617 110.152C376.862 111.132 376.877 112.13 376.676 113.121L376.48 114.059L376.305 114.996C376.217 115.427 376.171 115.866 376.188 116.285L376.266 118.16C376.287 118.686 376.339 119.213 376.422 119.742L376.578 120.68L376.715 121.617C376.884 122.694 376.764 123.757 376.383 124.762L376.012 125.699L375.66 126.637C375.561 126.897 375.539 127.112 375.562 127.301L375.699 128.238L375.816 129.176C375.916 129.941 375.946 130.713 375.914 131.48L375.836 133.355C375.81 133.997 375.777 134.648 375.738 135.289L375.621 137.164C375.586 137.736 375.582 138.311 375.582 138.883L375.562 139.82V140.758C375.563 141.045 375.619 141.362 375.758 141.715L376.5 143.59C376.928 144.679 377.025 145.835 376.734 146.988L376.266 148.863C376.164 149.265 376.115 149.655 376.129 150.035L376.207 151.91C376.217 152.195 376.283 152.523 376.441 152.887L377.262 154.762C377.781 155.956 377.832 157.25 377.379 158.492L377.047 159.43L376.695 160.367C376.627 160.557 376.625 160.698 376.656 160.836L377.086 162.711C377.384 164.047 377.077 165.33 376.422 166.422L375.875 167.359L375.582 167.809L375.992 168.355L376.656 169.293C377.371 170.28 377.848 171.47 377.75 172.809L377.594 174.684C377.535 175.469 377.412 176.257 377.203 177.027L376.695 178.902C376.543 179.462 376.407 180.026 376.305 180.582L375.953 182.457C375.904 182.724 375.921 182.996 375.992 183.277L376.461 185.152C376.65 185.908 376.773 186.671 376.832 187.438L376.988 189.312C377.045 190.048 377.049 190.784 377.008 191.52L376.891 193.395C376.845 194.198 376.713 194.992 376.5 195.777L375.992 197.652C375.926 197.897 375.923 198.126 375.973 198.355L376.168 199.293L376.383 200.23C376.575 201.125 376.614 202.038 376.5 202.945L376.266 204.82C376.252 204.939 376.256 205.093 376.363 205.328L377.223 207.203C377.908 208.693 377.689 210.232 376.852 211.5L376.227 212.438L375.621 213.375C375.608 213.394 375.59 213.419 375.582 213.434L375.758 214.273L375.973 215.211C376.132 215.924 376.248 216.641 376.324 217.359L376.52 219.234C376.615 220.141 376.569 221.059 376.363 221.949L375.934 223.824V223.844C375.941 223.864 375.95 223.9 375.973 223.941L376.988 225.816C377.634 227.008 377.807 228.361 377.34 229.703L377.008 230.641L376.695 231.578C376.659 231.682 376.663 231.735 376.695 231.832L377.32 233.707C377.654 234.709 377.737 235.764 377.555 236.812L377.398 237.75L377.223 238.688C377.106 239.359 376.972 240.03 376.812 240.699L376.578 241.637L376.363 242.574C376.246 243.065 376.181 243.559 376.148 244.039L376.07 244.977L376.012 245.914C375.976 246.452 375.974 246.997 375.992 247.535L376.012 248.473L376.051 249.41C376.07 249.96 376.119 250.519 376.188 251.07L376.422 252.945C376.473 253.357 376.582 253.787 376.754 254.234L377.105 255.172L377.477 256.109L377.73 257.105C377.884 258.095 377.718 259.083 377.262 259.996L376.324 261.871C376.086 262.348 375.907 262.803 375.797 263.238L375.328 265.113C375.247 265.437 375.229 265.748 375.27 266.051L375.406 266.988L375.523 267.926C375.613 268.589 375.682 269.254 375.738 269.918L375.895 271.793C375.933 272.251 376.032 272.724 376.168 273.199L376.441 274.137L376.695 275.074C376.906 275.811 377.065 276.553 377.164 277.301L377.281 278.238L377.418 279.176C377.552 280.191 377.445 281.197 377.125 282.164L376.5 284.039C376.47 284.13 376.463 284.189 376.5 284.293L376.832 285.23L377.184 286.168C377.587 287.304 377.595 288.492 377.223 289.645L376.93 290.582L376.617 291.52C376.452 292.033 376.331 292.542 376.246 293.043L375.934 294.918C375.866 295.318 375.853 295.715 375.895 296.109L376.09 297.984C376.179 298.823 376.157 299.669 376.031 300.504L375.758 302.379C375.752 302.419 375.749 302.506 375.855 302.711L376.832 304.586C377.348 305.57 377.619 306.663 377.535 307.809L377.457 308.746L377.398 309.684C377.345 310.407 377.246 311.132 377.105 311.852L376.93 312.789L376.734 313.727C376.64 314.208 376.585 314.699 376.578 315.172V316.109L376.559 317.047C376.547 317.778 376.488 318.507 376.383 319.234L376.109 321.109C376.093 321.225 376.106 321.37 376.207 321.598L376.617 322.535L377.047 323.473C377.674 324.872 377.546 326.356 376.812 327.633L376.266 328.57L375.738 329.508C375.583 329.78 375.561 329.942 375.562 330.035L375.582 330.973L375.621 331.91C375.637 332.369 375.707 332.845 375.816 333.316L376.246 335.191C376.375 335.749 376.536 336.309 376.715 336.871L377.301 338.746C377.735 340.112 377.523 341.467 376.852 342.633L375.758 344.508C375.577 344.824 375.547 345.045 375.543 345.191L375.504 346.129L375.484 347.066C375.479 347.279 375.519 347.534 375.66 347.848L376.52 349.723C376.972 350.724 377.163 351.809 377.027 352.926L376.793 354.801C376.726 355.344 376.688 355.9 376.676 356.441L376.637 358.316C376.63 358.617 376.669 358.94 376.793 359.293L377.457 361.168C377.842 362.257 377.895 363.402 377.594 364.527L377.359 365.465L377.105 366.402C377 366.794 376.956 367.168 376.969 367.535L377.008 368.473L377.027 369.41C377.049 370.011 377.086 370.625 377.125 371.227L377.242 373.102C377.312 374.203 377.07 375.258 376.598 376.227L376.148 377.164L375.68 378.102C375.534 378.401 375.498 378.63 375.504 378.805L375.543 379.742L375.562 380.68C375.582 381.305 375.603 381.93 375.621 382.555L375.66 383.492L375.68 384.43C375.691 384.809 375.762 385.208 375.895 385.621L376.48 387.496C376.853 388.661 376.824 389.854 376.402 390.992L375.699 392.867C375.541 393.293 375.458 393.713 375.426 394.098L375.27 395.973C375.229 396.455 375.229 396.936 375.27 397.418L375.426 399.293C375.461 399.713 375.552 400.154 375.699 400.602L376.012 401.539L376.305 402.477C376.583 403.323 376.737 404.19 376.754 405.074L376.793 406.949C376.8 407.342 376.865 407.76 376.988 408.18L377.535 410.055C377.941 411.441 377.665 412.78 376.969 413.922L376.402 414.859L375.855 415.758L376.109 416.559L376.402 417.496C376.776 418.661 376.747 419.854 376.324 420.992L375.621 422.867C375.537 423.093 375.535 423.273 375.562 423.434L375.738 424.371L375.895 425.309C375.999 425.891 376.112 426.482 376.246 427.066L376.48 428.004L376.695 428.941C376.936 429.989 376.898 431.057 376.598 432.086L376.051 433.961C375.982 434.198 375.967 434.412 376.012 434.625L376.402 436.5C376.549 437.201 376.66 437.904 376.734 438.609L376.93 440.484C377.012 441.267 377.036 442.065 376.969 442.848L376.871 443.785L376.793 444.723C376.727 445.482 376.61 446.239 376.422 446.988L375.953 448.863C375.815 449.412 375.706 449.959 375.621 450.504L375.465 451.441L375.328 452.379C375.258 452.828 375.224 453.283 375.25 453.727L375.367 455.602C375.383 455.864 375.465 456.177 375.641 456.539L376.539 458.414C377.189 459.753 377.172 461.203 376.5 462.516L375.523 464.391C375.401 464.629 375.398 464.773 375.406 464.859L375.602 466.734C375.642 467.121 375.745 467.535 375.914 467.965L376.656 469.84C377.01 470.74 377.192 471.685 377.184 472.652V473.59L377.164 474.527C377.157 475.361 377.041 476.194 376.832 477.008L376.363 478.883C376.221 479.437 376.103 479.993 376.012 480.543L375.699 482.418C375.65 482.715 375.65 483.009 375.719 483.316L376.148 485.191C376.372 486.173 376.384 487.177 376.168 488.16L375.953 489.098L375.758 490.035C375.636 490.587 375.531 491.143 375.465 491.676L375.23 493.512C375.153 494.132 375.076 494.738 374.996 495.328L374.879 496.207L374.762 497.066C374.685 497.632 374.618 498.217 374.547 498.805L374.43 499.723L374.332 500.621C374.26 501.217 374.172 501.853 374.098 502.516L374 503.512L373.883 504.508C373.762 505.587 373.389 506.608 372.75 507.496L372.184 508.277L371.598 509.078C370.792 510.194 369.639 510.821 368.375 511.051L367.281 511.246L366.52 511.383L366.207 512.223L365.797 513.316C365.526 514.038 365.03 514.828 364.156 515.348C363.265 515.875 362.306 515.933 361.52 515.797L360.406 515.602L359.469 515.426L358.824 516.07L358.043 516.832C357.188 517.668 356.127 518.238 354.898 518.414L352.945 518.688C352.209 518.793 351.48 518.862 350.758 518.883L349.82 518.902L348.883 518.941C347.731 518.975 346.642 518.653 345.68 518.102L344.742 517.555L343.805 517.027V517.008L342.984 517.281L342.047 517.574C341.157 517.851 340.242 517.971 339.312 517.926L337.438 517.848C337.022 517.827 336.595 517.841 336.168 517.926L334.293 518.316C332.995 518.574 331.755 518.292 330.68 517.672L328.805 516.578C328.777 516.562 328.759 516.545 328.746 516.539L327.887 516.793L326.949 517.047C325.918 517.324 324.862 517.344 323.824 517.086L321.949 516.617H321.91C321.893 516.621 321.855 516.627 321.793 516.656L320.855 517.125L319.918 517.574C318.727 518.16 317.401 518.28 316.109 517.828L314.234 517.164C314.088 517.112 313.98 517.111 313.863 517.145L311.988 517.691C310.867 518.011 309.726 517.967 308.629 517.594L307.691 517.281L306.832 516.988L305.914 517.477L304.977 517.965C303.661 518.66 302.192 518.703 300.836 518.043L298.961 517.145C298.71 517.023 298.549 516.997 298.434 517.008L296.559 517.203C295.712 517.288 294.86 517.266 294.02 517.125L292.145 516.812C291.941 516.778 291.731 516.789 291.48 516.871L289.605 517.496C288.59 517.835 287.521 517.915 286.461 517.711L285.523 517.516L284.586 517.34C284.471 517.318 284.336 517.318 284.137 517.398L282.262 518.18C281.204 518.615 280.065 518.729 278.922 518.492L277.984 518.297L277.047 518.121C276.625 518.034 276.206 517.984 275.797 518.004L274.859 518.062L273.922 518.102C273.33 518.131 272.737 518.168 272.145 518.219L271.207 518.297L270.27 518.395C269.207 518.485 268.171 518.295 267.203 517.887L266.266 517.496L265.465 517.145L264.625 517.574L263.688 518.043C262.382 518.705 260.94 518.736 259.605 518.102L258.668 517.652L257.73 517.223C257.593 517.157 257.544 517.157 257.516 517.164L256.578 517.379L255.641 517.613C254.877 517.794 254.091 517.901 253.316 517.945L251.441 518.062C250.298 518.127 249.212 517.825 248.238 517.301L247.301 516.812L246.637 516.441L245.973 516.832L245.035 517.359C243.751 518.082 242.281 518.187 240.895 517.555L239.02 516.695C238.993 516.683 238.968 516.678 238.961 516.676L238.043 516.988L237.105 517.301C236.294 517.577 235.468 517.764 234.625 517.828L233.688 517.906L232.75 517.965C231.73 518.042 230.728 517.881 229.781 517.516L228.844 517.164L227.906 516.793C227.694 516.711 227.54 516.707 227.398 516.734L226.461 516.91L225.523 517.105L221.773 517.809C220.549 518.042 219.362 517.822 218.297 517.281L217.359 516.812L216.715 516.48L216.051 516.91L215.113 517.496C213.88 518.253 212.425 518.449 210.992 517.867L209.117 517.125C208.803 516.997 208.53 516.957 208.297 516.969L206.422 517.047C205.764 517.08 205.107 517.102 204.449 517.105H203.512L202.574 517.125C202.352 517.126 202.08 517.168 201.754 517.32L199.879 518.219C198.94 518.661 197.923 518.891 196.871 518.863L195.934 518.844L194.996 518.805C194.289 518.785 193.572 518.738 192.867 518.648L190.992 518.414C190.523 518.354 190.052 518.326 189.586 518.355L187.711 518.473C187.121 518.51 186.524 518.567 185.934 518.629L184.059 518.824C183.359 518.897 182.65 518.934 181.949 518.941L181.012 518.961H180.074C179.378 518.968 178.68 518.957 177.984 518.902L176.109 518.746C175.11 518.668 174.163 518.369 173.277 517.906L171.402 516.93L171.363 516.91L170.465 517.184L169.527 517.477C168.626 517.749 167.693 517.854 166.754 517.789L165.816 517.73L164.879 517.652C164.015 517.592 163.165 517.419 162.34 517.125L161.402 516.793L160.66 516.52L159.82 517.066L158.883 517.652C157.797 518.332 156.512 518.65 155.152 518.355L154.215 518.16L153.277 517.945C152.898 517.863 152.529 517.853 152.164 517.887L151.227 517.965L150.289 518.062C149.149 518.168 148.059 517.915 147.066 517.418L145.387 516.578L144.645 516.969L143.707 517.457C142.767 517.946 141.743 518.23 140.66 518.219L139.723 518.199H138.785C137.981 518.19 137.174 518.086 136.383 517.906L134.508 517.477C134.39 517.45 134.26 517.446 134.078 517.516L133.141 517.887L132.203 518.238C131.041 518.686 129.816 518.72 128.629 518.316L127.691 518.004L126.754 517.672C126.497 517.584 126.276 517.583 126.07 517.613L125.133 517.75L124.195 517.906C123.413 518.027 122.619 518.075 121.832 518.043L119.957 517.965C119.564 517.949 119.157 517.986 118.746 518.082L116.871 518.512C115.68 518.791 114.502 518.645 113.414 518.16L111.539 517.34C111.087 517.139 110.658 517.002 110.25 516.93L109.312 516.773L108.414 516.598C108.39 516.608 108.355 516.639 108.297 516.676L106.422 517.887C105.471 518.504 104.374 518.905 103.18 518.902H101.305C100.319 518.899 99.3569 518.682 98.4531 518.297L97.5156 517.887L96.5781 517.496L95.6797 517.867L94.7422 518.238C93.805 518.614 92.8089 518.801 91.793 518.746L89.918 518.629C89.158 518.587 88.4036 518.481 87.6523 518.316L86.7148 518.121L85.7773 517.906C85.4596 517.837 85.1478 517.838 84.8398 517.887L82.9648 518.199C81.9605 518.363 80.949 518.29 79.9766 518.004L79.0391 517.73L78.1016 517.438C77.8279 517.357 77.5818 517.36 77.3398 517.398L76.4023 517.535L75.4648 517.691C74.3541 517.871 73.2445 517.72 72.2227 517.301L71.2852 516.93L70.4258 516.578L69.5859 516.988L68.6484 517.457C67.279 518.116 65.7982 518.05 64.4883 517.34L63.5508 516.832L62.8867 516.461L62.2227 516.852L61.2852 517.379C60.3022 517.933 59.1983 518.236 58.0234 518.16L56.1484 518.043C55.3986 517.993 54.6443 517.873 53.9023 517.711L52.9648 517.516L52.0273 517.301C51.7521 517.24 51.4813 517.242 51.207 517.301L50.2695 517.496L49.332 517.711C48.2516 517.943 47.1664 517.867 46.1289 517.516L45.1914 517.203L44.332 516.891L43.4141 517.398L42.4766 517.887C41.3717 518.469 40.1195 518.682 38.8438 518.375L37.9062 518.141L36.9688 517.926C36.3655 517.781 35.7553 517.644 35.1523 517.516L34.2148 517.32L33.2773 517.105C32.8859 517.023 32.503 516.998 32.125 517.027L30.25 517.184C29.4068 517.249 28.5633 517.202 27.7305 517.047L26.793 516.871L25.875 516.695C25.8027 516.682 25.6452 516.675 25.3672 516.793L24.3711 517.203L23.375 517.633C22.0096 518.21 20.5099 518.149 19.1953 517.281L18.3555 516.715L17.5156 516.168C17.1581 515.931 16.7854 515.765 16.4219 515.66L15.5039 515.387L14.5664 515.113C13.5459 514.817 12.6425 514.283 11.8906 513.531L10.5234 512.164C9.99638 511.637 9.50397 511.087 9.05859 510.504L8.49219 509.742L7.92578 509C7.58947 508.559 7.22362 508.143 6.85156 507.73L6.22656 507.027L5.60156 506.344C4.98015 505.656 4.49375 504.864 4.15625 504L3.80469 503.121L3.47266 502.262C3.25755 501.711 3.02991 501.154 2.78906 500.602L2.39844 499.723L2.02734 498.863C1.69026 498.091 1.44341 497.275 1.30469 496.441L1.14844 495.484L0.992188 494.547C0.790588 493.335 1.01967 492.163 1.55859 491.109L2.04688 490.172L2.39844 489.488L1.98828 488.805L1.44141 487.867C0.780453 486.724 0.542543 485.393 0.933594 484.039L1.48047 482.164C1.62083 481.677 1.70331 481.192 1.75391 480.719L1.87109 479.781L1.96875 478.844C2.03035 478.267 2.07658 477.682 2.10547 477.105L2.14453 476.168L2.20312 475.23C2.23308 474.632 2.24638 474.032 2.26172 473.434L2.30078 471.559C2.31983 470.812 2.40831 470.054 2.53516 469.312L2.84766 467.438ZM372.672 156.773V156.754L371.852 154.879C371.465 153.993 371.242 153.051 371.207 152.086L371.129 150.211C371.098 149.345 371.209 148.477 371.422 147.633L371.891 145.758C371.912 145.666 371.91 145.577 371.852 145.426L371.109 143.551C370.758 142.658 370.563 141.717 370.562 140.758V139.82L370.582 138.883C370.582 138.208 370.6 137.526 370.641 136.852L370.758 134.977C370.795 134.371 370.811 133.765 370.836 133.16L370.914 131.285C370.934 130.803 370.919 130.305 370.855 129.82L370.738 128.883L370.602 127.945C370.465 126.888 370.617 125.844 370.992 124.859L371.695 122.984C371.786 122.746 371.799 122.566 371.773 122.398L371.637 121.461L371.48 120.523C371.368 119.805 371.295 119.077 371.266 118.355L371.188 116.48C371.154 115.65 371.235 114.819 371.402 114L371.598 113.062L371.773 112.125C371.825 111.872 371.821 111.628 371.754 111.363L371.285 109.488C371.104 108.769 370.968 108.046 370.875 107.32L370.641 105.445C370.544 104.685 370.514 103.923 370.543 103.16L370.562 102.223L370.602 101.285C370.635 100.399 370.817 99.5325 371.109 98.6875L371.422 97.75L371.754 96.8125C371.903 96.3811 371.979 95.9595 372.008 95.5625L372.086 94.625L372.145 93.6875C372.149 93.6151 372.149 93.4714 372.008 93.2188L371.48 92.2812L370.973 91.3438C370.245 90.0405 370.158 88.5679 370.816 87.1836L371.715 85.3086C371.859 85.0062 371.877 84.7684 371.871 84.5859L371.852 83.6484L371.812 82.7109C371.785 81.9132 371.85 81.1183 371.988 80.3281L372.145 79.3906L372.32 78.4531C372.406 77.9649 372.454 77.47 372.457 76.9883V75.1133C372.46 74.5669 372.444 74.0198 372.398 73.4727L372.242 71.5977C372.175 70.7992 372.181 69.9915 372.281 69.1953L372.516 67.3203C372.565 66.9249 372.574 66.5263 372.516 66.1289L372.359 65.1914L372.223 64.2539C372.164 63.8592 372.061 63.4256 371.871 62.9844L371.051 61.1094C370.482 59.7845 370.55 58.3866 371.188 57.125L371.656 56.1875L372.145 55.25C372.328 54.8863 372.399 54.572 372.418 54.3125L372.496 53.375L372.555 52.4375C372.582 52.0593 372.56 51.6773 372.477 51.2852L372.281 50.3477L372.066 49.4102C371.85 48.4053 371.873 47.3779 372.125 46.3828L372.594 44.5078C372.611 44.4367 372.617 44.3641 372.555 44.2148L371.773 42.3398C371.36 41.3485 371.193 40.2803 371.324 39.1953L371.559 37.3203C371.587 37.074 371.556 36.8112 371.461 36.5195L371.168 35.582L370.855 34.6445C370.504 33.5563 370.483 32.4284 370.797 31.3242L371.07 30.3867L371.324 29.4492C371.387 29.2309 371.39 29.0391 371.344 28.8438L371.129 27.9062L370.895 26.9688C370.597 25.7136 370.81 24.4901 371.324 23.3945L371.793 22.3789L372.262 21.3828L371.91 20.6211L371.52 19.7031C371.3 19.2007 371.035 18.7253 370.758 18.2773L370.25 17.457L369.742 16.6172C369.359 15.9977 368.992 15.3632 368.668 14.7031L368.238 13.8242L367.828 12.9648L366.832 12.6719L365.836 12.3398C365.055 12.0865 364.304 11.7927 363.629 11.4414L362.828 11.0117L362.027 10.6016C361.11 10.1227 360.368 9.42372 359.762 8.60938L359.117 7.76953L358.609 7.10547L357.945 7.125H356.949C355.841 7.14128 354.789 6.86519 353.824 6.34375L352.906 5.85547L352.262 5.50391L351.598 5.89453L350.641 6.42188C349.772 6.89922 348.831 7.22403 347.848 7.33984L346.91 7.4375L345.973 7.55469C344.969 7.67186 343.977 7.56048 343.023 7.24219L341.148 6.61719C340.873 6.52499 340.633 6.50925 340.406 6.53906L339.469 6.65625L338.531 6.79297C337.67 6.91 336.794 6.9037 335.934 6.77344L334.996 6.63672L334.059 6.48047C333.653 6.41949 333.25 6.41454 332.848 6.46094L331.91 6.57812L330.973 6.67578C330.477 6.73301 329.976 6.83135 329.469 6.96875L327.594 7.47656C326.451 7.78657 325.292 7.72742 324.195 7.32031L322.32 6.61719C322.201 6.57257 322.134 6.57106 322.047 6.59766L320.172 7.18359C318.957 7.55674 317.722 7.46087 316.578 6.96875L315.641 6.55859L314.703 6.16797L313.824 6.53906L312.887 6.92969C311.515 7.4917 310.088 7.34541 308.844 6.65625L307.906 6.14844L307.359 5.83594L306.773 6.26562L305.836 6.89062C304.639 7.70129 303.169 8.00324 301.676 7.4375L299.801 6.73438C299.33 6.55613 298.876 6.4316 298.434 6.36328L297.496 6.22656L296.559 6.07031C296.344 6.03724 296.119 6.06023 295.855 6.14844L293.98 6.77344C293.094 7.06971 292.178 7.2078 291.246 7.18359L289.371 7.14453C288.512 7.12207 287.662 6.96771 286.832 6.71484L285.895 6.44141L284.957 6.14844C284.855 6.11783 284.772 6.12263 284.645 6.16797L282.77 6.83203C281.612 7.24352 280.397 7.25561 279.234 6.85156L278.297 6.51953L277.379 6.1875V6.20703L276.441 6.65625L275.504 7.08594C274.479 7.56654 273.357 7.76408 272.203 7.59375L270.328 7.32031C269.995 7.27065 269.654 7.27049 269.312 7.33984L267.438 7.73047C266.526 7.91638 265.603 7.94995 264.684 7.80859L263.746 7.65234L262.809 7.51562C262.002 7.39109 261.205 7.16646 260.426 6.87109L258.551 6.16797C258.103 5.99829 257.675 5.8878 257.262 5.83594L255.387 5.60156C255.105 5.56658 254.802 5.59057 254.488 5.67969L253.551 5.95312L252.613 6.20703C251.631 6.48545 250.613 6.54661 249.605 6.36328L248.668 6.1875L247.73 6.03125C247.165 5.92861 246.595 5.83939 246.031 5.77734L245.094 5.67969L244.156 5.5625C244.077 5.55495 243.94 5.55902 243.707 5.67969L241.832 6.65625C240.927 7.12406 239.951 7.41418 238.922 7.45703L237.047 7.53516C235.854 7.58325 234.738 7.22541 233.766 6.63672L232.828 6.07031L232.203 5.69922L231.617 6.05078L230.68 6.59766C230.028 6.9719 229.258 7.21332 228.414 7.18359C227.57 7.1526 226.825 6.84334 226.207 6.44141L225.27 5.83594L224.879 5.58203L223.473 6.69531C222.532 7.4317 221.388 7.96116 220.074 7.96484H218.199C217.341 7.96561 216.474 7.8425 215.641 7.61328L213.766 7.10547C213.222 6.95627 212.683 6.82695 212.145 6.73438L210.27 6.42188C209.813 6.34357 209.351 6.30701 208.902 6.32422L207.027 6.40234C206.173 6.43453 205.325 6.3459 204.488 6.14844L203.551 5.93359L202.613 5.69922C202.584 5.69237 202.567 5.69767 202.555 5.69922C202.538 5.7013 202.488 5.71447 202.398 5.75781L200.523 6.65625C199.271 7.26041 197.9 7.31967 196.598 6.77344L195.66 6.38281L194.82 6.01172L193.941 6.42188L193.004 6.87109C191.936 7.37721 190.765 7.56266 189.566 7.32031L188.629 7.125L187.691 6.94922C187.484 6.90722 187.284 6.91737 187.047 6.98828L186.109 7.26172L185.172 7.55469C184.211 7.84608 183.201 7.93028 182.203 7.78906L180.328 7.51562C179.335 7.37379 178.399 7.01067 177.535 6.5L175.66 5.40625C175.589 5.36414 175.552 5.35024 175.543 5.34766L174.664 5.54297L173.727 5.75781C172.873 5.94701 171.998 6.01373 171.129 5.95312L170.191 5.89453L169.254 5.81641C168.855 5.78941 168.452 5.81649 168.043 5.89453L167.105 6.07031L166.168 6.26562C165.245 6.44325 164.301 6.44829 163.375 6.28516L162.438 6.10938L161.5 5.95312C161.224 5.90485 160.95 5.90251 160.66 5.97266L158.785 6.44141C157.593 6.73262 156.404 6.58938 155.309 6.10938L153.434 5.28906C153.187 5.18145 153.01 5.17509 152.867 5.19141L150.992 5.42578C150.463 5.48947 149.925 5.57273 149.391 5.69922L148.453 5.91406L147.516 6.14844C146.384 6.41651 145.248 6.32123 144.176 5.91406L143.238 5.5625L142.633 5.32812L141.871 5.91406L140.934 6.59766C140.337 7.0402 139.584 7.40425 138.707 7.47656C137.814 7.54946 136.989 7.30589 136.305 6.91016L135.367 6.36328L134.742 6.01172L134.137 6.38281L133.199 6.92969C132.252 7.48142 131.19 7.81268 130.055 7.80859H129.117L128.18 7.78906C127.583 7.78669 126.98 7.79101 126.383 7.80859L125.445 7.84766L124.508 7.86719C123.465 7.89741 122.457 7.66999 121.52 7.24219L120.582 6.8125L119.645 6.40234C119.335 6.26125 119.086 6.22011 118.883 6.22656L117.945 6.24609L117.008 6.28516C116.35 6.30587 115.693 6.31288 115.035 6.30469L113.16 6.26562C112.908 6.26246 112.616 6.31957 112.281 6.46094L111.344 6.85156L110.406 7.26172C109.511 7.63878 108.567 7.83611 107.594 7.84766L105.719 7.88672C104.871 7.89648 104.027 7.78551 103.199 7.57422L102.262 7.33984L101.324 7.08594C100.628 6.90756 99.9252 6.70525 99.2344 6.46094L98.2969 6.12891L97.3789 5.79688L96.4609 6.24609L95.5234 6.69531C94.5647 7.15323 93.52 7.39448 92.4375 7.33984L91.5 7.30078L90.5625 7.24219C89.9185 7.20951 89.2728 7.17269 88.6289 7.125L87.6914 7.04688L86.7539 6.98828C86.1181 6.94119 85.4756 6.88741 84.8398 6.83203L82.9648 6.67578C82.167 6.60592 81.3799 6.43998 80.6016 6.20703L79.6641 5.93359L78.7266 5.64062C78.5692 5.59344 78.4335 5.59463 78.2773 5.64062L77.3398 5.93359L76.4023 6.20703C75.7798 6.39242 75.1499 6.58597 74.5273 6.77344L73.5898 7.04688L72.6523 7.33984C71.7432 7.61255 70.8055 7.71149 69.8594 7.63281L67.9844 7.47656C67.2139 7.41184 66.4379 7.2827 65.6797 7.08594L64.7422 6.83203L63.8047 6.59766C63.5386 6.5291 63.2935 6.51131 63.043 6.55859L62.1055 6.75391L61.168 6.92969C60.0225 7.15084 58.8784 7.00354 57.8281 6.55859L56.8906 6.16797L56.0703 5.79688L55.2305 6.22656L54.293 6.69531C53.1081 7.28154 51.7954 7.41218 50.5039 6.96875L49.5664 6.63672L48.6289 6.32422C48.0871 6.13713 47.5414 5.97688 47.0078 5.85547L46.0703 5.64062L45.1523 5.42578C45.1338 5.43415 45.1063 5.46542 45.0742 5.48438L44.1367 6.03125L43.1992 6.59766C42.2767 7.14014 41.2519 7.47851 40.1523 7.51562L39.2148 7.55469L38.2773 7.57422C37.2309 7.60782 36.2098 7.3779 35.2695 6.94922L34.332 6.51953L33.3945 6.10938C32.9376 5.9012 32.4993 5.75847 32.0859 5.67969L30.2109 5.32812C30.0404 5.29664 29.8661 5.29033 29.6445 5.36719L27.7695 6.03125C27.4508 6.14306 27.1722 6.24186 26.9688 6.30469C26.8784 6.33254 26.7343 6.37166 26.5977 6.40234C26.5507 6.41285 26.425 6.42545 26.2656 6.44141L25.582 6.75391L24.8594 7.06641C23.8491 7.51071 22.7875 7.58464 21.793 7.4375L20.8164 7.28125L19.8203 7.14453C19.4815 7.09509 19.1634 7.10678 18.8438 7.18359L17.8867 7.41797L16.9297 7.63281C16.5891 7.715 16.2788 7.86511 15.9922 8.0625L15.1914 8.60938L14.3711 9.17578C14.3538 9.18835 14.3429 9.19906 14.332 9.21484C14.3177 9.23571 14.288 9.29311 14.2539 9.41016L13.9414 10.4648L13.6484 11.5195C13.2812 12.7928 12.4817 13.8792 11.2461 14.5469L10.3867 15.0156L9.82031 15.2891L9.80078 15.9336L9.74219 16.9297C9.66278 18.1191 9.21863 19.2175 8.43359 20.1328L7.80859 20.875L7.16406 21.6172C6.93586 21.884 6.75777 22.1714 6.63672 22.4961L5.97266 24.332C5.84822 24.6686 5.77778 24.996 5.77734 25.3281V27.2227C5.77635 27.987 5.72304 28.7538 5.60156 29.5078L5.28906 31.3828C5.2604 31.5603 5.27746 31.7648 5.36719 32.0078L5.71875 32.9453L6.05078 33.8828C6.30042 34.5594 6.53691 35.2335 6.73438 35.9141L7.28125 37.7891C7.53912 38.6781 7.64949 39.6015 7.59375 40.5234L7.47656 42.3984C7.43414 43.096 7.3473 43.7928 7.24219 44.4883L6.96875 46.3633C6.90344 46.7955 6.89303 47.2246 6.92969 47.6523L7.08594 49.5273C7.15391 50.3219 7.14373 51.1176 7.04688 51.9102L6.8125 53.7852C6.73702 54.3984 6.66425 55.0275 6.59766 55.6406L6.5 56.5781L6.38281 57.5156C6.33595 57.9521 6.35201 58.3873 6.40234 58.8242L6.5 59.7617L6.61719 60.6992C6.71095 61.5103 6.70653 62.3292 6.61719 63.1406L6.42188 65.0156C6.39522 65.2602 6.4194 65.5199 6.51953 65.8164L7.14453 67.6914C7.41173 68.4831 7.58736 69.2952 7.67188 70.1133L7.86719 71.9883C7.96621 72.9544 7.87578 73.9124 7.59375 74.8398L7.00781 76.7148C6.88106 77.1305 6.82072 77.5402 6.8125 77.9258L6.77344 79.8008C6.76294 80.311 6.79381 80.8315 6.85156 81.3438L6.94922 82.2812L7.06641 83.2188C7.19088 84.341 6.96546 85.4245 6.5 86.4219L5.64062 88.2969C5.49476 88.6094 5.44158 88.8553 5.44531 89.0586L5.48438 90.9336C5.49168 91.2831 5.56322 91.654 5.69922 92.0469L6.01172 92.9844L6.34375 93.9219C6.62405 94.7318 6.80016 95.5601 6.87109 96.4023L7.02734 98.2773C7.0873 98.9921 7.10433 99.7102 7.08594 100.426L7.04688 102.301C7.02666 103.083 6.9383 103.872 6.77344 104.645L6.55859 105.582L6.36328 106.52C6.29982 106.822 6.30842 107.121 6.36328 107.418L6.51953 108.355L6.69531 109.293C6.87954 110.297 6.83111 111.301 6.55859 112.281L6.30469 113.219L6.05078 114.117C6.05556 114.13 6.05229 114.161 6.07031 114.195L6.57812 115.133L7.06641 116.07C7.74167 117.34 7.8352 118.76 7.24219 120.113L6.42188 121.988C6.35608 122.138 6.3695 122.209 6.38281 122.262L6.85156 124.137C7.13205 125.262 7.04989 126.4 6.65625 127.477L6.32422 128.414L5.97266 129.352C5.79769 129.831 5.6734 130.302 5.60156 130.758L5.46484 131.695L5.30859 132.633C5.24591 133.033 5.24328 133.428 5.28906 133.824L5.38672 134.762L5.50391 135.699C5.5828 136.38 5.6277 137.068 5.66016 137.75L5.71875 138.688L5.75781 139.625C5.79289 140.367 5.76884 141.111 5.69922 141.852L5.62109 142.789L5.52344 143.727C5.5102 143.874 5.53979 144.069 5.66016 144.332L6.51953 146.207C6.89695 147.034 7.14579 147.896 7.26172 148.785L7.39844 149.723L7.51562 150.66C7.68036 151.934 7.33826 153.128 6.71484 154.156L6.14844 155.094L5.58203 155.992L5.83594 156.812L6.12891 157.75C6.43774 158.761 6.49442 159.814 6.28516 160.855L6.10938 161.793L5.91406 162.73C5.81894 163.204 5.76219 163.673 5.75781 164.137V165.074L5.73828 166.012C5.73465 166.401 5.80266 166.81 5.91406 167.223L6.14844 168.16L7.41797 172.848C7.79631 174.276 7.45408 175.638 6.71484 176.754L6.08984 177.691L5.67969 178.297L5.99219 178.844L6.5 179.781C7.15205 180.957 7.35386 182.3 6.91016 183.648L6.28516 185.523C6.19936 185.786 6.19325 186.01 6.22656 186.227L6.36328 187.164L6.51953 188.102C6.61754 188.731 6.71823 189.366 6.8125 189.996L7.08594 191.871C7.20807 192.688 7.2378 193.511 7.16406 194.332L7.06641 195.27L6.98828 196.207C6.92775 196.875 6.85143 197.551 6.75391 198.219L6.48047 200.094C6.39028 200.71 6.29161 201.333 6.20703 201.949L6.08984 202.887L5.95312 203.824C5.9279 204.008 5.95256 204.211 6.05078 204.469L6.75391 206.344C7.05499 207.132 7.28143 207.946 7.39844 208.766L7.51562 209.703L7.65234 210.641C7.79953 211.676 7.6985 212.707 7.35938 213.688L7.02734 214.625L6.71484 215.562C6.70075 215.604 6.69624 215.627 6.69531 215.641C6.69541 215.65 6.6919 215.695 6.71484 215.758L7.04688 216.695L7.39844 217.633C7.78002 218.675 7.88243 219.774 7.65234 220.875L7.45703 221.812L7.24219 222.75C7.05803 223.628 6.75426 224.479 6.32422 225.289L5.81641 226.227L5.32812 227.164C5.30387 227.21 5.27621 227.242 5.26953 227.262V227.281L5.50391 228.219L5.71875 229.156C5.85514 229.727 6.01275 230.301 6.1875 230.875L6.48047 231.812L6.75391 232.75C7.0915 233.857 7.09902 235.006 6.75391 236.109L6.16797 237.984C6.05979 238.329 6.01161 238.657 6.03125 238.961L6.14844 240.836C6.19677 241.589 6.19847 242.349 6.12891 243.102L6.03125 244.039L5.95312 244.977C5.93133 245.223 5.96444 245.494 6.07031 245.797L6.38281 246.734L6.71484 247.672C7.05725 248.653 7.1745 249.681 7.02734 250.719L6.89062 251.656L6.77344 252.594C6.68383 253.226 6.57844 253.856 6.48047 254.488L6.34375 255.426L6.1875 256.363C6.1138 256.839 6.09535 257.319 6.10938 257.789L6.14844 259.664C6.16409 260.188 6.22519 260.719 6.30469 261.246L6.57812 263.121C6.66403 263.69 6.76591 264.269 6.89062 264.84L7.10547 265.777L7.30078 266.715C7.50731 267.665 7.52178 268.63 7.33984 269.586L6.98828 271.461C6.9446 271.694 6.95431 271.926 7.02734 272.184L7.30078 273.121L7.55469 274.059C7.88213 275.213 7.83514 276.386 7.41797 277.496L7.04688 278.434L6.69531 279.371V279.41C6.69717 279.418 6.70699 279.429 6.71484 279.449L7.06641 280.387L7.4375 281.324C7.79481 282.236 7.97175 283.194 7.94531 284.176L7.90625 286.051C7.87727 287.08 7.59999 288.069 7.14453 288.98L6.67578 289.918L6.28516 290.68L6.65625 291.461L7.10547 292.398C7.57469 293.373 7.81047 294.438 7.73047 295.543L7.65234 296.48L7.59375 297.418C7.52652 298.34 7.29563 299.237 6.92969 300.094L6.53906 301.031L6.12891 301.969C6.04054 302.176 6.03132 302.309 6.05078 302.418L6.40234 304.293C6.54274 305.068 6.60263 305.854 6.59766 306.637V308.512C6.59309 309.202 6.56132 309.893 6.5 310.582L6.40234 311.52L6.32422 312.457C6.30495 312.673 6.32812 312.927 6.44141 313.219L6.8125 314.156L7.16406 315.094C7.62189 316.276 7.65717 317.529 7.22266 318.727L6.87109 319.664L6.53906 320.602C6.49508 320.726 6.49125 320.798 6.51953 320.895L6.79297 321.832L7.08594 322.77C7.34303 323.629 7.47448 324.514 7.45703 325.406L7.41797 327.281C7.40288 328.009 7.32816 328.744 7.22266 329.469L6.94922 331.344C6.8984 331.692 6.90309 332.045 6.96875 332.398L7.32031 334.273C7.45582 334.996 7.54688 335.734 7.59375 336.461L7.65234 337.398L7.73047 338.336C7.79763 339.4 7.57217 340.425 7.14453 341.383L6.73438 342.32L6.30469 343.258C6.06971 343.784 5.89036 344.309 5.73828 344.82L5.44531 345.758L5.17188 346.695C5.09511 346.954 5.09109 347.189 5.13281 347.418L5.30859 348.355L5.46484 349.293C5.52007 349.595 5.65828 349.941 5.89453 350.348L6.98828 352.223C7.53177 353.155 7.86443 354.198 7.88672 355.309L7.92578 357.184C7.94698 358.334 7.60376 359.41 7.04688 360.367L6.51953 361.305L5.97266 362.242C5.94764 362.285 5.9222 362.319 5.91406 362.34L6.10938 363.258L6.32422 364.195C6.46367 364.82 6.59643 365.446 6.73438 366.07L7.16406 367.945C7.33772 368.732 7.42661 369.53 7.4375 370.328L7.45703 371.266V372.203C7.4712 373.259 7.22675 374.275 6.77344 375.211L6.32422 376.148L5.85547 377.086C5.76337 377.279 5.76727 377.381 5.77734 377.438L5.95312 378.375L6.10938 379.312C6.23664 380.033 6.32541 380.755 6.36328 381.48L6.42188 382.418L6.46094 383.355C6.48003 383.723 6.5682 384.118 6.71484 384.527L7.37891 386.402C7.74022 387.414 7.84021 388.477 7.65234 389.547L7.49609 390.484L7.32031 391.422C7.21529 392.02 7.13355 392.621 7.04688 393.219L6.77344 395.094C6.74427 395.295 6.75835 395.516 6.85156 395.777L7.51562 397.652C8.02977 399.097 7.76711 400.527 7.00781 401.715L6.40234 402.652L5.83594 403.512L6.08984 404.273L6.38281 405.211C6.71225 406.228 6.78739 407.299 6.57812 408.355L6.38281 409.293L6.20703 410.23C6.20189 410.254 6.1813 410.319 6.26562 410.484L6.75391 411.422L7.22266 412.359C7.73774 413.373 7.98723 414.49 7.84766 415.66L7.61328 417.535C7.52247 418.296 7.3775 419.053 7.16406 419.801L6.89062 420.738L6.63672 421.676C6.46963 422.262 6.30367 422.849 6.16797 423.434L5.73828 425.309C5.67357 425.589 5.66577 425.856 5.71875 426.129L5.91406 427.066L6.08984 428.004C6.2149 428.641 6.3457 429.281 6.46094 429.918L6.61719 430.855L6.79297 431.793C6.99663 432.919 6.8495 434.037 6.42188 435.074L6.03125 436.012L5.66016 436.949C5.49054 437.362 5.3817 437.742 5.34766 438.102L5.26953 439.039L5.17188 439.898C5.17515 439.908 5.2085 439.979 5.30859 440.113L6.01172 441.051L6.69531 441.988C7.16478 442.616 7.53924 443.434 7.55469 444.391C7.56906 445.346 7.23233 446.168 6.77344 446.812L6.08984 447.75L5.75781 448.18L6.07031 448.629L6.71484 449.566C7.14287 450.185 7.46319 450.951 7.49609 451.832C7.52829 452.722 7.2592 453.517 6.85156 454.176L6.28516 455.113L5.69922 456.051C5.52168 456.338 5.50371 456.505 5.50391 456.578L5.52344 457.516V458.453C5.53093 459.049 5.55369 459.654 5.58203 460.25L5.62109 461.188L5.67969 462.125C5.68756 462.273 5.71906 462.504 5.91406 462.828L7.04688 464.703C7.68154 465.758 7.99025 466.977 7.76953 468.277L7.45703 470.152C7.37018 470.66 7.3137 471.173 7.30078 471.676L7.26172 473.551C7.24529 474.195 7.21584 474.841 7.18359 475.484L7.14453 476.422L7.08594 477.359C7.05237 478.029 7.00108 478.702 6.92969 479.371L6.73438 481.246C6.65179 482.018 6.50339 482.793 6.28516 483.551L6.01172 484.488L5.75781 485.328L5.77734 485.367L6.30469 486.305L6.85156 487.242C7.62383 488.578 7.68847 490.096 6.96875 491.5L6.5 492.438L6.01172 493.395C5.91433 493.587 5.92515 493.676 5.93359 493.727L6.08984 494.664L6.24609 495.621C6.31801 496.053 6.44644 496.46 6.61719 496.852L6.98828 497.73L7.37891 498.609C7.6422 499.213 7.88446 499.821 8.12109 500.426L8.47266 501.305L8.80469 502.184C8.92189 502.483 9.09625 502.745 9.3125 502.984L9.9375 503.688L10.5625 504.371C11.0269 504.885 11.4706 505.422 11.8906 505.973L13.0234 507.457C13.3312 507.86 13.6823 508.252 14.0586 508.629L15.4258 509.996C15.5795 510.15 15.7438 510.247 15.9531 510.309L16.8906 510.582L17.8086 510.855C18.6801 511.107 19.5083 511.484 20.2695 511.988L21.1094 512.555L21.6562 512.906L22.418 512.613L23.4141 512.184C24.4614 511.74 25.6073 511.558 26.7734 511.773L28.6484 512.125C29.0545 512.2 29.4555 512.215 29.8594 512.184L30.7969 512.125L31.7344 512.047C32.6025 511.98 33.4776 512.041 34.332 512.223L36.207 512.613C36.852 512.75 37.496 512.908 38.1406 513.062L39.0781 513.277L40.0156 513.512H40.0352C40.0546 513.505 40.0883 513.476 40.1328 513.453L42.0078 512.477C43.1917 511.853 44.5316 511.696 45.8555 512.145L47.7305 512.77C47.9419 512.841 48.109 512.845 48.2773 512.809L50.1523 512.418C51.1246 512.209 52.1106 512.206 53.082 512.418L54.0195 512.633L54.957 512.828C55.4628 512.939 55.9826 513.01 56.4805 513.043L57.418 513.102L58.3555 513.18C58.4298 513.183 58.5728 513.165 58.8242 513.023L60.6992 511.969L61.7539 511.52C62.4721 511.322 63.2175 511.315 63.9414 511.5L64.9961 511.93L65.9336 512.438L66.6758 512.828L67.3984 512.496L68.3359 512.047L69.293 511.695C69.9392 511.531 70.6051 511.498 71.2656 511.617L72.2617 511.91L74.1367 512.691C74.3594 512.781 74.5269 512.792 74.6641 512.77L76.5391 512.457C77.5405 512.296 78.5383 512.367 79.5078 512.652L81.3828 513.199C81.6556 513.28 81.9033 513.296 82.1445 513.258L84.0195 512.945C84.9556 512.793 85.9057 512.822 86.832 513.023L87.7695 513.238L88.707 513.434C89.2036 513.542 89.7036 513.622 90.1914 513.648L91.1289 513.688L92.0664 513.746C92.2993 513.759 92.5565 513.714 92.8672 513.59L94.7422 512.848C95.9864 512.349 97.3055 512.365 98.5312 512.887L99.4688 513.297L100.406 513.688C100.746 513.833 101.045 513.9 101.305 513.902H103.18C103.232 513.903 103.396 513.895 103.688 513.707L104.625 513.102L105.562 512.477C106.618 511.791 107.882 511.439 109.234 511.676L110.172 511.832L111.109 512.008C111.95 512.156 112.774 512.415 113.57 512.77L114.508 513.18L115.445 513.609C115.606 513.681 115.681 513.662 115.738 513.648L116.676 513.434L117.613 513.199C118.449 513.003 119.299 512.931 120.152 512.965L122.027 513.043C122.486 513.062 122.95 513.036 123.414 512.965L124.352 512.809L125.289 512.672C126.328 512.511 127.368 512.61 128.355 512.945L129.293 513.277L130.23 513.59C130.271 513.604 130.3 513.609 130.309 513.609C130.313 513.609 130.344 513.594 130.406 513.57L132.281 512.867C133.345 512.457 134.472 512.358 135.602 512.613L136.539 512.828L137.477 513.023C137.934 513.128 138.4 513.194 138.844 513.199H139.781L140.719 513.219C140.881 513.219 141.101 513.18 141.402 513.023L143.277 512.047L144.293 511.656C145.329 511.39 146.408 511.504 147.418 512.008L149.293 512.945C149.546 513.072 149.712 513.091 149.82 513.082L150.758 512.984L151.695 512.906C152.578 512.824 153.463 512.875 154.332 513.062L155.27 513.277L156.148 513.453C156.167 513.444 156.194 513.434 156.227 513.414L158.102 512.242L159.039 511.773C159.682 511.533 160.367 511.429 161.07 511.5L162.145 511.754L164.02 512.418C164.442 512.568 164.846 512.645 165.23 512.672L166.168 512.73L167.105 512.809C167.414 512.83 167.736 512.796 168.082 512.691L169.02 512.398L169.957 512.125L170.934 511.93C171.9 511.841 172.844 512.047 173.707 512.496L175.582 513.473C175.945 513.662 176.251 513.746 176.5 513.766L178.375 513.922C178.926 513.965 179.484 513.967 180.035 513.961H180.973L181.91 513.941C182.454 513.935 183.005 513.92 183.551 513.863L184.488 513.746L185.426 513.648C186.083 513.58 186.741 513.534 187.398 513.492L189.273 513.375C190.056 513.326 190.837 513.354 191.617 513.453L193.492 513.688C194.036 513.757 194.591 513.79 195.133 513.805L196.07 513.844L197.008 513.863C197.2 513.867 197.446 513.831 197.75 513.688L198.688 513.238L199.625 512.809C200.54 512.379 201.514 512.131 202.535 512.125L203.473 512.105H204.41C204.998 512.103 205.6 512.096 206.188 512.066L207.125 512.008L208.062 511.969C209.075 511.919 210.06 512.099 210.992 512.477L211.93 512.867L212.633 513.141L213.434 512.652L214.371 512.086L215.406 511.598C216.113 511.371 216.857 511.322 217.594 511.48L218.688 511.871L219.625 512.359L220.562 512.828C220.744 512.92 220.809 512.912 220.836 512.906L221.773 512.73L222.711 512.535L226.461 511.832C227.568 511.62 228.667 511.726 229.703 512.125L230.641 512.496L231.578 512.848C231.878 512.963 232.131 513.001 232.359 512.984L233.297 512.906L234.234 512.848C234.638 512.817 235.068 512.723 235.504 512.574L236.441 512.262L237.379 511.93C238.632 511.505 239.914 511.607 241.09 512.145L242.027 512.574L242.73 512.887L243.512 512.477L244.449 511.949L245.504 511.5C246.216 511.304 246.953 511.3 247.672 511.48L248.746 511.891L250.621 512.906C250.892 513.051 251.064 513.068 251.168 513.062L252.105 513.004L253.043 512.965C253.517 512.937 254.003 512.865 254.488 512.75L255.426 512.516L256.363 512.301C257.583 512.014 258.786 512.172 259.879 512.691L260.816 513.141L261.578 513.492L262.359 513.121L263.297 512.633C264.237 512.156 265.257 512 266.266 512.184L267.281 512.477L268.219 512.887L269.156 513.277C269.436 513.395 269.653 513.41 269.84 513.395L271.715 513.238C272.369 513.182 273.033 513.154 273.688 513.121L274.625 513.062L275.562 513.023C276.401 512.982 277.236 513.047 278.062 513.219L279.938 513.609C280.043 513.631 280.16 513.627 280.348 513.551L282.223 512.77C283.268 512.34 284.391 512.219 285.523 512.438L287.398 512.789C287.586 512.825 287.792 512.827 288.023 512.75L289.898 512.125C290.892 511.795 291.924 511.697 292.965 511.871L294.84 512.184C295.246 512.252 295.65 512.262 296.051 512.223L296.988 512.145L297.926 512.047C299.06 511.933 300.152 512.168 301.148 512.652L302.086 513.102L302.809 513.453L303.57 513.062L304.508 512.555C305.691 511.93 307.032 511.775 308.355 512.223L309.293 512.555L310.23 512.867C310.382 512.919 310.493 512.923 310.621 512.887L312.496 512.34C313.625 512.018 314.775 512.072 315.875 512.457L316.812 512.789L317.691 513.102H317.711L317.75 513.121V513.102H317.711L318.648 512.633L319.586 512.184C320.693 511.64 321.916 511.464 323.16 511.773L324.098 511.988L325.035 512.223C325.245 512.275 325.444 512.281 325.66 512.223L327.535 511.715C328.876 511.355 330.178 511.611 331.305 512.262L332.242 512.789L333.18 513.336C333.242 513.372 333.292 513.367 333.316 513.375L334.254 513.219L335.191 513.023C336.011 512.86 336.841 512.807 337.672 512.848L338.609 512.887L339.547 512.945C339.865 512.961 340.205 512.92 340.562 512.809L342.438 512.223C343.797 511.8 345.144 512.026 346.305 512.691L347.242 513.219L348.18 513.766C348.456 513.922 348.628 513.943 348.727 513.941L349.664 513.902L350.602 513.883C351.127 513.868 351.681 513.826 352.242 513.746L354.195 513.473C354.264 513.462 354.374 513.426 354.547 513.258L356.109 511.734L356.988 511.031C357.933 510.468 359.03 510.292 360.152 510.484L361.266 510.68L361.422 510.699L361.52 510.484L361.93 509.391L362.457 508.355C363.103 507.408 364.076 506.742 365.309 506.52L366.402 506.324L367.477 506.129C367.522 506.121 367.555 506.116 367.574 506.109L368.121 505.367L368.688 504.566C368.805 504.402 368.873 504.214 368.902 503.961L369.02 502.945L369.137 501.949C369.212 501.276 369.278 500.625 369.352 500.016L369.586 498.219C369.66 497.604 369.74 496.997 369.82 496.402L369.938 495.523L370.055 494.664C370.132 494.092 370.194 493.491 370.27 492.887L370.504 491.051C370.59 490.358 370.721 489.659 370.875 488.961L371.07 488.023L371.285 487.086C371.342 486.824 371.345 486.569 371.285 486.305L370.855 484.43C370.643 483.494 370.601 482.545 370.758 481.598L371.07 479.723C371.186 479.025 371.341 478.327 371.52 477.633L371.988 475.758C372.1 475.325 372.16 474.902 372.164 474.488L372.184 473.551V472.613C372.186 472.333 372.125 472.024 371.988 471.676L371.637 470.738L371.266 469.801C370.943 468.981 370.732 468.125 370.641 467.262L370.445 465.387C370.323 464.223 370.574 463.109 371.09 462.105L371.559 461.168L371.949 460.406L371.598 459.664L371.129 458.727C370.697 457.839 370.426 456.882 370.367 455.895L370.328 454.957L370.27 454.02C370.222 453.217 370.263 452.414 370.387 451.617L370.523 450.68L370.68 449.742C370.788 449.044 370.916 448.346 371.09 447.652L371.559 445.777C371.683 445.28 371.771 444.78 371.812 444.293L371.969 442.418C372.009 441.951 372.018 441.479 371.969 441.012L371.773 439.137C371.717 438.599 371.633 438.058 371.52 437.516L371.129 435.641C370.912 434.606 370.951 433.566 371.246 432.555L371.793 430.68C371.858 430.458 371.859 430.257 371.812 430.055L371.383 428.18C371.231 427.518 371.091 426.851 370.973 426.188L370.816 425.25L370.641 424.312C370.448 423.227 370.554 422.149 370.934 421.129L371.637 419.254C371.676 419.148 371.682 419.099 371.656 419.02L371.344 418.082L371.051 417.145C370.6 415.743 370.848 414.364 371.559 413.199L372.145 412.262L372.711 411.324L372.457 410.523L372.184 409.586C371.94 408.756 371.809 407.904 371.793 407.047L371.754 405.172C371.747 404.812 371.69 404.437 371.559 404.039L371.246 403.102L370.953 402.164C370.689 401.362 370.515 400.533 370.445 399.703L370.289 397.828C370.226 397.067 370.225 396.304 370.289 395.543L370.445 393.668C370.518 392.803 370.705 391.953 371.012 391.129L371.715 389.254C371.753 389.149 371.759 389.098 371.734 389.02L371.422 388.082L371.129 387.145C370.861 386.307 370.705 385.437 370.68 384.566L370.66 383.629L370.621 382.691C370.603 382.073 370.582 381.454 370.562 380.836L370.543 379.898L370.504 378.961C370.471 377.889 370.727 376.861 371.188 375.914L371.656 374.977L372.105 374.039C372.241 373.76 372.271 373.56 372.262 373.414L372.203 372.477L372.125 371.539C372.083 370.891 372.051 370.234 372.027 369.586L372.008 368.648L371.969 367.711C371.938 366.834 372.034 365.965 372.262 365.113L372.77 363.238C372.803 363.114 372.807 362.989 372.75 362.828L372.086 360.953C371.772 360.063 371.615 359.141 371.637 358.199L371.676 356.324C371.692 355.616 371.745 354.902 371.832 354.195L372.066 352.32C372.082 352.192 372.057 352.034 371.949 351.793L371.539 350.855L371.109 349.918C370.688 348.986 370.46 347.983 370.484 346.949L370.504 346.012L370.543 345.074C370.57 343.974 370.888 342.937 371.422 342.008L371.969 341.07L372.496 340.152L372.242 339.332L371.949 338.395C371.731 337.708 371.523 337.014 371.363 336.324L370.934 334.449C370.753 333.671 370.648 332.877 370.621 332.086L370.602 331.148L370.562 330.211C370.524 329.054 370.848 327.973 371.402 327.008L371.93 326.07L372.379 325.289L372.066 324.586L371.637 323.648C371.182 322.633 371.007 321.535 371.168 320.406L371.441 318.531C371.516 318.012 371.551 317.485 371.559 316.969L371.578 316.031V315.094C371.59 314.317 371.681 313.538 371.832 312.77L372.008 311.832L372.203 310.895C372.306 310.368 372.38 309.835 372.418 309.312L372.477 308.375L372.555 307.438C372.561 307.334 372.534 307.168 372.398 306.91L371.422 305.035C370.879 303.999 370.636 302.845 370.816 301.637L371.09 299.762C371.152 299.347 371.173 298.923 371.129 298.512L371.031 297.574L370.914 296.637C370.824 295.785 370.868 294.924 371.012 294.078L371.324 292.203C371.451 291.458 371.635 290.709 371.871 289.977L372.164 289.039L372.477 288.102C372.504 288.012 372.495 287.956 372.457 287.848L371.793 285.973C371.385 284.83 371.373 283.632 371.754 282.477L372.379 280.602C372.472 280.322 372.486 280.071 372.457 279.84L372.34 278.902L372.203 277.965C372.137 277.465 372.037 276.952 371.891 276.441L371.617 275.504L371.363 274.566C371.142 273.794 370.981 273.012 370.914 272.223L370.758 270.348C370.709 269.764 370.641 269.174 370.562 268.59L370.328 266.715C370.201 265.767 370.25 264.81 370.484 263.883L370.953 262.008C371.158 261.199 371.468 260.413 371.852 259.645L372.32 258.707L372.77 257.789L372.438 256.969L372.086 256.031C371.779 255.232 371.566 254.406 371.461 253.57L371.227 251.695C371.14 250.997 371.075 250.286 371.051 249.586L371.031 248.648L370.992 247.711C370.968 247.002 370.984 246.29 371.031 245.582L371.148 243.707C371.2 242.941 371.32 242.178 371.5 241.422L371.715 240.484L371.949 239.547C372.086 238.973 372.201 238.4 372.301 237.828L372.457 236.891L372.633 235.953C372.668 235.752 372.657 235.537 372.574 235.289L371.949 233.414C371.567 232.265 371.573 231.079 371.969 229.938L372.301 229L372.574 228.16L372.086 227.262L371.578 226.324C370.982 225.226 370.754 223.976 371.051 222.691L371.48 220.816C371.564 220.456 371.595 220.105 371.559 219.762L371.363 217.887C371.308 217.361 371.208 216.835 371.09 216.305L370.895 215.367L370.68 214.43C370.367 213.028 370.722 211.708 371.441 210.621L372.066 209.684L372.535 208.961L372.262 208.355L371.832 207.418C371.369 206.411 371.164 205.324 371.305 204.195L371.539 202.32C371.582 201.98 371.556 201.638 371.48 201.285L371.09 199.41C370.871 198.389 370.895 197.349 371.168 196.344L371.676 194.469C371.8 194.01 371.885 193.563 371.91 193.121L371.969 192.184L372.008 191.246C372.037 190.735 372.028 190.215 371.988 189.703L371.93 188.766L371.852 187.828C371.815 187.348 371.741 186.855 371.617 186.363L371.148 184.488C370.906 183.523 370.871 182.539 371.051 181.559L371.207 180.621L371.383 179.684C371.511 178.989 371.684 178.284 371.871 177.594L372.379 175.719C372.507 175.244 372.579 174.772 372.613 174.312L372.691 173.375L372.73 172.438C372.713 172.397 372.686 172.324 372.613 172.223L371.93 171.285L371.266 170.348C370.827 169.742 370.482 168.984 370.426 168.102C370.37 167.207 370.609 166.391 371.012 165.719L372.145 163.844C372.171 163.8 372.176 163.765 372.184 163.746L371.988 162.867L371.773 161.93C371.524 160.819 371.623 159.705 372.008 158.648L372.34 157.711L372.672 156.773Z" fill="black"/>
</svg>
