<svg width="898" height="545" viewBox="0 0 898 545" fill="none" xmlns="http://www.w3.org/2000/svg">
<path d="M18 116C18 61.3238 62.3238 17 117 17H782C836.676 17 881 61.3238 881 116V429C881 483.676 836.676 528 782 528H117C62.3238 528 18 483.676 18 429V116Z" fill="#82B3FF"/>
<path d="M679.215 1.04297C681.562 1.3067 683.928 1.62617 686.266 2.08203L689.383 2.75L692.5 3.34375C695.824 3.9919 698.949 5.30711 701.852 7.05469L705.043 8.91016L708.16 10.7656C708.555 11.0032 708.813 11.1607 708.977 11.2109C709.126 11.254 709.239 11.2118 709.273 11.2109L715.508 11.0625C717.274 11.0172 719.078 10.912 720.852 10.6914L724.043 10.3203L727.16 9.875C730.338 9.47986 733.534 9.63035 736.66 10.3203L739.777 11.0625L742.895 11.7305C743.678 11.9034 744.425 11.8857 745.195 11.7305L748.387 11.1367L751.504 10.4688C754.67 9.81968 757.88 9.69479 761.078 10.1719L764.195 10.6914L767.312 11.1367C768.251 11.2769 769.227 11.2754 770.207 11.0625L773.324 10.3203L776.441 9.65234C780.186 8.83873 783.998 9.07914 787.648 10.3203L790.691 11.3594L792.844 12.1016L799.82 8.53906C802.123 7.36828 805.009 6.50379 808.207 6.75781C811.509 7.0237 814.319 8.40788 816.52 10.3203L819.191 12.6211L821.789 14.8477C823.35 16.2067 824.879 17.4448 826.316 18.4844L828.84 20.3398L831.363 22.1211C833.935 23.981 836.15 26.2756 837.969 28.875L839.824 31.4727L841.68 34.1445C842.113 34.7637 842.528 35.077 842.867 35.2578L845.465 36.668L853.48 40.8984L856.375 42.3828L859.195 43.8672C861.882 45.2563 864.344 46.9895 866.543 49.0625L868.918 51.2148L871.219 53.4414C872.468 54.6183 873.932 55.8389 875.598 57.0781L881.387 61.3828C884.68 63.8362 887.205 67.074 888.66 71.0312L889.848 74.2227L891.035 77.3398C892.546 81.4515 892.549 85.7376 891.48 89.8086L890.59 93.3711L889.699 96.4883L891.332 99.1602L893.188 102.203C895.888 106.565 896.547 111.669 894.746 116.676L893.633 119.941L892.445 123.133C891.664 125.304 890.933 127.472 890.145 129.59L887.77 135.824C887.47 136.628 887.421 137.276 887.473 137.828L887.77 141.02L888.066 144.137C888.188 145.343 888.516 146.639 889.031 147.996L891.406 154.23C892.292 156.566 893.111 158.924 893.781 161.281L895.562 167.516C896.77 171.758 896.4 176.078 894.746 180.059L893.484 183.176L892.148 186.367C891.537 187.843 891.127 189.248 890.887 190.598L890.293 193.715L889.773 196.906C889.59 197.958 889.542 198.983 889.699 200.023L890.219 203.215L890.664 206.332C891.383 211.008 890.193 215.342 887.918 219.023L885.988 222.141L884.281 224.887L884.949 227.188L885.766 230.305C886.613 233.359 886.987 236.492 886.805 239.656L886.656 242.773L886.434 245.594C886.483 245.686 886.584 245.841 886.73 246.039L891.332 252.273C892.97 254.493 894.345 257.411 894.449 260.809C894.545 264.208 893.354 267.154 891.777 269.492L889.625 272.684L888.586 274.168L889.254 275.43L890.887 278.547C893.341 283.185 893.595 288.45 891.332 293.316L889.848 296.434L889.328 297.398L890.738 299.18L893.113 302.297C894.739 304.407 896.093 307.126 896.379 310.387C896.663 313.715 895.771 316.754 894.301 319.219L892.371 322.41L890.516 325.527C889.715 326.864 889.265 328.022 889.031 329.016L888.289 332.207L887.547 335.324C887.037 337.525 886.516 339.733 885.914 341.93L885.023 345.121L884.133 348.238C883.875 349.189 883.818 350.065 883.91 350.91L884.281 354.027L884.652 357.219C884.934 359.759 885.039 362.316 884.949 364.863L884.801 367.98L884.727 371.098C884.693 372.048 884.821 373.111 885.172 374.215L886.137 377.332L887.176 380.449C887.63 381.877 888.228 383.398 889.105 384.977L890.887 388.094L892.594 391.285C894.032 393.876 894.839 396.992 894.375 400.34C893.921 403.568 892.415 406.194 890.738 408.207L888.363 410.953L888.586 411.176L891.629 414.293C894.976 417.683 897.797 422.563 897.047 428.543L896.602 431.734L896.23 435C895.523 440.639 892.028 444.696 888.289 447.395L884.652 449.992L881.09 452.516V453.926L881.016 456.969C880.937 459.332 880.688 461.705 880.348 464.094L879.457 470.328C879.174 472.311 878.9 474.423 878.641 476.637L877.898 483.465C877.564 486.323 876.394 489.22 874.188 491.629C872.039 493.971 869.387 495.294 866.914 496.008L863.203 497.121L862.164 497.344L862.09 498.977L861.867 503.133C861.597 508.227 859.415 513.714 853.852 516.789L850.957 518.348L848.062 519.98C846.319 520.944 844.639 521.971 843.016 523.023L837.523 526.586C834.539 528.519 831.23 529.709 827.727 530.223L824.387 530.742L821.121 531.188C818.521 531.566 815.909 531.754 813.328 531.781L810.137 531.855H806.945C804.154 531.885 801.358 531.664 798.633 531.113L795.516 530.445L792.398 529.852C791.131 529.595 790.002 529.55 788.984 529.629L786.016 529.852L783.121 530.074C781.693 530.185 780.099 530.424 778.445 530.816L772.211 532.301C769.384 532.972 766.492 533.301 763.602 533.266L760.484 533.191H757.441C757.32 533.253 757.116 533.363 756.848 533.562L753.73 535.938L750.613 538.238C748.493 539.814 745.781 541.083 742.598 541.355C739.355 541.633 736.379 540.836 733.914 539.426L730.797 537.645L727.68 535.789C726.467 535.096 725.448 534.812 724.637 534.676L721.445 534.156L718.328 533.637C718.187 533.614 717.909 533.619 717.363 533.859L714.246 535.195L711.129 536.605C706.424 538.672 701.421 538.458 696.879 536.234L693.688 534.75L690.57 533.191C689.777 532.803 689.3 532.73 689.012 532.746L685.895 532.969L682.777 533.117C680.116 533.263 677.412 533.152 674.762 532.82L668.527 532.078C666.92 531.877 665.299 531.807 663.703 531.855L660.586 531.93L657.395 532.004C656.99 532.022 656.325 532.162 655.391 532.672L649.156 536.086C645.117 538.29 640.443 539.049 635.723 537.719L629.488 535.938C627.312 535.324 625.132 534.688 622.957 534.008L616.723 532.078C616.209 531.917 615.796 531.91 615.387 532.004L612.27 532.672L609.152 533.414C607.325 533.836 605.431 534.382 603.586 534.973L600.469 535.938L597.352 536.977C595.538 537.557 593.699 538.205 591.859 538.98L585.625 541.652C582.885 542.807 579.8 543.146 576.719 542.469C573.761 541.816 571.345 540.319 569.445 538.684L566.328 536.012L563.137 533.266L562.988 533.191L560.762 533.414L557.645 533.711C556.201 533.839 554.703 534.087 553.191 534.527L550.074 535.418L546.957 536.383C544.687 537.044 542.408 537.65 540.129 538.164L536.938 538.832L533.82 539.574C531.316 540.138 528.783 540.478 526.25 540.688L523.133 540.984L520.016 541.207C516.059 541.534 512.257 540.722 508.809 539.055L505.691 537.57L502.5 536.012C500.522 535.055 498.535 534.132 496.562 533.266L493.445 531.93L493.148 531.781L491.516 533.562L488.398 536.754C486.56 538.656 483.931 540.669 480.457 541.43C476.737 542.237 473.243 541.395 470.438 539.723L467.32 537.867L464.203 535.938C462.954 535.193 461.912 534.83 461.086 534.676L457.895 534.156L454.777 533.562C453.601 533.348 452.437 533.284 451.289 533.414L445.055 534.156C443.855 534.292 442.557 534.581 441.195 535.121L434.961 537.645C432.591 538.584 430.161 539.406 427.762 540.094L421.527 541.875C416.642 543.275 411.846 542.392 407.797 540.02L404.68 538.164L403.715 537.57L402.527 538.535L399.336 540.762C396.65 542.697 393.015 544.013 388.871 543.211C385.062 542.471 382.292 540.241 380.484 538.238L377.367 534.75L374.621 531.781L373.73 532.004L370.613 532.598C369.74 532.773 368.635 533.156 367.348 533.934L364.23 535.863L361.113 537.719C357.373 539.977 352.96 541.138 348.273 540.316L345.156 539.797L342.039 539.203C338.746 538.626 335.599 537.442 332.688 535.789L326.973 532.523L324.895 533.34L321.777 534.453C318.862 535.492 315.799 536.16 312.723 536.309L306.488 536.605C302.709 536.787 299.068 535.934 295.727 534.379L292.609 532.969L291.051 534.676L287.934 538.016C284.79 541.408 279.896 544.722 273.609 544.027L270.492 543.73L267.375 543.359C262.217 542.789 258.157 539.895 255.203 536.754L252.086 533.414L252.012 533.34L249.562 535.492C246.641 538.009 243.166 540.044 239.246 540.984L236.129 541.801L233.012 542.543C228.407 543.648 223.937 542.796 220.023 540.688L216.906 538.98L213.789 537.348L211.266 538.09L208.148 538.98C206.307 539.47 204.441 540.033 202.582 540.688L196.348 542.914C193.118 544.052 189.698 544.549 186.254 544.324L180.02 543.879C175.152 543.561 171.123 541.223 167.996 538.387L165.027 535.715L162.059 538.535C159.777 540.672 156.1 542.851 151.445 542.395C147.066 541.952 144.015 539.366 142.168 537.273L139.051 533.711L138.457 533.043L136.082 534.898C131.638 538.155 125.889 539.34 120.199 536.68L117.082 535.27L114.039 533.785L111.145 534.676L108.027 535.566C106.001 536.147 103.813 536.782 101.496 537.496L97.8594 538.609L94.2969 539.723C91.2311 540.665 87.5375 540.748 83.9805 538.906C80.657 537.181 78.6367 534.398 77.4492 532.004L75.5195 527.996L74.8516 526.734L74.1836 526.957L70.25 527.848C67.6654 528.444 64.435 528.6 61.1953 527.328C57.8147 525.991 55.4375 523.525 53.9961 520.871L50.582 514.488C49.8194 513.083 49.035 512.099 48.3555 511.445L43.9023 507.141C42.3261 505.623 40.7378 504.119 39.2266 502.539L37.0742 500.238L34.9961 498.012C34.2405 497.222 33.1844 496.382 31.8047 495.562L25.7188 492C22.71 490.21 20.1331 487.884 18 485.098L13.8438 479.754C11.2482 476.362 9.84046 472.396 9.6875 468.176L9.61328 464.688L9.46484 461.199C9.43023 460.283 9.25239 459.485 8.87109 458.75L7.3125 455.781L5.75391 452.738C4.25197 449.844 3.16503 446.75 2.63672 443.535L2.11719 440.195L1.59766 436.93C1.09178 433.851 0.973865 430.732 1.375 427.652L2.26562 421.27C2.62806 418.513 3.22315 415.764 4.12109 413.105L5.16016 409.988L6.27344 406.871C6.60521 405.889 6.69477 404.991 6.64453 404.199L6.19922 397.965C6.01303 395.032 6.28508 392.095 6.86719 389.207L7.46094 386.09L8.12891 383.121L7.98047 383.047L4.56641 376.812C3.0189 373.952 2.38716 370.499 3.23047 366.941C4.02856 363.609 5.96745 361.051 7.83203 359.223L11.0234 356.105L12.9531 354.176L12.7305 353.805L11.543 350.613C10.2745 347.371 9.65798 343.966 9.83594 340.445L9.98438 337.254L10.1328 334.137C10.1591 333.586 10.0468 332.928 9.6875 332.059L8.42578 328.867L7.08984 325.75C5.83497 322.739 5.03342 319.586 4.86328 316.324L4.56641 310.09C4.47877 308.41 4.28138 306.667 3.97266 304.969L3.37891 301.852L2.85938 298.734C1.63583 292.005 5.26414 286.824 8.79688 283.668L12.2852 280.551L14.0664 278.992L12.582 276.023C11.8489 274.491 10.8913 272.88 9.6875 271.199L5.23438 264.965C2.6352 261.336 1.00163 256.782 1.74609 251.754L2.26562 248.562L2.71094 245.445C2.95736 243.805 3.06753 242.172 3.08203 240.547L3.15625 237.355V234.238C3.19411 229.675 4.92271 225.665 7.38672 222.363L9.76172 219.246L11.9883 216.277L11.543 214.125L10.9492 210.934C10.5845 208.962 10.1971 206.97 9.76172 204.996L9.01953 201.879L8.35156 198.762C7.29228 193.959 8.40146 189.407 10.7266 185.551L12.582 182.359L14.3633 179.539L13.6211 177.238L12.8047 174.121C12.1203 171.598 11.6198 169.039 11.3203 166.477L10.9492 163.285L10.5781 160.168C10.1114 156.136 10.904 152.269 12.582 148.738L14.0664 145.621L14.5117 144.73L13.1758 143.172L10.5781 139.98C8.39758 137.303 6.57461 134.403 5.30859 131.297L2.78516 125.062C1.40302 121.672 0.77344 118.042 1.00391 114.375L1.22656 111.109L1.44922 107.77C1.6183 105.079 1.99256 102.403 2.5625 99.7539L3.23047 96.4883L3.97266 93.1484C4.92887 88.7411 7.30047 85.0696 10.5039 82.2383L13.3242 79.7148L16.1445 77.2656C16.5125 76.9404 16.6841 76.6831 16.7383 76.5977C16.7821 76.528 16.8231 76.5521 16.8125 76.5977L17.4805 73.4805L18.2227 70.3633C18.8634 67.6143 19.8181 64.9688 21.043 62.4219L22.4531 59.5273L23.7891 56.6328L25.8672 53.4414C28.1766 50.5728 31.2651 48.6621 34.625 47.6523L38.1875 46.6133L40.1914 45.9453L40.7109 44.2383L41.6016 40.75C42.5419 37.155 44.2477 33.8066 46.7227 30.9531L48.875 28.5039L51.0273 25.9805C53.2883 23.3777 56.0168 21.2657 59.1172 19.7461L62.0117 18.3359L64.9805 16.9258C67.4634 15.7095 70.0377 14.6838 72.6992 13.957L75.8164 13.1406L78.9336 12.25C82.9835 11.1447 87.0584 11.4128 90.8828 12.6211L94.3711 13.7344L97.5625 14.7734L99.7891 13.6602L102.609 12.1758C104.588 11.1596 106.388 10.2907 107.879 9.65234L109.66 8.91016L111.441 8.09375C112.099 7.81224 112.983 7.52917 113.816 7.27734C114.094 7.19359 115.121 6.82214 116.414 6.75781C116.913 6.73307 118.826 6.6852 120.941 7.64844C121.985 8.12871 123.194 8.99104 124.281 10.3203C124.529 10.4773 124.845 10.6376 125.172 10.8398L128.289 12.8438L130.664 14.4023L135.859 12.5469C139.396 11.336 143.113 11.0077 146.844 11.6562L149.961 12.1758L152.855 12.7695C152.898 12.7531 152.963 12.6839 153.078 12.6211L156.27 10.8398L159.387 9.13281L163.172 7.57422C164.506 7.21993 165.918 7.01667 167.402 7.05469C168.901 7.09332 170.313 7.37327 171.633 7.79688L175.27 9.42969L181.504 13.2891C182.39 13.8309 182.88 13.8072 182.988 13.8086L186.105 13.8828H188.332L191.746 10.4688L194.863 7.27734C197.331 4.78629 200.748 2.48846 204.883 1.85938H209.262L215.496 2.75C216.55 2.8983 217.613 2.87245 218.688 2.67578L221.879 2.08203L224.996 1.48828L228.93 1.19141C232.696 1.4233 236.06 3.00471 238.801 5.125L241.992 7.57422L243.328 8.6875L244.145 8.24219L247.262 6.53516C250.748 4.63807 254.67 3.59318 258.84 3.9375L262.031 4.23438L265.148 4.45703C269.407 4.81695 273.189 6.60603 276.355 8.98438L279.473 11.2852L282.59 13.6602C283.442 14.3002 283.873 14.3952 283.926 14.4023L287.043 14.625L290.16 14.9219C291.757 15.0505 293.388 15.0432 294.984 14.9219L301.219 14.4766C303.037 14.3383 304.886 14.0986 306.711 13.8086L309.902 13.2891L313.02 12.7695C314.121 12.5926 315.322 12.2189 316.656 11.582L319.848 10.0977L322.965 8.61328C326.423 6.96313 330.219 6.11102 334.172 6.46094L340.406 7.05469C344.124 7.38383 347.602 8.61358 350.723 10.4688L353.84 12.3242L356.957 14.2539L357.031 14.3281L359.852 13.8086L363.043 13.2148C363.241 13.1142 363.692 12.833 364.379 12.1758L367.496 9.20703L370.613 6.16406L374.918 3.26953C376.669 2.48853 378.751 2.05565 381.078 2.23047C383.276 2.40056 385.152 3.08523 386.719 4.01172L390.504 7.12891L393.695 10.6172L394.141 11.2109L396.664 9.35547L399.781 7.5C401.956 6.45302 404.35 5.7986 406.906 5.79297L410.914 6.3125L414.031 7.05469L417.148 7.87109C418.232 8.14627 419.268 8.24794 420.266 8.16797L423.457 7.87109L426.574 7.64844C430.619 7.30932 434.458 8.19007 437.93 9.94922L441.047 11.5078L443.125 12.6211L445.203 11.582L448.32 10.0977C451.198 8.71941 454.238 7.79669 457.375 7.35156L460.492 6.90625L463.684 6.46094L467.023 6.3125C470.28 6.4601 473.349 7.4565 476.078 9.05859L479.195 10.9141L481.496 12.3242L483.574 11.5078L486.691 10.3203C490.432 8.91065 494.444 8.61983 498.418 9.50391L501.535 10.1719L504.133 10.7656L507.102 8.91016L510.219 6.98047C513.681 4.88459 517.689 3.65509 522.02 3.9375L525.211 4.16016L528.328 4.38281C529.341 4.44943 530.406 4.3841 531.52 4.08594L534.637 3.19531L537.754 2.37891C541.23 1.44786 544.666 1.63482 547.848 2.67578L550.965 4.01172L557.199 7.27734C558.855 8.15619 560.473 8.91501 562.023 9.42969L565.141 10.4688L568.332 11.5078C568.65 11.6083 568.838 11.5684 569.074 11.5078L572.266 10.6914L575.383 9.80078C578.868 8.86449 582.447 8.77899 585.996 9.50391L589.188 10.1719L591.117 10.6172L594.012 8.39062L597.129 5.94141L601.508 3.64062C603.19 3.08181 605.106 2.81927 607.148 3.04688C609.067 3.26608 610.746 3.88091 612.195 4.67969L615.906 7.42578L619.32 10.8398L622.141 8.61328C624.965 6.38578 628.104 4.59203 631.566 3.56641L634.684 2.67578L637.875 1.71094L642.922 1.19141C646.067 1.42972 648.809 2.70781 651.012 4.38281L653.906 7.05469L656.059 9.57812L658.434 6.83203C661.456 3.33395 666.396 -0.439026 672.98 0.300781L679.215 1.04297ZM669.715 22.8633L666.523 26.5C664.649 28.6689 661.309 31.5164 656.43 31.6211C651.469 31.7179 647.995 28.9105 646.039 26.7227L642.848 23.2344L640.547 20.7109L640.102 20.8594L636.984 21.8242C636.282 22.0321 635.212 22.4682 633.867 23.5312L630.75 26.0547L627.633 28.5039C625.203 30.4244 621.782 31.9479 617.688 31.5469C613.754 31.1519 610.762 29.1306 608.781 27.168L605.664 24.0508L605.219 23.6797L602.473 25.832C598.754 28.689 593.859 30.5073 588.445 29.3945L585.328 28.7266L582.211 28.1328C581.594 28.0059 580.962 28.0237 580.281 28.207L574.047 29.8398C570.133 30.8934 566.138 30.8065 562.32 29.543L559.203 28.4297L556.012 27.3906C553.395 26.5197 550.805 25.4585 548.293 24.125L545.176 22.418L542.133 20.7852L539.535 21.6016L536.418 22.418C533.359 23.2374 530.226 23.5183 527.066 23.3086L523.949 23.1602L520.758 22.9375C520.68 22.9586 520.453 23.0172 520.09 23.2344L516.898 25.1641L513.781 27.0938C509.93 29.4196 505.371 30.4556 500.57 29.3945L497.379 28.7266L494.262 27.9844C494.064 27.9418 493.86 27.9792 493.445 28.1328L490.254 29.3203L487.137 30.5078C482.119 32.3929 477.056 31.6302 472.738 29.0977L469.547 27.3164L466.43 25.4609C466.13 25.2852 466.021 25.2299 466.059 25.2383L463.164 25.6836L460.047 26.1289C459.011 26.2755 457.853 26.6236 456.559 27.2422L453.441 28.7266L450.25 30.2852C445.476 32.5591 440.304 32.428 435.629 30.0625L432.512 28.5039L429.32 26.8711C428.631 26.5263 428.265 26.5631 428.133 26.5742L425.016 26.7969L421.898 27.0938C418.727 27.36 415.556 27.0602 412.473 26.2773L409.355 25.5352L407.352 25.0156L404.754 26.9453L401.637 29.2461C398.984 31.1972 395.342 32.6084 391.172 31.8438C387.317 31.1286 384.527 28.8066 382.711 26.7969L379.816 23.6055L377.516 25.9062C374.548 28.7443 370.807 31.1259 366.309 31.918L363.191 32.5117L360.074 33.0312C355.421 33.8494 350.976 32.8065 347.234 30.582L344.117 28.6523L341 26.7969C339.967 26.1845 339.235 26.0254 338.773 25.9805L335.582 25.6836L332.465 25.3867C332.239 25.3687 331.832 25.4219 331.129 25.7578L324.895 28.7266C322.058 30.082 319.06 31.0573 315.988 31.5469L309.754 32.5859C307.415 32.9587 305.05 33.2235 302.703 33.4023L299.586 33.625L296.395 33.8477C293.822 34.0423 291.248 34.0542 288.676 33.8477L285.559 33.625L282.367 33.3281C278.101 32.9786 274.327 31.2543 271.16 28.875L264.926 24.125C264.417 23.7426 264.029 23.5473 263.812 23.457L263.59 23.3828L260.398 23.1602L257.281 22.8633C257.239 22.8597 257.167 22.8385 257.059 22.8633C256.94 22.8908 256.681 22.9618 256.316 23.1602L250.082 26.5742C247.555 27.9495 244.558 28.7267 241.324 28.3555C238.164 27.9886 235.523 26.619 233.457 25.0156L230.34 22.5664L227.297 20.2656L225.293 20.7109L222.176 21.3047C219.087 21.8782 215.935 21.9652 212.824 21.5273L208.148 20.8594L205.254 23.8281L202.137 26.9453C199.01 30.1013 194.584 32.9484 189 32.8828H185.883L182.691 32.8086C178.632 32.7524 174.918 31.4758 171.633 29.4688L168.441 27.5391L166.957 26.6484L165.547 27.4648L162.43 29.1719C158.703 31.2581 154.393 32.2487 149.887 31.4727L146.695 30.9531L143.578 30.3594C143.134 30.2839 142.654 30.2916 142.02 30.5078L138.902 31.6211L135.785 32.6602C130.675 34.4095 125.588 33.4809 121.387 30.8789L118.27 28.9492L115.301 27.0938C114.386 27.4855 113.087 28.1762 111.293 29.0977L108.473 30.5078L105.652 31.9922C101.208 34.2751 96.4023 34.3322 92.0703 32.957L88.6562 31.8438L85.168 30.7305C84.459 30.5056 84.1171 30.5499 83.9805 30.582L80.7891 31.4727L77.6719 32.2891C76.1758 32.6985 74.7044 33.3043 73.293 33.9961L67.5039 36.8164C66.7085 37.2063 65.966 37.7408 65.3516 38.4492L63.1992 40.9727L61.0469 43.4219C60.6441 43.8866 60.2741 44.5561 60.0078 45.5742L59.1172 48.9883L58.2266 52.4766C56.7388 58.1645 52.6249 62.066 47.2422 63.6836L43.6797 64.7969L40.4883 65.6875L39.5234 67.7656L38.1875 70.6602C37.5612 71.9614 37.0272 73.2784 36.7031 74.668L36.0352 77.7852L35.293 80.9023C34.2854 85.2238 31.839 88.7154 28.7617 91.4414L25.9414 93.9648L23.0469 96.4883C22.7751 96.7302 22.6593 96.9208 22.6016 97.0078L22.5273 97.1562L21.7852 100.496L21.1172 103.762C20.7448 105.494 20.484 107.223 20.375 108.957L20.1523 112.297L20.0039 115.637C19.9617 116.383 20.059 117.087 20.375 117.863L21.6367 120.98L22.8984 124.172C23.3344 125.235 24.1337 126.543 25.3477 128.031L30.3945 134.266C32.0074 136.244 33.4388 138.789 33.957 141.836C34.4857 144.971 33.9428 147.963 32.6953 150.594L31.2109 153.785L29.7266 156.902C29.4263 157.539 29.413 157.872 29.4297 158.016L30.1719 164.25C30.3588 165.857 30.6899 167.501 31.1367 169.148L31.9531 172.266L32.8438 175.383C34.1767 180.297 33.17 185.045 30.7656 189.039L28.8359 192.23L26.9805 195.199L27.5742 197.797L28.3164 200.914C28.8006 203.11 29.2462 205.322 29.6523 207.52L30.2461 210.637L30.7656 213.754C31.7387 219.02 30.0331 223.791 27.2773 227.484L24.9766 230.602L22.6016 233.719C22.2779 234.153 22.193 234.44 22.1562 234.535L22.082 237.504V240.695C22.0605 243.226 21.8662 245.75 21.4883 248.266L21.043 251.383L20.6719 253.832L22.8984 257.023L25.125 260.141C26.9114 262.635 28.4633 265.216 29.7266 267.859L32.6953 274.094C34.1762 277.193 34.5578 280.772 33.4375 284.262C32.4092 287.452 30.3793 289.824 28.4648 291.535L24.9766 294.727L21.8594 297.398L22.082 298.438L22.6758 301.555C23.1263 304.033 23.4356 306.555 23.5664 309.051L23.7148 312.168L23.8633 315.359C23.9136 316.27 24.1228 317.319 24.6055 318.477L25.9414 321.594L27.2031 324.711C28.5717 327.993 29.3143 331.49 29.1328 335.102L28.9102 338.293L28.7617 341.41C28.7305 342.051 28.8467 342.792 29.207 343.711L30.4688 346.828L31.6562 349.945C32.8365 352.954 33.0216 356.277 32.0273 359.445C31.092 362.419 29.2937 364.737 27.5 366.496L24.3086 369.613L22.9727 370.875L24.6797 373.992C26.7387 377.798 27.6696 382.163 26.7578 386.684L25.4219 392.918C25.1641 394.195 25.1239 395.47 25.1992 396.703L25.4219 399.895L25.5703 403.012C25.7845 406.39 25.3074 409.694 24.2344 412.883L23.1953 416.074L22.1562 419.191C21.6425 420.713 21.2398 422.222 21.043 423.719L20.6719 426.91L20.2266 430.102C20.0756 431.256 20.0842 432.485 20.3008 433.812L20.8945 437.152L21.4141 440.492C21.6145 441.697 22.0156 442.851 22.6016 443.98L24.1602 447.023L25.7188 449.992C27.4228 453.276 28.3327 456.846 28.4648 460.531L28.6133 464.02L28.6875 467.508C28.7025 467.86 28.7845 468.007 28.9102 468.176L30.9883 470.848L33.0664 473.594C33.6677 474.374 34.429 475.071 35.4414 475.672L41.5273 479.234C44.1874 480.814 46.629 482.682 48.7266 484.875L50.8047 487.102L52.957 489.402C54.2864 490.792 55.652 492.149 57.0391 493.484L59.3398 495.637L61.5664 497.789C63.8559 499.997 65.7453 502.603 67.2812 505.434L68.9141 508.551L69.9531 508.402L73.9609 507.512L78.7852 507.141C80.4659 507.289 82.211 507.755 83.9062 508.625C85.5455 509.47 86.9053 510.538 87.9883 511.742L90.5117 515.602L92.5156 519.609L92.8125 520.277L95.8555 519.387C98.2832 518.638 100.589 517.93 102.758 517.309L105.949 516.418L109.066 515.453C113.475 514.19 117.939 514.684 121.98 516.566L125.098 518.051L126.211 518.57L127.992 517.309L131.109 515.008L135.859 512.707C137.647 512.227 139.62 512.066 141.723 512.484C145.568 513.254 148.323 515.585 150.109 517.605L153.004 520.945L155.305 518.793C157.43 516.803 160.646 514.848 164.805 514.785C166.889 514.756 168.762 515.18 170.371 515.898L174.453 518.645L177.57 521.465L180.762 524.359C181.112 524.674 181.357 524.864 181.504 524.953L184.398 525.102L187.516 525.324C188.251 525.372 189.089 525.288 190.039 524.953L196.273 522.727C198.589 521.911 200.917 521.195 203.25 520.574L206.367 519.758L209.559 518.941C213.046 518.018 216.475 518.179 219.652 519.238L222.77 520.574L225.887 522.281L228.93 523.914L231.676 523.32L234.867 522.504C235.157 522.427 235.888 522.132 237.094 521.094L240.285 518.422L243.402 515.75L247.781 513.078C249.512 512.414 251.524 512.04 253.719 512.262C257.85 512.69 260.86 514.983 262.773 517.012L265.891 520.352L269.082 523.691C269.412 524.042 269.648 524.294 269.824 524.434L272.57 524.805L274.055 524.953L277.098 521.762L280.215 518.348L283.406 515.602C284.616 514.766 285.989 514.006 287.562 513.523C289.277 512.998 291.006 512.868 292.684 513.004L297.508 514.266L300.625 515.75L303.742 517.16C304.581 517.551 305.197 517.625 305.598 517.605L311.832 517.309C312.936 517.255 314.13 517.017 315.395 516.566L321.629 514.34C325.316 513.027 329.047 513.066 332.465 514.191L335.805 515.676L342.039 519.238C343.306 519.958 344.42 520.345 345.305 520.5L348.422 521.02L351.094 521.539L351.242 521.465L354.434 519.609L357.551 517.68C360.435 515.94 363.533 514.634 366.828 513.969L370.02 513.375L373.137 512.707L377.887 512.559C382.373 513.165 385.953 515.906 388.352 518.57L391.469 521.984L391.988 522.578L394.512 520.871L398.148 518.867C399.497 518.332 401.003 517.937 402.602 517.828C405.812 517.618 408.723 518.496 411.137 519.906L414.254 521.762L417 523.32L419.375 522.727L422.566 521.836C424.335 521.328 426.112 520.693 427.91 519.98L431.027 518.719L434.219 517.457C437.026 516.347 439.934 515.642 442.902 515.305L449.137 514.562C452.155 514.22 455.202 514.314 458.191 514.859L461.383 515.453L464.5 516.047C467.845 516.662 471.008 517.944 473.926 519.684L476.82 521.391L477.859 520.352L481.051 517.086L484.168 514.414C485.362 513.622 486.724 512.941 488.25 512.484C489.902 511.993 491.597 511.85 493.223 511.965L497.973 513.152L501.09 514.488L504.207 515.898C506.406 516.864 508.619 517.88 510.812 518.941L513.93 520.426L517.047 521.984C517.776 522.337 518.237 522.299 518.457 522.281L521.574 522.059L524.691 521.762C526.332 521.626 527.996 521.396 529.664 521.02L532.781 520.277L535.898 519.609C537.791 519.183 539.712 518.679 541.613 518.125L544.73 517.234L547.922 516.27C550.576 515.498 553.291 515.024 556.012 514.785L562.246 514.191C567.601 513.721 572.14 515.959 575.531 518.867L578.723 521.613L580.504 523.098L581.32 522.801L584.512 521.465C586.843 520.483 589.205 519.623 591.562 518.867L594.68 517.828L597.797 516.863C600.13 516.116 602.497 515.476 604.848 514.934L611.082 513.449C614.852 512.579 618.698 512.749 622.363 513.895L625.48 514.859L628.598 515.898C630.594 516.523 632.616 517.118 634.609 517.68L637.801 518.57L640.176 519.238L643.219 517.68L646.336 515.973C649.55 514.221 653.103 513.118 656.875 513.004L663.109 512.855C665.682 512.778 668.266 512.908 670.828 513.227L674.02 513.598L677.137 513.969C678.666 514.16 680.219 514.201 681.738 514.117L687.973 513.82C691.863 513.607 695.574 514.462 698.957 516.121L704.301 518.793L706.602 517.828L709.719 516.418C713.347 514.823 717.331 514.208 721.371 514.859L727.605 515.898C730.965 516.44 734.16 517.628 737.105 519.312L740.223 521.094L741.039 521.613L742.375 520.648L745.492 518.348C748.835 515.864 752.951 514.134 757.59 514.191H760.707L763.824 514.266C765.114 514.282 766.479 514.142 767.832 513.82L774.066 512.336C776.592 511.736 779.142 511.269 781.637 511.074L784.531 510.852L787.5 510.629C790.401 510.403 793.315 510.641 796.184 511.223L799.301 511.816L802.418 512.484C803.813 512.765 805.252 512.871 806.723 512.855H809.914L813.105 512.781C814.807 512.763 816.587 512.67 818.375 512.41L821.641 511.891L824.98 511.445C825.843 511.318 826.565 511.045 827.207 510.629L829.879 508.848L832.625 507.066C834.635 505.763 836.729 504.533 838.859 503.355L841.754 501.723L842.941 501.055L843.164 498.012L843.387 493.781L844.129 489.477C844.602 488.015 845.322 486.544 846.355 485.172C848.461 482.379 851.309 480.727 854.148 479.902L857.934 478.863L859.27 478.418L859.418 477.824L859.789 474.41C860.064 472.058 860.373 469.808 860.68 467.656L861.57 461.422C861.819 459.681 861.961 457.96 862.016 456.301L862.09 453.332L862.238 450.289L862.98 445.984C864.32 442.069 867.172 439.184 869.883 437.227L873.52 434.629L877.156 431.957C877.294 431.857 877.368 431.732 877.453 431.66L877.75 429.359L877.973 427.504L875.004 424.461L871.961 421.344C869.98 419.338 867.897 416.319 867.582 412.289C867.26 408.113 868.961 404.701 870.922 402.344L873.52 399.227L874.559 397.891L874.262 397.371L872.555 394.254C871.118 391.671 869.938 388.971 869.066 386.238L868.027 383.047L867.062 379.93C866.085 376.854 865.613 373.659 865.727 370.43L865.801 367.312L865.949 364.195C866.006 362.571 865.909 360.929 865.727 359.297L865.43 356.18L865.059 353.062C864.688 349.74 864.993 346.406 865.875 343.191L866.691 340.074L867.582 336.957C868.122 334.988 868.611 332.984 869.066 331.02L869.809 327.902L870.477 324.785C871.212 321.609 872.494 318.556 874.188 315.73L876.117 312.613L876.488 311.871L875.672 310.758L873.223 307.641C871.682 305.64 870.416 303.112 869.957 300.145C869.49 297.083 870.018 294.117 871.219 291.535L872.629 288.418L873.52 286.414L872.48 284.336L870.773 281.219C869.496 278.804 868.768 275.953 868.992 272.906C869.214 269.898 870.365 267.253 871.812 265.113L873.891 261.996L874.336 261.254L873.742 260.438L871.441 257.32C868.911 253.89 867.232 249.646 867.508 244.852L867.656 241.734L867.805 238.543C867.86 237.551 867.808 236.523 867.508 235.426L866.617 232.234L865.727 229.117C864.344 224.126 865.399 219.322 867.879 215.312L871.738 209.078L871.812 208.93L871.441 206.109L870.922 202.918C870.446 199.806 870.522 196.667 871.07 193.566L871.59 190.449L872.184 187.332C872.682 184.514 873.515 181.708 874.633 179.02L875.895 175.902L877.23 172.785L876.34 169.594L875.449 166.477C874.932 164.661 874.365 162.822 873.668 160.984L872.48 157.867L871.293 154.676C870.228 151.862 869.511 148.956 869.215 145.992L868.844 142.875L868.547 139.758C868.185 136.139 868.707 132.58 869.957 129.219L871.145 126.102L872.332 122.91C873.092 120.867 873.804 118.775 874.559 116.676L875.746 113.484L876.488 111.332L875.152 109.18L873.297 106.137C870.621 101.81 869.96 96.9062 871.219 92.1094L873.148 84.9844C873.333 84.2803 873.186 83.9733 873.148 83.8711L872.035 80.7539L870.848 77.5625C870.754 77.3151 870.576 77.0025 870.031 76.5977L864.242 72.293C862.058 70.6678 860.004 68.9881 858.156 67.2461L855.855 65.0938L853.555 62.8672C852.655 62.019 851.635 61.2968 850.512 60.7148L847.617 59.2305L844.797 57.7461C842.858 56.7436 840.951 55.8095 839.156 54.8516L836.559 53.4414L833.887 52.0312C830.716 50.3393 828.111 47.9362 826.094 45.0547L824.238 42.3828L822.383 39.7852C821.749 38.8786 821.042 38.1452 820.23 37.5586L815.184 33.8477C813.239 32.4414 811.26 30.935 809.32 29.2461L806.723 26.9453L806.203 26.5L804.941 27.2422L801.379 29.0234C797.359 31.0618 792.494 32.0625 787.5 30.3594L781.562 28.2812C781.241 28.1717 780.938 28.1207 780.523 28.207L777.332 28.9492L774.215 29.6172C771.028 30.3072 767.794 30.3935 764.566 29.9141L761.375 29.4688L758.258 29.0234C757.283 28.8789 756.296 28.8909 755.289 29.0977L752.172 29.6914L749.055 30.3594C745.653 31.0579 742.201 31.0331 738.812 30.2852L735.695 29.6172L732.578 28.875C731.542 28.6462 730.52 28.6075 729.535 28.7266L726.344 29.1719L723.227 29.543C720.831 29.842 718.43 30.001 716.027 30.0625L709.793 30.2109C705.618 30.3179 701.734 29.119 698.363 27.0938L695.246 25.1641L692.055 23.3086C690.783 22.5441 689.716 22.1389 688.863 21.9727L682.629 20.7852C680.797 20.4278 678.96 20.1002 677.137 19.8945L673.945 19.5977L672.609 19.375L669.715 22.8633Z" fill="#82B3FF"/>
</svg>
