<svg width="5" height="19" viewBox="0 0 5 19" fill="none" xmlns="http://www.w3.org/2000/svg">
<path d="M3.78913 17.6589C3.79695 17.681 3.70855 17.7122 3.69713 17.7383C3.64735 17.8477 3.5833 17.8882 3.52789 17.9872C3.451 18.1339 3.40244 18.5694 2.98727 18.5694C2.98726 18.5694 2.98725 18.5694 2.98724 18.5694C2.9831 18.5694 2.97892 18.5693 2.97469 18.5693C2.89483 18.5677 2.81033 18.5307 2.71778 18.5252C2.62515 18.5197 2.02994 18.5238 1.98395 18.4712C1.92077 18.395 2.05117 18.212 2.03995 18.1713C2.03051 18.1435 1.96315 18.1093 1.94546 18.0737C1.88755 17.959 1.92808 17.899 1.72358 17.7957C1.81142 17.7544 1.90245 17.7131 1.99659 17.6718C1.94171 17.6178 2.0652 17.5361 2.05464 17.5034C2.04537 17.4765 1.96036 17.4608 1.95245 17.4328C1.94291 17.4013 2.02814 17.3531 2.00769 17.296C1.97455 17.2023 1.74176 17.1856 1.70187 17.1294C1.65992 17.0712 1.77482 16.9805 1.67765 16.9062C1.64928 16.8968 1.62078 16.8875 1.59213 16.8782C1.53244 16.8849 1.47298 16.8915 1.41376 16.8982C1.37706 16.8608 1.49893 16.8447 1.49464 16.8102C1.48965 16.7698 1.36435 16.7491 1.35882 16.7218C1.35437 16.6995 1.44646 16.6693 1.43473 16.6403C1.41791 16.5981 1.27577 16.6073 1.2436 16.5846C1.23152 16.5756 1.11141 16.4081 1.10755 16.3986C1.08429 16.3267 1.28937 16.3205 1.29648 16.2632C1.31628 16.1042 1.11209 15.9411 1.01138 15.794C0.966966 15.7284 0.965062 15.6599 0.988524 15.5944C1.5893 15.6975 2.01796 15.4693 1.10641 15.5547C1.22528 15.4818 0.964466 15.4302 0.99359 15.3611C1.01314 15.3165 1.1398 15.2856 1.12595 15.2218C1.1026 15.1087 0.689337 14.9849 1.39006 14.9523C1.24676 14.8195 1.49659 14.7045 0.847589 14.6566C0.801668 14.6223 1.17318 14.5346 1.2221 14.4962C1.2657 14.4598 1.41368 14.1811 1.42068 14.1354C1.4263 14.0898 1.43016 14.01 1.36661 13.9716C1.2896 13.9234 0.568895 13.8896 1.39695 13.8037C1.32011 13.7038 1.34003 13.6682 1.43148 13.5753C1.44801 13.5585 1.57468 13.5566 1.57412 13.5468C1.57276 13.5266 1.47627 13.4921 1.46193 13.456C1.43825 13.3966 1.70628 13.3627 1.2939 13.3693C1.22134 13.3301 1.14828 13.2909 1.07475 13.2518C1.15372 13.238 1.23291 13.2243 1.31232 13.2105C1.2229 13.1896 1.13315 13.1686 1.04306 13.1477C1.65099 13.1723 1.28223 13.0249 0.936178 13.0728C1.05457 12.9968 1.17495 12.9209 1.29715 12.8449C1.9993 12.8555 1.36893 12.6782 0.98352 12.6931C0.983338 12.6845 0.983161 12.6758 0.982987 12.6671C1.16531 12.591 1.0053 12.5211 1.12616 12.4284C1.24781 12.3357 1.31868 12.3444 1.64877 12.3162C1.62884 12.2944 1.60887 12.2726 1.58884 12.2508C0.668566 12.1363 2.25558 12.1565 1.54352 11.9605C2.12154 11.8978 1.81409 11.7435 1.63175 11.6411C1.61067 11.6292 1.4966 11.629 1.46079 11.6131C1.37446 11.5743 1.51802 11.4753 1.14825 11.4787C1.25367 11.4445 1.35948 11.4102 1.46567 11.3759C1.39723 11.3479 1.32864 11.3199 1.2599 11.2919C1.14377 11.2921 1.02765 11.2922 0.91152 11.2923C1.30474 11.236 1.14942 11.1473 1.24277 11.1036C1.26175 11.0949 1.42275 11.0931 1.46595 11.066C1.51727 11.0344 1.46787 10.9755 1.51741 10.9379C1.33786 10.9232 1.15812 10.9086 0.978202 10.894C0.87818 10.8266 1.35165 10.803 1.38765 10.7634C1.39387 10.7563 1.35652 10.6264 1.34619 10.6194C1.26432 10.5621 0.858288 10.5783 0.940711 10.4126C0.955685 10.3831 1.09613 10.3593 1.10122 10.3326C1.1105 10.2855 0.786967 10.1435 0.489994 10.1323C0.859645 10.0752 0.705169 9.92228 0.811981 9.87724C0.844837 9.86365 1.08182 9.86058 1.13183 9.8188C1.17263 9.78493 0.981774 9.6977 1.01322 9.65474C1.04748 9.60914 1.24688 9.59286 1.26087 9.57243C1.27389 9.55313 1.11272 9.53534 1.11352 9.50903C1.11874 9.42692 1.378 9.35256 1.38277 9.28767C1.38285 9.28668 1.38288 9.28568 1.38285 9.28469C1.38021 9.19206 0.911127 9.11007 0.702172 9.03237C0.733226 9.01288 0.835711 8.99373 0.836804 8.97329C0.853679 8.72049 0.946593 8.43532 1.05409 8.18176C1.10414 8.06406 1.74958 7.77134 0.683106 7.84947C0.498564 7.80856 0.93949 7.51113 0.947787 7.45455C0.956513 7.398 0.770043 7.35316 0.769703 7.3087C0.769007 7.17454 0.90832 7.08007 0.75646 6.91676C0.716739 6.87459 0.500394 6.82939 0.504983 6.80442C0.510984 6.77433 0.725166 6.74195 0.741275 6.70298C0.777971 6.61007 0.722315 6.43693 0.765888 6.3478C0.774265 6.33153 0.957355 6.32581 1.016 6.30254C1.24492 6.2119 1.23132 6.1103 0.653095 6.12828C0.990895 6.0121 0.702124 5.90464 0.696227 5.79698C0.684127 5.56933 0.857675 5.15467 0.658411 4.95636C0.533007 4.83132 0.296375 4.83451 0.530602 4.65041C0.582321 4.60955 0.649337 4.56886 0.710159 4.51929C0.85529 4.40311 1.2883 4.29652 0.795389 4.20797C0.94565 4.07893 0.873149 3.97616 1.30532 3.88042C1.20626 3.86913 1.10754 3.85784 1.00916 3.84656C1.00915 3.83074 1.00916 3.81492 1.0092 3.7991C1.10502 3.79416 1.2007 3.78923 1.29623 3.78429C1.33432 3.67096 0.973394 3.52717 0.995173 3.43124C1.02868 3.2704 1.24557 2.85612 1.38147 2.70361C1.45361 2.62264 1.27947 2.61828 1.647 2.57192C1.62433 2.55381 1.60187 2.5357 1.57961 2.51759C1.50296 2.50625 1.42672 2.49492 1.35086 2.48359C1.3672 2.3797 1.50683 2.25649 1.52171 2.15753C1.54598 1.97719 1.41051 1.7064 1.5696 1.52531C1.60919 1.4799 1.75329 1.42314 1.7588 1.37868C1.76712 1.31396 1.55398 1.29823 1.56876 1.21611C1.59794 1.07456 1.88138 0.810964 1.88485 0.677179C1.88716 0.637444 1.82266 0.618904 1.82124 0.591467C1.81497 0.476416 1.8386 0.381959 1.7706 0.271639C1.95697 0.153184 2.14794 0.163417 2.34861 0.126707C2.50156 0.0988863 2.83227 0.0135779 2.9521 0.00146792C3.03758 -0.00703861 3.15627 0.024722 3.2503 0.0128018C3.36328 0.154721 3.29659 0.214344 3.16749 0.329584C3.21347 0.542401 3.25921 0.755218 3.30459 0.968035C3.23844 0.987397 3.1713 1.00676 3.10317 1.02612C3.10302 1.02612 3.10287 1.02612 3.10271 1.02612C3.03043 1.10785 3.21943 1.14249 3.27001 1.18657C3.76759 1.60855 3.59748 2.43909 3.57095 2.90365C3.56945 3.00376 3.7522 3.3294 3.59095 3.39809C3.54883 3.41587 3.38765 3.42082 3.3823 3.43974C3.49427 3.60878 3.61107 3.77782 3.73198 3.94686C3.50187 4.29447 3.75433 4.65384 3.83487 5.0041C4.04108 5.95174 4.27727 6.88993 4.26098 7.82206C4.25722 8.0022 4.42422 8.23081 4.32485 8.40717C4.28368 8.48077 3.93971 8.51144 4.19807 8.60813C4.10522 8.60915 4.01236 8.61016 3.9195 8.61118C4.0327 8.69556 4.24504 8.74948 4.26764 8.84409C4.28644 8.92375 4.30162 9.13453 4.266 9.20493C4.24826 9.24145 4.07413 9.22784 4.07503 9.26188C4.07536 9.26865 4.0789 9.27631 4.08489 9.28469C4.13054 9.34849 4.31831 9.45403 4.31783 9.52511C4.3174 9.59796 4.1159 9.72079 4.14428 9.7768C4.24521 9.97851 4.53625 10.1982 4.4502 10.4132C4.42593 10.4726 4.20023 10.5489 4.20594 10.5675C4.21781 10.6039 4.43394 10.6147 4.46082 10.6391C4.59646 10.763 4.33149 10.9562 4.31608 11.0777C4.26535 11.4736 4.33056 11.8929 4.26081 12.2871C4.21867 12.5361 4.21411 12.95 4.04468 13.1799C4.00828 13.2294 3.79626 13.2162 3.79296 13.2579C3.78943 13.304 3.93041 13.329 3.9399 13.3506C4.00868 13.4999 4.11056 13.8295 3.95402 13.9705C3.92411 13.9973 3.76434 14.0168 3.76339 14.0329C3.76263 14.041 3.8681 14.0594 3.87616 14.0849C3.94745 14.3105 3.86399 14.475 3.80263 14.696C3.68973 15.1193 3.79325 15.6097 3.6312 16.0544C3.5961 16.1513 3.34377 16.2177 3.3451 16.2314C3.34647 16.2613 3.5062 16.2804 3.53607 16.341C3.63113 16.5423 3.42168 16.8134 3.46265 17.0049C3.48237 17.0995 3.63048 17.2295 3.64437 17.3226C3.65584 17.397 3.54994 17.5726 3.61146 17.6055C3.64845 17.6256 3.77986 17.6349 3.78913 17.6589ZM1.27157 15.1539C1.59845 15.1671 1.30953 15.0279 1.14033 15.0801C1.10267 15.0919 1.18693 15.1504 1.27157 15.1539ZM1.59692 8.63498C1.47359 8.63625 1.35025 8.63753 1.22691 8.6388C1.278 8.65708 1.32912 8.67535 1.38028 8.69363C1.45456 8.68336 1.52882 8.67309 1.60306 8.66282C1.60101 8.65354 1.59896 8.64426 1.59692 8.63498Z" fill="black"/>
</svg>
