<svg width="58" height="52" viewBox="0 0 58 52" fill="none" xmlns="http://www.w3.org/2000/svg">
<path d="M46.5949 39.4752C46.7633 39.6262 46.8969 39.8055 46.988 40.0027C47.0791 40.2 47.126 40.4114 47.126 40.6249C47.126 40.8384 47.0791 41.0499 46.988 41.2471C46.8969 41.4444 46.7633 41.6236 46.5949 41.7746C46.4265 41.9256 46.2266 42.0454 46.0065 42.1271C45.7865 42.2088 45.5507 42.2508 45.3125 42.2508C45.0744 42.2508 44.8386 42.2088 44.6185 42.1271C44.3985 42.0454 44.1986 41.9256 44.0302 41.7746L29 28.2973L13.9699 41.7746C13.6298 42.0795 13.1685 42.2508 12.6875 42.2508C12.2066 42.2508 11.7453 42.0795 11.4052 41.7746C11.0651 41.4697 10.874 41.0561 10.874 40.6249C10.874 40.1937 11.0651 39.7802 11.4052 39.4752L26.4376 25.9999L11.4052 12.5246C11.0651 12.2197 10.874 11.8061 10.874 11.3749C10.874 10.9437 11.0651 10.5302 11.4052 10.2252C11.7453 9.92032 12.2066 9.74902 12.6875 9.74902C13.1685 9.74902 13.6298 9.92032 13.9699 10.2252L29 23.7026L44.0302 10.2252C44.3703 9.92032 44.8316 9.74902 45.3125 9.74902C45.7935 9.74902 46.2548 9.92032 46.5949 10.2252C46.935 10.5302 47.126 10.9437 47.126 11.3749C47.126 11.8061 46.935 12.2197 46.5949 12.5246L31.5625 25.9999L46.5949 39.4752Z" fill="black"/>
<path d="M13.4365 8.70215C13.6014 8.75474 13.748 8.82842 13.874 8.9209L14.1943 9.2334L14.4443 9.55371L14.6943 9.86621C14.7184 9.8964 14.7529 9.91726 14.8271 9.93652L15.2334 10.0459L15.6396 10.1475C16.1079 10.2689 16.5242 10.531 16.8271 10.9365L17.0537 11.2412L17.2881 11.5459C17.3494 11.6278 17.4256 11.6908 17.5225 11.7412L17.8662 11.9209L18.2021 12.1006C18.5716 12.293 18.8837 12.5645 19.124 12.9053L19.3506 13.2178L19.5693 13.5303C19.6472 13.6407 19.7369 13.7331 19.8428 13.8037L20.1631 14.0146L20.4756 14.2256C20.9295 14.5292 21.1899 14.977 21.3115 15.46L21.4287 15.8975L21.5225 16.2803L21.7881 16.3975L22.1631 16.5459C22.4101 16.6467 22.6595 16.7483 22.9053 16.8506L23.2725 17.0068L23.6396 17.1553C24.0732 17.3364 24.4306 17.6354 24.6787 18.0381L24.8818 18.374L25.085 18.7021C25.2302 18.9378 25.3713 19.1833 25.5068 19.4287L25.7021 19.7725L25.8896 20.124C25.9137 20.1675 25.9368 20.1844 25.9756 20.2021L26.6943 20.5303C27.0877 20.708 27.424 20.9752 27.6787 21.3271L27.9053 21.6396L28.124 21.9443C28.174 22.0134 28.24 22.0668 28.3271 22.1084L28.5615 22.2178L28.6006 22.1631C28.8269 21.7834 29.1525 21.5051 29.5225 21.3193L29.874 21.1475L30.2178 20.9756C30.2941 20.9373 30.3512 20.8884 30.3975 20.8193L30.6084 20.4912L30.8271 20.1709C31.0103 19.8959 31.2224 19.6459 31.46 19.4209L31.7256 19.1631L31.999 18.9053C32.3402 18.5822 32.7609 18.3893 33.2021 18.3037L33.6318 18.2256L34.0615 18.1396C34.1943 18.1134 34.2538 18.0702 34.2803 18.0459L34.5537 17.7959L34.8271 17.5381C34.9621 17.4141 35.0886 17.278 35.2021 17.124L35.4287 16.8115L35.6553 16.5068C35.7991 16.3114 35.9394 16.108 36.0771 15.9053L36.2959 15.585L36.5146 15.2725C36.7459 14.932 37.0457 14.6529 37.4053 14.4521L37.749 14.2646L38.085 14.0771C38.3513 13.9291 38.6294 13.7976 38.9209 13.6865L39.2959 13.5459L39.6709 13.3975C39.7268 13.3762 39.7525 13.3581 39.7725 13.3271L40.1943 12.6709C40.3677 12.3996 40.5608 12.1428 40.7803 11.9131L41.0381 11.6475L41.3037 11.374C41.5313 11.1361 41.7841 10.9281 42.0615 10.749L42.3818 10.5381L42.6943 10.335C42.7877 10.2747 42.8836 10.1914 42.9678 10.0693L43.1943 9.7334L43.4287 9.39746L43.749 9.0459C43.882 8.93881 44.0413 8.84367 44.2334 8.78809C44.4305 8.73113 44.6214 8.72594 44.7959 8.74902L45.2646 8.88965L45.6162 9.06152L45.9678 9.22559C46.2739 9.37155 46.5903 9.57645 46.8271 9.87402L46.9912 10.0771L47.1475 10.2803C47.3491 10.5345 47.4954 10.8385 47.6006 11.1396L47.7256 11.499L47.8506 11.8662C47.9446 12.1356 47.988 12.4518 47.9053 12.7803C47.8223 13.1081 47.6384 13.3693 47.4287 13.5615L47.1396 13.8193L46.8506 14.085C46.6131 14.3019 46.3581 14.497 46.085 14.6631L45.7568 14.8584L45.4365 15.0537C45.221 15.1848 45.003 15.3204 44.7881 15.4521L44.46 15.6553L44.1318 15.8506C44.1177 15.8594 44.0908 15.8791 44.0615 15.9521L43.9131 16.3428L43.7568 16.7334C43.5116 17.3531 42.9922 17.7195 42.374 17.8115L41.9287 17.8818L41.4834 17.9443C41.471 17.9462 41.4597 17.9425 41.4521 17.9443L41.249 18.2334L41.0225 18.5381C40.7938 18.8502 40.5099 19.1114 40.1787 19.3115L39.5225 19.7021C39.4458 19.7485 39.3817 19.8158 39.3271 19.9053L39.124 20.2334L38.9209 20.5693C38.7191 20.9002 38.4614 21.1848 38.1475 21.4131L37.8428 21.6396L37.5381 21.8584C37.3926 21.9642 37.26 22.0836 37.1396 22.2178L36.8896 22.499L36.6318 22.7803C36.3595 23.0841 36.0295 23.3119 35.6553 23.4678L35.2881 23.624L34.96 23.7568L34.8271 24.1475L34.6787 24.5459C34.4694 25.1312 34.0179 25.5414 33.4131 25.6865L33.3037 25.7021L33.6084 25.8584C34.0149 26.0683 34.3387 26.3847 34.5615 26.7803L34.7568 27.1318L34.9521 27.4756C35.0611 27.6692 35.1782 27.8537 35.3037 28.0225L35.7568 28.6318C35.8383 28.7414 35.9348 28.8331 36.0459 28.9053L36.3662 29.1084L36.6865 29.3193C36.8856 29.4483 37.0893 29.5732 37.2959 29.6943L37.9521 30.085C38.2479 30.2584 38.5184 30.4654 38.7568 30.71L39.0225 30.9756L39.2803 31.249C39.4689 31.4425 39.6572 31.6377 39.835 31.8428L40.0771 32.1318L40.3271 32.4131C40.4076 32.5059 40.5048 32.5848 40.624 32.6475L41.3115 33.0068C41.7335 33.2274 42.0544 33.5649 42.2646 33.9834L42.4443 34.3428L42.624 34.71C42.629 34.7196 42.6382 34.7236 42.6396 34.7256C42.6418 34.7268 42.6471 34.7301 42.6553 34.7334L43.0225 34.8818L43.3975 35.0303C43.8949 35.2283 44.2695 35.596 44.4834 36.0771L44.6475 36.4521L44.8037 36.8193L45.1787 36.9678L45.5459 37.1084C46.0082 37.2883 46.3802 37.6109 46.624 38.0459L46.8193 38.3896L46.9209 38.5771C47.106 38.652 47.2342 38.7623 47.3115 38.8506C47.466 39.0273 47.5273 39.2173 47.5459 39.2803C47.5923 39.4385 47.6077 39.6068 47.6162 39.7256L47.6631 40.3662C47.6892 40.7302 47.6319 41.0942 47.4834 41.4365L47.3662 41.7178L47.2412 41.9912C47.0268 42.4846 46.6197 42.7833 46.2021 42.9443L45.8428 43.085L45.4834 43.2178C44.9384 43.4275 44.3781 43.3602 43.8975 43.0615L43.5615 42.8506L43.2178 42.6396C42.8229 42.3938 42.5212 42.0514 42.3271 41.6318L42.1553 41.2568L41.9834 40.8896C41.9786 40.8793 41.978 40.8699 41.9756 40.8662C41.9754 40.8661 41.9675 40.8617 41.96 40.8584L41.6006 40.7021L41.2334 40.5459C40.9111 40.4066 40.6116 40.2272 40.3428 40.0068L40.0537 39.7725L39.7646 39.5303C39.5534 39.3571 39.3462 39.1785 39.1475 38.9912L38.6006 38.4756C38.4697 38.3524 38.3293 38.237 38.1709 38.1396L37.8428 37.9443L37.5146 37.7412C37.1718 37.5299 36.891 37.2495 36.6709 36.9131L36.4521 36.5928L36.2412 36.2646C36.1395 36.1093 36.029 35.9704 35.9053 35.8506L35.6318 35.5928L35.3584 35.3271C35.1508 35.1262 34.9557 34.9125 34.7725 34.6865L34.5303 34.3896L34.2959 34.0928C34.2004 33.9749 34.0857 33.8792 33.96 33.7959L33.6475 33.585L33.3271 33.374C33.1717 33.2712 32.9993 33.1797 32.8115 33.1006L32.4443 32.9443L32.085 32.7959C31.7259 32.6447 31.3974 32.4263 31.124 32.1475L30.8662 31.8818L30.6006 31.6084C30.4353 31.4399 30.2643 31.2777 30.0928 31.1162L29.5459 30.6006C29.3516 30.4177 29.1667 30.2251 28.9834 30.0303C28.6918 30.3121 28.336 30.472 27.9912 30.5537L27.5771 30.6553L27.1631 30.749C27.1424 30.7539 27.1241 30.7614 27.1162 30.7646L27.1084 30.7725V30.7646L26.8896 31.085L26.6709 31.3975C26.5561 31.5609 26.4458 31.7393 26.3506 31.9365L26.1787 32.3037L25.999 32.6709C25.7611 33.1613 25.3576 33.5116 24.8428 33.6787L24.0615 33.9287C23.9978 33.9495 23.9813 33.9721 23.9678 33.9912L23.7412 34.3115L23.5225 34.624C23.2944 34.9515 23.0069 35.2255 22.6631 35.4287L22.335 35.6162L22.0068 35.8115C21.9823 35.826 21.9538 35.8536 21.9209 35.9287L21.749 36.3037L21.585 36.6787C21.3082 37.3113 20.7521 37.6347 20.1396 37.6943L19.6709 37.7412L19.2178 37.7803L19.0537 38.0381L18.8428 38.3584C18.6622 38.6303 18.4566 38.8828 18.2256 39.1084L17.9521 39.3662L17.6865 39.6318C17.5194 39.795 17.3548 39.9611 17.1943 40.1318L16.9365 40.4131L16.6787 40.6865C16.5122 40.8637 16.3414 41.0441 16.1787 41.2256L15.9287 41.5068L15.6787 41.7803C15.4661 42.0174 15.226 42.2338 14.9678 42.4287L14.6553 42.6709L14.3428 42.9053C14.1188 43.074 13.8347 43.2081 13.499 43.2334C13.1603 43.2589 12.8522 43.1657 12.6006 43.0225L11.9443 42.6475C11.8163 42.5746 11.6473 42.5067 11.4287 42.4521L10.5537 42.2334C10.3442 42.181 9.81243 42.0126 9.60059 41.4443C9.38588 40.8622 9.69252 40.3806 9.82715 40.2021L10.1006 39.8506L10.3662 39.499C10.6022 39.1877 10.8782 38.9108 11.2021 38.7021L11.5146 38.499L11.8037 38.3037C11.8088 38.2925 11.8274 38.2778 11.835 38.249L11.9443 37.8115L12.0615 37.3818C12.1758 36.9486 12.3853 36.5409 12.7256 36.2178L13.2725 35.7021C13.6595 35.3351 14.1424 35.1689 14.624 35.1318L15.1006 35.1006L15.4678 35.0693L15.5771 34.8584L15.7568 34.499C15.9766 34.0558 16.3311 33.7117 16.7881 33.5068L17.1396 33.3428L17.4756 33.1865L17.7725 32.3896L17.9678 31.999C18.2082 31.636 18.5693 31.3797 19.0146 31.2646L19.4287 31.1631L19.835 31.0537C19.9831 31.0153 20.0809 30.9602 20.1475 30.9053L20.4365 30.6709L20.7256 30.4287C20.7293 30.4256 20.7394 30.4211 20.749 30.4053C20.7606 30.3858 20.779 30.345 20.7959 30.2803L20.9053 29.8428L21.0225 29.4053C21.1325 28.9774 21.332 28.5757 21.6553 28.249L21.9209 27.9756L22.1865 27.71C22.5023 27.3924 22.8906 27.1887 23.3115 27.0771L24.124 26.8584L24.1396 26.8506L24.335 26.5303L24.5381 26.1943C24.6126 26.071 24.6619 25.9604 24.71 25.874L24.5146 25.7412C24.2197 25.5455 23.9565 25.3053 23.7334 25.0303L23.499 24.7412L23.2568 24.4443C23.1788 24.3482 23.0889 24.2657 22.9756 24.2021L22.3037 23.8271C21.903 23.6032 21.5917 23.2752 21.3818 22.874L21.0068 22.1709C20.9189 22.0029 20.8194 21.8561 20.71 21.7334L20.21 21.1709C20.0681 21.0119 19.9223 20.8581 19.7646 20.7178L19.4834 20.4756L19.2021 20.2256C19.1044 20.1386 18.9826 20.0598 18.835 19.999L18.4678 19.8506L18.1006 19.6943C17.8319 19.5836 17.566 19.4644 17.3115 19.335L16.9678 19.1631L16.624 18.9834C16.2474 18.7919 15.9281 18.5183 15.6865 18.1709L15.4678 17.8584L15.249 17.5381C15.1709 17.426 15.0802 17.3371 14.9756 17.2646L14.6631 17.0459L14.3506 16.835C13.9389 16.5522 13.6717 16.1504 13.5225 15.7021L13.3818 15.2881L13.249 14.8818C13.243 14.8637 13.2366 14.849 13.2334 14.8428V14.835L12.9053 14.6709L12.5693 14.4912C12.3702 14.3847 12.1602 14.2857 11.9443 14.1943L11.21 13.8818C10.6502 13.6438 10.2802 13.1713 10.1943 12.5615L10.085 11.7803C10.0253 11.3478 10.0773 10.9079 10.2803 10.499L10.4365 10.1865L10.5928 9.86621L10.8115 9.53809C11.055 9.23819 11.3809 9.03681 11.7412 8.92871L12.1162 8.81152L12.499 8.70215L12.9443 8.63184C13.1032 8.62826 13.2692 8.64893 13.4365 8.70215ZM12.6943 10.7334L12.3506 10.8271L12.2334 11.0771L12.0771 11.3896C12.073 11.3981 12.0578 11.424 12.0693 11.5068L12.124 11.8975L12.1475 12.1084L12.3584 12.1943L12.7256 12.3506C12.9943 12.4643 13.2541 12.5906 13.5068 12.7256L13.8506 12.9053L14.1943 13.0928L14.5225 13.3115C14.8201 13.5599 15.027 13.8856 15.1475 14.249L15.2803 14.6631L15.4209 15.0693C15.4531 15.1663 15.4806 15.1846 15.4834 15.1865L15.7959 15.3975L16.1084 15.6162C16.4158 15.8281 16.6763 16.0908 16.8896 16.3975L17.1084 16.71L17.335 17.0303C17.3864 17.1036 17.4465 17.1595 17.5303 17.2021L17.874 17.374L18.2178 17.5537C18.4241 17.6586 18.645 17.7595 18.8662 17.8506L19.6006 18.1475C19.9424 18.2883 20.2551 18.4811 20.5303 18.7256L21.0928 19.2256C21.3083 19.4174 21.5094 19.6267 21.7021 19.8428L22.2021 20.4053C22.4274 20.6577 22.6208 20.9366 22.7803 21.2412L22.9678 21.5928L23.1553 21.9521C23.1926 22.0228 23.234 22.0591 23.2803 22.085L23.6084 22.2725L23.9443 22.46C24.2775 22.6461 24.5711 22.8901 24.8115 23.1865L25.0537 23.4756L25.2881 23.7725C25.3838 23.8904 25.4982 23.9937 25.624 24.0771L25.9365 24.2881L26.249 24.4912C26.4189 24.6038 26.6561 24.7929 26.8037 25.085C26.9808 25.4365 26.9802 25.8416 26.8037 26.1943L26.7021 26.4053L26.5928 26.6162C26.5062 26.7889 26.3887 26.9941 26.249 27.2256L25.8428 27.8975C25.5631 28.3608 25.1336 28.6629 24.6318 28.7959L24.2256 28.8975L23.8193 29.0068C23.7 29.0386 23.6369 29.0797 23.6006 29.1162L23.3428 29.3896L23.0771 29.6553C23.0486 29.6841 22.9995 29.7517 22.96 29.9053L22.8428 30.335L22.7334 30.7725C22.6167 31.2262 22.386 31.6565 21.999 31.9756L21.71 32.21L21.4209 32.4521C21.102 32.7151 20.7309 32.8889 20.335 32.9912L19.9209 33.1006L19.6084 33.1709L19.499 33.4834L19.3584 33.8818C19.176 34.3779 18.8249 34.7802 18.3193 35.0068L17.96 35.1709L17.6006 35.3271C17.5869 35.3333 17.5805 35.3399 17.5771 35.3428C17.575 35.3449 17.5661 35.3575 17.5537 35.3818L17.374 35.749L17.1943 36.1084C16.8888 36.7246 16.3126 37.0162 15.7178 37.0615L15.249 37.0928L14.7803 37.1318C14.7055 37.1375 14.6628 37.1492 14.6475 37.1553L14.1006 37.6709C14.0774 37.6937 14.0359 37.7511 13.999 37.8896L13.8818 38.3271L13.7646 38.7568C13.6381 39.2365 13.3732 39.6871 12.9131 39.9834L12.6006 40.1865L12.2803 40.3896C12.2197 40.4291 12.1642 40.494 12.0928 40.5693C12.3886 40.6557 12.6695 40.7657 12.9287 40.9131L13.2646 41.1006L13.3428 41.1475L13.4521 41.0693L13.7646 40.835C13.9229 40.7155 14.0641 40.5883 14.1865 40.4521L14.4443 40.1709L14.6943 39.8896C14.8674 39.6966 15.0406 39.5001 15.2178 39.3115L15.7334 38.7646C15.914 38.5725 16.0999 38.386 16.2881 38.2021L16.5615 37.9365L16.8271 37.6709C16.9535 37.5472 17.074 37.4066 17.1787 37.249L17.6006 36.6084L17.8975 36.2725C18.2167 35.9844 18.6163 35.8351 19.0225 35.7959L19.4834 35.749L19.8193 35.7178L19.9209 35.499L20.085 35.124C20.2719 34.6969 20.5705 34.3376 20.9834 34.0928L21.3193 33.8975L21.6475 33.7021C21.741 33.6465 21.8171 33.576 21.8818 33.4834L22.1006 33.1631L22.3193 32.8506C22.5987 32.4492 22.9917 32.1776 23.4443 32.0303L23.835 31.8975L24.21 31.7725L24.374 31.4365L24.5537 31.0693C24.6932 30.7804 24.8506 30.5051 25.0303 30.249L25.2568 29.9365L25.4756 29.6162C25.7793 29.1845 26.2156 28.919 26.7021 28.8037L27.1162 28.71L27.5303 28.6084C27.5644 28.6003 27.5848 28.5831 27.6006 28.5771L27.7646 28.3818L27.9521 28.1475L28.3584 27.7959C28.5371 27.6964 28.76 27.6282 29.0225 27.6475C29.4679 27.681 29.7646 27.9505 29.9131 28.1084L30.4287 28.6553C30.5864 28.8233 30.7538 28.9902 30.9209 29.1475L31.1943 29.3975L31.4678 29.6553C31.6594 29.8356 31.8458 30.0218 32.0303 30.21L32.2959 30.4834L32.5537 30.749C32.6311 30.828 32.73 30.8981 32.8584 30.9521L33.2256 31.1006L33.5928 31.2568C33.8904 31.3823 34.1724 31.5348 34.4365 31.71L34.749 31.9209L35.0693 32.124C35.3648 32.3199 35.6273 32.5594 35.8506 32.835L36.085 33.1318L36.3271 33.4287C36.4599 33.5923 36.6005 33.7458 36.749 33.8896L37.0225 34.1553L37.2881 34.4131C37.5229 34.6401 37.7323 34.8947 37.9131 35.1709L38.1318 35.499L38.3428 35.8193C38.4044 35.9136 38.4744 35.984 38.5615 36.0381L38.8896 36.2412L39.2178 36.4365C39.4911 36.6045 39.7434 36.8037 39.9756 37.0225L40.5225 37.5381C40.6864 37.6924 40.856 37.8405 41.0303 37.9834L41.3193 38.2256L41.6162 38.46C41.7333 38.5557 41.8701 38.6409 42.0303 38.71L42.3896 38.8662L42.7568 39.0225C43.2325 39.2281 43.5903 39.5912 43.8037 40.0537L43.9756 40.4209L44.1396 40.7881C44.1734 40.8612 44.2158 40.9089 44.2725 40.9443L44.6162 41.1553L44.8662 41.3115L45.124 41.2178L45.4521 41.085L45.5303 40.9209L45.6475 40.6396C45.6591 40.6128 45.6673 40.5774 45.6631 40.5146L45.6475 40.2256C45.5958 40.1753 45.5473 40.1393 45.5225 40.1084C45.427 39.9896 45.3438 39.8449 45.2725 39.7178L45.0771 39.3662L44.8818 39.0225C44.8706 39.0025 44.8605 38.993 44.8584 38.9912C44.854 38.988 44.8445 38.9825 44.8271 38.9756L44.4521 38.8271L44.0771 38.6865C43.5755 38.4913 43.1988 38.1239 42.9834 37.6396L42.6553 36.8896L42.2881 36.7412L41.9131 36.5928C41.4362 36.4027 41.0717 36.0574 40.8428 35.6006L40.6553 35.2412L40.4756 34.8818C40.4452 34.8216 40.4162 34.7982 40.3818 34.7803L40.0459 34.6006L39.7021 34.4209C39.3657 34.245 39.0682 34.0123 38.8193 33.7256L38.5693 33.4365L38.3193 33.1553C38.1671 32.9797 38.0117 32.8049 37.8506 32.6396L37.585 32.374L37.3271 32.1006C37.2161 31.987 37.0881 31.888 36.9443 31.8037L36.6162 31.6162L36.2803 31.4209C36.0495 31.2855 35.8237 31.1435 35.6006 30.999L35.2803 30.7881L34.96 30.585C34.647 30.3821 34.3779 30.1265 34.1553 29.8271L33.9287 29.5225L33.6943 29.21C33.5171 28.9712 33.3586 28.7166 33.21 28.4521L32.8193 27.7646C32.7839 27.7015 32.7452 27.6662 32.6943 27.6396L32.0068 27.2803C31.5778 27.0587 31.1749 26.6654 31.085 26.0615L31.0381 25.7568L30.999 25.46C30.9455 25.1003 31.0268 24.6993 31.3193 24.3818C31.5713 24.109 31.8936 23.9918 32.124 23.9365L32.5381 23.8428L32.8271 23.7646L32.9443 23.4756L33.085 23.0693C33.2678 22.5587 33.6303 22.1473 34.1553 21.9287L34.5225 21.7803L34.8896 21.624C35.0027 21.5766 35.0849 21.5142 35.1475 21.4443L35.6475 20.8818C35.8621 20.6423 36.1061 20.4303 36.3662 20.2412L36.6709 20.0225L36.9756 19.7959C37.0668 19.729 37.1485 19.6438 37.2178 19.5303L37.624 18.8584C37.8412 18.5031 38.133 18.2076 38.4912 17.9912L39.1475 17.6006C39.2502 17.5381 39.3328 17.457 39.4053 17.3584L39.6318 17.0459L39.8584 16.7412L40.1396 16.4365C40.4411 16.1727 40.8111 16.0248 41.1943 15.9678L41.6318 15.8975L41.9521 15.8506L42.0459 15.6084L42.2021 15.2178C42.3763 14.7783 42.6734 14.4046 43.0928 14.1475L43.4131 13.9443L43.7412 13.749C43.9589 13.6155 44.1791 13.4833 44.3975 13.3506L44.7178 13.1475L45.0459 12.9521C45.2069 12.8542 45.3631 12.7398 45.5068 12.6084L45.7881 12.3506L45.874 12.2646L45.835 12.1631L45.71 11.7959C45.6477 11.6176 45.5988 11.5409 45.585 11.5225L45.4209 11.3193L45.2646 11.1162C45.2793 11.1347 45.2813 11.1341 45.2568 11.1162C45.2305 11.0972 45.1824 11.0656 45.1084 11.0303L44.8193 10.8896L44.6162 11.2021C44.3931 11.5265 44.1117 11.8008 43.7803 12.0146L43.46 12.2178L43.1475 12.4287C43.0001 12.5238 42.8675 12.6329 42.749 12.7568L42.4834 13.0303L42.2256 13.2959C42.0986 13.4288 41.9801 13.583 41.874 13.749L41.6709 14.0771L41.46 14.4053C41.2008 14.8103 40.8253 15.1036 40.3818 15.2725L39.6318 15.5537C39.4251 15.6325 39.2334 15.7272 39.0537 15.8271L38.7178 16.0146L38.3818 16.1943C38.2959 16.2421 38.2279 16.3066 38.1709 16.3896L37.7334 17.0303C37.5817 17.2537 37.4313 17.4784 37.2725 17.6943L37.0459 17.999L36.8115 18.3115C36.6239 18.5659 36.4173 18.8025 36.1865 19.0146L35.9053 19.2646L35.6318 19.5225C35.2903 19.8362 34.8736 20.0158 34.4365 20.1006L33.5771 20.2725C33.4495 20.2978 33.3958 20.3378 33.374 20.3584L33.1006 20.6162L32.835 20.874C32.7097 20.9926 32.5939 21.1259 32.4912 21.2803L32.2725 21.6006L32.0615 21.9209C31.8224 22.2803 31.5014 22.5629 31.1162 22.7568L30.7646 22.9365L30.4209 23.1084C30.376 23.131 30.3491 23.151 30.335 23.1631C30.3225 23.1742 30.32 23.1854 30.3193 23.1865L30.1475 23.4678L29.9834 23.749C29.8208 24.0218 29.5338 24.2908 29.1162 24.3818C28.7334 24.4643 28.3982 24.3574 28.1709 24.249L27.8193 24.085L27.46 23.9131C27.0784 23.7304 26.756 23.4604 26.5068 23.1162L26.2803 22.8115L26.0537 22.499C26.0091 22.4377 25.9568 22.3883 25.874 22.3506L25.5146 22.1865L25.1553 22.0303C24.7182 21.833 24.371 21.5105 24.1396 21.0928L23.9443 20.7412L23.7568 20.3975C23.6366 20.1797 23.51 19.9648 23.3818 19.7568L23.1787 19.4209L22.9756 19.0928C22.9507 19.0524 22.9204 19.0216 22.8662 18.999L22.499 18.8506L22.1318 18.6943C21.8906 18.594 21.6478 18.4965 21.4053 18.3975L21.0381 18.249L20.6709 18.0928C20.0881 17.8549 19.7322 17.3793 19.5928 16.8271L19.4834 16.3896L19.374 15.9443L19.3506 15.874L19.0459 15.6787L18.7334 15.4678C18.4196 15.2585 18.154 14.9947 17.9365 14.6865L17.71 14.374L17.4912 14.0537C17.4363 13.9764 17.3677 13.9195 17.2803 13.874L16.5928 13.5146C16.2335 13.3271 15.9295 13.0665 15.6865 12.7412L15.4521 12.4365L15.2256 12.1318C15.2199 12.1242 15.2156 12.1199 15.21 12.1162C15.2031 12.1117 15.1835 12.0964 15.1396 12.085L14.7334 11.9834L14.3193 11.874C13.8497 11.7517 13.4402 11.4961 13.1318 11.1084L12.8818 10.7959L12.8037 10.6943L12.6943 10.7334ZM28.4756 29.499L28.4912 29.5068L28.46 29.4756C28.4621 29.4778 28.4642 29.4894 28.4756 29.499Z" fill="black"/>
</svg>
