<svg width="212" height="72" viewBox="0 0 212 72" fill="none" xmlns="http://www.w3.org/2000/svg">
<g filter="url(#filter0_d_701_20)">
<path d="M13 31.858C13 21.9953 20.9953 14 30.858 14H180.832C190.695 14 198.69 21.9953 198.69 31.858V31.858C198.69 41.7207 190.695 49.7161 180.832 49.7161H30.858C20.9953 49.7161 13 41.7207 13 31.858V31.858Z" fill="#FF6A6A"/>
<path d="M185.41 0.863281L186.449 1.23438L187.488 1.53125C189.179 2.08841 190.746 2.95462 192.164 4.05469L192.98 4.72266L193.871 5.31641C195.383 6.49237 196.413 7.91124 197.137 9.32422L198.473 13.4062V13.6289L198.844 13.8516L199.512 14.3711C202.334 16.3261 203.794 19.2595 204.113 22.3125C205.977 24.7357 206.803 27.7938 206.191 30.9961C206.803 32.6893 207.215 34.8079 206.637 37.1562C206.566 37.4416 206.356 37.7056 206.266 37.9727C206.938 39.4194 207.79 41.7684 207.23 44.5781C206.083 50.2617 201.228 52.0881 199.066 52.5195L197.805 52.7422L196.617 53.0391C196.107 53.14 195.845 53.1726 195.801 53.1875L194.168 53.7812C192.649 54.2903 191.137 54.3623 189.715 54.3008L189.344 54.7461C188.045 56.1734 186.449 57.4197 184.52 58.2344L183.703 58.6055L183.406 58.9023L182.59 59.793C180.981 61.4612 177.917 63.7635 173.609 63.5781L172.719 63.5039H171.902C169.915 63.4157 168.28 62.7125 166.93 61.9453C166.514 62.0457 166.126 62.3397 165.668 62.3906C162.178 62.7715 159.395 61.3076 157.727 59.9414L156.91 59.2734L156.465 58.9023C155.992 59.2413 155.555 59.6355 155.055 59.9414L154.164 60.4609L153.348 60.9805C151.5 62.1085 148.954 62.8604 146.148 62.4648C143.516 62.0843 141.59 60.8131 140.359 59.7188L139.543 59.0508C136.128 59.6965 133.522 58.6634 131.602 57.2695C130.441 58.7525 128.158 61.2386 124.18 61.5C122.02 61.639 120.315 60.9845 118.91 60.2383C118.419 60.3476 117.9 60.5717 117.352 60.6094C116.86 60.6417 116.396 60.4925 115.941 60.4609C114.834 61.3156 113.469 62.1977 111.637 62.5391C106.069 63.5584 102.59 59.8786 101.543 58.5312L100.652 57.418L100.281 56.8984L99.6875 56.6758C99.0617 56.3646 98.4431 55.9856 97.832 55.6367C97.1138 55.738 96.4134 55.7895 95.6797 55.7852L94.9375 56.75L94.1211 57.7891C92.8385 59.3187 89.2237 62.3627 84.0273 61.2031C82.1461 62.444 79.5028 63.6643 76.1602 62.9102L75.2695 62.6875L74.4531 62.4648C71.329 61.757 69.4079 59.841 68.4414 58.6797C66.4778 60.1918 63.5063 61.6514 59.7578 60.6836C57.427 62.0521 54.3099 62.9263 50.9258 61.6484L50.332 61.4258L49.8125 61.5C46.9542 61.69 44.4174 60.8468 42.4648 59.6445L41.6484 59.125L40.7578 58.6055C40.2075 58.2666 39.6752 57.901 39.125 57.5664L38.2344 57.0469L37.418 56.5273C36.8586 56.1872 36.3184 55.7929 35.7852 55.4141C34.68 55.9159 33.4054 56.2986 31.9258 56.4531L31.1094 57.1953C30.5359 57.7181 29.6089 58.511 28.3633 59.125C27.1279 59.7322 24.9207 60.4555 22.2031 60.0156C15.9317 58.9935 14.258 53.4419 13.9648 52.2969L13.8164 51.7773C12.0301 51.2157 9.82475 50.2116 8.25 47.7695C5.85371 44.0437 6.7182 40.2974 7.13672 38.9375L7.21094 38.7148C6.67752 36.9929 6.4146 35.2104 6.69141 33.4453L6.76562 33.0742L6.46875 32.7773C5.64385 31.7318 3.96924 29.3209 4.01953 25.875C4.0828 21.7404 6.49581 18.9796 8.54688 17.5625L10.1797 16.375C10.8146 15.9388 11.5546 15.682 12.2578 15.3359C12.3116 15.1935 12.3507 15.032 12.4062 14.8906L12.7773 13.9258L13.1484 13.0352C13.5746 11.9511 14.0768 10.8481 14.6328 9.84375L15.8203 7.76562L17.082 5.91016C17.6672 5.2306 18.4145 4.51604 19.3828 3.90625C21.5317 2.56109 24.0616 2.0967 26.4336 2.49609C28.663 2.88015 30.3422 3.99743 31.4805 4.94531C32.5169 5.00652 33.4147 5.12081 34.0039 5.31641C35.3204 5.75684 36.2405 6.40905 36.6758 6.72656C36.7414 6.77451 36.7605 6.90012 36.8242 6.94922C37.1701 6.91141 37.5072 6.87923 37.8633 6.875C39.3861 5.57954 41.7237 4.09261 45.0625 4.27734C46.031 4.33103 46.8692 4.6112 47.6602 4.87109C47.8983 4.60074 48.0489 4.24152 48.3281 3.98047C50.1052 2.32372 53.435 0.522683 57.6055 1.45703C60.9199 0.259719 64.255 0.853335 66.7344 2.42188C66.8206 2.47645 66.8738 2.58853 66.957 2.64453C67.0843 2.61842 67.1978 2.5177 67.3281 2.49609L71.0391 2.57031L71.8555 2.71875L72.7461 2.86719C77.068 3.6544 79.4095 6.76195 80.4648 8.35938L81.3555 7.46875L85.3633 4.72266C86.2169 4.36231 87.1537 4.03844 88.1836 3.90625L91.5977 4.05469L92.4883 4.20312L93.3047 4.35156C93.9448 4.47319 94.5254 4.8132 95.0859 5.01953C95.311 4.75867 95.4809 4.38702 95.7539 4.12891C97.2261 2.74656 100.21 0.885408 104.215 1.53125C106.253 1.86584 107.729 2.80615 108.816 3.68359C110.813 3.46364 112.784 3.79669 114.605 4.72266C116.647 4.49574 118.376 4.83618 119.875 5.46484C120.342 5.2545 120.762 4.88143 121.285 4.72266L122.176 4.5L122.992 4.20312L127.223 3.83203C129.01 4.02066 130.433 4.82422 131.676 5.61328C131.752 5.59897 131.821 5.55191 131.898 5.53906C132.5 5.43936 133.099 5.53903 133.68 5.53906C135.389 3.9918 137.942 2.32547 141.621 2.57031C143.844 1.31009 146.711 0.687733 149.711 1.53125C151.05 1.90922 152.155 2.52809 153.051 3.16406L155.129 5.01953L155.648 5.61328C156.02 5.54988 156.383 5.41645 156.762 5.39062C157.227 4.87807 157.622 4.17708 158.32 3.68359C160.229 2.33815 163.182 1.33507 166.484 2.125C167.018 2.25472 167.437 2.60264 167.895 2.79297L168.562 2.34766L171.531 1.08594C172.651 0.801524 173.902 0.697266 175.242 0.863281C176.101 0.970086 176.844 1.26617 177.543 1.53125C178.891 0.846449 180.463 0.339772 182.219 0.34375L185.41 0.863281ZM191.793 41.1641L190.234 42.1289L190.754 43.7617L194.391 41.5352L194.688 43.2422L195.801 42.5742L195.504 40.8672L192.312 42.7969L191.793 41.1641ZM191.496 43.3164L190.754 43.7617L190.234 42.1289L190.977 41.6836L191.496 43.3164ZM192.312 42.7969L191.496 43.3164L190.977 41.6836L191.793 41.1641L192.312 42.7969ZM195.801 42.5742L194.688 43.2422L194.391 41.5352L195.504 40.8672L195.801 42.5742ZM144.738 21.4219C143.861 22.4439 142.53 23.775 140.508 24.6133C138.66 25.3741 136.734 25.3578 134.867 25.0586C133.015 26.0096 130.722 26.7911 127.965 26.1719C126.878 25.9268 126.029 25.3663 125.219 24.9102C123.769 25.8161 121.923 26.7614 119.504 26.6914C116.484 26.6014 114.358 25.1418 112.973 23.9453C112.489 24.3885 112.013 24.9584 111.34 25.3555C108.898 26.7918 105.689 27.2605 102.582 26.0234C102.469 25.9782 102.394 25.8489 102.285 25.8008C102.098 25.8841 101.964 26.0969 101.766 26.1719L100.875 26.4688L100.059 26.8398C97.3624 27.8572 94.4756 27.6645 91.9688 26.543C91.0404 26.1259 90.258 25.5876 89.5938 25.0586C89.0191 25.365 88.4794 25.7946 87.8125 26.0234L86.9219 26.3203L86.1055 26.6172C85.0554 26.9763 83.9549 27.2513 82.8398 27.4336L81.9492 27.582L81.1328 27.7305C79.518 27.994 77.8441 27.9346 76.2344 27.6562L75.418 27.5078L74.5273 27.3594C71.7243 26.8668 69.727 25.4171 68.3672 24.0195C66.7905 24.5607 64.9002 24.858 62.7266 24.3164C61.261 23.9451 60.1208 23.2463 59.1641 22.5352C58.8813 22.9227 58.7021 23.4163 58.3477 23.7969C57.0815 25.1514 54.3253 27.3958 50.2578 27.2852L49.4414 27.2109H48.5508C46.6945 27.1598 45.1789 26.5516 43.875 25.875C42.3406 26.3693 40.803 26.4753 39.1992 26.2461C37.1204 27.316 34.5047 28.0878 31.5547 27.2109C30.7029 26.9564 30.0664 26.4081 29.4023 26.0234C29.116 26.0155 28.849 25.9785 28.5859 25.9492C27.8593 27.5163 26.8355 28.7401 25.6172 29.7344C25.6305 29.8848 25.7585 30.0254 25.7656 30.1797L25.8398 30.9219V31.5898C25.8765 32.4415 25.7802 33.2957 25.6914 34.1133C25.9706 34.7782 26.2251 35.4053 26.3594 36.043C26.9315 36.4892 27.4067 37.0607 27.918 37.6758C28.3021 37.6397 28.6899 37.593 29.1055 37.6016L29.4766 37.4531C31.021 36.6668 32.8005 36.1242 34.7461 35.9688L35.6367 35.8945L36.4531 35.8203C38.2004 35.6821 39.8118 35.9282 41.2031 36.4141L44.7656 38.3438L45.582 39.0117L46.4727 39.6797C46.7809 39.9168 47.045 40.125 47.2891 40.2734L48.1055 40.793L48.9961 41.3125C49.4884 41.6119 49.9882 41.9006 50.4805 42.2031C50.7564 41.8338 51.0008 41.3951 51.3711 41.0156C52.3807 39.9855 54.3457 38.399 57.2344 37.9727C59.7582 37.6075 61.7394 38.2963 63.3203 39.1602H63.4688C64.1631 38.7869 64.9178 38.4587 65.6211 38.1211L66.4375 37.6758L67.3281 37.3047L70.2969 36.3398C71.3588 36.1892 72.4831 36.2656 73.6367 36.4883C75.8374 36.9182 77.5047 37.966 78.5352 38.8633L78.6094 38.9375C79.3278 38.6159 80.0678 38.1985 80.9844 38.0469C83.23 37.6756 85.1507 38.1564 86.6992 38.8633C88.6502 37.5694 91.2883 36.6332 94.3438 36.8594L95.2344 36.9336H95.3086L95.6797 36.8594L96.5703 36.6367L101.246 36.4883L105.328 38.0469L106.145 38.4922L107.035 39.0117C107.416 39.236 107.79 39.427 108.148 39.6055L108.965 40.0508L109.41 40.2734C109.734 40.128 110.016 39.7972 110.375 39.6797C112.479 38.9962 114.373 39.1705 116.016 39.6055C117.538 38.936 119.433 38.5114 121.656 38.8633C122.024 38.9221 122.358 39.0694 122.695 39.1602C124.141 38.3616 125.895 37.8892 128.039 37.9727C130.52 36.4944 133.851 35.969 137.094 37.1562C138.802 37.783 140.033 38.7807 140.953 39.6797L144.887 40.4961L145.777 40.793L146.594 41.1641C146.952 41.2999 147.225 41.599 147.559 41.7578C148.983 40.6145 150.883 39.5871 153.199 39.0859L154.09 38.8633L154.906 38.7148L157.801 38.418C158.717 38.4602 159.587 38.6268 160.398 38.8633L164.555 41.0156L164.852 41.2383C166.016 40.8652 167.353 40.6605 168.859 40.793C170.8 40.9697 172.401 41.6407 173.609 42.4258C174.179 42.073 174.799 41.7422 175.465 41.4609L175.984 41.1641L176.652 40.4961C177.108 39.9951 177.541 39.5599 177.914 39.1602L178.434 38.5664L178.953 38.0469L181.773 35.8945C183.291 35.0912 184.855 34.9169 186.301 34.8555C186.494 34.1042 186.669 33.3454 187.043 32.6289C186.996 32.1387 187.103 31.6473 187.117 31.1445C186.486 30.1042 185.983 29.0491 185.707 27.8789L185.262 27.5078L184.668 27.0625C183.9 26.4945 183.269 25.8548 182.738 25.207C181.571 25.8669 180.092 26.4709 178.285 26.543C175.95 26.6316 174.168 25.7644 172.793 24.9102C170.986 25.9854 168.562 26.9389 165.668 26.3203C164.368 26.0401 163.352 25.3904 162.477 24.8359C161.005 25.1609 159.515 25.4314 157.949 25.0586C156.593 25.5797 155.061 25.9889 153.348 25.875C150.964 25.7145 149.026 24.7845 147.633 23.7969L146.742 23.2031L145.926 22.5352C145.477 22.2158 145.143 21.7704 144.738 21.4219ZM17.082 40.7188L18.1953 41.0156L18.2695 39.8281L17.1562 39.5312L17.082 40.7188ZM18.2695 39.8281L18.1953 41.0156L17.082 40.7188L17.1562 39.5312L18.2695 39.8281ZM184.371 15.7812L182.07 18.6758L183.555 18.4531L185.336 16.1523L184.371 15.7812ZM183.926 18.0078L183.555 18.4531L182.07 18.6758L182.887 17.6367L183.926 18.0078ZM183.926 18.0078L182.887 17.6367L183.332 17.043L184.816 16.8203L183.926 18.0078ZM185.336 16.1523L184.816 16.8203L183.332 17.043L184.371 15.7812L185.336 16.1523ZM103.102 14.4453L104.809 15.2617L103.324 14.3711L103.102 14.4453ZM104.809 15.2617L103.102 14.4453L103.324 14.3711L104.809 15.2617Z" fill="#FF6A6A"/>
</g>
<path d="M38.6327 26.208C38.8727 26.032 39.1207 26.056 39.3767 26.28C39.5047 26.376 39.6327 26.44 39.7607 26.472C40.0007 26.52 40.1207 26.76 40.1207 27.192C40.1207 27.432 40.1447 27.728 40.1927 28.08C40.2407 28.448 40.2327 28.76 40.1687 29.016C40.1367 29.256 40.1047 29.728 40.0727 30.432C40.0567 31.104 40.0327 31.504 40.0007 31.632C39.9527 31.76 39.9447 31.96 39.9767 32.232C39.9927 32.52 39.9687 32.728 39.9047 32.856C39.8407 32.984 39.8087 33.176 39.8087 33.432C39.8087 33.672 39.7847 33.944 39.7367 34.248C39.6887 34.536 39.7127 34.776 39.8087 34.968C39.9047 35.16 39.9367 35.496 39.9047 35.976C39.8727 36.392 39.8247 36.664 39.7607 36.792C39.7127 36.904 39.5607 37.056 39.3047 37.248C39.0967 37.392 38.9367 37.472 38.8247 37.488C38.7287 37.488 38.5847 37.448 38.3927 37.368C38.2487 37.288 38.1607 37.224 38.1287 37.176C38.0967 37.112 38.0887 36.992 38.1047 36.816C38.1207 36.688 38.0727 36.52 37.9607 36.312C37.8647 36.152 37.8087 36.04 37.7927 35.976C37.7927 35.912 37.8087 35.768 37.8407 35.544C37.8887 35.272 37.9127 34.976 37.9127 34.656C37.9127 34.368 37.9367 34.136 37.9847 33.96C38.0167 33.784 38.0087 33.616 37.9607 33.456C37.8967 33.264 37.8727 33.04 37.8887 32.784C37.9207 32.528 37.8967 32.36 37.8167 32.28C37.7367 32.2 37.5367 32.152 37.2167 32.136C36.8167 32.104 36.5527 32.12 36.4247 32.184C36.3127 32.232 36.2167 32.368 36.1367 32.592C36.0407 32.864 35.9527 33.056 35.8727 33.168C35.7767 33.296 35.7207 33.432 35.7047 33.576C35.6887 33.72 35.6967 33.952 35.7287 34.272C35.7767 34.576 35.7847 34.952 35.7527 35.4C35.7367 35.832 35.6887 36.168 35.6087 36.408C35.5767 36.504 35.4647 36.64 35.2727 36.816C35.0967 36.992 34.9527 37.096 34.8407 37.128C34.6647 37.192 34.4727 37.136 34.2647 36.96C34.0727 36.768 33.9767 36.56 33.9767 36.336C33.9767 36.192 33.9367 36.032 33.8567 35.856C33.7287 35.584 33.7127 35.352 33.8087 35.16C33.8567 35.08 33.8327 34.832 33.7367 34.416C33.6727 34.112 33.6407 33.928 33.6407 33.864C33.6407 33.784 33.6807 33.68 33.7607 33.552C33.8407 33.392 33.8567 33.2 33.8087 32.976C33.7447 32.752 33.7447 32.56 33.8087 32.4C33.8887 32.256 33.9047 32.048 33.8567 31.776C33.8087 31.472 33.8087 31.04 33.8567 30.48C33.9207 30 33.9527 29.536 33.9527 29.088C33.9527 28.608 33.9687 28.296 34.0007 28.152C34.0487 27.992 34.0487 27.832 34.0007 27.672C33.9527 27.528 33.9847 27.296 34.0967 26.976C34.2087 26.656 34.3287 26.448 34.4567 26.352C34.5367 26.272 34.6647 26.24 34.8407 26.256C35.0167 26.256 35.1527 26.288 35.2487 26.352C35.3607 26.448 35.4567 26.496 35.5367 26.496C35.7127 26.496 35.8327 26.568 35.8967 26.712C35.9767 26.856 36.0167 27.128 36.0167 27.528C36.0487 28.488 36.0487 29.072 36.0167 29.28C36.0007 29.408 36.0167 29.6 36.0647 29.856C36.1287 30.096 36.2007 30.256 36.2807 30.336C36.4407 30.48 36.7607 30.456 37.2407 30.264C37.4967 30.168 37.6727 30.12 37.7687 30.12C38.0727 30.12 38.2167 29.856 38.2007 29.328V28.8C38.2007 28.032 38.1927 27.504 38.1767 27.216C38.1607 27.072 38.2007 26.888 38.2967 26.664C38.4087 26.44 38.5207 26.288 38.6327 26.208ZM28.1207 26.664C28.2327 26.696 28.4327 26.704 28.7207 26.688C28.9767 26.672 29.1847 26.712 29.3447 26.808C29.5207 26.888 29.6967 26.928 29.8727 26.928C30.0647 26.928 30.2487 26.976 30.4247 27.072C30.6647 27.216 30.9527 27.36 31.2887 27.504C31.7367 27.712 32.1047 28.192 32.3927 28.944C32.6807 29.696 32.8167 30.48 32.8007 31.296C32.7847 32.096 32.6247 32.816 32.3207 33.456C32.1767 33.712 32.0887 33.984 32.0567 34.272C32.0087 34.544 31.9447 34.736 31.8647 34.848C31.7847 34.944 31.5767 35.104 31.2407 35.328C30.7767 35.632 30.2727 35.848 29.7287 35.976C29.5367 36.04 29.4007 36.088 29.3207 36.12C29.0807 36.216 28.8327 36.192 28.5767 36.048C28.4167 35.952 28.3047 35.928 28.2407 35.976C28.0647 36.088 27.8327 36.056 27.5447 35.88C27.3527 35.752 27.1687 35.656 26.9927 35.592C26.6407 35.448 26.3047 35.144 25.9847 34.68C25.6807 34.2 25.4247 33.616 25.2167 32.928C25.0567 32.4 25.0167 31.728 25.0967 30.912C25.1927 30.096 25.3607 29.464 25.6007 29.016C25.7287 28.792 25.8167 28.608 25.8647 28.464C25.9127 28.32 25.9847 28.184 26.0807 28.056C26.1927 27.928 26.2807 27.864 26.3447 27.864C26.4087 27.864 26.6247 27.68 26.9927 27.312C27.3767 26.944 27.6167 26.736 27.7127 26.688C27.8247 26.64 27.9607 26.632 28.1207 26.664ZM29.4167 28.992C29.3207 28.976 29.1767 28.96 28.9847 28.944C28.7927 28.912 28.6647 28.896 28.6007 28.896C28.4087 28.864 28.2647 28.88 28.1687 28.944C28.0727 29.008 27.9687 29.152 27.8567 29.376C27.7767 29.552 27.6727 29.688 27.5447 29.784C27.4167 29.88 27.3527 30.008 27.3527 30.168C27.3527 30.312 27.3127 30.568 27.2327 30.936C27.0567 31.624 27.0967 32.248 27.3527 32.808C27.4807 33.08 27.5687 33.32 27.6167 33.528C27.6327 33.688 27.6807 33.808 27.7607 33.888C27.8407 33.968 27.9367 33.992 28.0487 33.96C28.1767 33.944 28.3127 33.968 28.4567 34.032C28.7287 34.16 28.9447 34.216 29.1047 34.2C29.2647 34.168 29.4727 34.048 29.7287 33.84C29.9047 33.696 30.0327 33.624 30.1127 33.624C30.1927 33.624 30.2647 33.576 30.3287 33.48C30.3927 33.384 30.4247 33.28 30.4247 33.168C30.4247 33.024 30.4967 32.824 30.6407 32.568C30.8167 32.296 30.9447 31.84 31.0247 31.2C31.0567 31.024 31.0087 30.8 30.8807 30.528C30.7367 30.24 30.6567 30.008 30.6407 29.832C30.5927 29.56 30.4727 29.36 30.2807 29.232C30.1047 29.104 29.8167 29.024 29.4167 28.992ZM54.2227 26.352C54.4147 26.24 54.6227 26.256 54.8467 26.4C54.9427 26.448 55.0547 26.48 55.1827 26.496C55.4227 26.496 55.5747 26.6 55.6387 26.808C55.7027 27 55.7507 27.304 55.7827 27.72C55.8307 28.12 55.8467 28.4 55.8307 28.56C55.7507 29.088 55.7107 29.952 55.7107 31.152C55.7107 31.888 55.6787 32.312 55.6147 32.424C55.5667 32.536 55.5507 32.984 55.5667 33.768C55.6147 35 55.6147 35.8 55.5667 36.168C55.5347 36.52 55.4387 36.752 55.2787 36.864C55.1187 36.976 54.9827 37.08 54.8707 37.176C54.6947 37.336 54.4867 37.344 54.2467 37.2C54.0227 37.056 53.9027 36.848 53.8867 36.576C53.8707 36.4 53.8067 36.216 53.6947 36.024C53.5667 35.848 53.5027 35.576 53.5027 35.208C53.4867 34.824 53.4627 34.472 53.4307 34.152C53.4147 33.816 53.4387 33.568 53.5027 33.408C53.6147 33.12 53.6227 32.808 53.5267 32.472C53.4947 32.328 53.5107 32.168 53.5747 31.992C53.6387 31.8 53.6467 31.544 53.5987 31.224C53.5347 30.792 53.5747 30.192 53.7187 29.424C53.7667 29.232 53.7827 28.792 53.7667 28.104C53.7507 27.56 53.7747 27.16 53.8387 26.904C53.9027 26.648 54.0307 26.464 54.2227 26.352ZM43.4467 26.784C43.6387 26.688 43.8867 26.704 44.1907 26.832C44.4947 26.96 44.7027 27.144 44.8147 27.384C44.8787 27.496 44.9107 27.8 44.9107 28.296C44.9267 28.792 44.9027 29.128 44.8387 29.304C44.7907 29.48 44.7187 30.064 44.6227 31.056C44.6067 31.296 44.6307 31.52 44.6947 31.728C44.7587 31.936 44.7987 32.176 44.8147 32.448C44.8467 32.784 44.9827 33.072 45.2227 33.312C45.4787 33.536 45.7587 33.64 46.0627 33.624C46.3987 33.592 46.6787 33.6 46.9027 33.648C47.0627 33.68 47.2387 33.656 47.4307 33.576C47.6227 33.512 47.9027 33.488 48.2707 33.504C48.6387 33.536 48.8707 33.536 48.9667 33.504C49.0627 33.456 49.2627 33.464 49.5667 33.528C49.8707 33.592 50.0947 33.624 50.2387 33.624C50.4787 33.624 50.7107 33.824 50.9347 34.224C51.1587 34.608 51.2147 34.904 51.1027 35.112C51.0067 35.272 50.8067 35.432 50.5027 35.592C50.2147 35.736 49.9667 35.792 49.7587 35.76C49.3427 35.728 48.9107 35.72 48.4627 35.736C47.4707 35.784 46.8227 35.728 46.5187 35.568C46.3587 35.504 46.2147 35.496 46.0867 35.544C45.8467 35.624 45.5587 35.592 45.2227 35.448C44.9667 35.352 44.7747 35.312 44.6467 35.328C44.4067 35.376 44.0787 35.208 43.6627 34.824C43.2467 34.424 42.9667 34.016 42.8227 33.6C42.6627 33.168 42.5587 32.632 42.5107 31.992C42.4627 31.352 42.4787 30.808 42.5587 30.36C42.6387 29.976 42.6707 29.536 42.6547 29.04C42.6227 28.496 42.6787 28.016 42.8227 27.6C42.9667 27.184 43.1747 26.912 43.4467 26.784ZM62.2235 26.712C62.2715 26.68 62.5195 26.68 62.9675 26.712C63.4155 26.744 63.7515 26.784 63.9755 26.832C64.2155 26.896 64.4555 26.92 64.6955 26.904C64.9195 26.888 65.1755 26.952 65.4635 27.096C65.5115 27.128 65.7515 27.248 66.1835 27.456C66.4555 27.584 66.6395 27.8 66.7355 28.104C66.8475 28.392 66.9035 28.864 66.9035 29.52C66.9035 30.048 66.9115 30.36 66.9275 30.456C66.9435 30.536 66.9835 30.584 67.0475 30.6C67.1435 30.616 67.2155 30.608 67.2635 30.576C67.3275 30.528 67.4715 30.48 67.6955 30.432C68.2075 30.304 68.5275 30.2 68.6555 30.12C68.7835 30.04 68.8555 29.904 68.8715 29.712C68.9035 29.456 68.9435 29.28 68.9915 29.184C69.0555 29.072 69.0715 28.816 69.0395 28.416C69.0235 28.096 69.0235 27.904 69.0395 27.84C69.0555 27.76 69.1275 27.664 69.2555 27.552C69.4315 27.376 69.6715 27.28 69.9755 27.264C70.2795 27.248 70.5115 27.32 70.6715 27.48C70.7355 27.56 70.7995 27.792 70.8635 28.176C70.9275 28.544 70.9595 28.88 70.9595 29.184C70.9115 31.44 70.8315 32.728 70.7195 33.048C70.6395 33.24 70.5995 33.624 70.5995 34.2C70.5835 35.272 70.4555 35.984 70.2155 36.336C70.0075 36.672 69.7035 36.84 69.3035 36.84C69.0155 36.808 68.8795 36.672 68.8955 36.432C68.9115 36.336 68.8715 36.144 68.7755 35.856C68.6955 35.552 68.6715 35.336 68.7035 35.208C68.7355 35.08 68.7755 34.776 68.8235 34.296C68.8715 33.784 68.9035 33.464 68.9195 33.336C68.9835 32.904 68.9195 32.6 68.7275 32.424C68.6155 32.312 68.1675 32.304 67.3835 32.4C67.1915 32.416 67.0475 32.408 66.9515 32.376C66.8395 32.312 66.7195 32.384 66.5915 32.592C66.4795 32.784 66.3835 33.072 66.3035 33.456C66.2235 33.824 66.1835 34.208 66.1835 34.608C66.1835 34.88 66.1675 35.056 66.1355 35.136C66.1195 35.216 66.0475 35.352 65.9195 35.544C65.7275 35.848 65.5515 36.024 65.3915 36.072C65.2475 36.12 65.0395 36.08 64.7675 35.952C64.6075 35.856 64.4955 35.808 64.4315 35.808C64.3675 35.808 64.2315 35.848 64.0235 35.928C63.2715 36.184 62.6315 36.208 62.1035 36C61.8795 35.92 61.7115 35.88 61.5995 35.88C61.4875 35.864 61.2955 35.872 61.0235 35.904C60.7995 35.936 60.6315 35.912 60.5195 35.832C60.4235 35.768 60.2875 35.744 60.1115 35.76C59.9675 35.776 59.7995 35.736 59.6075 35.64C59.4155 35.544 59.3195 35.448 59.3195 35.352C59.3195 35.288 59.2155 35.128 59.0075 34.872C58.7995 34.6 58.6875 34.424 58.6715 34.344C58.6395 34.28 58.5595 34.096 58.4315 33.792C58.3035 33.488 58.2075 32.984 58.1435 32.28C58.0955 31.56 58.1115 31.048 58.1915 30.744C58.2395 30.568 58.2555 30.376 58.2395 30.168C58.2075 29.992 58.2235 29.776 58.2875 29.52C58.3515 29.264 58.3675 29.016 58.3355 28.776C58.3195 28.52 58.3595 28.32 58.4555 28.176C58.5835 28 58.7195 27.744 58.8635 27.408C58.9435 27.216 59.1275 27.064 59.4155 26.952C59.7035 26.824 60.0315 26.768 60.3995 26.784C60.5915 26.784 60.7515 26.784 60.8795 26.784C61.7115 26.816 62.1595 26.792 62.2235 26.712ZM63.6635 28.68C63.5035 28.616 63.1675 28.608 62.6555 28.656C62.1435 28.688 61.8075 28.736 61.6475 28.8C61.5355 28.848 61.3355 28.872 61.0475 28.872C60.6795 28.872 60.4395 28.96 60.3275 29.136C60.2315 29.296 60.1835 29.688 60.1835 30.312C60.1835 30.728 60.1675 31.032 60.1355 31.224C60.0715 31.464 60.0875 31.8 60.1835 32.232C60.2795 32.648 60.4075 32.952 60.5675 33.144C60.6795 33.288 60.7595 33.448 60.8075 33.624C60.8555 33.784 60.9275 33.904 61.0235 33.984C61.1195 34.048 61.2715 34.08 61.4795 34.08C61.7195 34.096 61.9115 34.128 62.0555 34.176C62.3595 34.256 62.6395 34.232 62.8955 34.104C63.0715 34.024 63.2715 33.968 63.4955 33.936C63.7515 33.92 63.9275 33.88 64.0235 33.816C64.1355 33.736 64.2235 33.6 64.2875 33.408C64.4475 33.04 64.5515 32.808 64.5995 32.712C64.6955 32.456 64.7435 32.072 64.7435 31.56C64.7435 31.032 64.7755 30.696 64.8395 30.552C64.8875 30.424 64.8875 30.168 64.8395 29.784C64.8075 29.384 64.7515 29.144 64.6715 29.064C64.5915 28.984 64.4315 28.904 64.1915 28.824C64.1275 28.808 64.0315 28.784 63.9035 28.752C63.7755 28.704 63.6955 28.68 63.6635 28.68ZM72.5915 26.76C72.7035 26.68 72.9115 26.672 73.2155 26.736C73.5355 26.784 73.7595 26.864 73.8875 26.976C74.0155 27.104 74.1035 27.464 74.1515 28.056C74.2155 28.648 74.2155 29.176 74.1515 29.64C74.0875 29.96 74.0315 30.6 73.9835 31.56C73.9195 32.408 73.8635 33.016 73.8155 33.384C73.7675 33.672 73.7675 33.96 73.8155 34.248C73.9115 34.856 73.9355 35.368 73.8875 35.784C73.8395 36.12 73.7915 36.336 73.7435 36.432C73.6955 36.528 73.5675 36.616 73.3595 36.696C73.0875 36.84 72.8555 36.888 72.6635 36.84C72.4715 36.792 72.3755 36.68 72.3755 36.504C72.3755 36.392 72.3195 36.216 72.2075 35.976C72.1115 35.816 72.0475 35.464 72.0155 34.92C71.9995 34.376 72.0235 33.944 72.0875 33.624C72.1195 33.48 72.1035 33.32 72.0395 33.144C71.9755 32.968 71.9755 32.816 72.0395 32.688C72.1515 32.464 72.1515 32.12 72.0395 31.656C71.9755 31.4 71.9755 31.144 72.0395 30.888C72.1355 30.568 72.1915 29.8 72.2075 28.584C72.2075 28.488 72.1915 28.304 72.1595 28.032C72.1275 27.808 72.1595 27.568 72.2555 27.312C72.3515 27.04 72.4635 26.856 72.5915 26.76ZM88.2311 26.376C88.3271 26.28 88.4711 26.24 88.6631 26.256C88.7111 26.272 88.7991 26.288 88.9271 26.304C89.0711 26.32 89.1671 26.328 89.2151 26.328C89.4071 26.36 89.5351 26.432 89.5991 26.544C89.6631 26.656 89.7271 26.904 89.7911 27.288C89.8231 27.592 89.8391 28.136 89.8391 28.92C89.8391 29.688 89.8151 30.112 89.7671 30.192C89.7511 30.224 89.7671 30.344 89.8151 30.552C89.8791 30.76 89.8711 30.976 89.7911 31.2C89.7271 31.424 89.7031 31.672 89.7191 31.944C89.7511 32.216 89.7351 32.44 89.6711 32.616C89.5911 32.776 89.5671 32.96 89.5991 33.168C89.6471 33.504 89.6711 34.088 89.6711 34.92C89.6871 35.752 89.6711 36.28 89.6231 36.504C89.5751 36.712 89.4311 36.92 89.1911 37.128C88.9511 37.336 88.7431 37.432 88.5671 37.416C88.1831 37.336 87.9671 37.096 87.9191 36.696C87.8871 36.424 87.8231 36.184 87.7271 35.976C87.5671 35.608 87.5191 34.688 87.5831 33.216C87.5831 32.976 87.5671 32.792 87.5351 32.664C87.5031 32.504 87.5191 32.344 87.5831 32.184C87.6631 32.024 87.6791 31.792 87.6311 31.488C87.5991 31.184 87.5991 30.936 87.6311 30.744C87.6631 30.568 87.6871 30.352 87.7031 30.096C87.7031 29.872 87.7271 29.672 87.7751 29.496C87.8231 29.304 87.8471 28.84 87.8471 28.104C87.8471 27.512 87.8631 27.12 87.8951 26.928C87.9431 26.736 88.0551 26.552 88.2311 26.376ZM79.3271 26.568C79.5191 26.504 79.7031 26.496 79.8791 26.544C80.0231 26.592 80.1911 26.592 80.3831 26.544C80.5911 26.496 80.7831 26.512 80.9591 26.592C81.1511 26.656 81.4151 26.696 81.7511 26.712C82.1031 26.712 82.3911 26.776 82.6151 26.904C82.8231 27.048 82.9751 27.12 83.0711 27.12C83.3751 27.12 83.7591 27.432 84.2231 28.056C84.7031 28.664 84.9831 29.232 85.0631 29.76C85.2071 30.656 85.2391 31.376 85.1591 31.92C85.0951 32.464 84.9111 32.976 84.6071 33.456C84.4151 33.744 84.2791 34.024 84.1991 34.296C84.0871 34.648 83.9351 34.936 83.7431 35.16C83.5671 35.384 83.3911 35.496 83.2151 35.496C83.1351 35.496 83.0231 35.536 82.8791 35.616C82.7351 35.696 82.5271 35.792 82.2551 35.904C81.9831 36 81.8071 36.048 81.7271 36.048C81.6471 36.048 81.4951 36.088 81.2711 36.168C80.8391 36.344 80.4871 36.32 80.2151 36.096C80.0551 35.968 79.8871 35.92 79.7111 35.952C79.5511 35.984 79.3991 35.96 79.2551 35.88C79.2551 35.864 79.0711 35.76 78.7031 35.568C78.3671 35.392 77.9991 35.088 77.5991 34.656C77.2151 34.224 76.9671 33.848 76.8551 33.528C76.5511 32.68 76.4311 32.128 76.4951 31.872C76.5431 31.68 76.5431 31.44 76.4951 31.152C76.4631 30.928 76.4951 30.616 76.5911 30.216C76.6871 29.816 76.8151 29.472 76.9751 29.184C77.0871 28.992 77.1751 28.8 77.2391 28.608C77.3511 28.208 77.5751 27.928 77.9111 27.768C78.0231 27.704 78.2471 27.504 78.5831 27.168C78.9351 26.816 79.1831 26.616 79.3271 26.568ZM81.3191 28.824C80.8551 28.824 80.5351 28.808 80.3591 28.776C80.1511 28.744 79.9271 28.808 79.6871 28.968C79.4471 29.112 79.3271 29.256 79.3271 29.4C79.3271 29.448 79.2791 29.512 79.1831 29.592C79.0071 29.736 78.8951 29.968 78.8471 30.288C78.8151 30.48 78.7511 30.672 78.6551 30.864C78.3831 31.408 78.4231 32.04 78.7751 32.76C78.9671 33.144 79.0631 33.384 79.0631 33.48C79.0631 33.624 79.1191 33.744 79.2311 33.84C79.3591 33.92 79.5271 33.96 79.7351 33.96C79.9911 33.976 80.2151 34.024 80.4071 34.104C80.5831 34.184 80.7271 34.216 80.8391 34.2C80.9671 34.184 81.1271 34.104 81.3191 33.96C81.4951 33.848 81.6951 33.744 81.9191 33.648C82.1271 33.568 82.2711 33.488 82.3511 33.408C82.4471 33.312 82.5111 33.168 82.5431 32.976C82.5591 32.784 82.6231 32.616 82.7351 32.472C82.9271 32.264 83.0391 31.936 83.0711 31.488C83.1191 31.04 83.0791 30.664 82.9511 30.36C82.8231 30.072 82.7431 29.848 82.7111 29.688C82.6631 29.352 82.5431 29.128 82.3511 29.016C82.1591 28.888 81.8151 28.824 81.3191 28.824ZM97.2388 23.952C97.4308 23.84 97.6548 23.848 97.9108 23.976C98.0708 24.072 98.1908 24.12 98.2708 24.12C98.4788 24.12 98.6228 24.344 98.7028 24.792C98.7668 25.048 98.7748 25.24 98.7268 25.368C98.6788 25.496 98.5268 25.696 98.2708 25.968C97.9828 26.272 97.7988 26.576 97.7188 26.88C97.6228 27.168 97.5268 27.368 97.4308 27.48C97.1588 27.8 97.3748 28.144 98.0788 28.512C98.5428 28.752 98.9348 29.096 99.2548 29.544C99.4788 29.88 99.6868 30.096 99.8788 30.192C100.055 30.272 100.167 30.384 100.215 30.528C100.279 30.704 100.351 30.84 100.431 30.936C100.687 31.24 100.607 31.536 100.191 31.824C99.9828 31.952 99.8388 32.048 99.7588 32.112C99.5508 32.288 99.2548 32.224 98.8708 31.92C98.6628 31.76 98.4788 31.64 98.3188 31.56C98.1748 31.48 97.8628 31.208 97.3828 30.744C96.9188 30.264 96.6628 29.968 96.6148 29.856C96.5668 29.76 96.4308 29.632 96.2068 29.472C95.9828 29.312 95.7988 29.224 95.6548 29.208C95.4308 29.16 95.2628 29.312 95.1508 29.664C95.1028 29.824 94.9748 30.016 94.7668 30.24C94.5588 30.448 94.4068 30.656 94.3108 30.864C94.1988 31.088 93.9828 31.32 93.6628 31.56C93.3588 31.8 93.1268 31.92 92.9668 31.92C92.8388 31.92 92.6708 31.816 92.4628 31.608C92.2548 31.384 92.1508 31.208 92.1508 31.08C92.1508 30.888 92.2308 30.624 92.3908 30.288C92.5668 29.952 92.7428 29.696 92.9188 29.52C93.1268 29.312 93.3108 29.088 93.4708 28.848C93.5988 28.624 93.8148 28.328 94.1188 27.96C94.4068 27.64 94.6228 27.352 94.7668 27.096C94.9108 26.856 95.0468 26.688 95.1748 26.592C95.2868 26.512 95.4148 26.36 95.5588 26.136C95.7188 25.912 95.8628 25.752 95.9908 25.656C96.2148 25.528 96.3268 25.328 96.3268 25.056C96.3268 24.96 96.4388 24.776 96.6628 24.504C96.9028 24.216 97.0948 24.032 97.2388 23.952ZM104.271 24C104.415 23.904 104.575 23.864 104.751 23.88C104.927 23.88 105.071 23.936 105.183 24.048C105.279 24.144 105.399 24.2 105.543 24.216C105.767 24.248 105.911 24.448 105.975 24.816C106.055 25.184 106.023 25.552 105.879 25.92C105.815 26.112 105.799 26.472 105.831 27C105.847 27.368 105.847 27.608 105.831 27.72C105.815 27.816 105.775 27.936 105.711 28.08C105.615 28.272 105.591 28.496 105.639 28.752C105.671 28.992 105.679 29.48 105.663 30.216C105.663 30.952 105.639 31.512 105.591 31.896C105.543 32.264 105.487 32.512 105.423 32.64C105.375 32.752 105.271 32.848 105.111 32.928C104.951 32.992 104.839 33.064 104.775 33.144C104.631 33.304 104.439 33.32 104.199 33.192C104.023 33.112 103.903 33.04 103.839 32.976C103.791 32.896 103.767 32.768 103.767 32.592C103.767 32.4 103.735 32.224 103.671 32.064C103.607 31.92 103.567 31.552 103.551 30.96V30.072H102.543C101.967 30.072 101.623 30.056 101.511 30.024C101.415 29.976 101.335 29.808 101.271 29.52C101.223 29.232 101.215 29.056 101.247 28.992C101.295 28.912 101.455 28.856 101.727 28.824C102.031 28.776 102.247 28.688 102.375 28.56C102.503 28.432 102.663 28.344 102.855 28.296C103.095 28.248 103.303 28.136 103.479 27.96C103.671 27.784 103.767 27.616 103.767 27.456C103.767 27.36 103.655 27.288 103.431 27.24C103.207 27.192 103.007 27.192 102.831 27.24C102.495 27.32 102.287 27.352 102.207 27.336C102.127 27.32 101.983 27.2 101.775 26.976C101.407 26.592 101.199 26.272 101.151 26.016C101.103 25.744 101.215 25.56 101.487 25.464C101.631 25.416 101.783 25.344 101.943 25.248C102.103 25.136 102.439 25.072 102.951 25.056C103.399 25.04 103.671 25.008 103.767 24.96C103.863 24.896 103.935 24.736 103.983 24.48C104.031 24.256 104.127 24.096 104.271 24ZM94.3828 34.416C94.5908 34.288 94.8948 34.304 95.2948 34.464C95.6148 34.592 95.8068 34.712 95.8708 34.824C95.9508 34.936 95.9908 35.16 95.9908 35.496C95.9908 35.992 96.1028 36.416 96.3268 36.768C96.5668 37.104 96.8788 37.328 97.2628 37.44C97.4388 37.488 97.7988 37.544 98.3428 37.608C98.9028 37.672 99.2548 37.696 99.3988 37.68C99.4148 37.68 99.4548 37.68 99.5188 37.68C99.5988 37.68 99.7028 37.68 99.8308 37.68C99.9588 37.664 100.079 37.656 100.191 37.656C100.639 37.656 100.895 37.632 100.959 37.584C101.039 37.536 101.519 37.52 102.399 37.536C103.295 37.552 103.807 37.592 103.935 37.656C104.095 37.72 104.247 37.736 104.391 37.704C104.503 37.688 104.623 37.728 104.751 37.824C104.895 37.92 104.967 38.024 104.967 38.136C104.967 38.184 105.031 38.288 105.159 38.448C105.303 38.64 105.359 38.816 105.327 38.976C105.295 39.12 105.183 39.224 104.991 39.288C104.303 39.48 103.799 39.56 103.479 39.528C103.255 39.496 103.031 39.48 102.807 39.48C102.647 39.48 102.319 39.48 101.823 39.48C101.327 39.48 100.967 39.48 100.743 39.48C100.567 39.464 100.311 39.48 99.9748 39.528C99.6068 39.56 99.3108 39.536 99.0868 39.456C98.9108 39.408 98.7908 39.384 98.7268 39.384C98.6788 39.384 98.5908 39.416 98.4628 39.48C98.1428 39.624 97.7988 39.632 97.4308 39.504C97.2388 39.44 97.0628 39.424 96.9028 39.456C96.5028 39.52 96.1588 39.424 95.8708 39.168C95.7428 39.04 95.5908 38.936 95.4148 38.856C94.9668 38.664 94.6548 38.376 94.4788 37.992C94.3668 37.736 94.2708 37.56 94.1908 37.464C93.9668 37.16 93.8788 36.864 93.9268 36.576C93.9588 36.368 93.9428 36.176 93.8788 36C93.7828 35.744 93.7908 35.448 93.9028 35.112C94.0148 34.776 94.1748 34.544 94.3828 34.416ZM128.695 26.16C128.823 26.24 128.975 26.296 129.151 26.328C129.375 26.36 129.519 26.592 129.583 27.024C129.647 27.456 129.655 28.216 129.607 29.304C129.575 29.8 129.559 30.424 129.559 31.176C129.559 31.928 129.535 32.376 129.487 32.52C129.423 32.68 129.407 33.104 129.439 33.792C129.471 35.04 129.463 35.872 129.415 36.288C129.367 36.704 129.255 36.952 129.079 37.032C128.935 37.08 128.799 37.168 128.671 37.296C128.527 37.472 128.335 37.496 128.095 37.368C127.855 37.24 127.719 37.04 127.687 36.768C127.655 36.56 127.583 36.336 127.471 36.096C127.359 35.856 127.319 35.648 127.351 35.472C127.367 35.328 127.351 34.976 127.303 34.416C127.271 33.872 127.287 33.52 127.351 33.36C127.431 33.184 127.447 33.032 127.399 32.904C127.287 32.6 127.303 32.296 127.447 31.992C127.575 31.704 127.583 31.376 127.471 31.008C127.407 30.784 127.391 30.624 127.423 30.528C127.519 30.192 127.575 29.352 127.591 28.008C127.607 27.352 127.639 26.92 127.687 26.712C127.751 26.504 127.871 26.328 128.047 26.184C128.223 26.04 128.439 26.032 128.695 26.16ZM121.087 26.832C121.311 26.736 121.631 26.792 122.047 27C122.335 27.16 122.519 27.424 122.599 27.792C122.679 28.144 122.615 28.44 122.407 28.68C121.991 29.16 121.703 29.584 121.543 29.952C121.431 30.208 121.263 30.456 121.039 30.696C120.815 30.92 120.703 31.064 120.703 31.128C120.703 31.256 120.791 31.424 120.967 31.632C121.159 31.84 121.399 32.04 121.687 32.232C122.583 32.824 123.119 33.24 123.295 33.48C123.439 33.688 123.599 33.816 123.775 33.864C123.967 33.912 124.087 33.984 124.135 34.08C124.183 34.176 124.207 34.416 124.207 34.8C124.207 35.6 123.903 36 123.295 36C123.119 36 122.631 35.648 121.831 34.944C121.047 34.24 120.575 33.744 120.415 33.456C120.351 33.328 120.231 33.192 120.055 33.048C119.847 32.872 119.703 32.728 119.623 32.616C119.271 32.248 118.943 32.36 118.639 32.952C118.559 33.128 118.383 33.384 118.111 33.72C117.823 34.072 117.655 34.312 117.607 34.44C117.463 34.76 117.207 35.016 116.839 35.208C116.471 35.384 116.207 35.384 116.047 35.208C115.759 34.872 115.583 34.64 115.519 34.512C115.471 34.368 115.487 34.144 115.567 33.84C115.647 33.568 115.719 33.376 115.783 33.264C115.863 33.152 115.975 33.056 116.119 32.976C116.279 32.912 116.431 32.768 116.575 32.544C116.719 32.304 116.927 32.04 117.199 31.752C117.615 31.288 117.903 30.96 118.063 30.768C118.143 30.672 118.279 30.52 118.471 30.312C118.663 30.088 118.791 29.936 118.855 29.856C119.063 29.616 119.231 29.384 119.359 29.16C119.487 28.936 119.623 28.808 119.767 28.776C119.895 28.744 119.983 28.688 120.031 28.608C120.079 28.528 120.135 28.36 120.199 28.104C120.247 27.896 120.367 27.648 120.559 27.36C120.767 27.072 120.943 26.896 121.087 26.832ZM133.988 23.88C134.372 23.816 134.572 23.776 134.588 23.76C134.62 23.744 134.972 23.752 135.644 23.784C136.38 23.816 136.94 23.832 137.324 23.832C137.772 23.832 138.1 23.888 138.308 24C138.484 24.112 138.628 24.168 138.74 24.168C139.028 24.168 139.276 24.464 139.484 25.056C139.676 25.568 139.732 25.992 139.652 26.328C139.588 26.648 139.356 27.008 138.956 27.408C138.3 28.064 137.972 28.448 137.972 28.56C137.972 28.704 138.204 29 138.668 29.448C139.132 29.88 139.468 30.128 139.676 30.192C139.9 30.24 140.044 30.312 140.108 30.408C140.188 30.504 140.228 30.664 140.228 30.888C140.228 31.32 140.1 31.624 139.844 31.8C139.604 31.96 139.308 31.944 138.956 31.752C138.748 31.656 138.5 31.56 138.212 31.464C137.988 31.384 137.692 31.2 137.324 30.912C136.972 30.608 136.732 30.344 136.604 30.12C136.476 29.944 136.3 29.832 136.076 29.784C135.868 29.72 135.708 29.76 135.596 29.904C135.548 29.952 135.38 30.064 135.092 30.24C134.804 30.4 134.508 30.624 134.204 30.912C133.772 31.312 133.356 31.52 132.956 31.536C132.556 31.552 132.236 31.376 131.996 31.008C131.868 30.816 131.884 30.544 132.044 30.192C132.204 29.84 132.388 29.664 132.596 29.664C132.676 29.664 132.892 29.512 133.244 29.208C133.58 28.888 133.836 28.688 134.012 28.608C134.22 28.496 134.516 28.304 134.9 28.032C135.284 27.76 135.516 27.568 135.596 27.456C135.964 27.008 136.26 26.76 136.484 26.712C136.612 26.696 136.788 26.568 137.012 26.328C137.236 26.088 137.348 25.92 137.348 25.824C137.316 25.664 137.076 25.56 136.628 25.512C136.196 25.464 135.732 25.504 135.236 25.632C134.788 25.744 134.412 25.792 134.108 25.776C133.788 25.776 133.572 25.8 133.46 25.848C133.252 25.944 133.068 25.912 132.908 25.752C132.748 25.576 132.668 25.336 132.668 25.032C132.668 24.68 132.764 24.424 132.956 24.264C133.148 24.088 133.492 23.96 133.988 23.88ZM142.244 24.36C142.372 24.216 142.492 24.136 142.604 24.12C142.716 24.104 142.868 24.152 143.06 24.264C143.252 24.376 143.38 24.432 143.444 24.432C143.508 24.432 143.58 24.488 143.66 24.6C143.756 24.712 143.812 24.816 143.828 24.912C143.86 25.04 143.916 25.24 143.996 25.512C144.092 25.784 144.116 26.064 144.068 26.352C144.004 26.688 143.996 26.896 144.044 26.976C144.108 27.04 144.3 27.096 144.62 27.144C144.812 27.16 144.996 27.208 145.172 27.288C145.332 27.384 145.476 27.432 145.604 27.432C145.764 27.432 145.868 27.504 145.916 27.648C145.98 27.792 145.98 27.968 145.916 28.176C145.868 28.384 145.764 28.568 145.604 28.728C145.444 28.872 145.332 28.96 145.268 28.992C145.204 29.008 145.044 29.016 144.788 29.016C144.324 29 144.028 29.072 143.9 29.232C143.772 29.376 143.7 29.752 143.684 30.36C143.684 30.792 143.66 31.072 143.612 31.2C143.564 31.312 143.54 31.472 143.54 31.68C143.54 31.936 143.508 32.12 143.444 32.232C143.38 32.328 143.22 32.432 142.964 32.544C142.708 32.656 142.484 32.696 142.292 32.664C142.1 32.616 141.988 32.512 141.956 32.352C141.892 32.032 141.82 31.704 141.74 31.368C141.692 31.208 141.668 30.976 141.668 30.672C141.684 30.368 141.716 30.136 141.764 29.976C141.828 29.784 141.836 29.616 141.788 29.472C141.74 29.344 141.748 29.192 141.812 29.016C141.908 28.632 141.972 27.928 142.004 26.904C142.02 26.504 142.044 26.216 142.076 26.04C142.108 25.896 142.076 25.704 141.98 25.464C141.836 25.048 141.924 24.68 142.244 24.36ZM133.82 33.864C133.948 33.832 134.06 33.832 134.156 33.864C134.268 33.88 134.428 33.88 134.636 33.864C135.228 33.816 135.836 33.832 136.46 33.912C136.892 33.976 137.236 33.968 137.492 33.888C137.748 33.824 138.028 33.816 138.332 33.864C138.636 33.912 138.884 33.928 139.076 33.912C139.556 33.848 139.86 33.816 139.988 33.816C140.116 33.816 140.268 33.848 140.444 33.912C140.684 34.008 140.868 34.032 140.996 33.984C141.252 33.904 141.54 33.936 141.86 34.08C142.1 34.176 142.292 34.224 142.436 34.224C142.676 34.208 142.9 34.384 143.108 34.752C143.316 35.104 143.42 35.488 143.42 35.904C143.42 36.208 143.476 36.52 143.588 36.84C143.668 37.08 143.708 37.264 143.708 37.392C143.724 37.504 143.716 37.808 143.684 38.304C143.652 38.864 143.612 39.192 143.564 39.288C143.516 39.4 143.364 39.528 143.108 39.672C142.276 40.088 141.86 39.736 141.86 38.616C141.86 38.312 141.82 38.048 141.74 37.824C141.66 37.552 141.62 37.28 141.62 37.008C141.62 36.608 141.572 36.336 141.476 36.192C141.38 36.032 141.18 35.928 140.876 35.88C140.236 35.768 139.508 35.784 138.692 35.928C138.42 35.976 138.18 35.976 137.972 35.928C137.764 35.88 137.58 35.888 137.42 35.952C137.292 36.016 137.196 36.048 137.132 36.048C137.068 36.032 136.932 35.992 136.724 35.928C136.436 35.832 136.188 35.816 135.98 35.88C135.772 35.928 135.508 35.928 135.188 35.88C134.852 35.816 134.628 35.808 134.516 35.856C134.196 35.984 133.892 36 133.604 35.904C133.316 35.808 133.108 35.624 132.98 35.352C132.836 35.032 132.844 34.736 133.004 34.464C133.164 34.176 133.436 33.976 133.82 33.864ZM155.031 24.48C155.143 24.368 155.231 24.312 155.295 24.312C155.359 24.312 155.487 24.36 155.679 24.456C155.967 24.6 156.135 24.736 156.183 24.864C156.247 24.992 156.255 25.288 156.207 25.752C156.175 26.008 156.143 26.176 156.111 26.256C156.095 26.336 156.031 26.432 155.919 26.544C155.775 26.688 155.679 26.872 155.631 27.096C155.583 27.368 155.375 27.768 155.007 28.296C154.863 28.536 154.759 28.736 154.695 28.896C154.615 29.072 154.503 29.216 154.359 29.328C154.215 29.44 154.127 29.6 154.095 29.808C154.079 30.032 153.983 30.28 153.807 30.552C153.647 30.84 153.543 31.056 153.495 31.2C153.383 31.584 153.231 31.88 153.039 32.088C152.863 32.264 152.743 32.432 152.679 32.592C152.647 32.736 152.567 32.904 152.439 33.096C152.311 33.272 152.247 33.384 152.247 33.432C152.247 33.512 152.167 33.688 152.007 33.96C151.847 34.232 151.711 34.432 151.599 34.56C151.423 34.752 151.303 34.944 151.239 35.136C151.207 35.28 151.159 35.392 151.095 35.472C151.047 35.552 150.927 35.672 150.735 35.832C150.575 35.976 150.415 36.224 150.255 36.576C150.079 36.944 149.887 37.232 149.679 37.44C149.471 37.68 149.327 37.928 149.247 38.184C149.167 38.456 149.087 38.616 149.007 38.664C148.383 39.048 147.967 39.24 147.759 39.24C147.551 39.24 147.383 39.056 147.255 38.688C147.159 38.432 147.135 38.192 147.183 37.968C147.247 37.728 147.407 37.408 147.663 37.008C147.919 36.592 148.079 36.28 148.143 36.072C148.207 35.88 148.319 35.68 148.479 35.472C148.623 35.28 148.727 35.096 148.791 34.92C148.871 34.696 148.967 34.496 149.079 34.32C149.207 34.112 149.319 33.896 149.415 33.672C149.527 33.432 149.623 33.28 149.703 33.216C149.767 33.136 149.831 33.016 149.895 32.856C149.975 32.68 150.095 32.504 150.255 32.328C150.415 32.136 150.511 31.96 150.543 31.8C150.559 31.656 150.663 31.448 150.855 31.176C151.303 30.472 151.559 29.992 151.623 29.736C151.655 29.576 151.743 29.384 151.887 29.16C152.031 28.936 152.143 28.728 152.223 28.536C152.335 28.328 152.463 28.176 152.607 28.08C152.751 27.968 152.855 27.8 152.919 27.576C153.079 27.048 153.279 26.6 153.519 26.232C153.679 25.976 153.791 25.744 153.855 25.536C153.999 25.088 154.247 24.816 154.599 24.72C154.775 24.688 154.919 24.608 155.031 24.48ZM160.112 23.232C160.304 23.184 160.688 23.16 161.264 23.16C161.84 23.144 162.224 23.168 162.416 23.232C162.56 23.28 162.688 23.28 162.8 23.232C163.104 23.12 163.408 23.168 163.712 23.376C163.872 23.488 163.992 23.544 164.072 23.544C164.28 23.544 164.496 23.816 164.72 24.36C164.96 24.904 165.04 25.312 164.96 25.584C164.896 25.792 164.84 26 164.792 26.208C164.728 26.464 164.616 26.672 164.456 26.832C163.896 27.392 163.576 27.76 163.496 27.936C163.432 28.096 163.528 28.304 163.784 28.56C164.008 28.8 164.184 29.04 164.312 29.28C164.472 29.552 164.664 29.728 164.888 29.808C164.92 29.824 164.952 29.944 164.984 30.168C165.032 30.376 165.04 30.536 165.008 30.648C164.992 30.776 164.864 30.952 164.624 31.176C164.384 31.384 164.208 31.496 164.096 31.512C163.984 31.528 163.84 31.48 163.664 31.368C163.504 31.256 163.312 31.16 163.088 31.08C162.896 31.032 162.76 30.968 162.68 30.888C162.6 30.808 162.464 30.592 162.272 30.24C161.856 29.52 161.432 29.312 161 29.616C160.936 29.664 160.712 29.824 160.328 30.096C159.976 30.336 159.736 30.544 159.608 30.72C159.448 30.88 159.304 31 159.176 31.08C158.68 31.288 158.368 31.392 158.24 31.392C158.112 31.392 157.944 31.28 157.736 31.056C157.464 30.736 157.36 30.4 157.424 30.048C157.504 29.68 157.72 29.448 158.072 29.352C158.248 29.304 158.448 29.184 158.672 28.992C158.928 28.784 159.264 28.536 159.68 28.248C160.656 27.56 161.272 27.024 161.528 26.64C161.64 26.48 161.72 26.376 161.768 26.328C161.832 26.28 161.928 26.24 162.056 26.208C162.248 26.16 162.44 26.04 162.632 25.848C162.824 25.64 162.92 25.448 162.92 25.272C162.92 25.08 162.616 24.968 162.008 24.936C161.4 24.888 160.896 24.952 160.496 25.128C160.304 25.208 160.088 25.224 159.848 25.176C159.592 25.128 159.424 25.12 159.344 25.152C158.944 25.344 158.624 25.304 158.384 25.032C158.144 24.744 158.12 24.384 158.312 23.952C158.36 23.856 158.528 23.736 158.816 23.592C159.12 23.432 159.36 23.352 159.536 23.352C159.696 23.352 159.888 23.312 160.112 23.232ZM168.704 23.568C168.912 23.504 169.112 23.536 169.304 23.664C169.416 23.744 169.544 23.808 169.688 23.856C169.88 23.92 170 24.144 170.048 24.528C170.112 24.912 170.088 25.368 169.976 25.896C169.896 26.232 169.848 26.776 169.832 27.528C169.816 28.264 169.784 28.696 169.736 28.824C169.704 28.936 169.72 29.144 169.784 29.448C169.848 29.752 169.856 30.04 169.808 30.312C169.76 30.6 169.736 30.864 169.736 31.104C169.736 31.488 169.608 31.712 169.352 31.776C169.208 31.808 169.08 31.864 168.968 31.944C168.728 32.104 168.496 32.12 168.272 31.992C168.064 31.848 167.944 31.616 167.912 31.296C167.896 30.992 167.864 30.776 167.816 30.648C167.768 30.52 167.76 30.152 167.792 29.544C167.824 28.936 167.808 28.56 167.744 28.416C167.68 28.256 167.488 28.176 167.168 28.176C166.896 28.176 166.632 28.104 166.376 27.96C166.12 27.8 165.952 27.632 165.872 27.456C165.808 27.28 165.84 27.12 165.968 26.976C166 26.944 166.12 26.832 166.328 26.64C166.504 26.48 166.632 26.376 166.712 26.328C166.808 26.28 166.976 26.232 167.216 26.184C167.616 26.104 167.848 25.912 167.912 25.608C167.944 25.464 167.984 25.328 168.032 25.2C168.08 25.056 168.104 24.832 168.104 24.528C168.104 23.984 168.304 23.664 168.704 23.568ZM162.056 33.024C162.376 32.976 163.112 32.952 164.264 32.952C165.176 32.968 165.768 32.992 166.04 33.024C166.312 33.056 166.6 33.152 166.904 33.312C167.096 33.424 167.248 33.48 167.36 33.48C167.632 33.48 167.896 33.64 168.152 33.96C168.296 34.136 168.416 34.248 168.512 34.296C168.688 34.392 168.832 34.688 168.944 35.184C168.976 35.392 169.032 35.6 169.112 35.808C169.288 36.224 169.344 36.656 169.28 37.104C169.232 37.536 169.088 37.888 168.848 38.16C168.656 38.384 168.56 38.56 168.56 38.688C168.56 39.184 168.304 39.432 167.792 39.432C167.6 39.432 167.44 39.48 167.312 39.576C166.768 39.976 165.936 40.184 164.816 40.2C164.288 40.216 163.928 40.24 163.736 40.272C163.544 40.304 163.384 40.288 163.256 40.224C163.128 40.144 162.976 40.12 162.8 40.152C162.608 40.168 162.304 40.088 161.888 39.912C160.864 39.416 160.216 38.904 159.944 38.376C159.784 38.104 159.648 37.896 159.536 37.752C159.024 37.112 158.952 36.32 159.32 35.376C159.464 35.008 159.592 34.648 159.704 34.296C159.8 33.944 159.92 33.696 160.064 33.552C160.208 33.408 160.376 33.352 160.568 33.384C160.712 33.416 160.912 33.376 161.168 33.264C161.392 33.152 161.688 33.072 162.056 33.024ZM165.992 34.968C165.592 34.824 165.288 34.816 165.08 34.944C165 34.992 164.824 35 164.552 34.968C164.296 34.952 164.056 34.96 163.832 34.992C163.72 35.024 163.432 35.072 162.968 35.136C162.472 35.216 162.12 35.32 161.912 35.448C161.72 35.56 161.624 35.704 161.624 35.88C161.624 35.992 161.56 36.12 161.432 36.264C161.272 36.44 161.208 36.6 161.24 36.744C161.288 36.872 161.448 37.104 161.72 37.44C161.992 37.792 162.216 38.024 162.392 38.136C162.568 38.248 162.784 38.304 163.04 38.304C163.232 38.304 163.432 38.336 163.64 38.4C164.152 38.544 164.6 38.576 164.984 38.496C165.512 38.384 165.864 38.296 166.04 38.232C166.232 38.152 166.416 38.032 166.592 37.872C166.848 37.648 166.992 37.528 167.024 37.512C167.168 37.384 167.24 37.16 167.24 36.84C167.256 36.52 167.2 36.296 167.072 36.168C166.8 35.928 166.704 35.744 166.784 35.616C166.832 35.52 166.776 35.416 166.616 35.304C166.472 35.176 166.264 35.064 165.992 34.968ZM176.721 25.92C176.993 25.856 177.377 25.848 177.873 25.896C178.385 25.944 178.737 26.024 178.929 26.136C179.169 26.264 179.377 26.344 179.553 26.376C179.777 26.408 179.993 26.528 180.201 26.736C180.425 26.944 180.553 27.168 180.585 27.408C180.617 27.536 180.681 27.712 180.777 27.936C180.921 28.24 180.945 28.544 180.849 28.848C180.785 29.008 180.753 29.224 180.753 29.496C180.753 29.8 180.681 30.064 180.537 30.288C180.409 30.512 180.161 30.752 179.793 31.008C179.553 31.184 179.297 31.392 179.025 31.632C178.753 31.856 178.601 31.992 178.569 32.04C178.361 32.424 178.633 32.904 179.385 33.48C179.609 33.656 179.785 33.84 179.913 34.032C180.041 34.256 180.153 34.392 180.249 34.44C180.313 34.456 180.393 34.496 180.489 34.56C180.601 34.608 180.649 34.824 180.633 35.208C180.617 35.592 180.545 35.848 180.417 35.976C180.033 36.376 179.641 36.416 179.241 36.096C179.097 35.984 179.009 35.928 178.977 35.928C178.897 35.928 178.785 35.864 178.641 35.736C178.497 35.608 178.385 35.48 178.305 35.352C178.193 35.176 178.041 34.992 177.849 34.8C177.657 34.624 177.561 34.512 177.561 34.464C177.561 34.432 177.473 34.296 177.297 34.056C177.121 33.8 176.977 33.616 176.865 33.504C176.769 33.408 176.681 33.368 176.601 33.384C176.537 33.4 176.409 33.504 176.217 33.696C176.009 33.904 175.833 34.048 175.689 34.128C175.513 34.208 175.065 34.624 174.345 35.376C174.185 35.552 173.961 35.688 173.673 35.784C173.401 35.88 173.209 35.896 173.097 35.832C172.633 35.592 172.393 35.216 172.377 34.704C172.361 34.176 172.569 33.808 173.001 33.6C173.225 33.504 173.473 33.328 173.745 33.072C174.033 32.832 174.401 32.56 174.849 32.256C175.313 31.936 175.649 31.68 175.857 31.488C176.097 31.296 176.305 31.136 176.481 31.008C176.657 30.88 176.801 30.696 176.913 30.456C177.009 30.232 177.137 30.088 177.297 30.024C177.617 29.88 177.809 29.776 177.873 29.712C177.953 29.648 178.033 29.52 178.113 29.328C178.225 29.072 178.321 28.896 178.401 28.8C178.561 28.56 178.569 28.376 178.425 28.248C178.297 28.12 178.025 28.048 177.609 28.032C176.841 28.016 176.313 28.064 176.025 28.176C175.785 28.256 175.265 28.296 174.465 28.296C173.729 28.296 173.305 28.272 173.193 28.224C173.081 28.176 173.009 27.976 172.977 27.624C172.929 27.144 172.993 26.816 173.169 26.64C173.345 26.464 173.729 26.352 174.321 26.304C174.705 26.256 175.033 26.192 175.305 26.112C175.561 26.032 175.833 25.992 176.121 25.992C176.393 25.976 176.593 25.952 176.721 25.92ZM184.353 25.992C184.529 25.896 184.705 25.896 184.881 25.992C184.977 26.04 185.105 26.072 185.265 26.088C185.537 26.136 185.705 26.408 185.769 26.904C185.833 27.4 185.833 28.352 185.769 29.76C185.721 31.04 185.705 31.8 185.721 32.04C185.753 32.28 185.745 32.464 185.697 32.592C185.649 32.704 185.625 32.816 185.625 32.928C185.625 33.904 185.657 34.536 185.721 34.824C185.753 35.016 185.729 35.448 185.649 36.12C185.569 36.776 185.497 37.104 185.433 37.104C185.401 37.104 185.297 37.192 185.121 37.368C184.865 37.592 184.601 37.648 184.329 37.536C184.073 37.424 183.945 37.2 183.945 36.864C183.945 36.688 183.897 36.504 183.801 36.312C183.689 36.056 183.601 35.592 183.537 34.92C183.489 34.232 183.505 33.784 183.585 33.576C183.649 33.4 183.665 33.232 183.633 33.072C183.537 32.736 183.553 32.432 183.681 32.16C183.777 31.984 183.809 31.72 183.777 31.368C183.745 30.904 183.753 30.36 183.801 29.736C183.865 29.128 183.881 28.168 183.849 26.856C183.849 26.728 183.905 26.568 184.017 26.376C184.129 26.168 184.241 26.04 184.353 25.992Z" fill="black"/>
<defs>
<filter id="filter0_d_701_20" x="0.0183105" y="0.34375" width="211.394" height="71.2449" filterUnits="userSpaceOnUse" color-interpolation-filters="sRGB">
<feFlood flood-opacity="0" result="BackgroundImageFix"/>
<feColorMatrix in="SourceAlpha" type="matrix" values="0 0 0 0 0 0 0 0 0 0 0 0 0 0 0 0 0 0 127 0" result="hardAlpha"/>
<feOffset dy="4"/>
<feGaussianBlur stdDeviation="2"/>
<feComposite in2="hardAlpha" operator="out"/>
<feColorMatrix type="matrix" values="0 0 0 0 0 0 0 0 0 0 0 0 0 0 0 0 0 0 0.25 0"/>
<feBlend mode="normal" in2="BackgroundImageFix" result="effect1_dropShadow_701_20"/>
<feBlend mode="normal" in="SourceGraphic" in2="effect1_dropShadow_701_20" result="shape"/>
</filter>
</defs>
</svg>
